%
M48
M72
T01C0.0120
T02C0.0160
T03C0.0350
T04C0.0400
%
T01
X4557Y957
X4557Y2237
X4957Y2237
X5517Y3677
X5517Y4637
X5117Y4637
X4077Y4957
X4077Y6077
X5197Y7037
X5677Y7117
X6477Y7037
X8157Y6477
X9997Y5917
X10157Y5277
X9117Y4317
X9357Y3997
X8637Y4317
X7517Y4317
X8957Y3357
X9677Y3037
X9997Y3357
X9277Y2637
X9917Y2397
X10477Y2077
X10797Y637
X13117Y1757
X14557Y2797
X16717Y2637
X15037Y957
X4557Y8237
X8557Y8557
X15597Y8557
T02
X4237Y7357
X2877Y7277
X3197Y5757
X6477Y5757
X7597Y7277
X9997Y4637
X12317Y7357
T03
X9817Y9067
X10817Y9067
X11817Y9067
X11817Y8067
X10817Y8067
X9817Y8067
T04
X10817Y6317
X11817Y6317
X11817Y5317
X10817Y5317
X10817Y4317
X11817Y4317
X11817Y3317
X10817Y3317
X17317Y3567
X18317Y3567
X18317Y4567
X17317Y4567
X17317Y5567
X18317Y5567
X18317Y6567
X17317Y6567
X17317Y7567
X18317Y7567
X18317Y8567
X17317Y8567
X17317Y2567
X18317Y2567
X18317Y1567
X17317Y1567
M30
