%
M48
M72
T01C0.0120
T02C0.0160
T03C0.0276
T04C0.0315
T05C0.0320
T06C0.0354
T07C0.0390
T08C0.0394
T09C0.0400
T10C0.0440
%
T01
X4375Y1050
X5935Y2490
X5695Y2730
X5095Y2850
X5335Y4170
X4735Y4650
X4015Y4650
X4015Y5010
X4135Y6210
X4375Y7170
X3175Y9090
X6415Y6450
X6775Y6450
X6415Y5490
X6655Y4890
X7015Y4890
X7255Y3810
X7615Y3810
X8215Y4650
X6655Y2850
X6775Y1170
X8815Y1170
X13015Y4410
X13735Y4170
X13495Y2970
X22495Y12090
X26935Y16410
X27175Y17730
X28855Y16770
X29815Y17010
X31495Y17730
X32575Y17490
X32935Y17610
X33295Y17370
X34015Y17970
X33175Y18210
X34255Y19530
X36175Y18210
X36415Y18450
X36415Y17850
X37255Y19410
X38215Y19290
X37135Y15930
X37375Y14610
X37135Y12930
X38215Y11970
X34375Y15450
X33175Y15090
X32695Y15930
X32215Y15690
X31375Y14970
X31135Y14490
X30895Y14250
X29815Y14730
X29815Y15210
X28015Y13770
X28255Y12810
X28375Y12090
X30655Y12930
X32215Y14370
X36895Y6330
X34135Y5370
X32455Y3810
X30655Y3690
X30415Y4410
X31975Y5610
X29095Y4410
X35815Y1290
X37735Y1530
X29935Y22650
X29575Y26730
X30775Y28410
X29815Y29130
X29575Y28650
X23695Y27210
X22735Y26730
X12055Y17010
X13375Y15690
X2095Y5010
X35335Y29370
X35815Y26730
T02
X13615Y17370
X3535Y6330
X2215Y6570
X2335Y7290
X3295Y4410
X2215Y3810
X7495Y3210
X36295Y29130
T03
X16785Y22950
X17285Y22950
X17785Y22950
X18285Y22950
X32785Y30950
X33285Y30950
X33785Y30950
X34285Y30950
X1185Y9500
X1185Y9000
X1185Y8500
X1185Y8000
T04
X29311Y12450
X29311Y13450
X29311Y14450
X29311Y15450
X29311Y16450
X29311Y17450
X29311Y18450
X29311Y19450
X38759Y19450
X38759Y18450
X38759Y17450
X38759Y16450
X38759Y15450
X38759Y14450
X38759Y13450
X38759Y12450
T05
X16535Y12950
X19535Y12950
X22035Y7450
X22035Y6450
X24035Y6450
X24035Y7450
X24035Y3950
X24035Y2950
X22035Y2950
X22035Y3950
X26535Y11450
X27535Y11450
X27535Y12950
X26535Y12950
X26535Y14450
X27535Y14450
X27535Y15950
X26535Y15950
X26535Y17450
X27535Y17450
X27535Y18750
X26535Y18750
X26535Y19950
X27535Y19950
X30535Y16750
X31535Y16750
X32535Y16750
X33535Y16750
X34535Y16750
X35535Y16750
X36535Y16750
X37535Y16750
X37535Y17950
X34535Y17950
X34535Y13750
X35535Y13750
X36535Y13750
X37535Y13750
X33535Y13750
X32535Y13750
X31535Y13750
X30535Y13750
X30535Y7950
X31535Y7950
X31535Y6450
X33285Y5950
X33285Y6950
X34035Y4450
X34535Y3700
X35035Y4450
X31535Y4450
X31535Y2950
X31535Y1950
X33535Y950
X34535Y950
X37535Y950
X38535Y950
X19035Y24950
X19035Y25950
X17535Y25950
X17535Y24950
X16035Y24950
X16035Y25950
X26535Y30950
X27535Y30950
X28535Y30950
X29535Y30950
X30535Y30950
X31535Y30950
X2535Y30450
X1535Y30450
X1535Y28450
X2535Y28450
X2535Y26950
X1535Y26950
X1535Y25450
X2535Y25450
X2535Y23950
X1535Y23950
X1535Y22450
X2535Y22450
T06
X4535Y29450
X5535Y29450
X5535Y28450
X4535Y28450
X4535Y27450
X5535Y27450
T07
X26535Y7950
X26535Y6950
X26535Y5950
X26535Y4950
X26535Y3950
X26535Y2950
X26535Y1950
X29535Y1950
X29535Y2950
X29535Y3950
X29535Y4950
X29535Y5950
X29535Y6950
X29535Y7950
T08
X17035Y14450
X19035Y14450
X19035Y17450
X17035Y17450
T09
X1035Y950
X1035Y1950
X1035Y2950
X1035Y3950
X1035Y5450
X1035Y6450
X8285Y6450
X8285Y7450
X8285Y8450
X8285Y9450
X9285Y9450
X9285Y8450
X9285Y7450
X9285Y6450
X9285Y5450
X8285Y5450
X9535Y3950
X9535Y2950
X9535Y1950
X9535Y950
X11535Y950
X12535Y950
X13535Y950
X14535Y950
X16535Y950
X16535Y950
X16535Y1950
X17535Y950
X18535Y950
X19535Y950
X21535Y950
X22535Y950
X23535Y950
X24535Y950
X16535Y2950
X16535Y3950
X16535Y4950
X16535Y5950
X16535Y6950
X16535Y7950
X16535Y9450
X17535Y9450
X18535Y9450
X19535Y9450
X19535Y11450
X18535Y11450
X17535Y11450
X16535Y11450
X14535Y11450
X13535Y11450
X12535Y11450
X11535Y11450
X11535Y9450
X12535Y9450
X13535Y9450
X14535Y9450
X12535Y4950
X11535Y4950
X11535Y2950
X12535Y2950
X21535Y9450
X22535Y9450
X23535Y9450
X24535Y9450
X24535Y11450
X23535Y11450
X22535Y11450
X21535Y11450
X14535Y15950
X14535Y16950
X14535Y17950
X14535Y19950
X13535Y19950
X12535Y19950
X11535Y19950
X8885Y21900
X7185Y21900
X5385Y21900
X3685Y21900
X3685Y25000
X5385Y25000
X7185Y25000
X8035Y26450
X9035Y26450
X9035Y27450
X8035Y27450
X8035Y28450
X9035Y28450
X9035Y29450
X8035Y29450
X8035Y30450
X9035Y30450
X11535Y29950
X11535Y28950
X11535Y27950
X12535Y27950
X13535Y27950
X13535Y28950
X12535Y28950
X12535Y29950
X13535Y29950
X14535Y29950
X14535Y28950
X15535Y28950
X15535Y29950
X16535Y29950
X16535Y28950
X17535Y28950
X17535Y29950
X18535Y29950
X18535Y28950
X19535Y28950
X19535Y29950
X19535Y27950
X18535Y27950
X17535Y27950
X16535Y27950
X15535Y27950
X14535Y27950
X14535Y23950
X14535Y22950
X13535Y22950
X12535Y22950
X12535Y23950
X13535Y23950
X11535Y23950
X11535Y22950
X8885Y25000
X16535Y19950
X17535Y19950
X18535Y19950
X19535Y19950
X21535Y19950
X22535Y19950
X23535Y19950
X24535Y19950
X26535Y21950
X27535Y21950
X27535Y22950
X26535Y22950
X26535Y23950
X27535Y23950
X28535Y23950
X28535Y22950
X29535Y22950
X29535Y23950
X30535Y23950
X30535Y22950
X31535Y23950
X32535Y23950
X33535Y23950
X34535Y23950
X35535Y23950
X36535Y23950
X37535Y23950
X38535Y24450
X38535Y25450
X38535Y26450
X38535Y27450
X38535Y28450
X38535Y29450
X37535Y29950
X36535Y29950
X35535Y29950
X34535Y29950
X33535Y29950
X32535Y29950
X31535Y29950
X30535Y29950
X29535Y29950
X28535Y29950
X27535Y29950
X26535Y29950
X24535Y29450
X24535Y30450
X23535Y30450
X22535Y30450
X22535Y29450
X23535Y29450
X21535Y29450
X21535Y30450
X21535Y26950
X21535Y25950
X21535Y24950
X21535Y23950
X21535Y22950
X21535Y21950
X24535Y23950
X24535Y24950
X26535Y24950
X26535Y25950
X28535Y21950
X29535Y21950
X30535Y21950
X30535Y19950
X31535Y19950
X31535Y18950
X30535Y18950
X32535Y18950
X33535Y18950
X33535Y19950
X32535Y19950
X34535Y19950
X35535Y19950
X35535Y18950
X34535Y18950
X36535Y18950
X37535Y18950
X37535Y19950
X36535Y19950
X36535Y22600
X37535Y22600
X38535Y22600
X35535Y22600
X34535Y22600
X34098Y25075
X33098Y25075
X35535Y31100
X36535Y31100
X37535Y31100
X38535Y31100
X37535Y12450
X36535Y12450
X35535Y12450
X34535Y12450
X33535Y12450
X32535Y12450
X31535Y12450
X30535Y12450
X30535Y11450
X31535Y11450
X32535Y11450
X33535Y11450
X34535Y11450
X35535Y11450
X36535Y11450
X37535Y11450
X35035Y8450
X34035Y8450
X33035Y8450
X37535Y6950
X37535Y5950
X37535Y4950
X37535Y3950
X37535Y2950
X38535Y2950
X38535Y3950
X38535Y4950
X38535Y5950
X38535Y6950
X36035Y2450
X35035Y2450
X34035Y2450
X33035Y2450
T10
X36535Y8450
X38035Y8450
M30
