G75*
%MOIN*%
%OFA0B0*%
%FSLAX24Y24*%
%IPPOS*%
%LPD*%
%AMOC8*
5,1,8,0,0,1.08239X$1,22.5*
%
%ADD10C,0.0000*%
%ADD11R,0.0340X0.0640*%
%ADD12C,0.0110*%
%ADD13C,0.0098*%
%ADD14R,0.0740X0.0840*%
%ADD15C,0.0085*%
%ADD16R,0.0591X0.0355*%
%ADD17C,0.0630*%
%ADD18R,0.0630X0.0394*%
%ADD19C,0.0177*%
%ADD20C,0.0335*%
%ADD21R,0.0260X0.0540*%
%ADD22R,0.0540X0.0260*%
%ADD23R,0.0690X0.0690*%
%ADD24C,0.0690*%
%ADD25OC8,0.0640*%
D10*
X000317Y000317D02*
X000317Y009813D01*
X019187Y009813D01*
X019187Y000317D01*
X000317Y000317D01*
D11*
X007067Y007317D03*
X008567Y007317D03*
X008567Y009317D03*
X007067Y009317D03*
D12*
X005832Y007577D02*
X005502Y007577D01*
X005502Y008057D01*
X005832Y008057D01*
X005832Y007577D01*
X005832Y007686D02*
X005502Y007686D01*
X005502Y007795D02*
X005832Y007795D01*
X005832Y007904D02*
X005502Y007904D01*
X005502Y008013D02*
X005832Y008013D01*
X005132Y007577D02*
X004802Y007577D01*
X004802Y008057D01*
X005132Y008057D01*
X005132Y007577D01*
X005132Y007686D02*
X004802Y007686D01*
X004802Y007795D02*
X005132Y007795D01*
X005132Y007904D02*
X004802Y007904D01*
X004802Y008013D02*
X005132Y008013D01*
X003332Y006557D02*
X003002Y006557D01*
X003332Y006557D02*
X003332Y006077D01*
X003002Y006077D01*
X003002Y006557D01*
X003002Y006186D02*
X003332Y006186D01*
X003332Y006295D02*
X003002Y006295D01*
X003002Y006404D02*
X003332Y006404D01*
X003332Y006513D02*
X003002Y006513D01*
X002632Y006557D02*
X002302Y006557D01*
X002632Y006557D02*
X002632Y006077D01*
X002302Y006077D01*
X002302Y006557D01*
X002302Y006186D02*
X002632Y006186D01*
X002632Y006295D02*
X002302Y006295D01*
X002302Y006404D02*
X002632Y006404D01*
X002632Y006513D02*
X002302Y006513D01*
X001832Y006077D02*
X001502Y006077D01*
X001502Y006557D01*
X001832Y006557D01*
X001832Y006077D01*
X001832Y006186D02*
X001502Y006186D01*
X001502Y006295D02*
X001832Y006295D01*
X001832Y006404D02*
X001502Y006404D01*
X001502Y006513D02*
X001832Y006513D01*
X001132Y006077D02*
X000802Y006077D01*
X000802Y006557D01*
X001132Y006557D01*
X001132Y006077D01*
X001132Y006186D02*
X000802Y006186D01*
X000802Y006295D02*
X001132Y006295D01*
X001132Y006404D02*
X000802Y006404D01*
X000802Y006513D02*
X001132Y006513D01*
X010802Y001577D02*
X011132Y001577D01*
X010802Y001577D02*
X010802Y002057D01*
X011132Y002057D01*
X011132Y001577D01*
X011132Y001686D02*
X010802Y001686D01*
X010802Y001795D02*
X011132Y001795D01*
X011132Y001904D02*
X010802Y001904D01*
X010802Y002013D02*
X011132Y002013D01*
X011502Y001577D02*
X011832Y001577D01*
X011502Y001577D02*
X011502Y002057D01*
X011832Y002057D01*
X011832Y001577D01*
X011832Y001686D02*
X011502Y001686D01*
X011502Y001795D02*
X011832Y001795D01*
X011832Y001904D02*
X011502Y001904D01*
X011502Y002013D02*
X011832Y002013D01*
D13*
X005763Y001671D02*
X005471Y001671D01*
X005471Y001963D01*
X005763Y001963D01*
X005763Y001671D01*
X005763Y001768D02*
X005471Y001768D01*
X005471Y001865D02*
X005763Y001865D01*
X005763Y001962D02*
X005471Y001962D01*
X005163Y001671D02*
X004871Y001671D01*
X004871Y001963D01*
X005163Y001963D01*
X005163Y001671D01*
X005163Y001768D02*
X004871Y001768D01*
X004871Y001865D02*
X005163Y001865D01*
X005163Y001962D02*
X004871Y001962D01*
X004871Y000671D02*
X005163Y000671D01*
X004871Y000671D02*
X004871Y000963D01*
X005163Y000963D01*
X005163Y000671D01*
X005163Y000768D02*
X004871Y000768D01*
X004871Y000865D02*
X005163Y000865D01*
X005163Y000962D02*
X004871Y000962D01*
X005471Y000671D02*
X005763Y000671D01*
X005471Y000671D02*
X005471Y000963D01*
X005763Y000963D01*
X005763Y000671D01*
X005763Y000768D02*
X005471Y000768D01*
X005471Y000865D02*
X005763Y000865D01*
X005763Y000962D02*
X005471Y000962D01*
X003263Y005463D02*
X002971Y005463D01*
X003263Y005463D02*
X003263Y005171D01*
X002971Y005171D01*
X002971Y005463D01*
X002971Y005268D02*
X003263Y005268D01*
X003263Y005365D02*
X002971Y005365D01*
X002971Y005462D02*
X003263Y005462D01*
X002663Y005463D02*
X002371Y005463D01*
X002663Y005463D02*
X002663Y005171D01*
X002371Y005171D01*
X002371Y005463D01*
X002371Y005268D02*
X002663Y005268D01*
X002663Y005365D02*
X002371Y005365D01*
X002371Y005462D02*
X002663Y005462D01*
X001763Y005171D02*
X001471Y005171D01*
X001471Y005463D01*
X001763Y005463D01*
X001763Y005171D01*
X001763Y005268D02*
X001471Y005268D01*
X001471Y005365D02*
X001763Y005365D01*
X001763Y005462D02*
X001471Y005462D01*
X001163Y005171D02*
X000871Y005171D01*
X000871Y005463D01*
X001163Y005463D01*
X001163Y005171D01*
X001163Y005268D02*
X000871Y005268D01*
X000871Y005365D02*
X001163Y005365D01*
X001163Y005462D02*
X000871Y005462D01*
X003371Y008963D02*
X003663Y008963D01*
X003663Y008671D01*
X003371Y008671D01*
X003371Y008963D01*
X003371Y008768D02*
X003663Y008768D01*
X003663Y008865D02*
X003371Y008865D01*
X003371Y008962D02*
X003663Y008962D01*
X003971Y008963D02*
X004263Y008963D01*
X004263Y008671D01*
X003971Y008671D01*
X003971Y008963D01*
X003971Y008768D02*
X004263Y008768D01*
X004263Y008865D02*
X003971Y008865D01*
X003971Y008962D02*
X004263Y008962D01*
X004871Y008963D02*
X005163Y008963D01*
X005163Y008671D01*
X004871Y008671D01*
X004871Y008963D01*
X004871Y008768D02*
X005163Y008768D01*
X005163Y008865D02*
X004871Y008865D01*
X004871Y008962D02*
X005163Y008962D01*
X005471Y008963D02*
X005763Y008963D01*
X005763Y008671D01*
X005471Y008671D01*
X005471Y008963D01*
X005471Y008768D02*
X005763Y008768D01*
X005763Y008865D02*
X005471Y008865D01*
X005471Y008962D02*
X005763Y008962D01*
D14*
X006967Y001317D03*
X008667Y001317D03*
D15*
X004245Y007664D02*
X003989Y007664D01*
X003989Y007970D01*
X004245Y007970D01*
X004245Y007664D01*
X004245Y007748D02*
X003989Y007748D01*
X003989Y007832D02*
X004245Y007832D01*
X004245Y007916D02*
X003989Y007916D01*
X003645Y007664D02*
X003389Y007664D01*
X003389Y007970D01*
X003645Y007970D01*
X003645Y007664D01*
X003645Y007748D02*
X003389Y007748D01*
X003389Y007832D02*
X003645Y007832D01*
X003645Y007916D02*
X003389Y007916D01*
D16*
X002567Y007717D03*
X002567Y008917D03*
D17*
X001870Y008422D02*
X001870Y008212D01*
X001024Y008212D01*
X001024Y008422D01*
X001870Y008422D01*
D18*
X002596Y008317D03*
D19*
X002799Y004457D02*
X002799Y003177D01*
X002621Y003177D01*
X002621Y004457D01*
X002799Y004457D01*
X002799Y003353D02*
X002621Y003353D01*
X002621Y003529D02*
X002799Y003529D01*
X002799Y003705D02*
X002621Y003705D01*
X002621Y003881D02*
X002799Y003881D01*
X002799Y004057D02*
X002621Y004057D01*
X002621Y004233D02*
X002799Y004233D01*
X002799Y004409D02*
X002621Y004409D01*
X002012Y004457D02*
X002012Y003177D01*
X001834Y003177D01*
X001834Y004457D01*
X002012Y004457D01*
X002012Y003353D02*
X001834Y003353D01*
X001834Y003529D02*
X002012Y003529D01*
X002012Y003705D02*
X001834Y003705D01*
X001834Y003881D02*
X002012Y003881D01*
X002012Y004057D02*
X001834Y004057D01*
X001834Y004233D02*
X002012Y004233D01*
X002012Y004409D02*
X001834Y004409D01*
D20*
X000949Y001283D02*
X000949Y000633D01*
X000613Y000633D01*
X000613Y001283D01*
X000949Y001283D01*
X000949Y000967D02*
X000613Y000967D01*
X004020Y001283D02*
X004020Y000633D01*
X003684Y000633D01*
X003684Y001283D01*
X004020Y001283D01*
X004020Y000967D02*
X003684Y000967D01*
D21*
X005214Y003127D03*
X005529Y003127D03*
X005844Y003127D03*
X006159Y003127D03*
X006474Y003127D03*
X006789Y003127D03*
X007104Y003127D03*
X007419Y003127D03*
X007419Y006507D03*
X007104Y006507D03*
X006789Y006507D03*
X006474Y006507D03*
X006159Y006507D03*
X005844Y006507D03*
X005529Y006507D03*
X005214Y006507D03*
D22*
X004627Y005919D03*
X004627Y005604D03*
X004627Y005289D03*
X004627Y004974D03*
X004627Y004659D03*
X004627Y004344D03*
X004627Y004029D03*
X004627Y003714D03*
X008007Y003714D03*
X008007Y004029D03*
X008007Y004344D03*
X008007Y004659D03*
X008007Y004974D03*
X008007Y005289D03*
X008007Y005604D03*
X008007Y005919D03*
D23*
X011817Y009067D03*
D24*
X010817Y009067D03*
X009817Y009067D03*
X009817Y008067D03*
X010817Y008067D03*
X011817Y008067D03*
D25*
X011817Y006317D03*
X010817Y006317D03*
X010817Y005317D03*
X011817Y005317D03*
X011817Y004317D03*
X010817Y004317D03*
X010817Y003317D03*
X011817Y003317D03*
X017317Y003567D03*
X018317Y003567D03*
X018317Y004567D03*
X017317Y004567D03*
X017317Y005567D03*
X018317Y005567D03*
X018317Y006567D03*
X017317Y006567D03*
X017317Y007567D03*
X018317Y007567D03*
X018317Y008567D03*
X017317Y008567D03*
X017317Y002567D03*
X018317Y002567D03*
X018317Y001567D03*
X017317Y001567D03*
M02*
