G75*
%MOIN*%
%OFA0B0*%
%FSLAX24Y24*%
%IPPOS*%
%LPD*%
%AMOC8*
5,1,8,0,0,1.08239X$1,22.5*
%
%ADD10C,0.0000*%
%ADD11R,0.0740X0.0740*%
%ADD12C,0.0740*%
%ADD13OC8,0.0600*%
%ADD14OC8,0.1080*%
%ADD15OC8,0.0680*%
%ADD16C,0.0820*%
%ADD17R,0.0820X0.0820*%
%ADD18C,0.0600*%
%ADD19R,0.0710X0.0867*%
%ADD20R,0.0867X0.0710*%
%ADD21C,0.0480*%
D10*
X000100Y000130D02*
X000100Y007126D01*
X038970Y007126D01*
X038970Y000130D01*
X000100Y000130D01*
D11*
X000850Y003880D03*
D12*
X003850Y003880D03*
X003850Y002880D03*
X000850Y002880D03*
X000850Y001880D03*
X003850Y001880D03*
X003850Y000880D03*
X000850Y000880D03*
D13*
X005100Y000630D03*
X007100Y000630D03*
X007100Y001630D03*
X005100Y001630D03*
X005100Y002630D03*
X007100Y002630D03*
X005350Y003880D03*
X004850Y004630D03*
X005850Y004630D03*
X006600Y005630D03*
X007600Y005630D03*
X007600Y006630D03*
X006600Y006630D03*
X008600Y006630D03*
X009600Y006630D03*
D14*
X002600Y006130D03*
X001100Y006130D03*
D15*
X004600Y006130D03*
X008600Y005130D03*
X009600Y005130D03*
X009600Y004130D03*
X008600Y004130D03*
X008600Y003130D03*
X009600Y003130D03*
X009600Y002130D03*
X008600Y002130D03*
X008600Y001130D03*
X009600Y001130D03*
X016600Y000630D03*
X017600Y000630D03*
X018600Y000630D03*
X019600Y000630D03*
X020600Y000630D03*
X021600Y000630D03*
X022600Y000630D03*
X023600Y000630D03*
X023600Y001630D03*
X022600Y001630D03*
X021600Y001630D03*
X020600Y001630D03*
X019600Y001630D03*
X018600Y001630D03*
X017600Y001630D03*
X016600Y001630D03*
X029600Y006130D03*
D16*
X029600Y005130D03*
X029600Y004130D03*
X029600Y003130D03*
X038100Y003130D03*
X038100Y002130D03*
X038100Y004130D03*
X038100Y005130D03*
D17*
X029600Y002130D03*
D18*
X030350Y001870D02*
X030350Y002390D01*
X031350Y002390D02*
X031350Y001870D01*
X032350Y001870D02*
X032350Y002390D01*
X033350Y002390D02*
X033350Y001870D01*
X034350Y001870D02*
X034350Y002390D01*
X035350Y002390D02*
X035350Y001870D01*
X036350Y001870D02*
X036350Y002390D01*
X037350Y002390D02*
X037350Y001870D01*
X025860Y002630D02*
X025340Y002630D01*
X023860Y002630D02*
X023340Y002630D01*
X021860Y002630D02*
X021340Y002630D01*
X019860Y002630D02*
X019340Y002630D01*
X017860Y002630D02*
X017340Y002630D01*
X015860Y002630D02*
X015340Y002630D01*
X013860Y002630D02*
X013340Y002630D01*
X011860Y002630D02*
X011340Y002630D01*
X011340Y003630D02*
X011860Y003630D01*
X013340Y003630D02*
X013860Y003630D01*
X015340Y003630D02*
X015860Y003630D01*
X017340Y003630D02*
X017860Y003630D01*
X019340Y003630D02*
X019860Y003630D01*
X021340Y003630D02*
X021860Y003630D01*
X023340Y003630D02*
X023860Y003630D01*
X025340Y003630D02*
X025860Y003630D01*
X025860Y004630D02*
X025340Y004630D01*
X023860Y004630D02*
X023340Y004630D01*
X021860Y004630D02*
X021340Y004630D01*
X019860Y004630D02*
X019340Y004630D01*
X017860Y004630D02*
X017340Y004630D01*
X015860Y004630D02*
X015340Y004630D01*
X013860Y004630D02*
X013340Y004630D01*
X011860Y004630D02*
X011340Y004630D01*
X030350Y004870D02*
X030350Y005390D01*
X031350Y005390D02*
X031350Y004870D01*
X032350Y004870D02*
X032350Y005390D01*
X033350Y005390D02*
X033350Y004870D01*
X034350Y004870D02*
X034350Y005390D01*
X035350Y005390D02*
X035350Y004870D01*
X036350Y004870D02*
X036350Y005390D01*
X037350Y005390D02*
X037350Y004870D01*
D19*
X028151Y004630D03*
X027049Y004630D03*
X027049Y006130D03*
X028151Y006130D03*
X028151Y003130D03*
X027049Y003130D03*
X027049Y001630D03*
X028151Y001630D03*
D20*
X025600Y005579D03*
X023600Y005579D03*
X021600Y005579D03*
X019600Y005579D03*
X017600Y005579D03*
X015600Y005579D03*
X013600Y005579D03*
X011600Y005579D03*
X011600Y006681D03*
X013600Y006681D03*
X015600Y006681D03*
X017600Y006681D03*
X019600Y006681D03*
X021600Y006681D03*
X023600Y006681D03*
X025600Y006681D03*
D21*
X029000Y006230D03*
X030700Y005830D03*
X028800Y005130D03*
X024800Y004630D03*
X028000Y003930D03*
X026400Y003530D03*
X024400Y003830D03*
X030300Y002930D03*
X027300Y002430D03*
X028700Y002230D03*
X026400Y001630D03*
X025600Y001230D03*
X024500Y000930D03*
X027600Y001030D03*
X028800Y001230D03*
X031000Y001430D03*
X024800Y002430D03*
X037400Y000930D03*
X018900Y005030D03*
X018500Y005330D03*
X020600Y005130D03*
X034000Y006230D03*
X035100Y006230D03*
X007800Y002230D03*
X004500Y001630D03*
X005700Y001030D03*
X007700Y001230D03*
X006300Y003030D03*
X003300Y004330D03*
X004400Y005030D03*
M02*
