G75*
%MOIN*%
%OFA0B0*%
%FSLAX24Y24*%
%IPPOS*%
%LPD*%
%AMOC8*
5,1,8,0,0,1.08239X$1,22.5*
%
%ADD10C,0.0000*%
%ADD11C,0.0110*%
%ADD12C,0.0098*%
%ADD13R,0.0840X0.0740*%
%ADD14R,0.0355X0.0591*%
%ADD15C,0.0630*%
%ADD16R,0.0394X0.0630*%
%ADD17OC8,0.0640*%
%ADD18C,0.0640*%
%ADD19R,0.0690X0.0690*%
%ADD20C,0.0690*%
%ADD21OC8,0.0520*%
%ADD22R,0.0625X0.0625*%
%ADD23C,0.0625*%
%ADD24OC8,0.1040*%
%ADD25C,0.0780*%
%ADD26C,0.0680*%
%ADD27OC8,0.0740*%
%ADD28OC8,0.0700*%
%ADD29C,0.0453*%
%ADD30C,0.0700*%
%ADD31C,0.0520*%
%ADD32R,0.0780X0.0780*%
%ADD33R,0.0631X0.0631*%
D10*
X000535Y000450D02*
X000535Y039446D01*
X039405Y039446D01*
X039405Y000450D01*
X000535Y000450D01*
D11*
X002495Y001185D02*
X002495Y001515D01*
X002975Y001515D01*
X002975Y001185D01*
X002495Y001185D01*
X002495Y001294D02*
X002975Y001294D01*
X002975Y001403D02*
X002495Y001403D01*
X002495Y001512D02*
X002975Y001512D01*
X002495Y001885D02*
X002495Y002215D01*
X002975Y002215D01*
X002975Y001885D01*
X002495Y001885D01*
X002495Y001994D02*
X002975Y001994D01*
X002975Y002103D02*
X002495Y002103D01*
X002495Y002212D02*
X002975Y002212D01*
X003050Y004210D02*
X002720Y004210D01*
X002720Y004690D01*
X003050Y004690D01*
X003050Y004210D01*
X003050Y004319D02*
X002720Y004319D01*
X002720Y004428D02*
X003050Y004428D01*
X003050Y004537D02*
X002720Y004537D01*
X002720Y004646D02*
X003050Y004646D01*
X002350Y004210D02*
X002020Y004210D01*
X002020Y004690D01*
X002350Y004690D01*
X002350Y004210D01*
X002350Y004319D02*
X002020Y004319D01*
X002020Y004428D02*
X002350Y004428D01*
X002350Y004537D02*
X002020Y004537D01*
X002020Y004646D02*
X002350Y004646D01*
X006045Y002215D02*
X006045Y001885D01*
X006045Y002215D02*
X006525Y002215D01*
X006525Y001885D01*
X006045Y001885D01*
X006045Y001994D02*
X006525Y001994D01*
X006525Y002103D02*
X006045Y002103D01*
X006045Y002212D02*
X006525Y002212D01*
X006045Y001515D02*
X006045Y001185D01*
X006045Y001515D02*
X006525Y001515D01*
X006525Y001185D01*
X006045Y001185D01*
X006045Y001294D02*
X006525Y001294D01*
X006525Y001403D02*
X006045Y001403D01*
X006045Y001512D02*
X006525Y001512D01*
X007270Y001710D02*
X007600Y001710D01*
X007270Y001710D02*
X007270Y002190D01*
X007600Y002190D01*
X007600Y001710D01*
X007600Y001819D02*
X007270Y001819D01*
X007270Y001928D02*
X007600Y001928D01*
X007600Y002037D02*
X007270Y002037D01*
X007270Y002146D02*
X007600Y002146D01*
X007970Y001710D02*
X008300Y001710D01*
X007970Y001710D02*
X007970Y002190D01*
X008300Y002190D01*
X008300Y001710D01*
X008300Y001819D02*
X007970Y001819D01*
X007970Y001928D02*
X008300Y001928D01*
X008300Y002037D02*
X007970Y002037D01*
X007970Y002146D02*
X008300Y002146D01*
D12*
X005181Y002046D02*
X005181Y001754D01*
X004889Y001754D01*
X004889Y002046D01*
X005181Y002046D01*
X005181Y001851D02*
X004889Y001851D01*
X004889Y001948D02*
X005181Y001948D01*
X005181Y002045D02*
X004889Y002045D01*
X005181Y001446D02*
X005181Y001154D01*
X004889Y001154D01*
X004889Y001446D01*
X005181Y001446D01*
X005181Y001251D02*
X004889Y001251D01*
X004889Y001348D02*
X005181Y001348D01*
X005181Y001445D02*
X004889Y001445D01*
X003789Y001446D02*
X003789Y001154D01*
X003789Y001446D02*
X004081Y001446D01*
X004081Y001154D01*
X003789Y001154D01*
X003789Y001251D02*
X004081Y001251D01*
X004081Y001348D02*
X003789Y001348D01*
X003789Y001445D02*
X004081Y001445D01*
X003789Y001754D02*
X003789Y002046D01*
X004081Y002046D01*
X004081Y001754D01*
X003789Y001754D01*
X003789Y001851D02*
X004081Y001851D01*
X004081Y001948D02*
X003789Y001948D01*
X003789Y002045D02*
X004081Y002045D01*
X003031Y003054D02*
X002739Y003054D01*
X002739Y003346D01*
X003031Y003346D01*
X003031Y003054D01*
X003031Y003151D02*
X002739Y003151D01*
X002739Y003248D02*
X003031Y003248D01*
X003031Y003345D02*
X002739Y003345D01*
X002431Y003054D02*
X002139Y003054D01*
X002139Y003346D01*
X002431Y003346D01*
X002431Y003054D01*
X002431Y003151D02*
X002139Y003151D01*
X002139Y003248D02*
X002431Y003248D01*
X002431Y003345D02*
X002139Y003345D01*
X005589Y006704D02*
X005881Y006704D01*
X005589Y006704D02*
X005589Y006996D01*
X005881Y006996D01*
X005881Y006704D01*
X005881Y006801D02*
X005589Y006801D01*
X005589Y006898D02*
X005881Y006898D01*
X005881Y006995D02*
X005589Y006995D01*
X006189Y006704D02*
X006481Y006704D01*
X006189Y006704D02*
X006189Y006996D01*
X006481Y006996D01*
X006481Y006704D01*
X006481Y006801D02*
X006189Y006801D01*
X006189Y006898D02*
X006481Y006898D01*
X006481Y006995D02*
X006189Y006995D01*
X005881Y008404D02*
X005881Y008696D01*
X005881Y008404D02*
X005589Y008404D01*
X005589Y008696D01*
X005881Y008696D01*
X005881Y008501D02*
X005589Y008501D01*
X005589Y008598D02*
X005881Y008598D01*
X005881Y008695D02*
X005589Y008695D01*
X005881Y009004D02*
X005881Y009296D01*
X005881Y009004D02*
X005589Y009004D01*
X005589Y009296D01*
X005881Y009296D01*
X005881Y009101D02*
X005589Y009101D01*
X005589Y009198D02*
X005881Y009198D01*
X005881Y009295D02*
X005589Y009295D01*
D13*
X005085Y005200D03*
X005085Y003500D03*
D14*
X003835Y006850D03*
X002635Y006850D03*
D15*
X003130Y008393D02*
X003340Y008393D01*
X003340Y007547D01*
X003130Y007547D01*
X003130Y008393D01*
X003130Y008176D02*
X003340Y008176D01*
D16*
X003235Y006820D03*
D17*
X008285Y006450D03*
X008285Y007450D03*
X008285Y008450D03*
X008285Y009450D03*
X009285Y009450D03*
X009285Y008450D03*
X009285Y007450D03*
X009285Y006450D03*
X009285Y005450D03*
X008285Y005450D03*
X011535Y022950D03*
X011535Y023950D03*
X012535Y023950D03*
X012535Y022950D03*
X013535Y022950D03*
X013535Y023950D03*
X014535Y023950D03*
X014535Y022950D03*
X009035Y026450D03*
X008035Y026450D03*
X008035Y027450D03*
X008035Y028450D03*
X009035Y028450D03*
X009035Y027450D03*
X009035Y029450D03*
X008035Y029450D03*
X008035Y030450D03*
X009035Y030450D03*
X021535Y030450D03*
X021535Y029450D03*
X022535Y029450D03*
X022535Y030450D03*
X023535Y030450D03*
X023535Y029450D03*
X024535Y029450D03*
X024535Y030450D03*
X026535Y022950D03*
X027535Y022950D03*
X027535Y021950D03*
X026535Y021950D03*
X028535Y021950D03*
X029535Y021950D03*
X029535Y022950D03*
X028535Y022950D03*
X030535Y022950D03*
X030535Y021950D03*
X030535Y019950D03*
X031535Y019950D03*
X031535Y018950D03*
X030535Y018950D03*
X032535Y018950D03*
X033535Y018950D03*
X033535Y019950D03*
X032535Y019950D03*
X034535Y019950D03*
X035535Y019950D03*
X035535Y018950D03*
X034535Y018950D03*
X036535Y018950D03*
X037535Y018950D03*
X037535Y019950D03*
X036535Y019950D03*
X034535Y022600D03*
X034535Y012450D03*
X035535Y012450D03*
X035535Y011450D03*
X034535Y011450D03*
X033535Y011450D03*
X032535Y011450D03*
X031535Y011450D03*
X030535Y011450D03*
X030535Y012450D03*
X031535Y012450D03*
X032535Y012450D03*
X033535Y012450D03*
X036535Y012450D03*
X037535Y012450D03*
X037535Y011450D03*
X036535Y011450D03*
X037535Y006950D03*
X037535Y005950D03*
X037535Y004950D03*
X037535Y003950D03*
X037535Y002950D03*
X038535Y002950D03*
X038535Y003950D03*
X038535Y004950D03*
X038535Y005950D03*
X038535Y006950D03*
D18*
X035035Y008150D02*
X035035Y008750D01*
X034035Y008750D02*
X034035Y008150D01*
X033035Y008150D02*
X033035Y008750D01*
X033035Y002750D02*
X033035Y002150D01*
X034035Y002150D02*
X034035Y002750D01*
X035035Y002750D02*
X035035Y002150D01*
X036035Y002150D02*
X036035Y002750D01*
X021835Y021950D02*
X021235Y021950D01*
X021235Y022950D02*
X021835Y022950D01*
X021835Y023950D02*
X021235Y023950D01*
X021235Y024950D02*
X021835Y024950D01*
X021835Y025950D02*
X021235Y025950D01*
X021235Y026950D02*
X021835Y026950D01*
X024235Y024950D02*
X024835Y024950D01*
X024835Y023950D02*
X024235Y023950D01*
X014835Y017950D02*
X014235Y017950D01*
X014235Y016950D02*
X014835Y016950D01*
X014835Y015950D02*
X014235Y015950D01*
X012535Y005250D02*
X012535Y004650D01*
X011535Y004650D02*
X011535Y005250D01*
X011535Y003250D02*
X011535Y002650D01*
X012535Y002650D02*
X012535Y003250D01*
X001335Y005450D02*
X000735Y005450D01*
X000735Y006450D02*
X001335Y006450D01*
D19*
X003685Y021900D03*
X007185Y021900D03*
D20*
X005385Y021900D03*
X005385Y025000D03*
X003685Y025000D03*
X007185Y025000D03*
X008885Y025000D03*
X008885Y021900D03*
D21*
X002535Y022450D03*
X001535Y022450D03*
X001535Y023950D03*
X002535Y023950D03*
X002535Y025450D03*
X001535Y025450D03*
X001535Y026950D03*
X002535Y026950D03*
X002535Y028450D03*
X001535Y028450D03*
X001535Y030450D03*
X002535Y030450D03*
X016035Y025950D03*
X016035Y024950D03*
X017535Y024950D03*
X017535Y025950D03*
X019035Y025950D03*
X019035Y024950D03*
X026535Y019950D03*
X027535Y019950D03*
X027535Y018750D03*
X026535Y018750D03*
X026535Y017450D03*
X027535Y017450D03*
X027535Y015950D03*
X026535Y015950D03*
X026535Y014450D03*
X027535Y014450D03*
X027535Y012950D03*
X026535Y012950D03*
X026535Y011450D03*
X027535Y011450D03*
X030535Y007950D03*
X031535Y007950D03*
X031535Y006450D03*
X033285Y005950D03*
X033285Y006950D03*
X034035Y004450D03*
X034535Y003700D03*
X035035Y004450D03*
X031535Y004450D03*
X031535Y002950D03*
X031535Y001950D03*
X033535Y000950D03*
X034535Y000950D03*
X037535Y000950D03*
X038535Y000950D03*
X024035Y002950D03*
X024035Y003950D03*
X022035Y003950D03*
X022035Y002950D03*
X022035Y006450D03*
X022035Y007450D03*
X024035Y007450D03*
X024035Y006450D03*
X019535Y012950D03*
X016535Y012950D03*
X034535Y017950D03*
X037535Y017950D03*
X031535Y030950D03*
X030535Y030950D03*
X029535Y030950D03*
X028535Y030950D03*
X027535Y030950D03*
X026535Y030950D03*
D22*
X026535Y007950D03*
D23*
X026535Y006950D03*
X026535Y005950D03*
X026535Y004950D03*
X026535Y003950D03*
X026535Y002950D03*
X026535Y001950D03*
X029535Y001950D03*
X029535Y002950D03*
X029535Y003950D03*
X029535Y004950D03*
X029535Y005950D03*
X029535Y006950D03*
X029535Y007950D03*
D24*
X036535Y008450D03*
X038035Y008450D03*
D25*
X024535Y009450D03*
X023535Y009450D03*
X022535Y009450D03*
X022535Y011450D03*
X023535Y011450D03*
X024535Y011450D03*
X021535Y011450D03*
X019535Y011450D03*
X018535Y011450D03*
X017535Y011450D03*
X016535Y011450D03*
X014535Y011450D03*
X013535Y011450D03*
X012535Y011450D03*
X011535Y011450D03*
X012535Y009450D03*
X013535Y009450D03*
X014535Y009450D03*
X017535Y009450D03*
X018535Y009450D03*
X019535Y009450D03*
X019535Y000950D03*
X018535Y000950D03*
X017535Y000950D03*
X016535Y000950D03*
X014535Y000950D03*
X013535Y000950D03*
X012535Y000950D03*
X011535Y000950D03*
X009535Y000950D03*
X009535Y001950D03*
X009535Y002950D03*
X009535Y003950D03*
X001035Y003950D03*
X001035Y002950D03*
X001035Y001950D03*
X012535Y019950D03*
X013535Y019950D03*
X014535Y019950D03*
X017535Y019950D03*
X018535Y019950D03*
X019535Y019950D03*
X022535Y019950D03*
X023535Y019950D03*
X024535Y019950D03*
X026535Y023950D03*
X027535Y023950D03*
X028535Y023950D03*
X029535Y023950D03*
X030535Y023950D03*
X031535Y023950D03*
X032535Y023950D03*
X033535Y023950D03*
X034535Y023950D03*
X035535Y023950D03*
X036535Y023950D03*
X037535Y023950D03*
X038535Y024450D03*
X038535Y025450D03*
X038535Y026450D03*
X038535Y027450D03*
X038535Y028450D03*
X038535Y029450D03*
X037535Y029950D03*
X036535Y029950D03*
X035535Y029950D03*
X034535Y029950D03*
X033535Y029950D03*
X032535Y029950D03*
X031535Y029950D03*
X030535Y029950D03*
X029535Y029950D03*
X028535Y029950D03*
X027535Y029950D03*
X026535Y029950D03*
X026535Y025950D03*
X026535Y024950D03*
X033098Y025075D03*
X034098Y025075D03*
X035535Y022600D03*
X036535Y022600D03*
X037535Y022600D03*
X037535Y031100D03*
X036535Y031100D03*
X035535Y031100D03*
X038535Y031100D03*
X024535Y000950D03*
X023535Y000950D03*
X022535Y000950D03*
X021535Y000950D03*
D26*
X005535Y027450D03*
X004535Y027450D03*
X004535Y028450D03*
X005535Y028450D03*
X005535Y029450D03*
X004535Y029450D03*
D27*
X011535Y029950D03*
X012535Y029950D03*
X013535Y029950D03*
X014535Y029950D03*
X015535Y029950D03*
X016535Y029950D03*
X017535Y029950D03*
X018535Y029950D03*
X019535Y029950D03*
X016535Y007950D03*
X016535Y006950D03*
X016535Y005950D03*
X016535Y004950D03*
X016535Y003950D03*
X016535Y002950D03*
X016535Y001950D03*
X016535Y000950D03*
D28*
X016535Y027950D03*
X017535Y027950D03*
X017535Y028950D03*
X016535Y028950D03*
X015535Y028950D03*
X014535Y028950D03*
X013535Y028950D03*
X012535Y028950D03*
X011535Y028950D03*
X011535Y027950D03*
X012535Y027950D03*
X013535Y027950D03*
X014535Y027950D03*
X015535Y027950D03*
X018535Y027950D03*
X019535Y027950D03*
X019535Y028950D03*
X018535Y028950D03*
D29*
X018285Y023157D02*
X018285Y022743D01*
X017785Y022743D02*
X017785Y023157D01*
X017285Y023157D02*
X017285Y022743D01*
X016785Y022743D02*
X016785Y023157D01*
X001392Y009500D02*
X000978Y009500D01*
X000978Y009000D02*
X001392Y009000D01*
X001392Y008500D02*
X000978Y008500D01*
X000978Y008000D02*
X001392Y008000D01*
X032785Y030743D02*
X032785Y031157D01*
X033285Y031157D02*
X033285Y030743D01*
X033785Y030743D02*
X033785Y031157D01*
X034285Y031157D02*
X034285Y030743D01*
D30*
X038759Y019450D03*
X038759Y018450D03*
X038759Y017450D03*
X038759Y016450D03*
X038759Y015450D03*
X038759Y014450D03*
X038759Y013450D03*
X038759Y012450D03*
X029311Y012450D03*
X029311Y013450D03*
X029311Y014450D03*
X029311Y015450D03*
X029311Y016450D03*
X029311Y017450D03*
X029311Y018450D03*
X029311Y019450D03*
D31*
X030535Y016990D02*
X030535Y016510D01*
X031535Y016510D02*
X031535Y016990D01*
X032535Y016990D02*
X032535Y016510D01*
X033535Y016510D02*
X033535Y016990D01*
X034535Y016990D02*
X034535Y016510D01*
X035535Y016510D02*
X035535Y016990D01*
X036535Y016990D02*
X036535Y016510D01*
X037535Y016510D02*
X037535Y016990D01*
X037535Y013990D02*
X037535Y013510D01*
X036535Y013510D02*
X036535Y013990D01*
X035535Y013990D02*
X035535Y013510D01*
X034535Y013510D02*
X034535Y013990D01*
X033535Y013990D02*
X033535Y013510D01*
X032535Y013510D02*
X032535Y013990D01*
X031535Y013990D02*
X031535Y013510D01*
X030535Y013510D02*
X030535Y013990D01*
D32*
X038535Y022600D03*
X021535Y019950D03*
X016535Y019950D03*
X011535Y019950D03*
X011535Y009450D03*
X016535Y009450D03*
X021535Y009450D03*
X001035Y000950D03*
D33*
X017035Y014450D03*
X019035Y014450D03*
X019035Y017450D03*
X017035Y017450D03*
M02*
