%
M48
M72
T01C0.0240
T02C0.0320
T03C0.0400
T04C0.0440
%
T01
X5700Y1030
X7700Y1230
X4500Y1630
X7800Y2230
X6300Y3030
X3300Y4330
X4400Y5030
X18500Y5330
X18900Y5030
X20600Y5130
X24800Y4630
X28000Y3930
X26400Y3530
X24400Y3830
X30300Y2930
X27300Y2430
X28700Y2230
X26400Y1630
X25600Y1230
X24500Y930
X27600Y1030
X28800Y1230
X31000Y1430
X24800Y2430
X37400Y930
X28800Y5130
X30700Y5830
X29000Y6230
X34000Y6230
X35100Y6230
T02
X6600Y6630
X7600Y6630
X8600Y6630
X9600Y6630
X7600Y5630
X6600Y5630
X5850Y4630
X4850Y4630
X5350Y3880
X11600Y3630
X13600Y3630
X15600Y3630
X17600Y3630
X19600Y3630
X21600Y3630
X23600Y3630
X25600Y3630
X25600Y2630
X23600Y2630
X21600Y2630
X19600Y2630
X17600Y2630
X15600Y2630
X13600Y2630
X11600Y2630
X7100Y2630
X5100Y2630
X5100Y1630
X7100Y1630
X7100Y630
X5100Y630
X11600Y4630
X13600Y4630
X15600Y4630
X17600Y4630
X19600Y4630
X21600Y4630
X23600Y4630
X25600Y4630
X30350Y5130
X31350Y5130
X32350Y5130
X33350Y5130
X34350Y5130
X35350Y5130
X36350Y5130
X37350Y5130
X37350Y2130
X36350Y2130
X35350Y2130
X34350Y2130
X33350Y2130
X32350Y2130
X31350Y2130
X30350Y2130
T03
X8600Y1130
X9600Y1130
X9600Y2130
X8600Y2130
X8600Y3130
X9600Y3130
X9600Y4130
X8600Y4130
X8600Y5130
X9600Y5130
X4600Y6130
X16600Y1630
X17600Y1630
X18600Y1630
X19600Y1630
X20600Y1630
X21600Y1630
X22600Y1630
X23600Y1630
X23600Y630
X22600Y630
X21600Y630
X20600Y630
X19600Y630
X18600Y630
X17600Y630
X16600Y630
X29600Y2130
X29600Y3130
X29600Y4130
X29600Y5130
X29600Y6130
X38100Y5130
X38100Y4130
X38100Y3130
X38100Y2130
T04
X850Y880
X3850Y880
X3850Y1880
X850Y1880
X850Y2880
X3850Y2880
X3850Y3880
X850Y3880
X1100Y6130
X2600Y6130
M30
