G75*
%MOIN*%
%OFA0B0*%
%FSLAX24Y24*%
%IPPOS*%
%LPD*%
%AMOC8*
5,1,8,0,0,1.08239X$1,22.5*
%
%ADD10C,0.0000*%
%ADD11R,0.0540X0.0260*%
%ADD12R,0.0260X0.0540*%
%ADD13OC8,0.0640*%
%ADD14C,0.0640*%
%ADD15R,0.0690X0.0690*%
%ADD16C,0.0690*%
%ADD17OC8,0.0520*%
%ADD18R,0.0625X0.0625*%
%ADD19C,0.0625*%
%ADD20OC8,0.1040*%
%ADD21C,0.0110*%
%ADD22C,0.0780*%
%ADD23R,0.0670X0.0290*%
%ADD24C,0.0680*%
%ADD25R,0.0473X0.0434*%
%ADD26OC8,0.0740*%
%ADD27OC8,0.0700*%
%ADD28C,0.0453*%
%ADD29C,0.0700*%
%ADD30C,0.0520*%
%ADD31R,0.0355X0.0355*%
%ADD32R,0.0434X0.0473*%
%ADD33C,0.0098*%
%ADD34R,0.0670X0.1221*%
%ADD35R,0.2481X0.2323*%
%ADD36R,0.0750X0.0670*%
%ADD37R,0.0780X0.0780*%
%ADD38R,0.0631X0.0631*%
D10*
X000535Y000450D02*
X000535Y039446D01*
X039405Y039446D01*
X039405Y000450D01*
X000535Y000450D01*
D11*
X002845Y002848D03*
X002845Y003163D03*
X002845Y003478D03*
X002845Y003793D03*
X002845Y004107D03*
X002845Y004422D03*
X002845Y004737D03*
X002845Y005052D03*
X006225Y005052D03*
X006225Y004737D03*
X006225Y004422D03*
X006225Y004107D03*
X006225Y003793D03*
X006225Y003478D03*
X006225Y003163D03*
X006225Y002848D03*
D12*
X005637Y002260D03*
X005322Y002260D03*
X005008Y002260D03*
X004693Y002260D03*
X004378Y002260D03*
X004063Y002260D03*
X003748Y002260D03*
X003433Y002260D03*
X003433Y005640D03*
X003748Y005640D03*
X004063Y005640D03*
X004378Y005640D03*
X004693Y005640D03*
X005008Y005640D03*
X005322Y005640D03*
X005637Y005640D03*
D13*
X008285Y005450D03*
X008285Y006450D03*
X008285Y007450D03*
X008285Y008450D03*
X008285Y009450D03*
X009285Y009450D03*
X009285Y008450D03*
X009285Y007450D03*
X009285Y006450D03*
X009285Y005450D03*
X026535Y021950D03*
X027535Y021950D03*
X027535Y022950D03*
X026535Y022950D03*
X028535Y022950D03*
X029535Y022950D03*
X029535Y021950D03*
X028535Y021950D03*
X030535Y021950D03*
X030535Y022950D03*
X030535Y019950D03*
X031535Y019950D03*
X031535Y018950D03*
X030535Y018950D03*
X032535Y018950D03*
X033535Y018950D03*
X033535Y019950D03*
X032535Y019950D03*
X034535Y019950D03*
X035535Y019950D03*
X035535Y018950D03*
X034535Y018950D03*
X036535Y018950D03*
X037535Y018950D03*
X037535Y019950D03*
X036535Y019950D03*
X034535Y022600D03*
X024535Y029450D03*
X024535Y030450D03*
X023535Y030450D03*
X022535Y030450D03*
X022535Y029450D03*
X023535Y029450D03*
X021535Y029450D03*
X021535Y030450D03*
X014535Y023950D03*
X014535Y022950D03*
X013535Y022950D03*
X012535Y022950D03*
X012535Y023950D03*
X013535Y023950D03*
X011535Y023950D03*
X011535Y022950D03*
X009035Y026450D03*
X008035Y026450D03*
X008035Y027450D03*
X008035Y028450D03*
X009035Y028450D03*
X009035Y027450D03*
X009035Y029450D03*
X008035Y029450D03*
X008035Y030450D03*
X009035Y030450D03*
X030535Y012450D03*
X031535Y012450D03*
X031535Y011450D03*
X030535Y011450D03*
X032535Y011450D03*
X033535Y011450D03*
X033535Y012450D03*
X032535Y012450D03*
X034535Y012450D03*
X035535Y012450D03*
X035535Y011450D03*
X034535Y011450D03*
X036535Y011450D03*
X037535Y011450D03*
X037535Y012450D03*
X036535Y012450D03*
X037535Y006950D03*
X037535Y005950D03*
X037535Y004950D03*
X037535Y003950D03*
X037535Y002950D03*
X038535Y002950D03*
X038535Y003950D03*
X038535Y004950D03*
X038535Y005950D03*
X038535Y006950D03*
D14*
X035035Y008150D02*
X035035Y008750D01*
X034035Y008750D02*
X034035Y008150D01*
X033035Y008150D02*
X033035Y008750D01*
X033035Y002750D02*
X033035Y002150D01*
X034035Y002150D02*
X034035Y002750D01*
X035035Y002750D02*
X035035Y002150D01*
X036035Y002150D02*
X036035Y002750D01*
X021835Y021950D02*
X021235Y021950D01*
X021235Y022950D02*
X021835Y022950D01*
X021835Y023950D02*
X021235Y023950D01*
X021235Y024950D02*
X021835Y024950D01*
X021835Y025950D02*
X021235Y025950D01*
X021235Y026950D02*
X021835Y026950D01*
X024235Y024950D02*
X024835Y024950D01*
X024835Y023950D02*
X024235Y023950D01*
X014835Y017950D02*
X014235Y017950D01*
X014235Y016950D02*
X014835Y016950D01*
X014835Y015950D02*
X014235Y015950D01*
X012535Y005250D02*
X012535Y004650D01*
X011535Y004650D02*
X011535Y005250D01*
X011535Y003250D02*
X011535Y002650D01*
X012535Y002650D02*
X012535Y003250D01*
X001335Y005450D02*
X000735Y005450D01*
X000735Y006450D02*
X001335Y006450D01*
D15*
X003685Y021900D03*
X007185Y021900D03*
D16*
X005385Y021900D03*
X005385Y025000D03*
X003685Y025000D03*
X007185Y025000D03*
X008885Y025000D03*
X008885Y021900D03*
D17*
X002535Y022450D03*
X001535Y022450D03*
X001535Y023950D03*
X002535Y023950D03*
X002535Y025450D03*
X001535Y025450D03*
X001535Y026950D03*
X002535Y026950D03*
X002535Y028450D03*
X001535Y028450D03*
X001535Y030450D03*
X002535Y030450D03*
X016035Y025950D03*
X016035Y024950D03*
X017535Y024950D03*
X017535Y025950D03*
X019035Y025950D03*
X019035Y024950D03*
X026535Y019950D03*
X027535Y019950D03*
X027535Y018750D03*
X026535Y018750D03*
X026535Y017450D03*
X027535Y017450D03*
X027535Y015950D03*
X026535Y015950D03*
X026535Y014450D03*
X027535Y014450D03*
X027535Y012950D03*
X026535Y012950D03*
X026535Y011450D03*
X027535Y011450D03*
X030535Y007950D03*
X031535Y007950D03*
X031535Y006450D03*
X033285Y005950D03*
X033285Y006950D03*
X034035Y004450D03*
X034535Y003700D03*
X035035Y004450D03*
X031535Y004450D03*
X031535Y002950D03*
X031535Y001950D03*
X033535Y000950D03*
X034535Y000950D03*
X037535Y000950D03*
X038535Y000950D03*
X024035Y002950D03*
X024035Y003950D03*
X022035Y003950D03*
X022035Y002950D03*
X022035Y006450D03*
X022035Y007450D03*
X024035Y007450D03*
X024035Y006450D03*
X019535Y012950D03*
X016535Y012950D03*
X034535Y017950D03*
X037535Y017950D03*
X031535Y030950D03*
X030535Y030950D03*
X029535Y030950D03*
X028535Y030950D03*
X027535Y030950D03*
X026535Y030950D03*
D18*
X026535Y007950D03*
D19*
X026535Y006950D03*
X026535Y005950D03*
X026535Y004950D03*
X026535Y003950D03*
X026535Y002950D03*
X026535Y001950D03*
X029535Y001950D03*
X029535Y002950D03*
X029535Y003950D03*
X029535Y004950D03*
X029535Y005950D03*
X029535Y006950D03*
X029535Y007950D03*
D20*
X036535Y008450D03*
X038035Y008450D03*
D21*
X012945Y017835D02*
X012945Y018165D01*
X013425Y018165D01*
X013425Y017835D01*
X012945Y017835D01*
X012945Y017944D02*
X013425Y017944D01*
X013425Y018053D02*
X012945Y018053D01*
X012945Y018162D02*
X013425Y018162D01*
X012945Y018535D02*
X012945Y018865D01*
X013425Y018865D01*
X013425Y018535D01*
X012945Y018535D01*
X012945Y018644D02*
X013425Y018644D01*
X013425Y018753D02*
X012945Y018753D01*
X012945Y018862D02*
X013425Y018862D01*
X011925Y018915D02*
X011925Y018585D01*
X011445Y018585D01*
X011445Y018915D01*
X011925Y018915D01*
X011925Y018694D02*
X011445Y018694D01*
X011445Y018803D02*
X011925Y018803D01*
X011925Y018912D02*
X011445Y018912D01*
X011925Y018215D02*
X011925Y017885D01*
X011445Y017885D01*
X011445Y018215D01*
X011925Y018215D01*
X011925Y017994D02*
X011445Y017994D01*
X011445Y018103D02*
X011925Y018103D01*
X011925Y018212D02*
X011445Y018212D01*
D22*
X012535Y019950D03*
X013535Y019950D03*
X014535Y019950D03*
X017535Y019950D03*
X018535Y019950D03*
X019535Y019950D03*
X022535Y019950D03*
X023535Y019950D03*
X024535Y019950D03*
X026535Y023950D03*
X027535Y023950D03*
X028535Y023950D03*
X029535Y023950D03*
X030535Y023950D03*
X031535Y023950D03*
X032535Y023950D03*
X033535Y023950D03*
X034535Y023950D03*
X035535Y023950D03*
X036535Y023950D03*
X037535Y023950D03*
X038535Y024450D03*
X038535Y025450D03*
X038535Y026450D03*
X038535Y027450D03*
X038535Y028450D03*
X038535Y029450D03*
X037535Y029950D03*
X036535Y029950D03*
X035535Y029950D03*
X034535Y029950D03*
X033535Y029950D03*
X032535Y029950D03*
X031535Y029950D03*
X030535Y029950D03*
X029535Y029950D03*
X028535Y029950D03*
X027535Y029950D03*
X026535Y029950D03*
X026535Y025950D03*
X026535Y024950D03*
X033098Y025075D03*
X034098Y025075D03*
X035535Y022600D03*
X036535Y022600D03*
X037535Y022600D03*
X037535Y031100D03*
X036535Y031100D03*
X035535Y031100D03*
X038535Y031100D03*
X024535Y011450D03*
X023535Y011450D03*
X022535Y011450D03*
X021535Y011450D03*
X019535Y011450D03*
X018535Y011450D03*
X017535Y011450D03*
X016535Y011450D03*
X014535Y011450D03*
X013535Y011450D03*
X012535Y011450D03*
X011535Y011450D03*
X012535Y009450D03*
X013535Y009450D03*
X014535Y009450D03*
X017535Y009450D03*
X018535Y009450D03*
X019535Y009450D03*
X022535Y009450D03*
X023535Y009450D03*
X024535Y009450D03*
X024535Y000950D03*
X023535Y000950D03*
X022535Y000950D03*
X021535Y000950D03*
X019535Y000950D03*
X018535Y000950D03*
X017535Y000950D03*
X016535Y000950D03*
X014535Y000950D03*
X013535Y000950D03*
X012535Y000950D03*
X011535Y000950D03*
X009535Y000950D03*
X009535Y001950D03*
X009535Y002950D03*
X009535Y003950D03*
X001035Y003950D03*
X001035Y002950D03*
X001035Y001950D03*
D23*
X011585Y006700D03*
X011585Y007200D03*
X011585Y007700D03*
X011585Y008200D03*
X014485Y008200D03*
X014485Y007700D03*
X014485Y007200D03*
X014485Y006700D03*
D24*
X005535Y027450D03*
X004535Y027450D03*
X004535Y028450D03*
X005535Y028450D03*
X005535Y029450D03*
X004535Y029450D03*
D25*
X018035Y006785D03*
X018035Y006115D03*
X018035Y003785D03*
X018035Y003115D03*
D26*
X016535Y002950D03*
X016535Y003950D03*
X016535Y004950D03*
X016535Y005950D03*
X016535Y006950D03*
X016535Y007950D03*
X016535Y001950D03*
X016535Y000950D03*
X016535Y029950D03*
X017535Y029950D03*
X018535Y029950D03*
X019535Y029950D03*
X015535Y029950D03*
X014535Y029950D03*
X013535Y029950D03*
X012535Y029950D03*
X011535Y029950D03*
D27*
X011535Y028950D03*
X011535Y027950D03*
X012535Y027950D03*
X013535Y027950D03*
X013535Y028950D03*
X012535Y028950D03*
X014535Y028950D03*
X015535Y028950D03*
X015535Y027950D03*
X014535Y027950D03*
X016535Y027950D03*
X017535Y027950D03*
X017535Y028950D03*
X016535Y028950D03*
X018535Y028950D03*
X019535Y028950D03*
X019535Y027950D03*
X018535Y027950D03*
D28*
X018285Y023157D02*
X018285Y022743D01*
X017785Y022743D02*
X017785Y023157D01*
X017285Y023157D02*
X017285Y022743D01*
X016785Y022743D02*
X016785Y023157D01*
X001392Y009500D02*
X000978Y009500D01*
X000978Y009000D02*
X001392Y009000D01*
X001392Y008500D02*
X000978Y008500D01*
X000978Y008000D02*
X001392Y008000D01*
X032785Y030743D02*
X032785Y031157D01*
X033285Y031157D02*
X033285Y030743D01*
X033785Y030743D02*
X033785Y031157D01*
X034285Y031157D02*
X034285Y030743D01*
D29*
X038759Y019450D03*
X038759Y018450D03*
X038759Y017450D03*
X038759Y016450D03*
X038759Y015450D03*
X038759Y014450D03*
X038759Y013450D03*
X038759Y012450D03*
X029311Y012450D03*
X029311Y013450D03*
X029311Y014450D03*
X029311Y015450D03*
X029311Y016450D03*
X029311Y017450D03*
X029311Y018450D03*
X029311Y019450D03*
D30*
X030535Y016990D02*
X030535Y016510D01*
X031535Y016510D02*
X031535Y016990D01*
X032535Y016990D02*
X032535Y016510D01*
X033535Y016510D02*
X033535Y016990D01*
X034535Y016990D02*
X034535Y016510D01*
X035535Y016510D02*
X035535Y016990D01*
X036535Y016990D02*
X036535Y016510D01*
X037535Y016510D02*
X037535Y016990D01*
X037535Y013990D02*
X037535Y013510D01*
X036535Y013510D02*
X036535Y013990D01*
X035535Y013990D02*
X035535Y013510D01*
X034535Y013510D02*
X034535Y013990D01*
X033535Y013990D02*
X033535Y013510D01*
X032535Y013510D02*
X032535Y013990D01*
X031535Y013990D02*
X031535Y013510D01*
X030535Y013510D02*
X030535Y013990D01*
D31*
X022330Y013450D03*
X021740Y013450D03*
X021740Y014950D03*
X022330Y014950D03*
X022330Y016450D03*
X021740Y016450D03*
X021740Y017950D03*
X022330Y017950D03*
D32*
X023200Y017950D03*
X023870Y017950D03*
X023870Y016450D03*
X023200Y016450D03*
X023200Y014950D03*
X023870Y014950D03*
X023870Y013450D03*
X023200Y013450D03*
D33*
X003981Y009304D02*
X003689Y009304D01*
X003689Y009596D01*
X003981Y009596D01*
X003981Y009304D01*
X003981Y009401D02*
X003689Y009401D01*
X003689Y009498D02*
X003981Y009498D01*
X003981Y009595D02*
X003689Y009595D01*
X003381Y009304D02*
X003089Y009304D01*
X003089Y009596D01*
X003381Y009596D01*
X003381Y009304D01*
X003381Y009401D02*
X003089Y009401D01*
X003089Y009498D02*
X003381Y009498D01*
X003381Y009595D02*
X003089Y009595D01*
X003089Y008596D02*
X003381Y008596D01*
X003381Y008304D01*
X003089Y008304D01*
X003089Y008596D01*
X003089Y008401D02*
X003381Y008401D01*
X003381Y008498D02*
X003089Y008498D01*
X003089Y008595D02*
X003381Y008595D01*
X003689Y008596D02*
X003981Y008596D01*
X003981Y008304D01*
X003689Y008304D01*
X003689Y008596D01*
X003689Y008401D02*
X003981Y008401D01*
X003981Y008498D02*
X003689Y008498D01*
X003689Y008595D02*
X003981Y008595D01*
X003981Y007304D02*
X003689Y007304D01*
X003689Y007596D01*
X003981Y007596D01*
X003981Y007304D01*
X003981Y007401D02*
X003689Y007401D01*
X003689Y007498D02*
X003981Y007498D01*
X003981Y007595D02*
X003689Y007595D01*
X003381Y007304D02*
X003089Y007304D01*
X003089Y007596D01*
X003381Y007596D01*
X003381Y007304D01*
X003381Y007401D02*
X003089Y007401D01*
X003089Y007498D02*
X003381Y007498D01*
X003381Y007595D02*
X003089Y007595D01*
D34*
X011535Y016477D03*
X013335Y016477D03*
D35*
X012435Y013650D03*
D36*
X014535Y013390D03*
X014535Y014510D03*
X014385Y005560D03*
X014385Y004440D03*
D37*
X016535Y009450D03*
X021535Y009450D03*
X011535Y009450D03*
X001035Y000950D03*
X011535Y019950D03*
X016535Y019950D03*
X021535Y019950D03*
X038535Y022600D03*
D38*
X019035Y017450D03*
X017035Y017450D03*
X017035Y014450D03*
X019035Y014450D03*
M02*
