G75*
%MOIN*%
%OFA0B0*%
%FSLAX24Y24*%
%IPPOS*%
%LPD*%
%AMOC8*
5,1,8,0,0,1.08239X$1,22.5*
%
%ADD10C,0.0000*%
%ADD11C,0.0040*%
D10*
X000100Y000130D02*
X000100Y007126D01*
X038970Y007126D01*
X038970Y000130D01*
X000100Y000130D01*
D11*
X027233Y000727D02*
X027310Y000650D01*
X027464Y000650D01*
X027540Y000727D01*
X027694Y000650D02*
X027694Y001110D01*
X027540Y001110D02*
X027540Y000880D01*
X027387Y000957D01*
X027310Y000957D01*
X027233Y000880D01*
X027233Y000727D01*
X027694Y000650D02*
X027847Y000803D01*
X028001Y000650D01*
X028001Y001110D01*
X028154Y001034D02*
X028231Y001110D01*
X028384Y001110D01*
X028461Y001034D01*
X028461Y000727D01*
X028384Y000650D01*
X028231Y000650D01*
X028154Y000727D01*
X028154Y001034D01*
X028615Y001034D02*
X028691Y001110D01*
X028922Y001110D01*
X028922Y000650D01*
X028768Y000803D02*
X028615Y000650D01*
X028691Y000803D02*
X028922Y000803D01*
X029075Y000880D02*
X029382Y000880D01*
X029535Y000880D02*
X029612Y000803D01*
X029842Y000803D01*
X029689Y000803D02*
X029535Y000650D01*
X029842Y000650D02*
X029842Y001110D01*
X029612Y001110D01*
X029535Y001034D01*
X029535Y000880D01*
X028691Y000803D02*
X028615Y000880D01*
X028615Y001034D01*
X027540Y001110D02*
X027233Y001110D01*
X027310Y002150D02*
X027233Y002227D01*
X027233Y002303D01*
X027310Y002380D01*
X027540Y002380D01*
X027540Y002227D01*
X027464Y002150D01*
X027310Y002150D01*
X027694Y002150D02*
X027694Y002610D01*
X027540Y002380D02*
X027387Y002534D01*
X027233Y002610D01*
X028001Y002610D02*
X028001Y002150D01*
X027847Y002303D01*
X027694Y002150D01*
X028154Y002227D02*
X028231Y002150D01*
X028384Y002150D01*
X028461Y002227D01*
X028461Y002534D01*
X028384Y002610D01*
X028231Y002610D01*
X028154Y002534D01*
X028154Y002227D01*
X028615Y002150D02*
X028768Y002303D01*
X028691Y002303D02*
X028922Y002303D01*
X029075Y002380D02*
X029382Y002380D01*
X029535Y002380D02*
X029612Y002303D01*
X029842Y002303D01*
X029689Y002303D02*
X029535Y002150D01*
X029842Y002150D02*
X029842Y002610D01*
X029612Y002610D01*
X029535Y002534D01*
X029535Y002380D01*
X028691Y002303D02*
X028615Y002380D01*
X028615Y002534D01*
X028691Y002610D01*
X028922Y002610D01*
X028922Y002150D01*
X028922Y003650D02*
X028922Y004110D01*
X028691Y004110D01*
X028615Y004034D01*
X028615Y003880D01*
X028691Y003803D01*
X028922Y003803D01*
X028768Y003803D02*
X028615Y003650D01*
X028461Y003727D02*
X028384Y003650D01*
X028231Y003650D01*
X028154Y003727D01*
X028154Y004034D01*
X028231Y004110D01*
X028384Y004110D01*
X028461Y004034D01*
X028461Y003727D01*
X028001Y003650D02*
X027847Y003803D01*
X027694Y003650D01*
X027694Y004110D01*
X027540Y004110D02*
X027233Y004110D01*
X027233Y004034D01*
X027540Y003727D01*
X027540Y003650D01*
X028001Y003650D02*
X028001Y004110D01*
X029075Y003880D02*
X029382Y003880D01*
X029535Y003880D02*
X029612Y003803D01*
X029842Y003803D01*
X029689Y003803D02*
X029535Y003650D01*
X029842Y003650D02*
X029842Y004110D01*
X029612Y004110D01*
X029535Y004034D01*
X029535Y003880D01*
X029535Y005150D02*
X029689Y005303D01*
X029612Y005303D02*
X029842Y005303D01*
X029612Y005303D02*
X029535Y005380D01*
X029535Y005534D01*
X029612Y005610D01*
X029842Y005610D01*
X029842Y005150D01*
X028922Y005150D02*
X028922Y005610D01*
X028691Y005610D01*
X028615Y005534D01*
X028615Y005380D01*
X028691Y005303D01*
X028922Y005303D01*
X028768Y005303D02*
X028615Y005150D01*
X028461Y005227D02*
X028384Y005150D01*
X028231Y005150D01*
X028154Y005227D01*
X028154Y005534D01*
X028231Y005610D01*
X028384Y005610D01*
X028461Y005534D01*
X028461Y005227D01*
X028001Y005150D02*
X027847Y005303D01*
X027694Y005150D01*
X027694Y005610D01*
X027540Y005534D02*
X027464Y005610D01*
X027310Y005610D01*
X027233Y005534D01*
X027233Y005457D01*
X027310Y005380D01*
X027464Y005380D01*
X027540Y005457D01*
X027540Y005534D01*
X028001Y005610D02*
X028001Y005150D01*
X027540Y005227D02*
X027540Y005303D01*
X027464Y005380D01*
X027310Y005380D02*
X027233Y005303D01*
X027233Y005227D01*
X027310Y005150D01*
X027464Y005150D01*
X027540Y005227D01*
X029075Y005380D02*
X029382Y005380D01*
M02*
