G75*
%MOIN*%
%OFA0B0*%
%FSLAX24Y24*%
%IPPOS*%
%LPD*%
%AMOC8*
5,1,8,0,0,1.08239X$1,22.5*
%
%ADD10C,0.0000*%
%ADD11R,0.0650X0.0650*%
%ADD12C,0.0650*%
%ADD13OC8,0.0600*%
%ADD14C,0.0100*%
%ADD15C,0.0280*%
%ADD16C,0.0080*%
%ADD17C,0.0240*%
D10*
X000317Y000317D02*
X000317Y009813D01*
X019187Y009813D01*
X019187Y000317D01*
X000317Y000317D01*
D11*
X011817Y009067D03*
D12*
X010817Y009067D03*
X009817Y009067D03*
X009817Y008067D03*
X010817Y008067D03*
X011817Y008067D03*
D13*
X011817Y006317D03*
X010817Y006317D03*
X010817Y005317D03*
X011817Y005317D03*
X011817Y004317D03*
X010817Y004317D03*
X010817Y003317D03*
X011817Y003317D03*
X017317Y003567D03*
X018317Y003567D03*
X018317Y004567D03*
X017317Y004567D03*
X017317Y005567D03*
X018317Y005567D03*
X018317Y006567D03*
X017317Y006567D03*
X017317Y007567D03*
X018317Y007567D03*
X018317Y008567D03*
X017317Y008567D03*
X017317Y002567D03*
X018317Y002567D03*
X018317Y001567D03*
X017317Y001567D03*
D14*
X009997Y004637D02*
X007597Y004637D01*
X006477Y005757D01*
X003197Y005757D01*
X004237Y007357D02*
X004877Y006717D01*
X007517Y006717D01*
X007837Y007037D01*
X007597Y007277D01*
X007837Y007037D02*
X008797Y007997D01*
X009757Y007997D01*
X009817Y008067D01*
X009837Y007997D01*
X010317Y007517D01*
X012317Y007517D01*
X012317Y007357D01*
X012317Y007517D02*
X017277Y007517D01*
X017317Y007567D01*
X017837Y008077D02*
X011837Y008077D01*
X011817Y008067D01*
X017837Y008077D02*
X018317Y008557D01*
X018317Y008567D01*
X004237Y007357D02*
X002957Y007357D01*
X002877Y007277D01*
D15*
X002877Y007277D03*
X004237Y007357D03*
X003197Y005757D03*
X006477Y005757D03*
X007597Y007277D03*
X009997Y004637D03*
X012317Y007357D03*
D16*
X011917Y007037D02*
X012877Y006077D01*
X017837Y006077D01*
X018317Y006557D01*
X018317Y006567D01*
X018317Y004637D02*
X018317Y004567D01*
X018317Y004637D02*
X018797Y004637D01*
X018797Y008797D01*
X017997Y009597D01*
X005917Y009597D01*
X004557Y008237D01*
X005757Y007597D02*
X007997Y007597D01*
X008957Y008557D01*
X015597Y008557D01*
X011917Y007037D02*
X008157Y007037D01*
X007277Y006157D01*
X004157Y006157D01*
X004077Y006077D01*
X004637Y005517D02*
X005197Y005517D01*
X005837Y004877D01*
X005837Y003997D01*
X005437Y003997D01*
X005197Y003757D01*
X005197Y002637D01*
X009277Y002637D01*
X009357Y002237D02*
X009917Y002797D01*
X014557Y002797D01*
X013117Y001757D02*
X005037Y001757D01*
X004557Y002237D01*
X004957Y002237D02*
X009357Y002237D01*
X009917Y002397D02*
X016557Y002397D01*
X016637Y002317D01*
X017037Y002317D01*
X017277Y002557D01*
X017317Y002567D01*
X017117Y003037D02*
X016717Y002637D01*
X017117Y003037D02*
X017837Y003037D01*
X018317Y003517D01*
X018317Y003567D01*
X017837Y004077D02*
X018797Y004077D01*
X018797Y001357D01*
X018077Y000637D01*
X010797Y000637D01*
X010477Y002077D02*
X016797Y002077D01*
X017277Y001597D01*
X017317Y001567D01*
X016877Y001277D02*
X017117Y001037D01*
X017517Y001037D01*
X017837Y001357D01*
X017837Y002557D01*
X018317Y002557D01*
X018317Y002567D01*
X017317Y003567D02*
X017277Y003597D01*
X017037Y003837D01*
X009517Y003837D01*
X009357Y003997D01*
X009117Y004317D02*
X010817Y004317D01*
X010637Y004797D02*
X011277Y004797D01*
X011757Y004317D01*
X011817Y004317D01*
X010637Y004797D02*
X010157Y005277D01*
X009997Y005837D02*
X009997Y005917D01*
X009997Y005837D02*
X008797Y005837D01*
X008157Y006477D01*
X006477Y007037D02*
X006397Y007117D01*
X005677Y007117D01*
X005757Y007597D02*
X005197Y007037D01*
X004637Y005517D02*
X004077Y004957D01*
X003837Y004637D02*
X002557Y005917D01*
X002557Y007917D01*
X007997Y007917D01*
X008637Y008557D01*
X008557Y008557D01*
X008637Y008557D02*
X009117Y009037D01*
X009757Y009037D01*
X009817Y009067D01*
X009997Y005837D02*
X011277Y005837D01*
X011757Y005357D01*
X011817Y005317D01*
X009997Y003357D02*
X009597Y003357D01*
X008637Y004317D01*
X008477Y003357D02*
X007517Y004317D01*
X008477Y003357D02*
X008957Y003357D01*
X009677Y003037D02*
X006157Y003037D01*
X005517Y003677D01*
X005517Y004637D02*
X003757Y002877D01*
X003357Y002877D01*
X003117Y002637D01*
X003117Y001277D01*
X016877Y001277D01*
X015037Y000957D02*
X004557Y000957D01*
X005117Y004637D02*
X003837Y004637D01*
X017317Y004567D02*
X017357Y004557D01*
X017837Y004077D01*
D17*
X016717Y002637D03*
X014557Y002797D03*
X013117Y001757D03*
X015037Y000957D03*
X010797Y000637D03*
X010477Y002077D03*
X009917Y002397D03*
X009277Y002637D03*
X009677Y003037D03*
X009997Y003357D03*
X009357Y003997D03*
X009117Y004317D03*
X008637Y004317D03*
X007517Y004317D03*
X008957Y003357D03*
X010157Y005277D03*
X009997Y005917D03*
X008157Y006477D03*
X006477Y007037D03*
X005677Y007117D03*
X005197Y007037D03*
X004077Y006077D03*
X004077Y004957D03*
X005117Y004637D03*
X005517Y004637D03*
X005517Y003677D03*
X004957Y002237D03*
X004557Y002237D03*
X004557Y000957D03*
X004557Y008237D03*
X008557Y008557D03*
X015597Y008557D03*
M02*
