G75*
%MOIN*%
%OFA0B0*%
%FSLAX24Y24*%
%IPPOS*%
%LPD*%
%AMOC8*
5,1,8,0,0,1.08239X$1,22.5*
%
%ADD10C,0.0000*%
%ADD11C,0.0060*%
%ADD12C,0.0100*%
%ADD13C,0.0050*%
%ADD14C,0.0080*%
%ADD15C,0.0200*%
%ADD16C,0.0030*%
%ADD17C,0.0120*%
%ADD18R,0.0500X0.7000*%
%ADD19C,0.0240*%
%ADD20R,0.0059X0.0118*%
%ADD21R,0.0118X0.0118*%
%ADD22C,0.0040*%
D10*
X000535Y000725D02*
X000535Y039721D01*
X039405Y039721D01*
X039405Y000725D01*
X000535Y000725D01*
D11*
X001035Y001475D02*
X001285Y001225D01*
X001785Y001225D01*
X002035Y001475D01*
X002285Y001225D01*
X002785Y001225D01*
X003035Y001475D01*
X003035Y001975D01*
X002785Y002225D01*
X002285Y002225D01*
X002035Y001975D01*
X002035Y001475D01*
X002035Y001975D02*
X001785Y002225D01*
X001285Y002225D01*
X001035Y001975D01*
X001035Y001475D01*
X000985Y003125D02*
X000985Y003465D01*
X001155Y003465D01*
X001212Y003409D01*
X001212Y003295D01*
X001155Y003238D01*
X000985Y003238D01*
X001353Y003182D02*
X001410Y003125D01*
X001524Y003125D01*
X001580Y003182D01*
X001580Y003409D01*
X001524Y003465D01*
X001410Y003465D01*
X001353Y003409D01*
X001353Y003182D01*
X001722Y003125D02*
X001835Y003238D01*
X001949Y003125D01*
X001949Y003465D01*
X002090Y003465D02*
X002090Y003125D01*
X002317Y003125D01*
X002458Y003125D02*
X002458Y003465D01*
X002628Y003465D01*
X002685Y003409D01*
X002685Y003295D01*
X002628Y003238D01*
X002458Y003238D01*
X002572Y003238D02*
X002685Y003125D01*
X002317Y003465D02*
X002090Y003465D01*
X002090Y003295D02*
X002203Y003295D01*
X001722Y003465D02*
X001722Y003125D01*
X003655Y004845D02*
X003655Y007465D01*
X003795Y007605D01*
X006415Y007605D01*
X006415Y004845D01*
X003655Y004845D01*
X004399Y002864D02*
X004399Y002637D01*
X004399Y002750D02*
X004059Y002750D01*
X004172Y002637D01*
X004059Y002495D02*
X004059Y002382D01*
X004059Y002439D02*
X004342Y002439D01*
X004399Y002382D01*
X004399Y002325D01*
X004342Y002268D01*
X007265Y004868D02*
X007378Y004755D01*
X007605Y004755D01*
X007435Y004755D02*
X007435Y004982D01*
X007378Y004982D02*
X007605Y004982D01*
X007605Y005123D02*
X007265Y005123D01*
X007605Y005350D01*
X007265Y005350D01*
X007265Y005492D02*
X007605Y005718D01*
X007265Y005718D01*
X007378Y005860D02*
X007265Y005973D01*
X007378Y006087D01*
X007605Y006087D01*
X007605Y006228D02*
X007265Y006228D01*
X007265Y006398D01*
X007321Y006455D01*
X007435Y006455D01*
X007492Y006398D01*
X007492Y006228D01*
X007492Y006342D02*
X007605Y006455D01*
X007605Y006597D02*
X007605Y006823D01*
X007605Y006965D02*
X007265Y006965D01*
X007265Y007192D01*
X007435Y007078D02*
X007435Y006965D01*
X007265Y006823D02*
X007265Y006597D01*
X007605Y006597D01*
X007435Y006597D02*
X007435Y006710D01*
X007785Y006475D02*
X007785Y005975D01*
X008035Y005725D01*
X007785Y005475D01*
X007785Y004975D01*
X008035Y004725D01*
X009535Y004725D01*
X009785Y004975D01*
X009785Y005475D01*
X009535Y005725D01*
X009785Y005975D01*
X009785Y006475D01*
X009535Y006725D01*
X009785Y006975D01*
X009785Y007475D01*
X009535Y007725D01*
X009785Y007975D01*
X009785Y008475D01*
X009535Y008725D01*
X009035Y008725D01*
X008785Y008975D01*
X008785Y009475D01*
X009035Y009725D01*
X009535Y009725D01*
X009785Y009475D01*
X009785Y008975D01*
X009535Y008725D01*
X008035Y008725D01*
X008535Y008725D01*
X008785Y008975D01*
X008785Y009475D01*
X008535Y009725D01*
X008035Y009725D01*
X007785Y009475D01*
X007785Y008975D01*
X008035Y008725D01*
X007785Y008475D01*
X007785Y007975D01*
X008035Y007725D01*
X007785Y007475D01*
X007785Y006975D01*
X008035Y006725D01*
X007785Y006475D01*
X007435Y006087D02*
X007435Y005860D01*
X007378Y005860D02*
X007605Y005860D01*
X007605Y005492D02*
X007265Y005492D01*
X007378Y004982D02*
X007265Y004868D01*
X011785Y011225D02*
X011535Y011475D01*
X011535Y012975D01*
X011785Y013225D01*
X012285Y013225D01*
X012535Y012975D01*
X012785Y013225D01*
X013285Y013225D01*
X013535Y012975D01*
X013785Y013225D01*
X014285Y013225D01*
X014535Y012975D01*
X014535Y011475D01*
X014285Y011225D01*
X013785Y011225D01*
X013535Y011475D01*
X013285Y011225D01*
X012785Y011225D01*
X012535Y011475D01*
X012285Y011225D01*
X011785Y011225D01*
X014035Y013505D02*
X013978Y013562D01*
X013978Y013789D01*
X014035Y013845D01*
X014149Y013845D01*
X014205Y013789D01*
X014347Y013789D02*
X014347Y013732D01*
X014403Y013675D01*
X014574Y013675D01*
X014574Y013562D02*
X014574Y013789D01*
X014517Y013845D01*
X014403Y013845D01*
X014347Y013789D01*
X014347Y013562D02*
X014403Y013505D01*
X014517Y013505D01*
X014574Y013562D01*
X014205Y013562D02*
X014149Y013505D01*
X014035Y013505D01*
X013978Y015555D02*
X014205Y015555D01*
X014092Y015555D02*
X014092Y015895D01*
X013978Y015782D01*
X013837Y015839D02*
X013780Y015895D01*
X013667Y015895D01*
X013610Y015839D01*
X013610Y015612D01*
X013667Y015555D01*
X013780Y015555D01*
X013837Y015612D01*
X014347Y015612D02*
X014574Y015839D01*
X014574Y015612D01*
X014517Y015555D01*
X014403Y015555D01*
X014347Y015612D01*
X014347Y015839D01*
X014403Y015895D01*
X014517Y015895D01*
X014574Y015839D01*
X016615Y009395D02*
X016785Y009395D01*
X016842Y009339D01*
X016842Y009225D01*
X016785Y009168D01*
X016615Y009168D01*
X016615Y009055D02*
X016615Y009395D01*
X016729Y009168D02*
X016842Y009055D01*
X016983Y009055D02*
X017210Y009055D01*
X017097Y009055D02*
X017097Y009395D01*
X016983Y009282D01*
X017352Y009339D02*
X017408Y009395D01*
X017522Y009395D01*
X017579Y009339D01*
X017579Y009282D01*
X017352Y009055D01*
X017579Y009055D01*
X021235Y008925D02*
X021235Y008425D01*
X021485Y008175D01*
X021985Y008175D01*
X022235Y008425D01*
X022235Y008925D01*
X021985Y009175D01*
X021485Y009175D01*
X021235Y008925D01*
X021485Y009175D02*
X021235Y009425D01*
X021235Y009925D01*
X021485Y010175D01*
X021985Y010175D01*
X022235Y009925D01*
X022235Y009425D01*
X021985Y009175D01*
X021985Y008175D02*
X022235Y007925D01*
X022235Y007425D01*
X021985Y007175D01*
X022235Y006925D01*
X022235Y006425D01*
X021985Y006175D01*
X022235Y005925D01*
X022235Y005425D01*
X021985Y005175D01*
X021485Y005175D01*
X021235Y005425D01*
X021235Y005925D01*
X021485Y006175D01*
X021235Y006425D01*
X021235Y006925D01*
X021485Y007175D01*
X021235Y007425D01*
X021235Y007925D01*
X021485Y008175D01*
X021485Y007175D02*
X021985Y007175D01*
X021985Y006175D02*
X021485Y006175D01*
X021485Y005175D02*
X021235Y004925D01*
X021235Y004425D01*
X021485Y004175D01*
X021235Y003925D01*
X021235Y003425D01*
X021485Y003175D01*
X021235Y002925D01*
X021235Y002425D01*
X021485Y002175D01*
X021985Y002175D01*
X022235Y002425D01*
X022235Y002925D01*
X021985Y003175D01*
X021485Y003175D01*
X021985Y003175D02*
X022235Y003425D01*
X022235Y003925D01*
X021985Y004175D01*
X021485Y004175D01*
X021985Y004175D02*
X022235Y004425D01*
X022235Y004925D01*
X021985Y005175D01*
X023835Y004925D02*
X023835Y004425D01*
X024085Y004175D01*
X023835Y003925D01*
X023835Y003425D01*
X024085Y003175D01*
X023835Y002925D01*
X023835Y002425D01*
X024085Y002175D01*
X024585Y002175D01*
X024835Y002425D01*
X024835Y002925D01*
X024585Y003175D01*
X024085Y003175D01*
X024585Y003175D02*
X024835Y003425D01*
X024835Y003925D01*
X024585Y004175D01*
X024085Y004175D01*
X024585Y004175D02*
X024835Y004425D01*
X024835Y004925D01*
X024585Y005175D01*
X024085Y005175D01*
X023835Y005425D01*
X023835Y005925D01*
X024085Y006175D01*
X023835Y006425D01*
X023835Y006925D01*
X024085Y007175D01*
X023835Y007425D01*
X023835Y007925D01*
X024085Y008175D01*
X023835Y008425D01*
X023835Y008925D01*
X024085Y009175D01*
X023835Y009425D01*
X023835Y009925D01*
X024085Y010175D01*
X024585Y010175D01*
X024835Y009925D01*
X024835Y009425D01*
X024585Y009175D01*
X024835Y008925D01*
X024835Y008425D01*
X024585Y008175D01*
X024085Y008175D01*
X024585Y008175D02*
X024835Y007925D01*
X024835Y007425D01*
X024585Y007175D01*
X024835Y006925D01*
X024835Y006425D01*
X024585Y006175D01*
X024835Y005925D01*
X024835Y005425D01*
X024585Y005175D01*
X024085Y005175D02*
X023835Y004925D01*
X024085Y006175D02*
X024585Y006175D01*
X024585Y007175D02*
X024085Y007175D01*
X024085Y009175D02*
X024585Y009175D01*
X027135Y009105D02*
X027135Y008655D01*
X027135Y009105D02*
X028415Y009105D01*
X028655Y009105D01*
X029935Y009105D01*
X029935Y008635D01*
X029935Y007815D02*
X029935Y007635D01*
X029935Y006815D02*
X029935Y006635D01*
X029935Y005815D02*
X029935Y005635D01*
X029935Y004815D02*
X029935Y004635D01*
X029935Y003815D02*
X029935Y003635D01*
X029935Y002815D02*
X029935Y002635D01*
X030665Y002648D02*
X030721Y002592D01*
X030665Y002648D02*
X030665Y002762D01*
X030721Y002818D01*
X030778Y002818D01*
X031005Y002592D01*
X031005Y002818D01*
X031005Y002450D02*
X031005Y002223D01*
X031005Y002337D02*
X030665Y002337D01*
X030778Y002223D01*
X030721Y002082D02*
X030665Y002025D01*
X030665Y001912D01*
X030721Y001855D01*
X030948Y001855D01*
X031005Y001912D01*
X031005Y002025D01*
X030948Y002082D01*
X031135Y001875D02*
X031135Y003575D01*
X031137Y003592D01*
X031141Y003609D01*
X031148Y003625D01*
X031158Y003639D01*
X031171Y003652D01*
X031185Y003662D01*
X031201Y003669D01*
X031218Y003673D01*
X031235Y003675D01*
X032835Y003675D01*
X032852Y003673D01*
X032869Y003669D01*
X032885Y003662D01*
X032899Y003652D01*
X032912Y003639D01*
X032922Y003625D01*
X032929Y003609D01*
X032933Y003592D01*
X032935Y003575D01*
X032935Y001875D01*
X032933Y001858D01*
X032929Y001841D01*
X032922Y001825D01*
X032912Y001811D01*
X032899Y001798D01*
X032885Y001788D01*
X032869Y001781D01*
X032852Y001777D01*
X032835Y001775D01*
X031235Y001775D01*
X031218Y001777D01*
X031201Y001781D01*
X031185Y001788D01*
X031171Y001798D01*
X031158Y001811D01*
X031148Y001825D01*
X031141Y001841D01*
X031137Y001858D01*
X031135Y001875D01*
X032035Y002575D02*
X032035Y002625D01*
X032035Y002825D02*
X032035Y002875D01*
X033035Y002975D02*
X033035Y002475D01*
X033285Y002225D01*
X033785Y002225D01*
X034035Y002475D01*
X034285Y002225D01*
X034785Y002225D01*
X035035Y002475D01*
X035035Y002975D01*
X034785Y003225D01*
X034285Y003225D01*
X034035Y002975D01*
X034035Y002475D01*
X034035Y002975D02*
X033785Y003225D01*
X033285Y003225D01*
X033035Y002975D01*
X032898Y004500D02*
X032671Y004500D01*
X032615Y004557D01*
X032615Y004670D01*
X032671Y004727D01*
X032728Y004868D02*
X032615Y004982D01*
X032955Y004982D01*
X032955Y005095D02*
X032955Y004868D01*
X032898Y004727D02*
X032955Y004670D01*
X032955Y004557D01*
X032898Y004500D01*
X033490Y004825D02*
X033648Y004825D01*
X033710Y005375D02*
X035360Y005375D01*
X035665Y005350D02*
X035665Y005520D01*
X035721Y005577D01*
X035835Y005577D01*
X035892Y005520D01*
X035892Y005350D01*
X036005Y005350D02*
X035665Y005350D01*
X035665Y005209D02*
X035892Y005209D01*
X036005Y005095D01*
X035892Y004982D01*
X035665Y004982D01*
X035721Y004840D02*
X035778Y004840D01*
X035835Y004784D01*
X035892Y004840D01*
X035948Y004840D01*
X036005Y004784D01*
X036005Y004670D01*
X035948Y004613D01*
X035948Y004486D02*
X036005Y004486D01*
X036005Y004429D01*
X035948Y004429D01*
X035948Y004486D01*
X035948Y004288D02*
X036005Y004231D01*
X036005Y004118D01*
X035948Y004061D01*
X035835Y004174D02*
X035835Y004231D01*
X035892Y004288D01*
X035948Y004288D01*
X035835Y004231D02*
X035778Y004288D01*
X035721Y004288D01*
X035665Y004231D01*
X035665Y004118D01*
X035721Y004061D01*
X035721Y004613D02*
X035665Y004670D01*
X035665Y004784D01*
X035721Y004840D01*
X035835Y004784D02*
X035835Y004727D01*
X035580Y004825D02*
X035422Y004825D01*
X035892Y005463D02*
X036005Y005577D01*
X036005Y005718D02*
X036005Y005945D01*
X035948Y006087D02*
X036005Y006143D01*
X036005Y006257D01*
X035948Y006314D01*
X035835Y006314D01*
X035835Y006200D01*
X035948Y006087D02*
X035721Y006087D01*
X035665Y006143D01*
X035665Y006257D01*
X035721Y006314D01*
X035665Y005945D02*
X035665Y005718D01*
X036005Y005718D01*
X035835Y005718D02*
X035835Y005832D01*
X037035Y005975D02*
X037285Y005725D01*
X037035Y005475D01*
X037035Y004975D01*
X037285Y004725D01*
X037035Y004475D01*
X037035Y003975D01*
X037285Y003725D01*
X037035Y003475D01*
X037035Y002975D01*
X037035Y002475D01*
X036785Y002225D01*
X036285Y002225D01*
X036035Y002475D01*
X035785Y002225D01*
X035285Y002225D01*
X035035Y002475D01*
X035035Y002975D02*
X035285Y003225D01*
X035785Y003225D01*
X036035Y002975D01*
X036285Y003225D01*
X036785Y003225D01*
X037035Y002975D01*
X037285Y002725D01*
X038785Y002725D01*
X039035Y002975D01*
X039035Y003475D01*
X038785Y003725D01*
X039035Y003975D01*
X039035Y004475D01*
X038785Y004725D01*
X039035Y004975D01*
X039035Y005475D01*
X038785Y005725D01*
X039035Y005975D01*
X039035Y006475D01*
X038785Y006725D01*
X038285Y006725D01*
X038035Y006975D01*
X038035Y007475D01*
X038285Y007725D01*
X038785Y007725D01*
X039035Y007475D01*
X039035Y006975D01*
X038785Y006725D01*
X037285Y006725D01*
X037785Y006725D01*
X038035Y006975D01*
X038035Y007475D01*
X037785Y007725D01*
X037285Y007725D01*
X037035Y007475D01*
X037035Y006975D01*
X037285Y006725D01*
X037035Y006475D01*
X037035Y005975D01*
X036735Y008225D02*
X036535Y008225D01*
X036535Y008425D01*
X036035Y008425D02*
X036035Y008225D01*
X035835Y008225D01*
X035235Y008225D02*
X035035Y008225D01*
X035035Y008425D01*
X035035Y009025D02*
X035035Y009225D01*
X035235Y009225D01*
X035835Y009225D02*
X036035Y009225D01*
X036035Y009025D01*
X036535Y009025D02*
X036535Y009225D01*
X036735Y009225D01*
X037335Y009225D02*
X037535Y009225D01*
X037535Y009025D01*
X037535Y008425D02*
X037535Y008225D01*
X037335Y008225D01*
X037285Y011225D02*
X036785Y011225D01*
X036535Y011475D01*
X036535Y012975D01*
X036285Y013225D01*
X035785Y013225D01*
X035535Y012975D01*
X035535Y011475D01*
X035285Y011225D01*
X034785Y011225D01*
X034535Y011475D01*
X034535Y012975D01*
X034285Y013225D01*
X033785Y013225D01*
X033535Y012975D01*
X033535Y011475D01*
X033285Y011225D01*
X032785Y011225D01*
X032535Y011475D01*
X032535Y012975D01*
X032285Y013225D01*
X031785Y013225D01*
X031535Y012975D01*
X031535Y011475D01*
X031285Y011225D01*
X030785Y011225D01*
X030535Y011475D01*
X030285Y011225D01*
X029785Y011225D01*
X029535Y011475D01*
X029535Y012975D01*
X029785Y013225D01*
X030285Y013225D01*
X030535Y012975D01*
X030535Y011475D01*
X031535Y011475D02*
X031785Y011225D01*
X032285Y011225D01*
X032535Y011475D01*
X033535Y011475D02*
X033785Y011225D01*
X034285Y011225D01*
X034535Y011475D01*
X035535Y011475D02*
X035785Y011225D01*
X036285Y011225D01*
X036535Y011475D01*
X037285Y011225D02*
X037535Y011475D01*
X037535Y012975D01*
X037285Y013225D01*
X036785Y013225D01*
X036535Y012975D01*
X035535Y012975D02*
X035285Y013225D01*
X034785Y013225D01*
X034535Y012975D01*
X033535Y012975D02*
X033285Y013225D01*
X032785Y013225D01*
X032535Y012975D01*
X031535Y012975D02*
X031285Y013225D01*
X030785Y013225D01*
X030535Y012975D01*
X031285Y009225D02*
X031035Y008975D01*
X031035Y008475D01*
X031285Y008225D01*
X031785Y008225D01*
X032035Y008475D01*
X032285Y008225D01*
X032785Y008225D01*
X033035Y008475D01*
X033285Y008225D01*
X033785Y008225D01*
X034035Y008475D01*
X034035Y008975D01*
X033785Y009225D01*
X033285Y009225D01*
X033035Y008975D01*
X033035Y008475D01*
X033035Y008975D02*
X032785Y009225D01*
X032285Y009225D01*
X032035Y008975D01*
X032035Y008475D01*
X032035Y008975D02*
X031785Y009225D01*
X031285Y009225D01*
X032485Y007675D02*
X034085Y007675D01*
X034102Y007673D01*
X034119Y007669D01*
X034135Y007662D01*
X034149Y007652D01*
X034162Y007639D01*
X034172Y007625D01*
X034179Y007609D01*
X034183Y007592D01*
X034185Y007575D01*
X034185Y005875D01*
X034183Y005858D01*
X034179Y005841D01*
X034172Y005825D01*
X034162Y005811D01*
X034149Y005798D01*
X034135Y005788D01*
X034119Y005781D01*
X034102Y005777D01*
X034085Y005775D01*
X032485Y005775D01*
X032468Y005777D01*
X032451Y005781D01*
X032435Y005788D01*
X032421Y005798D01*
X032408Y005811D01*
X032398Y005825D01*
X032391Y005841D01*
X032387Y005858D01*
X032385Y005875D01*
X032385Y007575D01*
X032387Y007592D01*
X032391Y007609D01*
X032398Y007625D01*
X032408Y007639D01*
X032421Y007652D01*
X032435Y007662D01*
X032451Y007669D01*
X032468Y007673D01*
X032485Y007675D01*
X032755Y007318D02*
X032755Y007092D01*
X032755Y007205D02*
X032415Y007205D01*
X032528Y007092D01*
X032755Y006950D02*
X032755Y006723D01*
X032755Y006837D02*
X032415Y006837D01*
X032528Y006723D01*
X032471Y006582D02*
X032415Y006525D01*
X032415Y006412D01*
X032471Y006355D01*
X032698Y006355D01*
X032755Y006412D01*
X032755Y006525D01*
X032698Y006582D01*
X032485Y006375D02*
X032485Y005075D01*
X032483Y005049D01*
X032478Y005023D01*
X032470Y004998D01*
X032458Y004975D01*
X032444Y004953D01*
X032426Y004934D01*
X032407Y004916D01*
X032385Y004902D01*
X032362Y004890D01*
X032337Y004882D01*
X032311Y004877D01*
X032285Y004875D01*
X032035Y005225D02*
X032035Y005595D01*
X032035Y005845D02*
X032035Y006225D01*
X031785Y006575D02*
X031759Y006573D01*
X031733Y006568D01*
X031708Y006560D01*
X031685Y006548D01*
X031663Y006534D01*
X031644Y006516D01*
X031626Y006497D01*
X031612Y006475D01*
X031600Y006452D01*
X031592Y006427D01*
X031587Y006401D01*
X031585Y006375D01*
X031585Y005075D01*
X031587Y005049D01*
X031592Y005023D01*
X031600Y004998D01*
X031612Y004975D01*
X031626Y004953D01*
X031644Y004934D01*
X031663Y004916D01*
X031685Y004902D01*
X031708Y004890D01*
X031733Y004882D01*
X031759Y004877D01*
X031785Y004875D01*
X032615Y005293D02*
X032615Y005407D01*
X032671Y005464D01*
X032728Y005464D01*
X032785Y005407D01*
X032842Y005464D01*
X032898Y005464D01*
X032955Y005407D01*
X032955Y005293D01*
X032898Y005237D01*
X032785Y005350D02*
X032785Y005407D01*
X032671Y005237D02*
X032615Y005293D01*
X032485Y006375D02*
X032483Y006401D01*
X032478Y006427D01*
X032470Y006452D01*
X032458Y006475D01*
X032444Y006497D01*
X032426Y006516D01*
X032407Y006534D01*
X032385Y006548D01*
X032362Y006560D01*
X032337Y006568D01*
X032311Y006573D01*
X032285Y006575D01*
X033285Y006575D02*
X033285Y006625D01*
X033285Y006825D02*
X033285Y006875D01*
X033710Y005375D02*
X033673Y005324D01*
X033638Y005271D01*
X033606Y005215D01*
X033578Y005158D01*
X033554Y005099D01*
X033533Y005039D01*
X033516Y004978D01*
X033502Y004916D01*
X033493Y004853D01*
X033487Y004790D01*
X033485Y004726D01*
X033487Y004662D01*
X033493Y004599D01*
X033502Y004536D01*
X033515Y004474D01*
X033533Y004413D01*
X033553Y004353D01*
X033578Y004294D01*
X033605Y004237D01*
X033637Y004181D01*
X033671Y004128D01*
X033709Y004077D01*
X033750Y004028D01*
X033794Y003982D01*
X033840Y003938D01*
X033889Y003897D01*
X033940Y003860D01*
X033994Y003825D01*
X034049Y003794D01*
X034106Y003766D01*
X034165Y003742D01*
X034225Y003722D01*
X034845Y003722D02*
X034905Y003742D01*
X034964Y003766D01*
X035021Y003794D01*
X035076Y003825D01*
X035130Y003860D01*
X035181Y003897D01*
X035230Y003938D01*
X035276Y003982D01*
X035320Y004028D01*
X035361Y004077D01*
X035399Y004128D01*
X035433Y004181D01*
X035464Y004237D01*
X035492Y004294D01*
X035517Y004353D01*
X035537Y004413D01*
X035555Y004474D01*
X035568Y004536D01*
X035577Y004599D01*
X035583Y004662D01*
X035585Y004726D01*
X035583Y004790D01*
X035577Y004853D01*
X035568Y004916D01*
X035554Y004978D01*
X035537Y005039D01*
X035516Y005099D01*
X035492Y005158D01*
X035464Y005215D01*
X035432Y005271D01*
X035397Y005324D01*
X035360Y005375D01*
X036035Y002975D02*
X036035Y002475D01*
X036120Y001155D02*
X036120Y000815D01*
X036347Y000815D01*
X036488Y000815D02*
X036659Y000815D01*
X036715Y000872D01*
X036715Y001099D01*
X036659Y001155D01*
X036488Y001155D01*
X036488Y000815D01*
X036234Y000985D02*
X036120Y000985D01*
X036120Y001155D02*
X036347Y001155D01*
X035979Y000815D02*
X035752Y000815D01*
X035752Y001155D01*
X035610Y000985D02*
X035383Y000985D01*
X035242Y000985D02*
X035185Y000928D01*
X035015Y000928D01*
X035015Y000815D02*
X035015Y001155D01*
X035185Y001155D01*
X035242Y001099D01*
X035242Y000985D01*
X035129Y000928D02*
X035242Y000815D01*
X036857Y000815D02*
X037084Y000815D01*
X036970Y000815D02*
X036970Y001155D01*
X036857Y001042D01*
X038035Y001825D02*
X038082Y001823D01*
X038130Y001817D01*
X038176Y001808D01*
X038222Y001795D01*
X038266Y001779D01*
X038310Y001758D01*
X038351Y001735D01*
X038390Y001709D01*
X038427Y001679D01*
X038462Y001646D01*
X038494Y001611D01*
X038523Y001574D01*
X038915Y001642D02*
X038915Y001812D01*
X038971Y001868D01*
X039198Y001868D01*
X039255Y001812D01*
X039255Y001642D01*
X038915Y001642D01*
X038915Y001500D02*
X038915Y001273D01*
X039255Y001273D01*
X039255Y001500D01*
X039085Y001387D02*
X039085Y001273D01*
X039255Y001132D02*
X039255Y000905D01*
X038915Y000905D01*
X038035Y000625D02*
X037990Y000627D01*
X037944Y000632D01*
X037900Y000640D01*
X037856Y000652D01*
X037813Y000668D01*
X037771Y000686D01*
X037731Y000708D01*
X037693Y000732D01*
X037657Y000759D01*
X037622Y000789D01*
X037591Y000822D01*
X037561Y000857D01*
X038035Y000625D02*
X038080Y000627D01*
X038126Y000632D01*
X038170Y000640D01*
X038214Y000652D01*
X038257Y000668D01*
X038299Y000686D01*
X038339Y000708D01*
X038377Y000732D01*
X038413Y000759D01*
X038448Y000789D01*
X038479Y000822D01*
X038509Y000857D01*
X038035Y001825D02*
X037989Y001823D01*
X037943Y001818D01*
X037897Y001809D01*
X037852Y001797D01*
X037809Y001781D01*
X037767Y001762D01*
X037726Y001739D01*
X037687Y001714D01*
X037651Y001686D01*
X037616Y001655D01*
X037584Y001621D01*
X037555Y001585D01*
X038915Y002123D02*
X039255Y002123D01*
X039255Y002010D02*
X039255Y002237D01*
X039028Y002010D02*
X038915Y002123D01*
X029935Y001815D02*
X029935Y001345D01*
X027135Y001345D01*
X027135Y001815D01*
X027135Y002635D02*
X027135Y002815D01*
X027135Y003635D02*
X027135Y003815D01*
X027135Y004635D02*
X027135Y004815D01*
X027135Y005635D02*
X027135Y005815D01*
X027135Y006635D02*
X027135Y006815D01*
X027135Y007635D02*
X027135Y007795D01*
X028415Y009105D02*
X028417Y009084D01*
X028422Y009064D01*
X028431Y009045D01*
X028443Y009028D01*
X028458Y009013D01*
X028475Y009001D01*
X028494Y008992D01*
X028514Y008987D01*
X028535Y008985D01*
X028556Y008987D01*
X028576Y008992D01*
X028595Y009001D01*
X028612Y009013D01*
X028627Y009028D01*
X028639Y009045D01*
X028648Y009064D01*
X028653Y009084D01*
X028655Y009105D01*
X030285Y018725D02*
X030785Y018725D01*
X031035Y018975D01*
X031035Y020475D01*
X031285Y020725D01*
X031785Y020725D01*
X032035Y020475D01*
X032035Y018975D01*
X032285Y018725D01*
X032785Y018725D01*
X033035Y018975D01*
X033035Y020475D01*
X033285Y020725D01*
X033785Y020725D01*
X034035Y020475D01*
X034035Y018975D01*
X034285Y018725D01*
X034785Y018725D01*
X035035Y018975D01*
X035035Y020475D01*
X035285Y020725D01*
X035785Y020725D01*
X036035Y020475D01*
X036035Y018975D01*
X036285Y018725D01*
X036785Y018725D01*
X037035Y018975D01*
X037285Y018725D01*
X037785Y018725D01*
X038035Y018975D01*
X038035Y020475D01*
X037785Y020725D01*
X037285Y020725D01*
X037035Y020475D01*
X037035Y018975D01*
X036035Y018975D02*
X035785Y018725D01*
X035285Y018725D01*
X035035Y018975D01*
X034035Y018975D02*
X033785Y018725D01*
X033285Y018725D01*
X033035Y018975D01*
X032035Y018975D02*
X031785Y018725D01*
X031285Y018725D01*
X031035Y018975D01*
X030285Y018725D02*
X030035Y018975D01*
X030035Y020475D01*
X030285Y020725D01*
X030785Y020725D01*
X031035Y020475D01*
X032035Y020475D02*
X032285Y020725D01*
X032785Y020725D01*
X033035Y020475D01*
X034035Y020475D02*
X034285Y020725D01*
X034785Y020725D01*
X035035Y020475D01*
X036035Y020475D02*
X036285Y020725D01*
X036785Y020725D01*
X037035Y020475D01*
X035535Y022225D02*
X035537Y022269D01*
X035543Y022313D01*
X035553Y022356D01*
X035566Y022398D01*
X035583Y022439D01*
X035604Y022478D01*
X035628Y022515D01*
X035655Y022550D01*
X035685Y022582D01*
X035718Y022612D01*
X035754Y022638D01*
X035791Y022662D01*
X035831Y022681D01*
X035872Y022698D01*
X035915Y022710D01*
X035958Y022719D01*
X036002Y022724D01*
X036046Y022725D01*
X036090Y022722D01*
X036134Y022715D01*
X036177Y022704D01*
X036219Y022690D01*
X036259Y022672D01*
X036298Y022650D01*
X036334Y022626D01*
X036368Y022598D01*
X036400Y022567D01*
X036429Y022533D01*
X036455Y022497D01*
X036477Y022459D01*
X036496Y022419D01*
X036511Y022377D01*
X036523Y022335D01*
X036531Y022291D01*
X036535Y022247D01*
X036535Y022203D01*
X036531Y022159D01*
X036523Y022115D01*
X036511Y022073D01*
X036496Y022031D01*
X036477Y021991D01*
X036455Y021953D01*
X036429Y021917D01*
X036400Y021883D01*
X036368Y021852D01*
X036334Y021824D01*
X036298Y021800D01*
X036259Y021778D01*
X036219Y021760D01*
X036177Y021746D01*
X036134Y021735D01*
X036090Y021728D01*
X036046Y021725D01*
X036002Y021726D01*
X035958Y021731D01*
X035915Y021740D01*
X035872Y021752D01*
X035831Y021769D01*
X035791Y021788D01*
X035754Y021812D01*
X035718Y021838D01*
X035685Y021868D01*
X035655Y021900D01*
X035628Y021935D01*
X035604Y021972D01*
X035583Y022011D01*
X035566Y022052D01*
X035553Y022094D01*
X035543Y022137D01*
X035537Y022181D01*
X035535Y022225D01*
X034035Y022225D02*
X034037Y022269D01*
X034043Y022313D01*
X034053Y022356D01*
X034066Y022398D01*
X034083Y022439D01*
X034104Y022478D01*
X034128Y022515D01*
X034155Y022550D01*
X034185Y022582D01*
X034218Y022612D01*
X034254Y022638D01*
X034291Y022662D01*
X034331Y022681D01*
X034372Y022698D01*
X034415Y022710D01*
X034458Y022719D01*
X034502Y022724D01*
X034546Y022725D01*
X034590Y022722D01*
X034634Y022715D01*
X034677Y022704D01*
X034719Y022690D01*
X034759Y022672D01*
X034798Y022650D01*
X034834Y022626D01*
X034868Y022598D01*
X034900Y022567D01*
X034929Y022533D01*
X034955Y022497D01*
X034977Y022459D01*
X034996Y022419D01*
X035011Y022377D01*
X035023Y022335D01*
X035031Y022291D01*
X035035Y022247D01*
X035035Y022203D01*
X035031Y022159D01*
X035023Y022115D01*
X035011Y022073D01*
X034996Y022031D01*
X034977Y021991D01*
X034955Y021953D01*
X034929Y021917D01*
X034900Y021883D01*
X034868Y021852D01*
X034834Y021824D01*
X034798Y021800D01*
X034759Y021778D01*
X034719Y021760D01*
X034677Y021746D01*
X034634Y021735D01*
X034590Y021728D01*
X034546Y021725D01*
X034502Y021726D01*
X034458Y021731D01*
X034415Y021740D01*
X034372Y021752D01*
X034331Y021769D01*
X034291Y021788D01*
X034254Y021812D01*
X034218Y021838D01*
X034185Y021868D01*
X034155Y021900D01*
X034128Y021935D01*
X034104Y021972D01*
X034083Y022011D01*
X034066Y022052D01*
X034053Y022094D01*
X034043Y022137D01*
X034037Y022181D01*
X034035Y022225D01*
X032535Y022225D02*
X032537Y022269D01*
X032543Y022313D01*
X032553Y022356D01*
X032566Y022398D01*
X032583Y022439D01*
X032604Y022478D01*
X032628Y022515D01*
X032655Y022550D01*
X032685Y022582D01*
X032718Y022612D01*
X032754Y022638D01*
X032791Y022662D01*
X032831Y022681D01*
X032872Y022698D01*
X032915Y022710D01*
X032958Y022719D01*
X033002Y022724D01*
X033046Y022725D01*
X033090Y022722D01*
X033134Y022715D01*
X033177Y022704D01*
X033219Y022690D01*
X033259Y022672D01*
X033298Y022650D01*
X033334Y022626D01*
X033368Y022598D01*
X033400Y022567D01*
X033429Y022533D01*
X033455Y022497D01*
X033477Y022459D01*
X033496Y022419D01*
X033511Y022377D01*
X033523Y022335D01*
X033531Y022291D01*
X033535Y022247D01*
X033535Y022203D01*
X033531Y022159D01*
X033523Y022115D01*
X033511Y022073D01*
X033496Y022031D01*
X033477Y021991D01*
X033455Y021953D01*
X033429Y021917D01*
X033400Y021883D01*
X033368Y021852D01*
X033334Y021824D01*
X033298Y021800D01*
X033259Y021778D01*
X033219Y021760D01*
X033177Y021746D01*
X033134Y021735D01*
X033090Y021728D01*
X033046Y021725D01*
X033002Y021726D01*
X032958Y021731D01*
X032915Y021740D01*
X032872Y021752D01*
X032831Y021769D01*
X032791Y021788D01*
X032754Y021812D01*
X032718Y021838D01*
X032685Y021868D01*
X032655Y021900D01*
X032628Y021935D01*
X032604Y021972D01*
X032583Y022011D01*
X032566Y022052D01*
X032553Y022094D01*
X032543Y022137D01*
X032537Y022181D01*
X032535Y022225D01*
X031035Y021975D02*
X030785Y021725D01*
X030285Y021725D01*
X030035Y021975D01*
X030035Y022475D01*
X030285Y022725D01*
X030785Y022725D01*
X031035Y022475D01*
X031035Y021975D01*
X030785Y022725D02*
X030285Y022725D01*
X030035Y022975D01*
X030035Y023475D01*
X030285Y023725D01*
X030785Y023725D01*
X031035Y023475D01*
X031035Y022975D01*
X030785Y022725D01*
X030035Y023475D02*
X030035Y021975D01*
X029785Y021725D01*
X029285Y021725D01*
X029035Y021975D01*
X028785Y021725D01*
X028285Y021725D01*
X028035Y021975D01*
X027785Y021725D01*
X027285Y021725D01*
X027035Y021975D01*
X026785Y021725D01*
X026285Y021725D01*
X026035Y021975D01*
X026035Y023475D01*
X026285Y023725D01*
X026785Y023725D01*
X027035Y023475D01*
X027285Y023725D01*
X027785Y023725D01*
X028035Y023475D01*
X028285Y023725D01*
X028785Y023725D01*
X029035Y023475D01*
X029285Y023725D01*
X029785Y023725D01*
X030035Y023475D01*
X025035Y023975D02*
X025035Y024475D01*
X024785Y024725D01*
X025035Y024975D01*
X025035Y025475D01*
X024785Y025725D01*
X024285Y025725D01*
X024035Y025475D01*
X024035Y024975D01*
X024285Y024725D01*
X024785Y024725D01*
X024285Y024725D02*
X024035Y024475D01*
X024035Y023975D01*
X024285Y023725D01*
X024785Y023725D01*
X025035Y023975D01*
X024805Y023446D02*
X024692Y023332D01*
X024805Y023276D02*
X024748Y023219D01*
X024521Y023219D01*
X024465Y023276D01*
X024465Y023389D01*
X024521Y023446D01*
X024748Y023446D01*
X024805Y023389D01*
X024805Y023276D01*
X024805Y023077D02*
X024692Y022964D01*
X024692Y023021D02*
X024692Y022851D01*
X024805Y022851D02*
X024465Y022851D01*
X024465Y023021D01*
X024521Y023077D01*
X024635Y023077D01*
X024692Y023021D01*
X024805Y022718D02*
X024805Y022605D01*
X024805Y022662D02*
X024465Y022662D01*
X024465Y022718D02*
X024465Y022605D01*
X022960Y022445D02*
X022733Y022445D01*
X022733Y022105D01*
X022960Y022105D01*
X022847Y022275D02*
X022733Y022275D01*
X022592Y022162D02*
X022535Y022105D01*
X022422Y022105D01*
X022365Y022162D01*
X022365Y022389D01*
X022422Y022445D01*
X022535Y022445D01*
X022592Y022389D01*
X022035Y022475D02*
X022035Y021975D01*
X021785Y021725D01*
X021285Y021725D01*
X021035Y021975D01*
X021035Y022475D01*
X021285Y022725D01*
X021035Y022975D01*
X021035Y023475D01*
X021285Y023725D01*
X021035Y023975D01*
X021035Y024475D01*
X021285Y024725D01*
X021035Y024975D01*
X021035Y025475D01*
X021285Y025725D01*
X021035Y025975D01*
X021035Y026475D01*
X021285Y026725D01*
X021035Y026975D01*
X021035Y027475D01*
X021285Y027725D01*
X021785Y027725D01*
X022035Y027475D01*
X022035Y026975D01*
X021785Y026725D01*
X022035Y026475D01*
X022035Y025975D01*
X021785Y025725D01*
X021285Y025725D01*
X021785Y025725D02*
X022035Y025475D01*
X022035Y024975D01*
X021785Y024725D01*
X022035Y024475D01*
X022035Y023975D01*
X021785Y023725D01*
X022035Y023475D01*
X022035Y022975D01*
X021785Y022725D01*
X022035Y022475D01*
X021785Y022725D02*
X021285Y022725D01*
X021285Y023725D02*
X021785Y023725D01*
X022365Y023389D02*
X022365Y023162D01*
X022422Y023105D01*
X022535Y023105D01*
X022592Y023162D01*
X022733Y023162D02*
X022790Y023105D01*
X022904Y023105D01*
X022960Y023162D01*
X022960Y023218D01*
X022904Y023275D01*
X022790Y023275D01*
X022733Y023332D01*
X022733Y023389D01*
X022790Y023445D01*
X022904Y023445D01*
X022960Y023389D01*
X022592Y023389D02*
X022535Y023445D01*
X022422Y023445D01*
X022365Y023389D01*
X022365Y024105D02*
X022365Y024445D01*
X022479Y024332D01*
X022592Y024445D01*
X022592Y024105D01*
X022733Y024162D02*
X022790Y024105D01*
X022904Y024105D01*
X022960Y024162D01*
X022960Y024389D01*
X022904Y024445D01*
X022790Y024445D01*
X022733Y024389D01*
X022733Y024162D01*
X023102Y024162D02*
X023158Y024105D01*
X023272Y024105D01*
X023329Y024162D01*
X023329Y024218D01*
X023272Y024275D01*
X023158Y024275D01*
X023102Y024332D01*
X023102Y024389D01*
X023158Y024445D01*
X023272Y024445D01*
X023329Y024389D01*
X023470Y024445D02*
X023583Y024445D01*
X023527Y024445D02*
X023527Y024105D01*
X023583Y024105D02*
X023470Y024105D01*
X023517Y025105D02*
X023574Y025162D01*
X023574Y025389D01*
X023517Y025445D01*
X023404Y025445D01*
X023347Y025389D01*
X023347Y025162D01*
X023404Y025105D01*
X023517Y025105D01*
X023206Y025162D02*
X023149Y025105D01*
X023036Y025105D01*
X022979Y025162D01*
X023036Y025275D02*
X023149Y025275D01*
X023206Y025218D01*
X023206Y025162D01*
X023036Y025275D02*
X022979Y025332D01*
X022979Y025389D01*
X023036Y025445D01*
X023149Y025445D01*
X023206Y025389D01*
X022847Y025445D02*
X022733Y025445D01*
X022790Y025445D02*
X022790Y025105D01*
X022733Y025105D02*
X022847Y025105D01*
X022592Y025105D02*
X022592Y025445D01*
X022479Y025332D01*
X022365Y025445D01*
X022365Y025105D01*
X021785Y024725D02*
X021285Y024725D01*
X022422Y026105D02*
X022365Y026162D01*
X022422Y026105D02*
X022535Y026105D01*
X022592Y026162D01*
X022592Y026218D01*
X022535Y026275D01*
X022422Y026275D01*
X022365Y026332D01*
X022365Y026389D01*
X022422Y026445D01*
X022535Y026445D01*
X022592Y026389D01*
X022733Y026389D02*
X022733Y026162D01*
X022790Y026105D01*
X022904Y026105D01*
X022960Y026162D01*
X023102Y026218D02*
X023329Y026445D01*
X023102Y026445D02*
X023102Y026105D01*
X023158Y026275D02*
X023329Y026105D01*
X022960Y026389D02*
X022904Y026445D01*
X022790Y026445D01*
X022733Y026389D01*
X022733Y027105D02*
X022733Y027445D01*
X022960Y027105D01*
X022960Y027445D01*
X023102Y027445D02*
X023272Y027445D01*
X023329Y027389D01*
X023329Y027162D01*
X023272Y027105D01*
X023102Y027105D01*
X023102Y027445D01*
X022592Y027389D02*
X022535Y027445D01*
X022422Y027445D01*
X022365Y027389D01*
X022365Y027162D01*
X022422Y027105D01*
X022535Y027105D01*
X022592Y027162D01*
X022592Y027275D01*
X022479Y027275D01*
X021785Y026725D02*
X021285Y026725D01*
X020035Y027975D02*
X020035Y029475D01*
X019785Y029725D01*
X019285Y029725D01*
X019035Y029475D01*
X019035Y027975D01*
X019285Y027725D01*
X019785Y027725D01*
X020035Y027975D01*
X019035Y027975D02*
X018785Y027725D01*
X018285Y027725D01*
X018035Y027975D01*
X018035Y029475D01*
X018285Y029725D01*
X018785Y029725D01*
X019035Y029475D01*
X018035Y029475D02*
X017785Y029725D01*
X017285Y029725D01*
X017035Y029475D01*
X017035Y027975D01*
X017285Y027725D01*
X017785Y027725D01*
X018035Y027975D01*
X017035Y027975D02*
X016785Y027725D01*
X016285Y027725D01*
X016035Y027975D01*
X016035Y029475D01*
X016285Y029725D01*
X016785Y029725D01*
X017035Y029475D01*
X016035Y029475D02*
X015785Y029725D01*
X015285Y029725D01*
X015035Y029475D01*
X015035Y027975D01*
X015285Y027725D01*
X015785Y027725D01*
X016035Y027975D01*
X015035Y027975D02*
X014785Y027725D01*
X014285Y027725D01*
X014035Y027975D01*
X014035Y029475D01*
X014285Y029725D01*
X014785Y029725D01*
X015035Y029475D01*
X014035Y029475D02*
X013785Y029725D01*
X013285Y029725D01*
X013035Y029475D01*
X013035Y027975D01*
X013285Y027725D01*
X013785Y027725D01*
X014035Y027975D01*
X013035Y027975D02*
X012785Y027725D01*
X012285Y027725D01*
X012035Y027975D01*
X012035Y029475D01*
X012285Y029725D01*
X012785Y029725D01*
X013035Y029475D01*
X012035Y029475D02*
X011785Y029725D01*
X011285Y029725D01*
X011035Y029475D01*
X011035Y027975D01*
X011285Y027725D01*
X011785Y027725D01*
X012035Y027975D01*
X009535Y027975D02*
X009535Y027475D01*
X009285Y027225D01*
X009535Y026975D01*
X009535Y026475D01*
X009285Y026225D01*
X007785Y026225D01*
X007535Y026475D01*
X007535Y026975D01*
X007785Y027225D01*
X007535Y027475D01*
X007535Y027975D01*
X007785Y028225D01*
X007535Y028475D01*
X007535Y028975D01*
X007785Y029225D01*
X007535Y029475D01*
X007535Y029975D01*
X007785Y030225D01*
X008285Y030225D01*
X008535Y030475D01*
X008785Y030225D01*
X009285Y030225D01*
X009535Y030475D01*
X009535Y030975D01*
X009285Y031225D01*
X008785Y031225D01*
X008535Y030975D01*
X008535Y030475D01*
X008535Y030975D01*
X008285Y031225D01*
X007785Y031225D01*
X007535Y030975D01*
X007535Y030475D01*
X007785Y030225D01*
X009285Y030225D01*
X009535Y029975D01*
X009535Y029475D01*
X009285Y029225D01*
X009535Y028975D01*
X009535Y028475D01*
X009285Y028225D01*
X009535Y027975D01*
X011285Y024725D02*
X011035Y024475D01*
X011035Y022975D01*
X011285Y022725D01*
X011785Y022725D01*
X012035Y022975D01*
X012285Y022725D01*
X012785Y022725D01*
X013035Y022975D01*
X013285Y022725D01*
X013785Y022725D01*
X014035Y022975D01*
X014285Y022725D01*
X014785Y022725D01*
X015035Y022975D01*
X015035Y024475D01*
X014785Y024725D01*
X014285Y024725D01*
X014035Y024475D01*
X013785Y024725D01*
X013285Y024725D01*
X013035Y024475D01*
X012785Y024725D01*
X012285Y024725D01*
X012035Y024475D01*
X011785Y024725D01*
X011285Y024725D01*
X003455Y028155D02*
X003455Y028382D01*
X003455Y028523D02*
X003455Y028750D01*
X003455Y028892D02*
X003455Y029062D01*
X003398Y029118D01*
X003171Y029118D01*
X003115Y029062D01*
X003115Y028892D01*
X003455Y028892D01*
X003285Y028637D02*
X003285Y028523D01*
X003115Y028523D02*
X003455Y028523D01*
X003115Y028523D02*
X003115Y028750D01*
X003171Y029260D02*
X003115Y029317D01*
X003115Y029430D01*
X003171Y029487D01*
X003228Y029487D01*
X003285Y029430D01*
X003342Y029487D01*
X003398Y029487D01*
X003455Y029430D01*
X003455Y029317D01*
X003398Y029260D01*
X003285Y029373D02*
X003285Y029430D01*
X003405Y030155D02*
X003065Y030155D01*
X003405Y030155D02*
X003405Y030382D01*
X003405Y030523D02*
X003405Y030750D01*
X003405Y030892D02*
X003405Y031062D01*
X003348Y031118D01*
X003121Y031118D01*
X003065Y031062D01*
X003065Y030892D01*
X003405Y030892D01*
X003235Y030637D02*
X003235Y030523D01*
X003065Y030523D02*
X003405Y030523D01*
X003065Y030523D02*
X003065Y030750D01*
X003235Y031260D02*
X003065Y031430D01*
X003405Y031430D01*
X003235Y031487D02*
X003235Y031260D01*
X002035Y030125D02*
X001990Y030127D01*
X001944Y030132D01*
X001900Y030140D01*
X001856Y030152D01*
X001813Y030168D01*
X001771Y030186D01*
X001731Y030208D01*
X001693Y030232D01*
X001657Y030259D01*
X001622Y030289D01*
X001591Y030322D01*
X001561Y030357D01*
X002035Y031325D02*
X002082Y031323D01*
X002130Y031317D01*
X002176Y031308D01*
X002222Y031295D01*
X002266Y031279D01*
X002310Y031258D01*
X002351Y031235D01*
X002390Y031209D01*
X002427Y031179D01*
X002462Y031146D01*
X002494Y031111D01*
X002523Y031074D01*
X002035Y031325D02*
X001989Y031323D01*
X001943Y031318D01*
X001897Y031309D01*
X001852Y031297D01*
X001809Y031281D01*
X001767Y031262D01*
X001726Y031239D01*
X001687Y031214D01*
X001651Y031186D01*
X001616Y031155D01*
X001584Y031121D01*
X001555Y031085D01*
X002035Y030125D02*
X002080Y030127D01*
X002126Y030132D01*
X002170Y030140D01*
X002214Y030152D01*
X002257Y030168D01*
X002299Y030186D01*
X002339Y030208D01*
X002377Y030232D01*
X002413Y030259D01*
X002448Y030289D01*
X002479Y030322D01*
X002509Y030357D01*
X001561Y028357D02*
X001591Y028322D01*
X001622Y028289D01*
X001657Y028259D01*
X001693Y028232D01*
X001731Y028208D01*
X001771Y028186D01*
X001813Y028168D01*
X001856Y028152D01*
X001900Y028140D01*
X001944Y028132D01*
X001990Y028127D01*
X002035Y028125D01*
X001555Y029085D02*
X001584Y029121D01*
X001616Y029155D01*
X001651Y029186D01*
X001687Y029214D01*
X001726Y029239D01*
X001767Y029262D01*
X001809Y029281D01*
X001852Y029297D01*
X001897Y029309D01*
X001943Y029318D01*
X001989Y029323D01*
X002035Y029325D01*
X002509Y028357D02*
X002479Y028322D01*
X002448Y028289D01*
X002413Y028259D01*
X002377Y028232D01*
X002339Y028208D01*
X002299Y028186D01*
X002257Y028168D01*
X002214Y028152D01*
X002170Y028140D01*
X002126Y028132D01*
X002080Y028127D01*
X002035Y028125D01*
X002523Y029074D02*
X002494Y029111D01*
X002462Y029146D01*
X002427Y029179D01*
X002390Y029209D01*
X002351Y029235D01*
X002310Y029258D01*
X002266Y029279D01*
X002222Y029295D01*
X002176Y029308D01*
X002130Y029317D01*
X002082Y029323D01*
X002035Y029325D01*
X003115Y028155D02*
X003455Y028155D01*
X021035Y029475D02*
X021035Y030975D01*
X021285Y031225D01*
X021785Y031225D01*
X022035Y030975D01*
X022285Y031225D01*
X022785Y031225D01*
X023035Y030975D01*
X023285Y031225D01*
X023785Y031225D01*
X024035Y030975D01*
X024285Y031225D01*
X024785Y031225D01*
X025035Y030975D01*
X025035Y029475D01*
X024785Y029225D01*
X024285Y029225D01*
X024035Y029475D01*
X023785Y029225D01*
X023285Y029225D01*
X023035Y029475D01*
X022785Y029225D01*
X022285Y029225D01*
X022035Y029475D01*
X021785Y029225D01*
X021285Y029225D01*
X021035Y029475D01*
X024365Y027253D02*
X024592Y027253D01*
X024705Y027139D01*
X024592Y027026D01*
X024365Y027026D01*
X024421Y026884D02*
X024365Y026828D01*
X024365Y026714D01*
X024421Y026657D01*
X024535Y026771D02*
X024535Y026828D01*
X024592Y026884D01*
X024648Y026884D01*
X024705Y026828D01*
X024705Y026714D01*
X024648Y026657D01*
X024648Y026530D02*
X024705Y026530D01*
X024705Y026473D01*
X024648Y026473D01*
X024648Y026530D01*
X024648Y026332D02*
X024705Y026275D01*
X024705Y026162D01*
X024648Y026105D01*
X024535Y026218D02*
X024535Y026275D01*
X024592Y026332D01*
X024648Y026332D01*
X024535Y026275D02*
X024478Y026332D01*
X024421Y026332D01*
X024365Y026275D01*
X024365Y026162D01*
X024421Y026105D01*
X024535Y026828D02*
X024478Y026884D01*
X024421Y026884D01*
X017617Y001895D02*
X017503Y001895D01*
X017447Y001839D01*
X017560Y001725D02*
X017617Y001725D01*
X017674Y001668D01*
X017674Y001612D01*
X017617Y001555D01*
X017503Y001555D01*
X017447Y001612D01*
X017305Y001555D02*
X017078Y001555D01*
X017192Y001555D02*
X017192Y001895D01*
X017078Y001782D01*
X016937Y001839D02*
X016937Y001725D01*
X016880Y001668D01*
X016710Y001668D01*
X016710Y001555D02*
X016710Y001895D01*
X016880Y001895D01*
X016937Y001839D01*
X016824Y001668D02*
X016937Y001555D01*
X017617Y001725D02*
X017674Y001782D01*
X017674Y001839D01*
X017617Y001895D01*
D12*
X031735Y002625D02*
X032035Y002625D01*
X032335Y002625D01*
X032335Y002825D02*
X032035Y002825D01*
X031735Y002825D01*
X032985Y006625D02*
X033285Y006625D01*
X033585Y006625D01*
X033585Y006825D02*
X033285Y006825D01*
X032985Y006825D01*
X037340Y000828D02*
X037370Y000780D01*
X037403Y000735D01*
X037439Y000692D01*
X037477Y000651D01*
X037519Y000614D01*
X037563Y000579D01*
X037609Y000548D01*
X037658Y000519D01*
X037708Y000495D01*
X037760Y000474D01*
X037814Y000456D01*
X037868Y000443D01*
X037923Y000433D01*
X037979Y000427D01*
X038035Y000425D01*
X037329Y001601D02*
X037356Y001648D01*
X037386Y001693D01*
X037419Y001736D01*
X037455Y001776D01*
X037494Y001814D01*
X037535Y001849D01*
X037578Y001882D01*
X037623Y001911D01*
X037671Y001937D01*
X037720Y001960D01*
X037770Y001980D01*
X037821Y001996D01*
X037874Y002009D01*
X037927Y002018D01*
X037981Y002023D01*
X038035Y002025D01*
X038646Y000708D02*
X038610Y000669D01*
X038571Y000631D01*
X038531Y000597D01*
X038488Y000565D01*
X038443Y000537D01*
X038396Y000511D01*
X038347Y000488D01*
X038297Y000469D01*
X038246Y000453D01*
X038194Y000441D01*
X038142Y000432D01*
X038088Y000427D01*
X038035Y000425D01*
X038650Y001737D02*
X038614Y001777D01*
X038575Y001815D01*
X038534Y001850D01*
X038491Y001882D01*
X038446Y001912D01*
X038399Y001938D01*
X038350Y001960D01*
X038299Y001980D01*
X038248Y001996D01*
X038196Y002009D01*
X038142Y002018D01*
X038089Y002023D01*
X038035Y002025D01*
X003355Y007755D02*
X003357Y007779D01*
X003363Y007803D01*
X003372Y007825D01*
X003385Y007845D01*
X003401Y007863D01*
X003420Y007878D01*
X003441Y007891D01*
X003463Y007899D01*
X003487Y007904D01*
X003511Y007905D01*
X003535Y007902D01*
X003558Y007895D01*
X003580Y007885D01*
X003600Y007871D01*
X003617Y007854D01*
X003632Y007835D01*
X003643Y007814D01*
X003651Y007791D01*
X003655Y007767D01*
X003655Y007743D01*
X003651Y007719D01*
X003643Y007696D01*
X003632Y007675D01*
X003617Y007656D01*
X003600Y007639D01*
X003580Y007625D01*
X003558Y007615D01*
X003535Y007608D01*
X003511Y007605D01*
X003487Y007606D01*
X003463Y007611D01*
X003441Y007619D01*
X003420Y007632D01*
X003401Y007647D01*
X003385Y007665D01*
X003372Y007685D01*
X003363Y007707D01*
X003357Y007731D01*
X003355Y007755D01*
X001329Y029101D02*
X001356Y029148D01*
X001386Y029193D01*
X001419Y029236D01*
X001455Y029276D01*
X001494Y029314D01*
X001535Y029349D01*
X001578Y029382D01*
X001623Y029411D01*
X001671Y029437D01*
X001720Y029460D01*
X001770Y029480D01*
X001821Y029496D01*
X001874Y029509D01*
X001927Y029518D01*
X001981Y029523D01*
X002035Y029525D01*
X001340Y028328D02*
X001370Y028280D01*
X001403Y028235D01*
X001439Y028192D01*
X001477Y028151D01*
X001519Y028114D01*
X001563Y028079D01*
X001609Y028048D01*
X001658Y028019D01*
X001708Y027995D01*
X001760Y027974D01*
X001814Y027956D01*
X001868Y027943D01*
X001923Y027933D01*
X001979Y027927D01*
X002035Y027925D01*
X002088Y027927D01*
X002142Y027932D01*
X002194Y027941D01*
X002246Y027953D01*
X002297Y027969D01*
X002347Y027988D01*
X002396Y028011D01*
X002443Y028037D01*
X002488Y028065D01*
X002531Y028097D01*
X002571Y028131D01*
X002610Y028169D01*
X002646Y028208D01*
X002650Y029237D02*
X002614Y029277D01*
X002575Y029315D01*
X002534Y029350D01*
X002491Y029382D01*
X002446Y029412D01*
X002399Y029438D01*
X002350Y029460D01*
X002299Y029480D01*
X002248Y029496D01*
X002196Y029509D01*
X002142Y029518D01*
X002089Y029523D01*
X002035Y029525D01*
X001329Y031101D02*
X001356Y031148D01*
X001386Y031193D01*
X001419Y031236D01*
X001455Y031276D01*
X001494Y031314D01*
X001535Y031349D01*
X001578Y031382D01*
X001623Y031411D01*
X001671Y031437D01*
X001720Y031460D01*
X001770Y031480D01*
X001821Y031496D01*
X001874Y031509D01*
X001927Y031518D01*
X001981Y031523D01*
X002035Y031525D01*
X001340Y030328D02*
X001370Y030280D01*
X001403Y030235D01*
X001439Y030192D01*
X001477Y030151D01*
X001519Y030114D01*
X001563Y030079D01*
X001609Y030048D01*
X001658Y030019D01*
X001708Y029995D01*
X001760Y029974D01*
X001814Y029956D01*
X001868Y029943D01*
X001923Y029933D01*
X001979Y029927D01*
X002035Y029925D01*
X002088Y029927D01*
X002142Y029932D01*
X002194Y029941D01*
X002246Y029953D01*
X002297Y029969D01*
X002347Y029988D01*
X002396Y030011D01*
X002443Y030037D01*
X002488Y030065D01*
X002531Y030097D01*
X002571Y030131D01*
X002610Y030169D01*
X002646Y030208D01*
X002650Y031237D02*
X002614Y031277D01*
X002575Y031315D01*
X002534Y031350D01*
X002491Y031382D01*
X002446Y031412D01*
X002399Y031438D01*
X002350Y031460D01*
X002299Y031480D01*
X002248Y031496D01*
X002196Y031509D01*
X002142Y031518D01*
X002089Y031523D01*
X002035Y031525D01*
D13*
X004035Y029925D02*
X004035Y029425D01*
X004235Y029225D01*
X004035Y029025D01*
X004035Y028425D01*
X004235Y028225D01*
X004035Y028025D01*
X004035Y027525D01*
X004335Y027225D01*
X005735Y027225D01*
X006035Y027525D01*
X006035Y028025D01*
X005835Y028225D01*
X006035Y028425D01*
X006035Y029025D01*
X005835Y029225D01*
X006035Y029425D01*
X006035Y029925D01*
X005735Y030225D01*
X004335Y030225D01*
X004035Y029925D01*
X006910Y029975D02*
X006910Y029825D01*
X006985Y029750D01*
X007060Y029750D01*
X007135Y029825D01*
X007135Y029975D01*
X007210Y030050D01*
X007285Y030050D01*
X007360Y029975D01*
X007360Y029825D01*
X007285Y029750D01*
X007210Y029750D01*
X007135Y029825D01*
X007135Y029975D02*
X007060Y030050D01*
X006985Y030050D01*
X006910Y029975D01*
X007530Y031470D02*
X007530Y031920D01*
X007755Y031920D01*
X007830Y031845D01*
X007830Y031695D01*
X007755Y031620D01*
X007530Y031620D01*
X007680Y031620D02*
X007830Y031470D01*
X007990Y031470D02*
X008291Y031470D01*
X008451Y031545D02*
X008526Y031470D01*
X008676Y031470D01*
X008751Y031545D01*
X008751Y031620D01*
X008676Y031695D01*
X008526Y031695D01*
X008451Y031770D01*
X008451Y031845D01*
X008526Y031920D01*
X008676Y031920D01*
X008751Y031845D01*
X008830Y031920D02*
X008830Y031620D01*
X008680Y031470D01*
X008530Y031620D01*
X008530Y031920D01*
X008291Y031920D02*
X007990Y031920D01*
X007990Y031470D01*
X007990Y031695D02*
X008141Y031695D01*
X008911Y031695D02*
X009061Y031695D01*
X009066Y031695D02*
X009216Y031695D01*
X009291Y031620D01*
X009291Y031545D01*
X009216Y031470D01*
X009066Y031470D01*
X008990Y031545D01*
X008911Y031470D02*
X009212Y031470D01*
X009451Y031545D02*
X009526Y031470D01*
X009676Y031470D01*
X009751Y031545D01*
X009751Y031620D01*
X009676Y031695D01*
X009526Y031695D01*
X009451Y031770D01*
X009451Y031845D01*
X009526Y031920D01*
X009676Y031920D01*
X009751Y031845D01*
X009672Y031920D02*
X009372Y031920D01*
X009291Y031845D02*
X009216Y031920D01*
X009066Y031920D01*
X008990Y031845D01*
X008990Y031770D01*
X009066Y031695D01*
X009212Y031920D02*
X008911Y031920D01*
X008911Y031470D01*
X009522Y031470D02*
X009522Y031920D01*
X011035Y030725D02*
X011035Y029725D01*
X020035Y029725D01*
X020035Y030725D01*
X011035Y030725D01*
X010160Y026850D02*
X010160Y026550D01*
X010160Y026700D02*
X009710Y026700D01*
X009860Y026550D01*
X009216Y024906D02*
X009216Y022544D01*
X006854Y022544D01*
X006854Y024906D01*
X009216Y024906D01*
X011510Y022550D02*
X011510Y022100D01*
X011360Y022100D02*
X011660Y022100D01*
X011360Y022400D02*
X011510Y022550D01*
X014560Y024975D02*
X014560Y025050D01*
X014635Y025125D01*
X014785Y025125D01*
X014860Y025050D01*
X014860Y024975D01*
X014785Y024900D01*
X014635Y024900D01*
X014560Y024975D01*
X014635Y025125D02*
X014560Y025200D01*
X014560Y025275D01*
X014635Y025350D01*
X014785Y025350D01*
X014860Y025275D01*
X014860Y025200D01*
X014785Y025125D01*
X018519Y023619D02*
X018493Y023678D01*
X018464Y023735D01*
X018432Y023790D01*
X018396Y023844D01*
X018357Y023895D01*
X018314Y023943D01*
X018269Y023989D01*
X018222Y024032D01*
X018172Y024073D01*
X018119Y024110D01*
X018064Y024143D01*
X018008Y024174D01*
X017949Y024201D01*
X017889Y024224D01*
X017828Y024244D01*
X017766Y024260D01*
X017702Y024272D01*
X017639Y024280D01*
X017575Y024284D01*
X017510Y024285D01*
X017446Y024281D01*
X017382Y024274D01*
X017319Y024263D01*
X017256Y024248D01*
X017195Y024229D01*
X017134Y024206D01*
X017076Y024180D01*
X017019Y024151D01*
X016963Y024118D01*
X016910Y024081D01*
X016860Y024042D01*
X016811Y023999D01*
X016766Y023954D01*
X016723Y023906D01*
X016683Y023856D01*
X016646Y023803D01*
X016613Y023748D01*
X016583Y023691D01*
X016556Y023632D01*
X016533Y023572D01*
X016514Y023511D01*
X016499Y023448D01*
X016487Y023385D01*
X016479Y023321D01*
X016475Y023257D01*
X016475Y023193D01*
X016479Y023129D01*
X016487Y023065D01*
X016499Y023002D01*
X016514Y022939D01*
X016533Y022878D01*
X016556Y022818D01*
X016583Y022759D01*
X016613Y022702D01*
X016646Y022647D01*
X016683Y022594D01*
X016723Y022544D01*
X016766Y022496D01*
X016811Y022451D01*
X016860Y022408D01*
X016910Y022369D01*
X016963Y022332D01*
X017019Y022299D01*
X017076Y022270D01*
X017134Y022244D01*
X017195Y022221D01*
X017256Y022202D01*
X017319Y022187D01*
X017382Y022176D01*
X017446Y022169D01*
X017510Y022165D01*
X017575Y022166D01*
X017639Y022170D01*
X017702Y022178D01*
X017766Y022190D01*
X017828Y022206D01*
X017889Y022226D01*
X017949Y022249D01*
X018008Y022276D01*
X018064Y022307D01*
X018119Y022340D01*
X018172Y022377D01*
X018222Y022418D01*
X018269Y022461D01*
X018314Y022507D01*
X018357Y022555D01*
X018396Y022606D01*
X018432Y022660D01*
X018464Y022715D01*
X018493Y022772D01*
X018519Y022831D01*
X018519Y023619D01*
X019334Y020406D02*
X016736Y020406D01*
X016736Y018044D01*
X019334Y018044D01*
X019334Y020406D01*
X017641Y019225D02*
X017643Y019264D01*
X017649Y019303D01*
X017659Y019341D01*
X017672Y019378D01*
X017689Y019413D01*
X017709Y019447D01*
X017733Y019478D01*
X017760Y019507D01*
X017789Y019533D01*
X017821Y019556D01*
X017855Y019576D01*
X017891Y019592D01*
X017928Y019604D01*
X017967Y019613D01*
X018006Y019618D01*
X018045Y019619D01*
X018084Y019616D01*
X018123Y019609D01*
X018160Y019598D01*
X018197Y019584D01*
X018232Y019566D01*
X018265Y019545D01*
X018296Y019520D01*
X018324Y019493D01*
X018349Y019463D01*
X018371Y019430D01*
X018390Y019396D01*
X018405Y019360D01*
X018417Y019322D01*
X018425Y019284D01*
X018429Y019245D01*
X018429Y019205D01*
X018425Y019166D01*
X018417Y019128D01*
X018405Y019090D01*
X018390Y019054D01*
X018371Y019020D01*
X018349Y018987D01*
X018324Y018957D01*
X018296Y018930D01*
X018265Y018905D01*
X018232Y018884D01*
X018197Y018866D01*
X018160Y018852D01*
X018123Y018841D01*
X018084Y018834D01*
X018045Y018831D01*
X018006Y018832D01*
X017967Y018837D01*
X017928Y018846D01*
X017891Y018858D01*
X017855Y018874D01*
X017821Y018894D01*
X017789Y018917D01*
X017760Y018943D01*
X017733Y018972D01*
X017709Y019003D01*
X017689Y019037D01*
X017672Y019072D01*
X017659Y019109D01*
X017649Y019147D01*
X017643Y019186D01*
X017641Y019225D01*
X017443Y019225D02*
X017445Y019273D01*
X017451Y019321D01*
X017461Y019368D01*
X017474Y019415D01*
X017492Y019460D01*
X017513Y019503D01*
X017537Y019545D01*
X017565Y019585D01*
X017596Y019622D01*
X017629Y019656D01*
X017666Y019688D01*
X017705Y019716D01*
X017746Y019742D01*
X017789Y019764D01*
X017834Y019782D01*
X017880Y019796D01*
X017927Y019807D01*
X017975Y019814D01*
X018023Y019817D01*
X018071Y019816D01*
X018119Y019811D01*
X018167Y019802D01*
X018213Y019789D01*
X018259Y019773D01*
X018303Y019753D01*
X018345Y019729D01*
X018385Y019703D01*
X018423Y019672D01*
X018458Y019639D01*
X018490Y019603D01*
X018520Y019565D01*
X018546Y019524D01*
X018568Y019482D01*
X018588Y019438D01*
X018603Y019392D01*
X018615Y019345D01*
X018623Y019297D01*
X018627Y019249D01*
X018627Y019201D01*
X018623Y019153D01*
X018615Y019105D01*
X018603Y019058D01*
X018588Y019012D01*
X018568Y018968D01*
X018546Y018926D01*
X018520Y018885D01*
X018490Y018847D01*
X018458Y018811D01*
X018423Y018778D01*
X018385Y018747D01*
X018345Y018721D01*
X018303Y018697D01*
X018259Y018677D01*
X018213Y018661D01*
X018167Y018648D01*
X018119Y018639D01*
X018071Y018634D01*
X018023Y018633D01*
X017975Y018636D01*
X017927Y018643D01*
X017880Y018654D01*
X017834Y018668D01*
X017789Y018686D01*
X017746Y018708D01*
X017705Y018734D01*
X017666Y018762D01*
X017629Y018794D01*
X017596Y018828D01*
X017565Y018865D01*
X017537Y018905D01*
X017513Y018947D01*
X017492Y018990D01*
X017474Y019035D01*
X017461Y019082D01*
X017451Y019129D01*
X017445Y019177D01*
X017443Y019225D01*
X014535Y017325D02*
X014535Y016025D01*
X013835Y016025D01*
X013835Y017325D01*
X014535Y017325D01*
X014535Y015275D02*
X013835Y015275D01*
X013835Y013975D01*
X014535Y013975D01*
X014535Y015275D01*
X016736Y013906D02*
X016736Y011544D01*
X019334Y011544D01*
X019334Y013906D01*
X016736Y013906D01*
X017641Y012725D02*
X017643Y012764D01*
X017649Y012803D01*
X017659Y012841D01*
X017672Y012878D01*
X017689Y012913D01*
X017709Y012947D01*
X017733Y012978D01*
X017760Y013007D01*
X017789Y013033D01*
X017821Y013056D01*
X017855Y013076D01*
X017891Y013092D01*
X017928Y013104D01*
X017967Y013113D01*
X018006Y013118D01*
X018045Y013119D01*
X018084Y013116D01*
X018123Y013109D01*
X018160Y013098D01*
X018197Y013084D01*
X018232Y013066D01*
X018265Y013045D01*
X018296Y013020D01*
X018324Y012993D01*
X018349Y012963D01*
X018371Y012930D01*
X018390Y012896D01*
X018405Y012860D01*
X018417Y012822D01*
X018425Y012784D01*
X018429Y012745D01*
X018429Y012705D01*
X018425Y012666D01*
X018417Y012628D01*
X018405Y012590D01*
X018390Y012554D01*
X018371Y012520D01*
X018349Y012487D01*
X018324Y012457D01*
X018296Y012430D01*
X018265Y012405D01*
X018232Y012384D01*
X018197Y012366D01*
X018160Y012352D01*
X018123Y012341D01*
X018084Y012334D01*
X018045Y012331D01*
X018006Y012332D01*
X017967Y012337D01*
X017928Y012346D01*
X017891Y012358D01*
X017855Y012374D01*
X017821Y012394D01*
X017789Y012417D01*
X017760Y012443D01*
X017733Y012472D01*
X017709Y012503D01*
X017689Y012537D01*
X017672Y012572D01*
X017659Y012609D01*
X017649Y012647D01*
X017643Y012686D01*
X017641Y012725D01*
X017443Y012725D02*
X017445Y012773D01*
X017451Y012821D01*
X017461Y012868D01*
X017474Y012915D01*
X017492Y012960D01*
X017513Y013003D01*
X017537Y013045D01*
X017565Y013085D01*
X017596Y013122D01*
X017629Y013156D01*
X017666Y013188D01*
X017705Y013216D01*
X017746Y013242D01*
X017789Y013264D01*
X017834Y013282D01*
X017880Y013296D01*
X017927Y013307D01*
X017975Y013314D01*
X018023Y013317D01*
X018071Y013316D01*
X018119Y013311D01*
X018167Y013302D01*
X018213Y013289D01*
X018259Y013273D01*
X018303Y013253D01*
X018345Y013229D01*
X018385Y013203D01*
X018423Y013172D01*
X018458Y013139D01*
X018490Y013103D01*
X018520Y013065D01*
X018546Y013024D01*
X018568Y012982D01*
X018588Y012938D01*
X018603Y012892D01*
X018615Y012845D01*
X018623Y012797D01*
X018627Y012749D01*
X018627Y012701D01*
X018623Y012653D01*
X018615Y012605D01*
X018603Y012558D01*
X018588Y012512D01*
X018568Y012468D01*
X018546Y012426D01*
X018520Y012385D01*
X018490Y012347D01*
X018458Y012311D01*
X018423Y012278D01*
X018385Y012247D01*
X018345Y012221D01*
X018303Y012197D01*
X018259Y012177D01*
X018213Y012161D01*
X018167Y012148D01*
X018119Y012139D01*
X018071Y012134D01*
X018023Y012133D01*
X017975Y012136D01*
X017927Y012143D01*
X017880Y012154D01*
X017834Y012168D01*
X017789Y012186D01*
X017746Y012208D01*
X017705Y012234D01*
X017666Y012262D01*
X017629Y012294D01*
X017596Y012328D01*
X017565Y012365D01*
X017537Y012405D01*
X017513Y012447D01*
X017492Y012490D01*
X017474Y012535D01*
X017461Y012582D01*
X017451Y012629D01*
X017445Y012677D01*
X017443Y012725D01*
X014960Y012650D02*
X014885Y012725D01*
X014660Y012725D01*
X014660Y012575D01*
X014735Y012500D01*
X014885Y012500D01*
X014960Y012575D01*
X014960Y012650D01*
X014810Y012875D02*
X014660Y012725D01*
X014810Y012875D02*
X014960Y012950D01*
X012110Y010600D02*
X011810Y010600D01*
X011960Y010600D02*
X011960Y011050D01*
X011810Y010900D01*
X011785Y009875D02*
X011787Y009899D01*
X011793Y009923D01*
X011802Y009945D01*
X011815Y009965D01*
X011831Y009983D01*
X011850Y009998D01*
X011871Y010011D01*
X011893Y010019D01*
X011917Y010024D01*
X011941Y010025D01*
X011965Y010022D01*
X011988Y010015D01*
X012010Y010005D01*
X012030Y009991D01*
X012047Y009974D01*
X012062Y009955D01*
X012073Y009934D01*
X012081Y009911D01*
X012085Y009887D01*
X012085Y009863D01*
X012081Y009839D01*
X012073Y009816D01*
X012062Y009795D01*
X012047Y009776D01*
X012030Y009759D01*
X012010Y009745D01*
X011988Y009735D01*
X011965Y009728D01*
X011941Y009725D01*
X011917Y009726D01*
X011893Y009731D01*
X011871Y009739D01*
X011850Y009752D01*
X011831Y009767D01*
X011815Y009785D01*
X011802Y009805D01*
X011793Y009827D01*
X011787Y009851D01*
X011785Y009875D01*
X011985Y009525D02*
X011985Y007675D01*
X014085Y007675D01*
X014085Y009775D01*
X012235Y009775D01*
X011985Y009525D01*
X010410Y005350D02*
X010410Y005050D01*
X010410Y005200D02*
X009960Y005200D01*
X010110Y005050D01*
X010985Y004825D02*
X015085Y004825D01*
X015085Y001625D01*
X010985Y001625D01*
X010985Y004825D01*
X011085Y004225D02*
X014985Y004225D01*
X014985Y002225D01*
X011085Y002225D01*
X011085Y004225D01*
X010985Y003325D02*
X015085Y003325D01*
X015085Y000125D01*
X010985Y000125D01*
X010985Y003325D01*
X011085Y002725D02*
X014985Y002725D01*
X014985Y000725D01*
X011085Y000725D01*
X011085Y002725D01*
X011134Y003225D02*
X011136Y003285D01*
X011142Y003344D01*
X011152Y003403D01*
X011165Y003461D01*
X011183Y003518D01*
X011204Y003573D01*
X011229Y003627D01*
X011257Y003680D01*
X011289Y003730D01*
X011324Y003778D01*
X011362Y003824D01*
X011403Y003867D01*
X011447Y003908D01*
X011493Y003945D01*
X011542Y003979D01*
X011593Y004010D01*
X011646Y004038D01*
X011701Y004062D01*
X011757Y004082D01*
X011814Y004098D01*
X011872Y004111D01*
X011931Y004120D01*
X011990Y004125D01*
X012050Y004126D01*
X012109Y004123D01*
X012169Y004116D01*
X012227Y004105D01*
X012285Y004091D01*
X012342Y004072D01*
X012397Y004050D01*
X012451Y004024D01*
X012503Y003995D01*
X012552Y003963D01*
X012600Y003927D01*
X012645Y003888D01*
X012688Y003846D01*
X012727Y003802D01*
X012764Y003755D01*
X012797Y003705D01*
X012827Y003654D01*
X012854Y003601D01*
X012877Y003546D01*
X012896Y003489D01*
X012912Y003432D01*
X012924Y003373D01*
X012932Y003314D01*
X012936Y003255D01*
X012936Y003195D01*
X012932Y003136D01*
X012924Y003077D01*
X012912Y003018D01*
X012896Y002961D01*
X012877Y002904D01*
X012854Y002849D01*
X012827Y002796D01*
X012797Y002745D01*
X012764Y002695D01*
X012727Y002648D01*
X012688Y002604D01*
X012645Y002562D01*
X012600Y002523D01*
X012552Y002487D01*
X012503Y002455D01*
X012451Y002426D01*
X012397Y002400D01*
X012342Y002378D01*
X012285Y002359D01*
X012227Y002345D01*
X012169Y002334D01*
X012109Y002327D01*
X012050Y002324D01*
X011990Y002325D01*
X011931Y002330D01*
X011872Y002339D01*
X011814Y002352D01*
X011757Y002368D01*
X011701Y002388D01*
X011646Y002412D01*
X011593Y002440D01*
X011542Y002471D01*
X011493Y002505D01*
X011447Y002542D01*
X011403Y002583D01*
X011362Y002626D01*
X011324Y002672D01*
X011289Y002720D01*
X011257Y002770D01*
X011229Y002823D01*
X011204Y002877D01*
X011183Y002932D01*
X011165Y002989D01*
X011152Y003047D01*
X011142Y003106D01*
X011136Y003165D01*
X011134Y003225D01*
X011134Y001725D02*
X011136Y001785D01*
X011142Y001844D01*
X011152Y001903D01*
X011165Y001961D01*
X011183Y002018D01*
X011204Y002073D01*
X011229Y002127D01*
X011257Y002180D01*
X011289Y002230D01*
X011324Y002278D01*
X011362Y002324D01*
X011403Y002367D01*
X011447Y002408D01*
X011493Y002445D01*
X011542Y002479D01*
X011593Y002510D01*
X011646Y002538D01*
X011701Y002562D01*
X011757Y002582D01*
X011814Y002598D01*
X011872Y002611D01*
X011931Y002620D01*
X011990Y002625D01*
X012050Y002626D01*
X012109Y002623D01*
X012169Y002616D01*
X012227Y002605D01*
X012285Y002591D01*
X012342Y002572D01*
X012397Y002550D01*
X012451Y002524D01*
X012503Y002495D01*
X012552Y002463D01*
X012600Y002427D01*
X012645Y002388D01*
X012688Y002346D01*
X012727Y002302D01*
X012764Y002255D01*
X012797Y002205D01*
X012827Y002154D01*
X012854Y002101D01*
X012877Y002046D01*
X012896Y001989D01*
X012912Y001932D01*
X012924Y001873D01*
X012932Y001814D01*
X012936Y001755D01*
X012936Y001695D01*
X012932Y001636D01*
X012924Y001577D01*
X012912Y001518D01*
X012896Y001461D01*
X012877Y001404D01*
X012854Y001349D01*
X012827Y001296D01*
X012797Y001245D01*
X012764Y001195D01*
X012727Y001148D01*
X012688Y001104D01*
X012645Y001062D01*
X012600Y001023D01*
X012552Y000987D01*
X012503Y000955D01*
X012451Y000926D01*
X012397Y000900D01*
X012342Y000878D01*
X012285Y000859D01*
X012227Y000845D01*
X012169Y000834D01*
X012109Y000827D01*
X012050Y000824D01*
X011990Y000825D01*
X011931Y000830D01*
X011872Y000839D01*
X011814Y000852D01*
X011757Y000868D01*
X011701Y000888D01*
X011646Y000912D01*
X011593Y000940D01*
X011542Y000971D01*
X011493Y001005D01*
X011447Y001042D01*
X011403Y001083D01*
X011362Y001126D01*
X011324Y001172D01*
X011289Y001220D01*
X011257Y001270D01*
X011229Y001323D01*
X011204Y001377D01*
X011183Y001432D01*
X011165Y001489D01*
X011152Y001547D01*
X011142Y001606D01*
X011136Y001665D01*
X011134Y001725D01*
X013134Y001725D02*
X013136Y001785D01*
X013142Y001844D01*
X013152Y001903D01*
X013165Y001961D01*
X013183Y002018D01*
X013204Y002073D01*
X013229Y002127D01*
X013257Y002180D01*
X013289Y002230D01*
X013324Y002278D01*
X013362Y002324D01*
X013403Y002367D01*
X013447Y002408D01*
X013493Y002445D01*
X013542Y002479D01*
X013593Y002510D01*
X013646Y002538D01*
X013701Y002562D01*
X013757Y002582D01*
X013814Y002598D01*
X013872Y002611D01*
X013931Y002620D01*
X013990Y002625D01*
X014050Y002626D01*
X014109Y002623D01*
X014169Y002616D01*
X014227Y002605D01*
X014285Y002591D01*
X014342Y002572D01*
X014397Y002550D01*
X014451Y002524D01*
X014503Y002495D01*
X014552Y002463D01*
X014600Y002427D01*
X014645Y002388D01*
X014688Y002346D01*
X014727Y002302D01*
X014764Y002255D01*
X014797Y002205D01*
X014827Y002154D01*
X014854Y002101D01*
X014877Y002046D01*
X014896Y001989D01*
X014912Y001932D01*
X014924Y001873D01*
X014932Y001814D01*
X014936Y001755D01*
X014936Y001695D01*
X014932Y001636D01*
X014924Y001577D01*
X014912Y001518D01*
X014896Y001461D01*
X014877Y001404D01*
X014854Y001349D01*
X014827Y001296D01*
X014797Y001245D01*
X014764Y001195D01*
X014727Y001148D01*
X014688Y001104D01*
X014645Y001062D01*
X014600Y001023D01*
X014552Y000987D01*
X014503Y000955D01*
X014451Y000926D01*
X014397Y000900D01*
X014342Y000878D01*
X014285Y000859D01*
X014227Y000845D01*
X014169Y000834D01*
X014109Y000827D01*
X014050Y000824D01*
X013990Y000825D01*
X013931Y000830D01*
X013872Y000839D01*
X013814Y000852D01*
X013757Y000868D01*
X013701Y000888D01*
X013646Y000912D01*
X013593Y000940D01*
X013542Y000971D01*
X013493Y001005D01*
X013447Y001042D01*
X013403Y001083D01*
X013362Y001126D01*
X013324Y001172D01*
X013289Y001220D01*
X013257Y001270D01*
X013229Y001323D01*
X013204Y001377D01*
X013183Y001432D01*
X013165Y001489D01*
X013152Y001547D01*
X013142Y001606D01*
X013136Y001665D01*
X013134Y001725D01*
X013134Y003225D02*
X013136Y003285D01*
X013142Y003344D01*
X013152Y003403D01*
X013165Y003461D01*
X013183Y003518D01*
X013204Y003573D01*
X013229Y003627D01*
X013257Y003680D01*
X013289Y003730D01*
X013324Y003778D01*
X013362Y003824D01*
X013403Y003867D01*
X013447Y003908D01*
X013493Y003945D01*
X013542Y003979D01*
X013593Y004010D01*
X013646Y004038D01*
X013701Y004062D01*
X013757Y004082D01*
X013814Y004098D01*
X013872Y004111D01*
X013931Y004120D01*
X013990Y004125D01*
X014050Y004126D01*
X014109Y004123D01*
X014169Y004116D01*
X014227Y004105D01*
X014285Y004091D01*
X014342Y004072D01*
X014397Y004050D01*
X014451Y004024D01*
X014503Y003995D01*
X014552Y003963D01*
X014600Y003927D01*
X014645Y003888D01*
X014688Y003846D01*
X014727Y003802D01*
X014764Y003755D01*
X014797Y003705D01*
X014827Y003654D01*
X014854Y003601D01*
X014877Y003546D01*
X014896Y003489D01*
X014912Y003432D01*
X014924Y003373D01*
X014932Y003314D01*
X014936Y003255D01*
X014936Y003195D01*
X014932Y003136D01*
X014924Y003077D01*
X014912Y003018D01*
X014896Y002961D01*
X014877Y002904D01*
X014854Y002849D01*
X014827Y002796D01*
X014797Y002745D01*
X014764Y002695D01*
X014727Y002648D01*
X014688Y002604D01*
X014645Y002562D01*
X014600Y002523D01*
X014552Y002487D01*
X014503Y002455D01*
X014451Y002426D01*
X014397Y002400D01*
X014342Y002378D01*
X014285Y002359D01*
X014227Y002345D01*
X014169Y002334D01*
X014109Y002327D01*
X014050Y002324D01*
X013990Y002325D01*
X013931Y002330D01*
X013872Y002339D01*
X013814Y002352D01*
X013757Y002368D01*
X013701Y002388D01*
X013646Y002412D01*
X013593Y002440D01*
X013542Y002471D01*
X013493Y002505D01*
X013447Y002542D01*
X013403Y002583D01*
X013362Y002626D01*
X013324Y002672D01*
X013289Y002720D01*
X013257Y002770D01*
X013229Y002823D01*
X013204Y002877D01*
X013183Y002932D01*
X013165Y002989D01*
X013152Y003047D01*
X013142Y003106D01*
X013136Y003165D01*
X013134Y003225D01*
X007610Y008325D02*
X007610Y008475D01*
X007535Y008550D01*
X007460Y008550D01*
X007385Y008475D01*
X007385Y008325D01*
X007310Y008250D01*
X007235Y008250D01*
X007160Y008325D01*
X007160Y008475D01*
X007235Y008550D01*
X007310Y008550D01*
X007385Y008475D01*
X007385Y008325D02*
X007460Y008250D01*
X007535Y008250D01*
X007610Y008325D01*
X007285Y008675D02*
X006785Y008675D01*
X006785Y009775D01*
X007285Y009775D01*
X007285Y008675D01*
X006285Y008675D02*
X006285Y009775D01*
X005785Y009775D01*
X005785Y008675D01*
X006285Y008675D01*
X005285Y008675D02*
X004785Y008675D01*
X004785Y009775D01*
X005285Y009775D01*
X005285Y008675D01*
X001579Y010009D02*
X000791Y010009D01*
X000732Y009983D01*
X000675Y009954D01*
X000620Y009922D01*
X000566Y009886D01*
X000515Y009847D01*
X000467Y009804D01*
X000421Y009759D01*
X000378Y009712D01*
X000337Y009662D01*
X000300Y009609D01*
X000267Y009554D01*
X000236Y009498D01*
X000209Y009439D01*
X000186Y009379D01*
X000166Y009318D01*
X000150Y009256D01*
X000138Y009192D01*
X000130Y009129D01*
X000126Y009065D01*
X000125Y009000D01*
X000129Y008936D01*
X000136Y008872D01*
X000147Y008809D01*
X000162Y008746D01*
X000181Y008685D01*
X000204Y008624D01*
X000230Y008566D01*
X000259Y008509D01*
X000292Y008453D01*
X000329Y008400D01*
X000368Y008350D01*
X000411Y008301D01*
X000456Y008256D01*
X000504Y008213D01*
X000554Y008173D01*
X000607Y008136D01*
X000662Y008103D01*
X000719Y008073D01*
X000778Y008046D01*
X000838Y008023D01*
X000899Y008004D01*
X000962Y007989D01*
X001025Y007977D01*
X001089Y007969D01*
X001153Y007965D01*
X001217Y007965D01*
X001281Y007969D01*
X001345Y007977D01*
X001408Y007989D01*
X001471Y008004D01*
X001532Y008023D01*
X001592Y008046D01*
X001651Y008073D01*
X001708Y008103D01*
X001763Y008136D01*
X001816Y008173D01*
X001866Y008213D01*
X001914Y008256D01*
X001959Y008301D01*
X002002Y008350D01*
X002041Y008400D01*
X002078Y008453D01*
X002111Y008509D01*
X002140Y008566D01*
X002166Y008624D01*
X002189Y008685D01*
X002208Y008746D01*
X002223Y008809D01*
X002234Y008872D01*
X002241Y008936D01*
X002245Y009000D01*
X002244Y009065D01*
X002240Y009129D01*
X002232Y009192D01*
X002220Y009256D01*
X002204Y009318D01*
X002184Y009379D01*
X002161Y009439D01*
X002134Y009498D01*
X002103Y009554D01*
X002070Y009609D01*
X002033Y009662D01*
X001992Y009712D01*
X001949Y009759D01*
X001903Y009804D01*
X001855Y009847D01*
X001804Y009886D01*
X001750Y009922D01*
X001695Y009954D01*
X001638Y009983D01*
X001579Y010009D01*
X003354Y022544D02*
X005716Y022544D01*
X005716Y024906D01*
X003354Y024906D01*
X003354Y022544D01*
X018535Y009725D02*
X019535Y009725D01*
X019535Y001725D01*
X018535Y001725D01*
X018535Y009725D01*
X026360Y021100D02*
X026660Y021100D01*
X026510Y021100D02*
X026510Y021550D01*
X026360Y021400D01*
X029560Y023975D02*
X029560Y024050D01*
X029635Y024125D01*
X029785Y024125D01*
X029860Y024050D01*
X029860Y023975D01*
X029785Y023900D01*
X029635Y023900D01*
X029560Y023975D01*
X029635Y024125D02*
X029560Y024200D01*
X029560Y024275D01*
X029635Y024350D01*
X029785Y024350D01*
X029860Y024275D01*
X029860Y024200D01*
X029785Y024125D01*
X030030Y023420D02*
X030030Y023120D01*
X030180Y022970D01*
X030330Y023120D01*
X030330Y023420D01*
X030490Y023270D02*
X030641Y023420D01*
X030641Y022970D01*
X030791Y022970D02*
X030490Y022970D01*
X032160Y022955D02*
X032235Y023030D01*
X032385Y023030D01*
X032460Y022955D01*
X032460Y022730D01*
X032610Y022730D02*
X032160Y022730D01*
X032160Y022955D01*
X032460Y022880D02*
X032610Y023030D01*
X032385Y023190D02*
X032385Y023491D01*
X032610Y023416D02*
X032160Y023416D01*
X032385Y023190D01*
X033660Y023190D02*
X033885Y023190D01*
X033810Y023341D01*
X033810Y023416D01*
X033885Y023491D01*
X034035Y023491D01*
X034110Y023416D01*
X034110Y023265D01*
X034035Y023190D01*
X034110Y023030D02*
X033960Y022880D01*
X033960Y022955D02*
X033960Y022730D01*
X034110Y022730D02*
X033660Y022730D01*
X033660Y022955D01*
X033735Y023030D01*
X033885Y023030D01*
X033960Y022955D01*
X033660Y023190D02*
X033660Y023491D01*
X035160Y023341D02*
X035610Y023341D01*
X035610Y023491D02*
X035610Y023190D01*
X035610Y023030D02*
X035460Y022880D01*
X035460Y022955D02*
X035460Y022730D01*
X035610Y022730D02*
X035160Y022730D01*
X035160Y022955D01*
X035235Y023030D01*
X035385Y023030D01*
X035460Y022955D01*
X035310Y023190D02*
X035160Y023341D01*
X035160Y023651D02*
X035385Y023651D01*
X035310Y023801D01*
X035310Y023876D01*
X035385Y023951D01*
X035535Y023951D01*
X035610Y023876D01*
X035610Y023726D01*
X035535Y023651D01*
X035160Y023651D02*
X035160Y023951D01*
X038141Y023709D02*
X038929Y023709D01*
X038988Y023683D01*
X039045Y023654D01*
X039100Y023622D01*
X039154Y023586D01*
X039205Y023547D01*
X039253Y023504D01*
X039299Y023459D01*
X039342Y023412D01*
X039383Y023362D01*
X039420Y023309D01*
X039453Y023254D01*
X039484Y023198D01*
X039511Y023139D01*
X039534Y023079D01*
X039554Y023018D01*
X039570Y022956D01*
X039582Y022892D01*
X039590Y022829D01*
X039594Y022765D01*
X039595Y022700D01*
X039591Y022636D01*
X039584Y022572D01*
X039573Y022509D01*
X039558Y022446D01*
X039539Y022385D01*
X039516Y022324D01*
X039490Y022266D01*
X039461Y022209D01*
X039428Y022153D01*
X039391Y022100D01*
X039352Y022050D01*
X039309Y022001D01*
X039264Y021956D01*
X039216Y021913D01*
X039166Y021873D01*
X039113Y021836D01*
X039058Y021803D01*
X039001Y021773D01*
X038942Y021746D01*
X038882Y021723D01*
X038821Y021704D01*
X038758Y021689D01*
X038695Y021677D01*
X038631Y021669D01*
X038567Y021665D01*
X038503Y021665D01*
X038439Y021669D01*
X038375Y021677D01*
X038312Y021689D01*
X038249Y021704D01*
X038188Y021723D01*
X038128Y021746D01*
X038069Y021773D01*
X038012Y021803D01*
X037957Y021836D01*
X037904Y021873D01*
X037854Y021913D01*
X037806Y021956D01*
X037761Y022001D01*
X037718Y022050D01*
X037679Y022100D01*
X037642Y022153D01*
X037609Y022209D01*
X037580Y022266D01*
X037554Y022324D01*
X037531Y022385D01*
X037512Y022446D01*
X037497Y022509D01*
X037486Y022572D01*
X037479Y022636D01*
X037475Y022700D01*
X037476Y022765D01*
X037480Y022829D01*
X037488Y022892D01*
X037500Y022956D01*
X037516Y023018D01*
X037536Y023079D01*
X037559Y023139D01*
X037586Y023198D01*
X037617Y023254D01*
X037650Y023309D01*
X037687Y023362D01*
X037728Y023412D01*
X037771Y023459D01*
X037817Y023504D01*
X037865Y023547D01*
X037916Y023586D01*
X037970Y023622D01*
X038025Y023654D01*
X038082Y023683D01*
X038141Y023709D01*
X038660Y017040D02*
X038660Y016740D01*
X038660Y016890D02*
X038210Y016890D01*
X038360Y016740D01*
X038285Y016579D02*
X038210Y016504D01*
X038210Y016354D01*
X038285Y016279D01*
X038585Y016279D01*
X038660Y016354D01*
X038660Y016504D01*
X038585Y016579D01*
X038660Y016122D02*
X038660Y015972D01*
X038660Y016047D02*
X038210Y016047D01*
X038210Y015972D02*
X038210Y016122D01*
X036710Y009725D02*
X036710Y009425D01*
X036560Y009575D02*
X036860Y009575D01*
X035360Y009575D02*
X035060Y009575D01*
X036485Y006550D02*
X036560Y006550D01*
X036635Y006475D01*
X036635Y006325D01*
X036560Y006250D01*
X036485Y006250D01*
X036410Y006325D01*
X036410Y006475D01*
X036485Y006550D01*
X036635Y006475D02*
X036710Y006550D01*
X036785Y006550D01*
X036860Y006475D01*
X036860Y006325D01*
X036785Y006250D01*
X036710Y006250D01*
X036635Y006325D01*
X039210Y003200D02*
X039660Y003200D01*
X039660Y003050D02*
X039660Y003350D01*
X039360Y003050D02*
X039210Y003200D01*
X021325Y028600D02*
X021175Y028600D01*
X021100Y028675D01*
X021100Y028750D01*
X021175Y028825D01*
X021325Y028825D01*
X021400Y028750D01*
X021400Y028675D01*
X021325Y028600D01*
X021325Y028825D02*
X021400Y028900D01*
X021400Y028975D01*
X021325Y029050D01*
X021175Y029050D01*
X021100Y028975D01*
X021100Y028900D01*
X021175Y028825D01*
X024300Y031400D02*
X024600Y031400D01*
X024450Y031400D02*
X024450Y031850D01*
X024300Y031700D01*
D14*
X035498Y026140D02*
X035498Y025640D01*
X035998Y025890D01*
X035498Y026140D01*
X035498Y026081D02*
X035617Y026081D01*
X035498Y026002D02*
X035774Y026002D01*
X035931Y025924D02*
X035498Y025924D01*
X035498Y025845D02*
X035907Y025845D01*
X035750Y025767D02*
X035498Y025767D01*
X035498Y025688D02*
X035593Y025688D01*
X013735Y020515D02*
X013735Y017935D01*
X012335Y017935D01*
X012335Y020515D01*
X013735Y020515D01*
X004450Y002512D02*
X003950Y002512D01*
X004200Y002012D01*
X004450Y002512D01*
X004420Y002452D02*
X003981Y002452D01*
X004020Y002374D02*
X004381Y002374D01*
X004342Y002295D02*
X004059Y002295D01*
X004098Y002217D02*
X004302Y002217D01*
X004263Y002138D02*
X004138Y002138D01*
X004177Y002060D02*
X004224Y002060D01*
D15*
X002085Y022725D02*
X001985Y022725D01*
X001985Y024225D02*
X002085Y024225D01*
X002085Y025725D02*
X001985Y025725D01*
X001985Y027225D02*
X002085Y027225D01*
X016035Y025775D02*
X016035Y025675D01*
X017535Y025675D02*
X017535Y025775D01*
X019035Y025775D02*
X019035Y025675D01*
X033985Y001225D02*
X034085Y001225D01*
D16*
X027134Y008658D02*
X026820Y008972D01*
X026820Y008815D02*
X027134Y008815D01*
X027134Y008972D02*
X026820Y008658D01*
X026977Y008658D02*
X026977Y008972D01*
X025935Y014962D02*
X025983Y015010D01*
X025983Y015105D01*
X025935Y015152D01*
X025888Y015152D01*
X025840Y015105D01*
X025840Y015010D01*
X025793Y014962D01*
X025745Y014962D01*
X025697Y015010D01*
X025697Y015105D01*
X025745Y015152D01*
X025697Y015252D02*
X025888Y015252D01*
X025983Y015347D01*
X025888Y015442D01*
X025697Y015442D01*
X025840Y015542D02*
X025840Y015685D01*
X025888Y015732D01*
X025935Y015732D01*
X025983Y015685D01*
X025983Y015590D01*
X025935Y015542D01*
X025840Y015542D01*
X025745Y015637D01*
X025697Y015732D01*
X004097Y030140D02*
X003850Y030140D01*
X003974Y030140D02*
X003974Y030510D01*
X003850Y030387D01*
D17*
X030035Y017175D02*
X030035Y014875D01*
X038035Y014875D01*
X038035Y015625D01*
X037996Y015627D01*
X037957Y015633D01*
X037919Y015642D01*
X037882Y015655D01*
X037846Y015672D01*
X037813Y015692D01*
X037781Y015716D01*
X037752Y015742D01*
X037726Y015771D01*
X037702Y015803D01*
X037682Y015836D01*
X037665Y015872D01*
X037652Y015909D01*
X037643Y015947D01*
X037637Y015986D01*
X037635Y016025D01*
X037637Y016064D01*
X037643Y016103D01*
X037652Y016141D01*
X037665Y016178D01*
X037682Y016214D01*
X037702Y016247D01*
X037726Y016279D01*
X037752Y016308D01*
X037781Y016334D01*
X037813Y016358D01*
X037846Y016378D01*
X037882Y016395D01*
X037919Y016408D01*
X037957Y016417D01*
X037996Y016423D01*
X038035Y016425D01*
X038035Y017175D01*
X030035Y017175D01*
X031735Y005845D02*
X032035Y005845D01*
X032335Y005845D01*
X032335Y005595D02*
X032035Y005595D01*
X031735Y005595D01*
D18*
X029285Y016225D03*
X038785Y016225D03*
D19*
X036035Y022625D02*
X036035Y022825D01*
X034535Y022825D02*
X034535Y022625D01*
X033035Y022625D02*
X033035Y022825D01*
D20*
X024683Y019784D03*
X024387Y019784D03*
X023683Y019784D03*
X023387Y019784D03*
X022683Y019784D03*
X022387Y019784D03*
X021683Y019784D03*
X021387Y019784D03*
D21*
X021535Y019784D03*
X022535Y019784D03*
X023535Y019784D03*
X024535Y019784D03*
D22*
X007615Y009828D02*
X007615Y009724D01*
X007563Y009673D01*
X007357Y009880D01*
X007563Y009880D01*
X007615Y009828D01*
X007563Y009673D02*
X007357Y009673D01*
X007305Y009724D01*
X007305Y009828D01*
X007357Y009880D01*
X007357Y009557D02*
X007305Y009506D01*
X007305Y009402D01*
X007357Y009350D01*
X007357Y009235D02*
X007460Y009235D01*
X007512Y009183D01*
X007512Y009028D01*
X007615Y009028D02*
X007305Y009028D01*
X007305Y009183D01*
X007357Y009235D01*
X007512Y009132D02*
X007615Y009235D01*
X007615Y009350D02*
X007408Y009557D01*
X007357Y009557D01*
X007615Y009557D02*
X007615Y009350D01*
X006615Y009350D02*
X006408Y009557D01*
X006357Y009557D01*
X006305Y009506D01*
X006305Y009402D01*
X006357Y009350D01*
X006357Y009235D02*
X006460Y009235D01*
X006512Y009183D01*
X006512Y009028D01*
X006615Y009028D02*
X006305Y009028D01*
X006305Y009183D01*
X006357Y009235D01*
X006512Y009132D02*
X006615Y009235D01*
X006615Y009350D02*
X006615Y009557D01*
X006615Y009673D02*
X006615Y009880D01*
X006615Y009776D02*
X006305Y009776D01*
X006408Y009673D01*
X005615Y009673D02*
X005408Y009880D01*
X005357Y009880D01*
X005305Y009828D01*
X005305Y009724D01*
X005357Y009673D01*
X005357Y009557D02*
X005305Y009506D01*
X005305Y009402D01*
X005357Y009350D01*
X005357Y009235D02*
X005460Y009235D01*
X005512Y009183D01*
X005512Y009028D01*
X005615Y009028D02*
X005305Y009028D01*
X005305Y009183D01*
X005357Y009235D01*
X005512Y009132D02*
X005615Y009235D01*
X005615Y009350D02*
X005408Y009557D01*
X005357Y009557D01*
X005615Y009557D02*
X005615Y009350D01*
X005615Y009673D02*
X005615Y009880D01*
M02*
