G75*
%MOIN*%
%OFA0B0*%
%FSLAX24Y24*%
%IPPOS*%
%LPD*%
%AMOC8*
5,1,8,0,0,1.08239X$1,22.5*
%
%ADD10C,0.0000*%
%ADD11C,0.0100*%
%ADD12C,0.0088*%
%ADD13R,0.0800X0.0700*%
%ADD14R,0.0315X0.0551*%
%ADD15C,0.0600*%
D10*
X000535Y000450D02*
X000535Y039446D01*
X039405Y039446D01*
X039405Y000450D01*
X000535Y000450D01*
D11*
X002510Y001200D02*
X002510Y001500D01*
X002960Y001500D01*
X002960Y001200D01*
X002510Y001200D01*
X002510Y001299D02*
X002960Y001299D01*
X002960Y001398D02*
X002510Y001398D01*
X002510Y001497D02*
X002960Y001497D01*
X002510Y001900D02*
X002510Y002200D01*
X002960Y002200D01*
X002960Y001900D01*
X002510Y001900D01*
X002510Y001999D02*
X002960Y001999D01*
X002960Y002098D02*
X002510Y002098D01*
X002510Y002197D02*
X002960Y002197D01*
X003035Y004225D02*
X002735Y004225D01*
X002735Y004675D01*
X003035Y004675D01*
X003035Y004225D01*
X003035Y004324D02*
X002735Y004324D01*
X002735Y004423D02*
X003035Y004423D01*
X003035Y004522D02*
X002735Y004522D01*
X002735Y004621D02*
X003035Y004621D01*
X002335Y004225D02*
X002035Y004225D01*
X002035Y004675D01*
X002335Y004675D01*
X002335Y004225D01*
X002335Y004324D02*
X002035Y004324D01*
X002035Y004423D02*
X002335Y004423D01*
X002335Y004522D02*
X002035Y004522D01*
X002035Y004621D02*
X002335Y004621D01*
X006060Y002200D02*
X006060Y001900D01*
X006060Y002200D02*
X006510Y002200D01*
X006510Y001900D01*
X006060Y001900D01*
X006060Y001999D02*
X006510Y001999D01*
X006510Y002098D02*
X006060Y002098D01*
X006060Y002197D02*
X006510Y002197D01*
X006060Y001500D02*
X006060Y001200D01*
X006060Y001500D02*
X006510Y001500D01*
X006510Y001200D01*
X006060Y001200D01*
X006060Y001299D02*
X006510Y001299D01*
X006510Y001398D02*
X006060Y001398D01*
X006060Y001497D02*
X006510Y001497D01*
X007285Y001725D02*
X007585Y001725D01*
X007285Y001725D02*
X007285Y002175D01*
X007585Y002175D01*
X007585Y001725D01*
X007585Y001824D02*
X007285Y001824D01*
X007285Y001923D02*
X007585Y001923D01*
X007585Y002022D02*
X007285Y002022D01*
X007285Y002121D02*
X007585Y002121D01*
X007985Y001725D02*
X008285Y001725D01*
X007985Y001725D02*
X007985Y002175D01*
X008285Y002175D01*
X008285Y001725D01*
X008285Y001824D02*
X007985Y001824D01*
X007985Y001923D02*
X008285Y001923D01*
X008285Y002022D02*
X007985Y002022D01*
X007985Y002121D02*
X008285Y002121D01*
D12*
X005166Y002031D02*
X005166Y001769D01*
X004904Y001769D01*
X004904Y002031D01*
X005166Y002031D01*
X005166Y001856D02*
X004904Y001856D01*
X004904Y001943D02*
X005166Y001943D01*
X005166Y002030D02*
X004904Y002030D01*
X005166Y001431D02*
X005166Y001169D01*
X004904Y001169D01*
X004904Y001431D01*
X005166Y001431D01*
X005166Y001256D02*
X004904Y001256D01*
X004904Y001343D02*
X005166Y001343D01*
X005166Y001430D02*
X004904Y001430D01*
X003804Y001431D02*
X003804Y001169D01*
X003804Y001431D02*
X004066Y001431D01*
X004066Y001169D01*
X003804Y001169D01*
X003804Y001256D02*
X004066Y001256D01*
X004066Y001343D02*
X003804Y001343D01*
X003804Y001430D02*
X004066Y001430D01*
X003804Y001769D02*
X003804Y002031D01*
X004066Y002031D01*
X004066Y001769D01*
X003804Y001769D01*
X003804Y001856D02*
X004066Y001856D01*
X004066Y001943D02*
X003804Y001943D01*
X003804Y002030D02*
X004066Y002030D01*
X003016Y003069D02*
X002754Y003069D01*
X002754Y003331D01*
X003016Y003331D01*
X003016Y003069D01*
X003016Y003156D02*
X002754Y003156D01*
X002754Y003243D02*
X003016Y003243D01*
X003016Y003330D02*
X002754Y003330D01*
X002416Y003069D02*
X002154Y003069D01*
X002154Y003331D01*
X002416Y003331D01*
X002416Y003069D01*
X002416Y003156D02*
X002154Y003156D01*
X002154Y003243D02*
X002416Y003243D01*
X002416Y003330D02*
X002154Y003330D01*
X005604Y006719D02*
X005866Y006719D01*
X005604Y006719D02*
X005604Y006981D01*
X005866Y006981D01*
X005866Y006719D01*
X005866Y006806D02*
X005604Y006806D01*
X005604Y006893D02*
X005866Y006893D01*
X005866Y006980D02*
X005604Y006980D01*
X006204Y006719D02*
X006466Y006719D01*
X006204Y006719D02*
X006204Y006981D01*
X006466Y006981D01*
X006466Y006719D01*
X006466Y006806D02*
X006204Y006806D01*
X006204Y006893D02*
X006466Y006893D01*
X006466Y006980D02*
X006204Y006980D01*
X005866Y008419D02*
X005866Y008681D01*
X005866Y008419D02*
X005604Y008419D01*
X005604Y008681D01*
X005866Y008681D01*
X005866Y008506D02*
X005604Y008506D01*
X005604Y008593D02*
X005866Y008593D01*
X005866Y008680D02*
X005604Y008680D01*
X005866Y009019D02*
X005866Y009281D01*
X005866Y009019D02*
X005604Y009019D01*
X005604Y009281D01*
X005866Y009281D01*
X005866Y009106D02*
X005604Y009106D01*
X005604Y009193D02*
X005866Y009193D01*
X005866Y009280D02*
X005604Y009280D01*
D13*
X005085Y005200D03*
X005085Y003500D03*
D14*
X003835Y006850D03*
X003235Y006820D03*
X002635Y006850D03*
D15*
X003135Y008388D02*
X003335Y008388D01*
X003335Y007552D01*
X003135Y007552D01*
X003135Y008388D01*
X003135Y008151D02*
X003335Y008151D01*
M02*
