G75*
%MOIN*%
%OFA0B0*%
%FSLAX24Y24*%
%IPPOS*%
%LPD*%
%AMOC8*
5,1,8,0,0,1.08239X$1,22.5*
%
%ADD10C,0.0000*%
%ADD11C,0.0050*%
%ADD12C,0.0060*%
%ADD13C,0.0040*%
D10*
X000535Y000725D02*
X000535Y039721D01*
X039405Y039721D01*
X039405Y000725D01*
X000535Y000725D01*
D11*
X001385Y003125D02*
X001385Y003625D01*
X002485Y003625D01*
X002485Y003125D01*
X001385Y003125D01*
X001385Y004075D02*
X002685Y004075D01*
X002685Y004775D01*
X001385Y004775D01*
X001385Y004075D01*
X001385Y005325D02*
X001385Y005825D01*
X002485Y005825D01*
X002485Y005325D01*
X001385Y005325D01*
X001385Y006375D02*
X002685Y006375D01*
X002685Y007075D01*
X001385Y007075D01*
X001385Y006375D01*
X002235Y008375D02*
X004235Y008375D01*
X004235Y009625D01*
X002235Y009625D01*
X002235Y008375D01*
X003985Y006875D02*
X003985Y006375D01*
X005085Y006375D01*
X005085Y006875D01*
X003985Y006875D01*
X003955Y005609D02*
X004113Y005609D01*
X003955Y005609D02*
X003955Y003641D01*
X004113Y003641D01*
X004585Y004175D02*
X004585Y004375D01*
X004085Y004375D01*
X004185Y004525D02*
X004185Y004725D01*
X004985Y004725D01*
X004985Y004525D01*
X004185Y004525D01*
X004085Y004875D02*
X004585Y004875D01*
X004585Y005075D01*
X004585Y004875D02*
X005085Y004875D01*
X005085Y004375D02*
X004585Y004375D01*
X005058Y003641D02*
X005215Y003641D01*
X005215Y005609D01*
X005058Y005609D01*
X005935Y004125D02*
X005935Y002825D01*
X006635Y002825D01*
X006635Y004125D01*
X005935Y004125D01*
X005085Y002725D02*
X003985Y002725D01*
X003985Y002225D01*
X005085Y002225D01*
X005085Y002725D01*
X008135Y002375D02*
X009435Y002375D01*
X009435Y003075D01*
X008135Y003075D01*
X008135Y002375D01*
X004985Y008575D02*
X004485Y008575D01*
X004485Y009675D01*
X004985Y009675D01*
X004985Y008575D01*
D12*
X004972Y008345D02*
X004915Y008289D01*
X004915Y008175D01*
X004972Y008118D01*
X005142Y008118D01*
X005142Y008005D02*
X005142Y008345D01*
X004972Y008345D01*
X004773Y008289D02*
X004717Y008345D01*
X004603Y008345D01*
X004547Y008289D01*
X004547Y008232D01*
X004773Y008005D01*
X004547Y008005D01*
X004915Y008005D02*
X005028Y008118D01*
X003905Y007000D02*
X003849Y006887D01*
X003735Y006773D01*
X003735Y006943D01*
X003679Y007000D01*
X003622Y007000D01*
X003565Y006943D01*
X003565Y006830D01*
X003622Y006773D01*
X003735Y006773D01*
X003622Y006632D02*
X003565Y006575D01*
X003565Y006462D01*
X003622Y006405D01*
X003849Y006405D01*
X003905Y006462D01*
X003905Y006575D01*
X003849Y006632D01*
X001255Y006675D02*
X001255Y006562D01*
X001199Y006505D01*
X000972Y006505D01*
X000915Y006562D01*
X000915Y006675D01*
X000972Y006732D01*
X001085Y006873D02*
X001085Y007100D01*
X000915Y007043D02*
X001255Y007043D01*
X001085Y006873D01*
X001199Y006732D02*
X001255Y006675D01*
X000999Y005714D02*
X000942Y005714D01*
X000885Y005657D01*
X000829Y005714D01*
X000772Y005714D01*
X000715Y005657D01*
X000715Y005543D01*
X000772Y005487D01*
X000772Y005345D02*
X000715Y005289D01*
X000715Y005175D01*
X000772Y005118D01*
X000999Y005118D01*
X001055Y005175D01*
X001055Y005289D01*
X000999Y005345D01*
X000999Y005487D02*
X001055Y005543D01*
X001055Y005657D01*
X000999Y005714D01*
X000885Y005657D02*
X000885Y005600D01*
X000815Y004714D02*
X000815Y004487D01*
X001042Y004714D01*
X001099Y004714D01*
X001155Y004657D01*
X001155Y004543D01*
X001099Y004487D01*
X001099Y004345D02*
X001155Y004289D01*
X001155Y004175D01*
X001099Y004118D01*
X000872Y004118D01*
X000815Y004175D01*
X000815Y004289D01*
X000872Y004345D01*
X000715Y003514D02*
X000715Y003287D01*
X000715Y003400D02*
X001055Y003400D01*
X000942Y003287D01*
X000999Y003145D02*
X001055Y003089D01*
X001055Y002975D01*
X000999Y002918D01*
X000772Y002918D01*
X000715Y002975D01*
X000715Y003089D01*
X000772Y003145D01*
X003465Y002657D02*
X003465Y002543D01*
X003522Y002487D01*
X003635Y002487D02*
X003692Y002600D01*
X003692Y002657D01*
X003635Y002714D01*
X003522Y002714D01*
X003465Y002657D01*
X003635Y002487D02*
X003805Y002487D01*
X003805Y002714D01*
X003749Y002345D02*
X003805Y002289D01*
X003805Y002175D01*
X003749Y002118D01*
X003522Y002118D01*
X003465Y002175D01*
X003465Y002289D01*
X003522Y002345D01*
X006197Y002539D02*
X006423Y002312D01*
X006423Y002255D01*
X006565Y002312D02*
X006622Y002255D01*
X006735Y002255D01*
X006792Y002312D01*
X006792Y002539D01*
X006735Y002595D01*
X006622Y002595D01*
X006565Y002539D01*
X006423Y002595D02*
X006197Y002595D01*
X006197Y002539D01*
X008547Y002039D02*
X008547Y001982D01*
X008603Y001925D01*
X008717Y001925D01*
X008773Y001982D01*
X008773Y002039D01*
X008717Y002095D01*
X008603Y002095D01*
X008547Y002039D01*
X008603Y001925D02*
X008547Y001868D01*
X008547Y001812D01*
X008603Y001755D01*
X008717Y001755D01*
X008773Y001812D01*
X008773Y001868D01*
X008717Y001925D01*
X008915Y001812D02*
X008972Y001755D01*
X009085Y001755D01*
X009142Y001812D01*
X009142Y002039D01*
X009085Y002095D01*
X008972Y002095D01*
X008915Y002039D01*
D13*
X025755Y018014D02*
X026215Y018014D01*
X026215Y018244D01*
X026139Y018321D01*
X025985Y018321D01*
X025909Y018244D01*
X025909Y018014D01*
X025909Y018167D02*
X025755Y018321D01*
X025755Y018474D02*
X026062Y018781D01*
X026139Y018781D01*
X026215Y018704D01*
X026215Y018551D01*
X026139Y018474D01*
X025755Y018474D02*
X025755Y018781D01*
X025755Y018935D02*
X025832Y018935D01*
X026139Y019242D01*
X026215Y019242D01*
X026215Y018935D01*
X026595Y019545D02*
X026749Y019545D01*
X026825Y019622D01*
X026825Y019775D02*
X026672Y019852D01*
X026595Y019852D01*
X026519Y019775D01*
X026519Y019622D01*
X026595Y019545D01*
X026825Y019775D02*
X026825Y020005D01*
X026519Y020005D01*
X026979Y019929D02*
X026979Y019852D01*
X027286Y019545D01*
X026979Y019545D01*
X026979Y019929D02*
X027056Y020005D01*
X027209Y020005D01*
X027286Y019929D01*
X027439Y019929D02*
X027439Y019775D01*
X027516Y019698D01*
X027746Y019698D01*
X027746Y019545D02*
X027746Y020005D01*
X027516Y020005D01*
X027439Y019929D01*
X027593Y019698D02*
X027439Y019545D01*
X028405Y019046D02*
X028405Y018893D01*
X028482Y018816D01*
X028559Y018816D01*
X028635Y018893D01*
X028635Y019046D01*
X028559Y019123D01*
X028482Y019123D01*
X028405Y019046D01*
X028635Y019046D02*
X028712Y019123D01*
X028789Y019123D01*
X028865Y019046D01*
X028865Y018893D01*
X028789Y018816D01*
X028712Y018816D01*
X028635Y018893D01*
X028712Y018662D02*
X028789Y018662D01*
X028865Y018586D01*
X028865Y018432D01*
X028789Y018355D01*
X028789Y018202D02*
X028635Y018202D01*
X028559Y018125D01*
X028559Y017895D01*
X028559Y018048D02*
X028405Y018202D01*
X028405Y018355D02*
X028712Y018662D01*
X028405Y018662D02*
X028405Y018355D01*
X028789Y018202D02*
X028865Y018125D01*
X028865Y017895D01*
X028405Y017895D01*
X027589Y016442D02*
X027282Y016135D01*
X027205Y016211D01*
X027205Y016365D01*
X027282Y016442D01*
X027589Y016442D01*
X027665Y016365D01*
X027665Y016211D01*
X027589Y016135D01*
X027282Y016135D01*
X027282Y015981D02*
X027205Y015904D01*
X027205Y015751D01*
X027282Y015674D01*
X027205Y015521D02*
X027359Y015367D01*
X027359Y015444D02*
X027359Y015214D01*
X027205Y015214D02*
X027665Y015214D01*
X027665Y015444D01*
X027589Y015521D01*
X027435Y015521D01*
X027359Y015444D01*
X027589Y015674D02*
X027665Y015751D01*
X027665Y015904D01*
X027589Y015981D01*
X027512Y015981D01*
X027435Y015904D01*
X027359Y015981D01*
X027282Y015981D01*
X027435Y015904D02*
X027435Y015828D01*
X028405Y015046D02*
X028482Y015123D01*
X028559Y015123D01*
X028635Y015046D01*
X028635Y014816D01*
X028482Y014816D01*
X028405Y014893D01*
X028405Y015046D01*
X028635Y014816D02*
X028789Y014969D01*
X028865Y015123D01*
X028789Y014662D02*
X028865Y014586D01*
X028865Y014432D01*
X028789Y014355D01*
X028789Y014202D02*
X028635Y014202D01*
X028559Y014125D01*
X028559Y013895D01*
X028559Y014048D02*
X028405Y014202D01*
X028405Y014355D02*
X028712Y014662D01*
X028789Y014662D01*
X028405Y014662D02*
X028405Y014355D01*
X028789Y014202D02*
X028865Y014125D01*
X028865Y013895D01*
X028405Y013895D01*
X027365Y014046D02*
X027135Y013816D01*
X027135Y014123D01*
X026905Y014046D02*
X027365Y014046D01*
X027289Y013662D02*
X027365Y013586D01*
X027365Y013432D01*
X027289Y013355D01*
X027289Y013202D02*
X027135Y013202D01*
X027059Y013125D01*
X027059Y012895D01*
X027059Y013048D02*
X026905Y013202D01*
X026905Y013355D02*
X027212Y013662D01*
X027289Y013662D01*
X026905Y013662D02*
X026905Y013355D01*
X027289Y013202D02*
X027365Y013125D01*
X027365Y012895D01*
X026905Y012895D01*
X026895Y011355D02*
X026819Y011279D01*
X026819Y011202D01*
X026895Y011125D01*
X026819Y011048D01*
X026819Y010972D01*
X026895Y010895D01*
X027049Y010895D01*
X027125Y010972D01*
X027279Y010895D02*
X027586Y010895D01*
X027279Y011202D01*
X027279Y011279D01*
X027356Y011355D01*
X027509Y011355D01*
X027586Y011279D01*
X027739Y011279D02*
X027739Y011125D01*
X027816Y011048D01*
X028046Y011048D01*
X028046Y010895D02*
X028046Y011355D01*
X027816Y011355D01*
X027739Y011279D01*
X027893Y011048D02*
X027739Y010895D01*
X027125Y011279D02*
X027049Y011355D01*
X026895Y011355D01*
X026895Y011125D02*
X026972Y011125D01*
X030714Y016595D02*
X030637Y016672D01*
X030637Y016979D01*
X030714Y017055D01*
X030868Y017055D01*
X030944Y016979D01*
X030944Y016902D01*
X030868Y016825D01*
X030637Y016825D01*
X030714Y016595D02*
X030868Y016595D01*
X030944Y016672D01*
X031098Y016595D02*
X031405Y016595D01*
X031098Y016902D01*
X031098Y016979D01*
X031174Y017055D01*
X031328Y017055D01*
X031405Y016979D01*
X031558Y016979D02*
X031558Y016825D01*
X031635Y016748D01*
X031865Y016748D01*
X031865Y016595D02*
X031865Y017055D01*
X031635Y017055D01*
X031558Y016979D01*
X031712Y016748D02*
X031558Y016595D01*
M02*
