G75*
%MOIN*%
%OFA0B0*%
%FSLAX24Y24*%
%IPPOS*%
%LPD*%
%AMOC8*
5,1,8,0,0,1.08239X$1,22.5*
%
%ADD10C,0.0000*%
%ADD11C,0.0060*%
%ADD12C,0.0100*%
%ADD13C,0.0050*%
%ADD14C,0.0200*%
%ADD15C,0.0030*%
%ADD16C,0.0120*%
%ADD17R,0.0150X0.0200*%
%ADD18R,0.0500X0.7000*%
%ADD19C,0.0240*%
%ADD20R,0.0118X0.0059*%
%ADD21R,0.0118X0.0118*%
%ADD22C,0.0040*%
%ADD23R,0.0449X0.0236*%
%ADD24R,0.0346X0.0394*%
%ADD25C,0.0300*%
%ADD26R,0.0200X0.0300*%
%ADD27R,0.0400X0.0300*%
D10*
X000535Y000450D02*
X000535Y039446D01*
X039405Y039446D01*
X039405Y000450D01*
X000535Y000450D01*
D11*
X003155Y002570D02*
X003155Y005190D01*
X003295Y005330D01*
X005915Y005330D01*
X005915Y002570D01*
X003155Y002570D01*
X002135Y004900D02*
X001795Y004900D01*
X001795Y005070D01*
X001851Y005127D01*
X001965Y005127D01*
X002022Y005070D01*
X002022Y004900D01*
X002078Y005268D02*
X001851Y005268D01*
X001795Y005325D01*
X001795Y005438D01*
X001851Y005495D01*
X002078Y005495D01*
X002135Y005438D01*
X002135Y005325D01*
X002078Y005268D01*
X002135Y005637D02*
X001795Y005637D01*
X001795Y005863D02*
X002135Y005863D01*
X002022Y005750D01*
X002135Y005637D01*
X002135Y006005D02*
X001795Y006005D01*
X001795Y006232D01*
X001795Y006373D02*
X001795Y006543D01*
X001851Y006600D01*
X001965Y006600D01*
X002022Y006543D01*
X002022Y006373D01*
X002135Y006373D02*
X001795Y006373D01*
X002022Y006487D02*
X002135Y006600D01*
X002135Y006232D02*
X002135Y006005D01*
X001965Y006005D02*
X001965Y006118D01*
X001535Y006200D02*
X001535Y006700D01*
X001285Y006950D01*
X000785Y006950D01*
X000535Y006700D01*
X000535Y006200D01*
X000785Y005950D01*
X001285Y005950D01*
X001535Y006200D01*
X001285Y005950D02*
X001535Y005700D01*
X001535Y005200D01*
X001285Y004950D01*
X000785Y004950D01*
X000535Y005200D01*
X000535Y005700D01*
X000785Y005950D01*
X007265Y005943D02*
X007605Y005943D01*
X007265Y005717D01*
X007605Y005717D01*
X007605Y005575D02*
X007265Y005575D01*
X007265Y005348D02*
X007605Y005575D01*
X007785Y005700D02*
X008035Y005950D01*
X007785Y006200D01*
X007785Y006700D01*
X008035Y006950D01*
X007785Y007200D01*
X007785Y007700D01*
X008035Y007950D01*
X007785Y008200D01*
X007785Y008700D01*
X008035Y008950D01*
X008535Y008950D01*
X008785Y009200D01*
X009035Y008950D01*
X009535Y008950D01*
X009785Y009200D01*
X009785Y009700D01*
X009535Y009950D01*
X009035Y009950D01*
X008785Y009700D01*
X008785Y009200D01*
X008785Y009700D01*
X008535Y009950D01*
X008035Y009950D01*
X007785Y009700D01*
X007785Y009200D01*
X008035Y008950D01*
X009535Y008950D01*
X009785Y008700D01*
X009785Y008200D01*
X009535Y007950D01*
X009785Y007700D01*
X009785Y007200D01*
X009535Y006950D01*
X009785Y006700D01*
X009785Y006200D01*
X009535Y005950D01*
X009785Y005700D01*
X009785Y005200D01*
X009535Y004950D01*
X008035Y004950D01*
X007785Y005200D01*
X007785Y005700D01*
X007605Y005348D02*
X007265Y005348D01*
X007378Y005207D02*
X007605Y005207D01*
X007435Y005207D02*
X007435Y004980D01*
X007378Y004980D02*
X007265Y005093D01*
X007378Y005207D01*
X007378Y004980D02*
X007605Y004980D01*
X007605Y006085D02*
X007378Y006085D01*
X007265Y006198D01*
X007378Y006312D01*
X007605Y006312D01*
X007605Y006453D02*
X007265Y006453D01*
X007265Y006623D01*
X007321Y006680D01*
X007435Y006680D01*
X007492Y006623D01*
X007492Y006453D01*
X007492Y006567D02*
X007605Y006680D01*
X007605Y006822D02*
X007265Y006822D01*
X007265Y007048D01*
X007265Y007190D02*
X007265Y007417D01*
X007435Y007303D02*
X007435Y007190D01*
X007605Y007190D02*
X007265Y007190D01*
X007435Y006935D02*
X007435Y006822D01*
X007605Y006822D02*
X007605Y007048D01*
X007435Y006312D02*
X007435Y006085D01*
X011035Y005200D02*
X011035Y004700D01*
X011285Y004450D01*
X011785Y004450D01*
X012035Y004700D01*
X012035Y005200D01*
X011785Y005450D01*
X011285Y005450D01*
X011035Y005200D01*
X012035Y005200D02*
X012285Y005450D01*
X012785Y005450D01*
X013035Y005200D01*
X013035Y004700D01*
X012785Y004450D01*
X012285Y004450D01*
X012035Y004700D01*
X011785Y003450D02*
X011285Y003450D01*
X011035Y003200D01*
X011035Y002700D01*
X011285Y002450D01*
X011785Y002450D01*
X012035Y002700D01*
X012285Y002450D01*
X012785Y002450D01*
X013035Y002700D01*
X013035Y003200D01*
X012785Y003450D01*
X012285Y003450D01*
X012035Y003200D01*
X012035Y002700D01*
X012035Y003200D02*
X011785Y003450D01*
X017135Y012550D02*
X017285Y012550D01*
X017335Y012600D01*
X018735Y012600D01*
X018785Y012550D01*
X018935Y012550D01*
X018952Y012552D01*
X018969Y012556D01*
X018985Y012563D01*
X018999Y012573D01*
X019012Y012586D01*
X019022Y012600D01*
X019029Y012616D01*
X019033Y012633D01*
X019035Y012650D01*
X019035Y013250D01*
X019033Y013267D01*
X019029Y013284D01*
X019022Y013300D01*
X019012Y013314D01*
X018999Y013327D01*
X018985Y013337D01*
X018969Y013344D01*
X018952Y013348D01*
X018935Y013350D01*
X018785Y013350D01*
X018735Y013300D01*
X017335Y013300D01*
X017285Y013350D01*
X017135Y013350D01*
X017118Y013348D01*
X017101Y013344D01*
X017085Y013337D01*
X017071Y013327D01*
X017058Y013314D01*
X017048Y013300D01*
X017041Y013284D01*
X017037Y013267D01*
X017035Y013250D01*
X017035Y012650D01*
X017037Y012633D01*
X017041Y012616D01*
X017048Y012600D01*
X017058Y012586D01*
X017071Y012573D01*
X017085Y012563D01*
X017101Y012556D01*
X017118Y012552D01*
X017135Y012550D01*
X013760Y013115D02*
X013760Y015563D01*
X011110Y015563D01*
X011110Y013115D01*
X012785Y015450D02*
X013785Y015450D01*
X013785Y016450D01*
X013785Y017450D01*
X013785Y018450D01*
X012785Y018450D01*
X012785Y017450D01*
X012785Y016450D01*
X012785Y015450D01*
X012785Y016450D02*
X013785Y016450D01*
X013785Y017450D02*
X012785Y017450D01*
X012074Y017337D02*
X012017Y017280D01*
X011903Y017280D01*
X011847Y017337D01*
X012074Y017564D01*
X012074Y017337D01*
X012074Y017564D02*
X012017Y017620D01*
X011903Y017620D01*
X011847Y017564D01*
X011847Y017337D01*
X011705Y017280D02*
X011478Y017280D01*
X011592Y017280D02*
X011592Y017620D01*
X011478Y017507D01*
X011337Y017564D02*
X011280Y017620D01*
X011167Y017620D01*
X011110Y017564D01*
X011110Y017337D01*
X011167Y017280D01*
X011280Y017280D01*
X011337Y017337D01*
X012772Y019130D02*
X012885Y019130D01*
X012942Y019187D01*
X013083Y019187D02*
X013140Y019130D01*
X013254Y019130D01*
X013310Y019187D01*
X013310Y019414D01*
X013254Y019470D01*
X013140Y019470D01*
X013083Y019414D01*
X013083Y019357D01*
X013140Y019300D01*
X013310Y019300D01*
X012942Y019414D02*
X012885Y019470D01*
X012772Y019470D01*
X012715Y019414D01*
X012715Y019187D01*
X012772Y019130D01*
X012785Y022450D02*
X012285Y022450D01*
X012035Y022700D01*
X011785Y022450D01*
X011285Y022450D01*
X011035Y022700D01*
X011035Y024200D01*
X011285Y024450D01*
X011785Y024450D01*
X012035Y024200D01*
X012285Y024450D01*
X012785Y024450D01*
X013035Y024200D01*
X013285Y024450D01*
X013785Y024450D01*
X014035Y024200D01*
X014285Y024450D01*
X014785Y024450D01*
X015035Y024200D01*
X015035Y022700D01*
X014785Y022450D01*
X014285Y022450D01*
X014035Y022700D01*
X013785Y022450D01*
X013285Y022450D01*
X013035Y022700D01*
X012785Y022450D01*
X009285Y025950D02*
X009535Y026200D01*
X009535Y026700D01*
X009285Y026950D01*
X009535Y027200D01*
X009535Y027700D01*
X009285Y027950D01*
X009535Y028200D01*
X009535Y028700D01*
X009285Y028950D01*
X009535Y029200D01*
X009535Y029700D01*
X009285Y029950D01*
X008785Y029950D01*
X008535Y030200D01*
X008535Y030700D01*
X008785Y030950D01*
X009285Y030950D01*
X009535Y030700D01*
X009535Y030200D01*
X009285Y029950D01*
X007785Y029950D01*
X008285Y029950D01*
X008535Y030200D01*
X008535Y030700D01*
X008285Y030950D01*
X007785Y030950D01*
X007535Y030700D01*
X007535Y030200D01*
X007785Y029950D01*
X007535Y029700D01*
X007535Y029200D01*
X007785Y028950D01*
X007535Y028700D01*
X007535Y028200D01*
X007785Y027950D01*
X007535Y027700D01*
X007535Y027200D01*
X007785Y026950D01*
X007535Y026700D01*
X007535Y026200D01*
X007785Y025950D01*
X009285Y025950D01*
X011035Y027700D02*
X011035Y029200D01*
X011285Y029450D01*
X011785Y029450D01*
X012035Y029200D01*
X012035Y027700D01*
X012285Y027450D01*
X012785Y027450D01*
X013035Y027700D01*
X013035Y029200D01*
X013285Y029450D01*
X013785Y029450D01*
X014035Y029200D01*
X014035Y027700D01*
X014285Y027450D01*
X014785Y027450D01*
X015035Y027700D01*
X015035Y029200D01*
X015285Y029450D01*
X015785Y029450D01*
X016035Y029200D01*
X016035Y027700D01*
X016285Y027450D01*
X016785Y027450D01*
X017035Y027700D01*
X017035Y029200D01*
X017285Y029450D01*
X017785Y029450D01*
X018035Y029200D01*
X018035Y027700D01*
X017785Y027450D01*
X017285Y027450D01*
X017035Y027700D01*
X016035Y027700D02*
X015785Y027450D01*
X015285Y027450D01*
X015035Y027700D01*
X014035Y027700D02*
X013785Y027450D01*
X013285Y027450D01*
X013035Y027700D01*
X012035Y027700D02*
X011785Y027450D01*
X011285Y027450D01*
X011035Y027700D01*
X012035Y029200D02*
X012285Y029450D01*
X012785Y029450D01*
X013035Y029200D01*
X014035Y029200D02*
X014285Y029450D01*
X014785Y029450D01*
X015035Y029200D01*
X016035Y029200D02*
X016285Y029450D01*
X016785Y029450D01*
X017035Y029200D01*
X018035Y029200D02*
X018285Y029450D01*
X018785Y029450D01*
X019035Y029200D01*
X019285Y029450D01*
X019785Y029450D01*
X020035Y029200D01*
X020035Y027700D01*
X019785Y027450D01*
X019285Y027450D01*
X019035Y027700D01*
X019035Y029200D01*
X019035Y027700D02*
X018785Y027450D01*
X018285Y027450D01*
X018035Y027700D01*
X021035Y027200D02*
X021035Y026700D01*
X021285Y026450D01*
X021035Y026200D01*
X021035Y025700D01*
X021285Y025450D01*
X021785Y025450D01*
X022035Y025700D01*
X022035Y026200D01*
X021785Y026450D01*
X021285Y026450D01*
X021785Y026450D02*
X022035Y026700D01*
X022035Y027200D01*
X021785Y027450D01*
X021285Y027450D01*
X021035Y027200D01*
X022365Y027114D02*
X022365Y026887D01*
X022422Y026830D01*
X022535Y026830D01*
X022592Y026887D01*
X022592Y027000D01*
X022479Y027000D01*
X022592Y027114D02*
X022535Y027170D01*
X022422Y027170D01*
X022365Y027114D01*
X022733Y027170D02*
X022733Y026830D01*
X022960Y026830D02*
X022733Y027170D01*
X022960Y027170D02*
X022960Y026830D01*
X023102Y026830D02*
X023272Y026830D01*
X023329Y026887D01*
X023329Y027114D01*
X023272Y027170D01*
X023102Y027170D01*
X023102Y026830D01*
X023102Y026170D02*
X023102Y025830D01*
X023102Y025943D02*
X023329Y026170D01*
X023158Y026000D02*
X023329Y025830D01*
X022960Y025887D02*
X022904Y025830D01*
X022790Y025830D01*
X022733Y025887D01*
X022733Y026114D01*
X022790Y026170D01*
X022904Y026170D01*
X022960Y026114D01*
X022592Y026114D02*
X022535Y026170D01*
X022422Y026170D01*
X022365Y026114D01*
X022365Y026057D01*
X022422Y026000D01*
X022535Y026000D01*
X022592Y025943D01*
X022592Y025887D01*
X022535Y025830D01*
X022422Y025830D01*
X022365Y025887D01*
X021785Y025450D02*
X022035Y025200D01*
X022035Y024700D01*
X021785Y024450D01*
X022035Y024200D01*
X022035Y023700D01*
X021785Y023450D01*
X022035Y023200D01*
X022035Y022700D01*
X021785Y022450D01*
X022035Y022200D01*
X022035Y021700D01*
X021785Y021450D01*
X021285Y021450D01*
X021035Y021700D01*
X021035Y022200D01*
X021285Y022450D01*
X021035Y022700D01*
X021035Y023200D01*
X021285Y023450D01*
X021035Y023700D01*
X021035Y024200D01*
X021285Y024450D01*
X021035Y024700D01*
X021035Y025200D01*
X021285Y025450D01*
X022365Y025170D02*
X022365Y024830D01*
X022592Y024830D02*
X022592Y025170D01*
X022479Y025057D01*
X022365Y025170D01*
X022733Y025170D02*
X022847Y025170D01*
X022790Y025170D02*
X022790Y024830D01*
X022733Y024830D02*
X022847Y024830D01*
X022979Y024887D02*
X023036Y024830D01*
X023149Y024830D01*
X023206Y024887D01*
X023206Y024943D01*
X023149Y025000D01*
X023036Y025000D01*
X022979Y025057D01*
X022979Y025114D01*
X023036Y025170D01*
X023149Y025170D01*
X023206Y025114D01*
X023347Y025114D02*
X023347Y024887D01*
X023404Y024830D01*
X023517Y024830D01*
X023574Y024887D01*
X023574Y025114D01*
X023517Y025170D01*
X023404Y025170D01*
X023347Y025114D01*
X024035Y025200D02*
X024035Y024700D01*
X024285Y024450D01*
X024785Y024450D01*
X025035Y024700D01*
X025035Y025200D01*
X024785Y025450D01*
X024285Y025450D01*
X024035Y025200D01*
X024421Y025830D02*
X024365Y025887D01*
X024365Y026000D01*
X024421Y026057D01*
X024478Y026057D01*
X024535Y026000D01*
X024592Y026057D01*
X024648Y026057D01*
X024705Y026000D01*
X024705Y025887D01*
X024648Y025830D01*
X024535Y025943D02*
X024535Y026000D01*
X024648Y026198D02*
X024648Y026255D01*
X024705Y026255D01*
X024705Y026198D01*
X024648Y026198D01*
X024648Y026382D02*
X024705Y026439D01*
X024705Y026553D01*
X024648Y026609D01*
X024592Y026609D01*
X024535Y026553D01*
X024535Y026496D01*
X024535Y026553D02*
X024478Y026609D01*
X024421Y026609D01*
X024365Y026553D01*
X024365Y026439D01*
X024421Y026382D01*
X024365Y026751D02*
X024592Y026751D01*
X024705Y026864D01*
X024592Y026978D01*
X024365Y026978D01*
X024285Y028950D02*
X024035Y029200D01*
X023785Y028950D01*
X023285Y028950D01*
X023035Y029200D01*
X022785Y028950D01*
X022285Y028950D01*
X022035Y029200D01*
X021785Y028950D01*
X021285Y028950D01*
X021035Y029200D01*
X021035Y030700D01*
X021285Y030950D01*
X021785Y030950D01*
X022035Y030700D01*
X022285Y030950D01*
X022785Y030950D01*
X023035Y030700D01*
X023285Y030950D01*
X023785Y030950D01*
X024035Y030700D01*
X024285Y030950D01*
X024785Y030950D01*
X025035Y030700D01*
X025035Y029200D01*
X024785Y028950D01*
X024285Y028950D01*
X026035Y030950D02*
X026037Y030994D01*
X026043Y031038D01*
X026053Y031081D01*
X026066Y031123D01*
X026083Y031164D01*
X026104Y031203D01*
X026128Y031240D01*
X026155Y031275D01*
X026185Y031307D01*
X026218Y031337D01*
X026254Y031363D01*
X026291Y031387D01*
X026331Y031406D01*
X026372Y031423D01*
X026415Y031435D01*
X026458Y031444D01*
X026502Y031449D01*
X026546Y031450D01*
X026590Y031447D01*
X026634Y031440D01*
X026677Y031429D01*
X026719Y031415D01*
X026759Y031397D01*
X026798Y031375D01*
X026834Y031351D01*
X026868Y031323D01*
X026900Y031292D01*
X026929Y031258D01*
X026955Y031222D01*
X026977Y031184D01*
X026996Y031144D01*
X027011Y031102D01*
X027023Y031060D01*
X027031Y031016D01*
X027035Y030972D01*
X027035Y030928D01*
X027031Y030884D01*
X027023Y030840D01*
X027011Y030798D01*
X026996Y030756D01*
X026977Y030716D01*
X026955Y030678D01*
X026929Y030642D01*
X026900Y030608D01*
X026868Y030577D01*
X026834Y030549D01*
X026798Y030525D01*
X026759Y030503D01*
X026719Y030485D01*
X026677Y030471D01*
X026634Y030460D01*
X026590Y030453D01*
X026546Y030450D01*
X026502Y030451D01*
X026458Y030456D01*
X026415Y030465D01*
X026372Y030477D01*
X026331Y030494D01*
X026291Y030513D01*
X026254Y030537D01*
X026218Y030563D01*
X026185Y030593D01*
X026155Y030625D01*
X026128Y030660D01*
X026104Y030697D01*
X026083Y030736D01*
X026066Y030777D01*
X026053Y030819D01*
X026043Y030862D01*
X026037Y030906D01*
X026035Y030950D01*
X028035Y030950D02*
X028037Y030994D01*
X028043Y031038D01*
X028053Y031081D01*
X028066Y031123D01*
X028083Y031164D01*
X028104Y031203D01*
X028128Y031240D01*
X028155Y031275D01*
X028185Y031307D01*
X028218Y031337D01*
X028254Y031363D01*
X028291Y031387D01*
X028331Y031406D01*
X028372Y031423D01*
X028415Y031435D01*
X028458Y031444D01*
X028502Y031449D01*
X028546Y031450D01*
X028590Y031447D01*
X028634Y031440D01*
X028677Y031429D01*
X028719Y031415D01*
X028759Y031397D01*
X028798Y031375D01*
X028834Y031351D01*
X028868Y031323D01*
X028900Y031292D01*
X028929Y031258D01*
X028955Y031222D01*
X028977Y031184D01*
X028996Y031144D01*
X029011Y031102D01*
X029023Y031060D01*
X029031Y031016D01*
X029035Y030972D01*
X029035Y030928D01*
X029031Y030884D01*
X029023Y030840D01*
X029011Y030798D01*
X028996Y030756D01*
X028977Y030716D01*
X028955Y030678D01*
X028929Y030642D01*
X028900Y030608D01*
X028868Y030577D01*
X028834Y030549D01*
X028798Y030525D01*
X028759Y030503D01*
X028719Y030485D01*
X028677Y030471D01*
X028634Y030460D01*
X028590Y030453D01*
X028546Y030450D01*
X028502Y030451D01*
X028458Y030456D01*
X028415Y030465D01*
X028372Y030477D01*
X028331Y030494D01*
X028291Y030513D01*
X028254Y030537D01*
X028218Y030563D01*
X028185Y030593D01*
X028155Y030625D01*
X028128Y030660D01*
X028104Y030697D01*
X028083Y030736D01*
X028066Y030777D01*
X028053Y030819D01*
X028043Y030862D01*
X028037Y030906D01*
X028035Y030950D01*
X030035Y030950D02*
X030037Y030994D01*
X030043Y031038D01*
X030053Y031081D01*
X030066Y031123D01*
X030083Y031164D01*
X030104Y031203D01*
X030128Y031240D01*
X030155Y031275D01*
X030185Y031307D01*
X030218Y031337D01*
X030254Y031363D01*
X030291Y031387D01*
X030331Y031406D01*
X030372Y031423D01*
X030415Y031435D01*
X030458Y031444D01*
X030502Y031449D01*
X030546Y031450D01*
X030590Y031447D01*
X030634Y031440D01*
X030677Y031429D01*
X030719Y031415D01*
X030759Y031397D01*
X030798Y031375D01*
X030834Y031351D01*
X030868Y031323D01*
X030900Y031292D01*
X030929Y031258D01*
X030955Y031222D01*
X030977Y031184D01*
X030996Y031144D01*
X031011Y031102D01*
X031023Y031060D01*
X031031Y031016D01*
X031035Y030972D01*
X031035Y030928D01*
X031031Y030884D01*
X031023Y030840D01*
X031011Y030798D01*
X030996Y030756D01*
X030977Y030716D01*
X030955Y030678D01*
X030929Y030642D01*
X030900Y030608D01*
X030868Y030577D01*
X030834Y030549D01*
X030798Y030525D01*
X030759Y030503D01*
X030719Y030485D01*
X030677Y030471D01*
X030634Y030460D01*
X030590Y030453D01*
X030546Y030450D01*
X030502Y030451D01*
X030458Y030456D01*
X030415Y030465D01*
X030372Y030477D01*
X030331Y030494D01*
X030291Y030513D01*
X030254Y030537D01*
X030218Y030563D01*
X030185Y030593D01*
X030155Y030625D01*
X030128Y030660D01*
X030104Y030697D01*
X030083Y030736D01*
X030066Y030777D01*
X030053Y030819D01*
X030043Y030862D01*
X030037Y030906D01*
X030035Y030950D01*
X024785Y024450D02*
X025035Y024200D01*
X025035Y023700D01*
X024785Y023450D01*
X024285Y023450D01*
X024035Y023700D01*
X024035Y024200D01*
X024285Y024450D01*
X023583Y024170D02*
X023470Y024170D01*
X023527Y024170D02*
X023527Y023830D01*
X023583Y023830D02*
X023470Y023830D01*
X023329Y023887D02*
X023272Y023830D01*
X023158Y023830D01*
X023102Y023887D01*
X023158Y024000D02*
X023272Y024000D01*
X023329Y023943D01*
X023329Y023887D01*
X023158Y024000D02*
X023102Y024057D01*
X023102Y024114D01*
X023158Y024170D01*
X023272Y024170D01*
X023329Y024114D01*
X022960Y024114D02*
X022904Y024170D01*
X022790Y024170D01*
X022733Y024114D01*
X022733Y023887D01*
X022790Y023830D01*
X022904Y023830D01*
X022960Y023887D01*
X022960Y024114D01*
X022592Y024170D02*
X022592Y023830D01*
X022365Y023830D02*
X022365Y024170D01*
X022479Y024057D01*
X022592Y024170D01*
X021785Y024450D02*
X021285Y024450D01*
X021285Y023450D02*
X021785Y023450D01*
X022365Y023114D02*
X022365Y022887D01*
X022422Y022830D01*
X022535Y022830D01*
X022592Y022887D01*
X022733Y022887D02*
X022790Y022830D01*
X022904Y022830D01*
X022960Y022887D01*
X022960Y022943D01*
X022904Y023000D01*
X022790Y023000D01*
X022733Y023057D01*
X022733Y023114D01*
X022790Y023170D01*
X022904Y023170D01*
X022960Y023114D01*
X022592Y023114D02*
X022535Y023170D01*
X022422Y023170D01*
X022365Y023114D01*
X021785Y022450D02*
X021285Y022450D01*
X022365Y022114D02*
X022365Y021887D01*
X022422Y021830D01*
X022535Y021830D01*
X022592Y021887D01*
X022733Y021830D02*
X022960Y021830D01*
X022847Y022000D02*
X022733Y022000D01*
X022733Y022170D02*
X022733Y021830D01*
X022592Y022114D02*
X022535Y022170D01*
X022422Y022170D01*
X022365Y022114D01*
X022733Y022170D02*
X022960Y022170D01*
X024465Y022330D02*
X024465Y022443D01*
X024465Y022387D02*
X024805Y022387D01*
X024805Y022443D02*
X024805Y022330D01*
X024805Y022576D02*
X024465Y022576D01*
X024465Y022746D01*
X024521Y022802D01*
X024635Y022802D01*
X024692Y022746D01*
X024692Y022576D01*
X024692Y022689D02*
X024805Y022802D01*
X024748Y022944D02*
X024805Y023001D01*
X024805Y023114D01*
X024748Y023171D01*
X024521Y023171D01*
X024465Y023114D01*
X024465Y023001D01*
X024521Y022944D01*
X024748Y022944D01*
X024692Y023057D02*
X024805Y023171D01*
X026035Y023200D02*
X026035Y021700D01*
X026285Y021450D01*
X026785Y021450D01*
X027035Y021700D01*
X027285Y021450D01*
X027785Y021450D01*
X028035Y021700D01*
X028285Y021450D01*
X028785Y021450D01*
X029035Y021700D01*
X029285Y021450D01*
X029785Y021450D01*
X030035Y021700D01*
X030285Y021450D01*
X030785Y021450D01*
X031035Y021700D01*
X031035Y022200D01*
X030785Y022450D01*
X030285Y022450D01*
X030035Y022200D01*
X030035Y021700D01*
X030035Y023200D01*
X030285Y023450D01*
X030785Y023450D01*
X031035Y023200D01*
X031035Y022700D01*
X030785Y022450D01*
X030285Y022450D01*
X030035Y022700D01*
X030035Y023200D01*
X029785Y023450D01*
X029285Y023450D01*
X029035Y023200D01*
X028785Y023450D01*
X028285Y023450D01*
X028035Y023200D01*
X027785Y023450D01*
X027285Y023450D01*
X027035Y023200D01*
X026785Y023450D01*
X026285Y023450D01*
X026035Y023200D01*
X030035Y020200D02*
X030285Y020450D01*
X030785Y020450D01*
X031035Y020200D01*
X031035Y018700D01*
X031285Y018450D01*
X031785Y018450D01*
X032035Y018700D01*
X032035Y020200D01*
X032285Y020450D01*
X032785Y020450D01*
X033035Y020200D01*
X033035Y018700D01*
X033285Y018450D01*
X033785Y018450D01*
X034035Y018700D01*
X034035Y020200D01*
X034285Y020450D01*
X034785Y020450D01*
X035035Y020200D01*
X035035Y018700D01*
X035285Y018450D01*
X035785Y018450D01*
X036035Y018700D01*
X036035Y020200D01*
X036285Y020450D01*
X036785Y020450D01*
X037035Y020200D01*
X037285Y020450D01*
X037785Y020450D01*
X038035Y020200D01*
X038035Y018700D01*
X037785Y018450D01*
X037285Y018450D01*
X037035Y018700D01*
X037035Y020200D01*
X036035Y020200D02*
X035785Y020450D01*
X035285Y020450D01*
X035035Y020200D01*
X034035Y020200D02*
X033785Y020450D01*
X033285Y020450D01*
X033035Y020200D01*
X032035Y020200D02*
X031785Y020450D01*
X031285Y020450D01*
X031035Y020200D01*
X030035Y020200D02*
X030035Y018700D01*
X030285Y018450D01*
X030785Y018450D01*
X031035Y018700D01*
X032035Y018700D02*
X032285Y018450D01*
X032785Y018450D01*
X033035Y018700D01*
X034035Y018700D02*
X034285Y018450D01*
X034785Y018450D01*
X035035Y018700D01*
X035135Y018350D02*
X035285Y018350D01*
X035335Y018300D01*
X036735Y018300D01*
X036785Y018350D01*
X036935Y018350D01*
X036952Y018348D01*
X036969Y018344D01*
X036985Y018337D01*
X036999Y018327D01*
X037012Y018314D01*
X037022Y018300D01*
X037029Y018284D01*
X037033Y018267D01*
X037035Y018250D01*
X037035Y017650D01*
X037033Y017633D01*
X037029Y017616D01*
X037022Y017600D01*
X037012Y017586D01*
X036999Y017573D01*
X036985Y017563D01*
X036969Y017556D01*
X036952Y017552D01*
X036935Y017550D01*
X036785Y017550D01*
X036735Y017600D01*
X035335Y017600D01*
X035285Y017550D01*
X035135Y017550D01*
X035118Y017552D01*
X035101Y017556D01*
X035085Y017563D01*
X035071Y017573D01*
X035058Y017586D01*
X035048Y017600D01*
X035041Y017616D01*
X035037Y017633D01*
X035035Y017650D01*
X035035Y018250D01*
X035037Y018267D01*
X035041Y018284D01*
X035048Y018300D01*
X035058Y018314D01*
X035071Y018327D01*
X035085Y018337D01*
X035101Y018344D01*
X035118Y018348D01*
X035135Y018350D01*
X036035Y018700D02*
X036285Y018450D01*
X036785Y018450D01*
X037035Y018700D01*
X034785Y022100D02*
X034285Y022100D01*
X034035Y022350D01*
X034035Y022850D01*
X034285Y023100D01*
X034785Y023100D01*
X035035Y022850D01*
X035035Y022350D01*
X034785Y022100D01*
X034785Y008950D02*
X035285Y008950D01*
X035535Y008700D01*
X035535Y008200D01*
X035285Y007950D01*
X034785Y007950D01*
X034535Y008200D01*
X034285Y007950D01*
X033785Y007950D01*
X033535Y008200D01*
X033285Y007950D01*
X032785Y007950D01*
X032535Y008200D01*
X032535Y008700D01*
X032785Y008950D01*
X033285Y008950D01*
X033535Y008700D01*
X033785Y008950D01*
X034285Y008950D01*
X034535Y008700D01*
X034785Y008950D01*
X034535Y008700D02*
X034535Y008200D01*
X034085Y007400D02*
X032485Y007400D01*
X032468Y007398D01*
X032451Y007394D01*
X032435Y007387D01*
X032421Y007377D01*
X032408Y007364D01*
X032398Y007350D01*
X032391Y007334D01*
X032387Y007317D01*
X032385Y007300D01*
X032385Y005600D01*
X032387Y005583D01*
X032391Y005566D01*
X032398Y005550D01*
X032408Y005536D01*
X032421Y005523D01*
X032435Y005513D01*
X032451Y005506D01*
X032468Y005502D01*
X032485Y005500D01*
X034085Y005500D01*
X034102Y005502D01*
X034119Y005506D01*
X034135Y005513D01*
X034149Y005523D01*
X034162Y005536D01*
X034172Y005550D01*
X034179Y005566D01*
X034183Y005583D01*
X034185Y005600D01*
X034185Y007300D01*
X034183Y007317D01*
X034179Y007334D01*
X034172Y007350D01*
X034162Y007364D01*
X034149Y007377D01*
X034135Y007387D01*
X034119Y007394D01*
X034102Y007398D01*
X034085Y007400D01*
X033535Y008200D02*
X033535Y008700D01*
X032755Y007043D02*
X032755Y006817D01*
X032755Y006930D02*
X032415Y006930D01*
X032528Y006817D01*
X032755Y006675D02*
X032755Y006448D01*
X032755Y006562D02*
X032415Y006562D01*
X032528Y006448D01*
X032471Y006307D02*
X032415Y006250D01*
X032415Y006137D01*
X032471Y006080D01*
X032698Y006080D01*
X032755Y006137D01*
X032755Y006250D01*
X032698Y006307D01*
X033285Y006300D02*
X033285Y006350D01*
X033285Y006550D02*
X033285Y006600D01*
X032398Y005189D02*
X032342Y005189D01*
X032285Y005132D01*
X032285Y005075D01*
X032285Y005132D02*
X032228Y005189D01*
X032171Y005189D01*
X032115Y005132D01*
X032115Y005018D01*
X032171Y004962D01*
X032398Y004962D02*
X032455Y005018D01*
X032455Y005132D01*
X032398Y005189D01*
X032455Y004820D02*
X032455Y004593D01*
X032455Y004707D02*
X032115Y004707D01*
X032228Y004593D01*
X032171Y004452D02*
X032115Y004395D01*
X032115Y004282D01*
X032171Y004225D01*
X032398Y004225D01*
X032455Y004282D01*
X032455Y004395D01*
X032398Y004452D01*
X031985Y004800D02*
X031985Y006100D01*
X031983Y006126D01*
X031978Y006152D01*
X031970Y006177D01*
X031958Y006200D01*
X031944Y006222D01*
X031926Y006241D01*
X031907Y006259D01*
X031885Y006273D01*
X031862Y006285D01*
X031837Y006293D01*
X031811Y006298D01*
X031785Y006300D01*
X031535Y005950D02*
X031535Y005570D01*
X031535Y005320D02*
X031535Y004950D01*
X031285Y004600D02*
X031259Y004602D01*
X031233Y004607D01*
X031208Y004615D01*
X031185Y004627D01*
X031163Y004641D01*
X031144Y004659D01*
X031126Y004678D01*
X031112Y004700D01*
X031100Y004723D01*
X031092Y004748D01*
X031087Y004774D01*
X031085Y004800D01*
X031085Y006100D01*
X031087Y006126D01*
X031092Y006152D01*
X031100Y006177D01*
X031112Y006200D01*
X031126Y006222D01*
X031144Y006241D01*
X031163Y006259D01*
X031185Y006273D01*
X031208Y006285D01*
X031233Y006293D01*
X031259Y006298D01*
X031285Y006300D01*
X031985Y004800D02*
X031983Y004774D01*
X031978Y004748D01*
X031970Y004723D01*
X031958Y004700D01*
X031944Y004678D01*
X031926Y004659D01*
X031907Y004641D01*
X031885Y004627D01*
X031862Y004615D01*
X031837Y004607D01*
X031811Y004602D01*
X031785Y004600D01*
X032335Y003400D02*
X030735Y003400D01*
X030718Y003398D01*
X030701Y003394D01*
X030685Y003387D01*
X030671Y003377D01*
X030658Y003364D01*
X030648Y003350D01*
X030641Y003334D01*
X030637Y003317D01*
X030635Y003300D01*
X030635Y001600D01*
X030637Y001583D01*
X030641Y001566D01*
X030648Y001550D01*
X030658Y001536D01*
X030671Y001523D01*
X030685Y001513D01*
X030701Y001506D01*
X030718Y001502D01*
X030735Y001500D01*
X032335Y001500D01*
X032352Y001502D01*
X032369Y001506D01*
X032385Y001513D01*
X032399Y001523D01*
X032412Y001536D01*
X032422Y001550D01*
X032429Y001566D01*
X032433Y001583D01*
X032435Y001600D01*
X032435Y003300D01*
X032433Y003317D01*
X032429Y003334D01*
X032422Y003350D01*
X032412Y003364D01*
X032399Y003377D01*
X032385Y003387D01*
X032369Y003394D01*
X032352Y003398D01*
X032335Y003400D01*
X032785Y002950D02*
X032535Y002700D01*
X032535Y002200D01*
X032785Y001950D01*
X033285Y001950D01*
X033535Y002200D01*
X033785Y001950D01*
X034285Y001950D01*
X034535Y002200D01*
X034535Y002700D01*
X034285Y002950D01*
X033785Y002950D01*
X033535Y002700D01*
X033535Y002200D01*
X033535Y002700D02*
X033285Y002950D01*
X032785Y002950D01*
X031535Y002600D02*
X031535Y002550D01*
X031535Y002350D02*
X031535Y002300D01*
X030505Y002317D02*
X030278Y002543D01*
X030221Y002543D01*
X030165Y002487D01*
X030165Y002373D01*
X030221Y002317D01*
X030165Y002062D02*
X030505Y002062D01*
X030505Y002175D02*
X030505Y001948D01*
X030448Y001807D02*
X030505Y001750D01*
X030505Y001637D01*
X030448Y001580D01*
X030221Y001580D01*
X030165Y001637D01*
X030165Y001750D01*
X030221Y001807D01*
X030278Y001948D02*
X030165Y002062D01*
X030505Y002317D02*
X030505Y002543D01*
X029435Y002540D02*
X029435Y002360D01*
X029435Y001540D02*
X029435Y001070D01*
X026635Y001070D01*
X026635Y001540D01*
X026635Y002360D02*
X026635Y002540D01*
X026635Y003360D02*
X026635Y003540D01*
X026635Y004360D02*
X026635Y004540D01*
X026635Y005360D02*
X026635Y005540D01*
X026635Y006360D02*
X026635Y006540D01*
X026635Y007360D02*
X026635Y007520D01*
X026635Y008380D02*
X026635Y008830D01*
X027915Y008830D01*
X028155Y008830D01*
X029435Y008830D01*
X029435Y008360D01*
X029435Y007540D02*
X029435Y007360D01*
X029435Y006540D02*
X029435Y006360D01*
X029435Y005540D02*
X029435Y005360D01*
X029435Y004540D02*
X029435Y004360D01*
X029435Y003540D02*
X029435Y003360D01*
X033490Y004550D02*
X033648Y004550D01*
X033710Y005100D02*
X035360Y005100D01*
X035665Y005075D02*
X035665Y005245D01*
X035721Y005302D01*
X035835Y005302D01*
X035892Y005245D01*
X035892Y005075D01*
X036005Y005075D02*
X035665Y005075D01*
X035665Y004934D02*
X035892Y004934D01*
X036005Y004820D01*
X035892Y004707D01*
X035665Y004707D01*
X035721Y004565D02*
X035778Y004565D01*
X035835Y004509D01*
X035892Y004565D01*
X035948Y004565D01*
X036005Y004509D01*
X036005Y004395D01*
X035948Y004338D01*
X035948Y004211D02*
X036005Y004211D01*
X036005Y004154D01*
X035948Y004154D01*
X035948Y004211D01*
X035948Y004013D02*
X036005Y003956D01*
X036005Y003843D01*
X035948Y003786D01*
X035835Y003899D02*
X035835Y003956D01*
X035892Y004013D01*
X035948Y004013D01*
X035835Y003956D02*
X035778Y004013D01*
X035721Y004013D01*
X035665Y003956D01*
X035665Y003843D01*
X035721Y003786D01*
X035721Y004338D02*
X035665Y004395D01*
X035665Y004509D01*
X035721Y004565D01*
X035835Y004509D02*
X035835Y004452D01*
X035580Y004550D02*
X035422Y004550D01*
X035892Y005188D02*
X036005Y005302D01*
X036005Y005443D02*
X036005Y005670D01*
X035948Y005812D02*
X036005Y005868D01*
X036005Y005982D01*
X035948Y006039D01*
X035835Y006039D01*
X035835Y005925D01*
X035948Y005812D02*
X035721Y005812D01*
X035665Y005868D01*
X035665Y005982D01*
X035721Y006039D01*
X035665Y005670D02*
X035665Y005443D01*
X036005Y005443D01*
X035835Y005443D02*
X035835Y005557D01*
X037035Y005700D02*
X037285Y005450D01*
X037035Y005200D01*
X037035Y004700D01*
X037285Y004450D01*
X037035Y004200D01*
X037035Y003700D01*
X037285Y003450D01*
X037035Y003200D01*
X037035Y002700D01*
X037285Y002450D01*
X038785Y002450D01*
X039035Y002700D01*
X039035Y003200D01*
X038785Y003450D01*
X039035Y003700D01*
X039035Y004200D01*
X038785Y004450D01*
X039035Y004700D01*
X039035Y005200D01*
X038785Y005450D01*
X039035Y005700D01*
X039035Y006200D01*
X038785Y006450D01*
X038285Y006450D01*
X038035Y006700D01*
X038035Y007200D01*
X038285Y007450D01*
X038785Y007450D01*
X039035Y007200D01*
X039035Y006700D01*
X038785Y006450D01*
X037285Y006450D01*
X037785Y006450D01*
X038035Y006700D01*
X038035Y007200D01*
X037785Y007450D01*
X037285Y007450D01*
X037035Y007200D01*
X037035Y006700D01*
X037285Y006450D01*
X037035Y006200D01*
X037035Y005700D01*
X037035Y007950D02*
X037035Y008150D01*
X037035Y007950D02*
X036835Y007950D01*
X037535Y007950D02*
X037735Y007950D01*
X037535Y007950D02*
X037535Y008150D01*
X037535Y008750D02*
X037535Y008950D01*
X037735Y008950D01*
X038335Y008950D02*
X038535Y008950D01*
X038535Y008750D01*
X038535Y008150D02*
X038535Y007950D01*
X038335Y007950D01*
X037035Y008750D02*
X037035Y008950D01*
X036835Y008950D01*
X036235Y008950D02*
X036035Y008950D01*
X036035Y008750D01*
X036035Y008150D02*
X036035Y007950D01*
X036235Y007950D01*
X035360Y005100D02*
X035397Y005049D01*
X035432Y004996D01*
X035464Y004940D01*
X035492Y004883D01*
X035516Y004824D01*
X035537Y004764D01*
X035554Y004703D01*
X035568Y004641D01*
X035577Y004578D01*
X035583Y004515D01*
X035585Y004451D01*
X035583Y004387D01*
X035577Y004324D01*
X035568Y004261D01*
X035555Y004199D01*
X035537Y004138D01*
X035517Y004078D01*
X035492Y004019D01*
X035464Y003962D01*
X035433Y003906D01*
X035399Y003853D01*
X035361Y003802D01*
X035320Y003753D01*
X035276Y003707D01*
X035230Y003663D01*
X035181Y003622D01*
X035130Y003585D01*
X035076Y003550D01*
X035021Y003519D01*
X034964Y003491D01*
X034905Y003467D01*
X034845Y003447D01*
X034785Y002950D02*
X035285Y002950D01*
X035535Y002700D01*
X035785Y002950D01*
X036285Y002950D01*
X036535Y002700D01*
X036535Y002200D01*
X036285Y001950D01*
X035785Y001950D01*
X035535Y002200D01*
X035285Y001950D01*
X034785Y001950D01*
X034535Y002200D01*
X034535Y002700D02*
X034785Y002950D01*
X035535Y002700D02*
X035535Y002200D01*
X035752Y000880D02*
X035752Y000540D01*
X035979Y000540D01*
X036120Y000540D02*
X036120Y000880D01*
X036347Y000880D01*
X036488Y000880D02*
X036488Y000540D01*
X036659Y000540D01*
X036715Y000597D01*
X036715Y000824D01*
X036659Y000880D01*
X036488Y000880D01*
X036234Y000710D02*
X036120Y000710D01*
X036120Y000540D02*
X036347Y000540D01*
X035610Y000710D02*
X035383Y000710D01*
X035242Y000710D02*
X035185Y000653D01*
X035015Y000653D01*
X035015Y000540D02*
X035015Y000880D01*
X035185Y000880D01*
X035242Y000824D01*
X035242Y000710D01*
X035129Y000653D02*
X035242Y000540D01*
X036857Y000540D02*
X037084Y000540D01*
X036970Y000540D02*
X036970Y000880D01*
X036857Y000767D01*
X038035Y001550D02*
X038082Y001548D01*
X038130Y001542D01*
X038176Y001533D01*
X038222Y001520D01*
X038266Y001504D01*
X038310Y001483D01*
X038351Y001460D01*
X038390Y001434D01*
X038427Y001404D01*
X038462Y001371D01*
X038494Y001336D01*
X038523Y001299D01*
X038915Y001367D02*
X038915Y001537D01*
X038971Y001593D01*
X039198Y001593D01*
X039255Y001537D01*
X039255Y001367D01*
X038915Y001367D01*
X038915Y001225D02*
X038915Y000998D01*
X039255Y000998D01*
X039255Y001225D01*
X039085Y001112D02*
X039085Y000998D01*
X039255Y000857D02*
X039255Y000630D01*
X038915Y000630D01*
X038035Y000350D02*
X037990Y000352D01*
X037944Y000357D01*
X037900Y000365D01*
X037856Y000377D01*
X037813Y000393D01*
X037771Y000411D01*
X037731Y000433D01*
X037693Y000457D01*
X037657Y000484D01*
X037622Y000514D01*
X037591Y000547D01*
X037561Y000582D01*
X038035Y000350D02*
X038080Y000352D01*
X038126Y000357D01*
X038170Y000365D01*
X038214Y000377D01*
X038257Y000393D01*
X038299Y000411D01*
X038339Y000433D01*
X038377Y000457D01*
X038413Y000484D01*
X038448Y000514D01*
X038479Y000547D01*
X038509Y000582D01*
X038035Y001550D02*
X037989Y001548D01*
X037943Y001543D01*
X037897Y001534D01*
X037852Y001522D01*
X037809Y001506D01*
X037767Y001487D01*
X037726Y001464D01*
X037687Y001439D01*
X037651Y001411D01*
X037616Y001380D01*
X037584Y001346D01*
X037555Y001310D01*
X038915Y001848D02*
X039255Y001848D01*
X039255Y001735D02*
X039255Y001962D01*
X039028Y001735D02*
X038915Y001848D01*
X034225Y003447D02*
X034165Y003467D01*
X034106Y003491D01*
X034049Y003519D01*
X033994Y003550D01*
X033940Y003585D01*
X033889Y003622D01*
X033840Y003663D01*
X033794Y003707D01*
X033750Y003753D01*
X033709Y003802D01*
X033671Y003853D01*
X033637Y003906D01*
X033605Y003962D01*
X033578Y004019D01*
X033553Y004078D01*
X033533Y004138D01*
X033515Y004199D01*
X033502Y004261D01*
X033493Y004324D01*
X033487Y004387D01*
X033485Y004451D01*
X033487Y004515D01*
X033493Y004578D01*
X033502Y004641D01*
X033516Y004703D01*
X033533Y004764D01*
X033554Y004824D01*
X033578Y004883D01*
X033606Y004940D01*
X033638Y004996D01*
X033673Y005049D01*
X033710Y005100D01*
X028155Y008830D02*
X028153Y008809D01*
X028148Y008789D01*
X028139Y008770D01*
X028127Y008753D01*
X028112Y008738D01*
X028095Y008726D01*
X028076Y008717D01*
X028056Y008712D01*
X028035Y008710D01*
X028014Y008712D01*
X027994Y008717D01*
X027975Y008726D01*
X027958Y008738D01*
X027943Y008753D01*
X027931Y008770D01*
X027922Y008789D01*
X027917Y008809D01*
X027915Y008830D01*
X024635Y006950D02*
X024633Y006905D01*
X024628Y006859D01*
X024620Y006815D01*
X024608Y006771D01*
X024592Y006728D01*
X024574Y006686D01*
X024552Y006646D01*
X024528Y006608D01*
X024501Y006572D01*
X024471Y006537D01*
X024438Y006506D01*
X024403Y006476D01*
X023435Y006950D02*
X023437Y006997D01*
X023443Y007045D01*
X023452Y007091D01*
X023465Y007137D01*
X023481Y007181D01*
X023502Y007225D01*
X023525Y007266D01*
X023551Y007305D01*
X023581Y007342D01*
X023614Y007377D01*
X023649Y007409D01*
X023686Y007438D01*
X023435Y006950D02*
X023437Y006904D01*
X023442Y006858D01*
X023451Y006812D01*
X023463Y006767D01*
X023479Y006724D01*
X023498Y006682D01*
X023521Y006641D01*
X023546Y006602D01*
X023574Y006566D01*
X023605Y006531D01*
X023639Y006499D01*
X023675Y006470D01*
X024635Y006950D02*
X024633Y006995D01*
X024628Y007041D01*
X024620Y007085D01*
X024608Y007129D01*
X024592Y007172D01*
X024574Y007214D01*
X024552Y007254D01*
X024528Y007292D01*
X024501Y007328D01*
X024471Y007363D01*
X024438Y007394D01*
X024403Y007424D01*
X021675Y006470D02*
X021639Y006499D01*
X021605Y006531D01*
X021574Y006566D01*
X021546Y006602D01*
X021521Y006641D01*
X021498Y006682D01*
X021479Y006724D01*
X021463Y006767D01*
X021451Y006812D01*
X021442Y006858D01*
X021437Y006904D01*
X021435Y006950D01*
X022403Y006476D02*
X022438Y006506D01*
X022471Y006537D01*
X022501Y006572D01*
X022528Y006608D01*
X022552Y006646D01*
X022574Y006686D01*
X022592Y006728D01*
X022608Y006771D01*
X022620Y006815D01*
X022628Y006859D01*
X022633Y006905D01*
X022635Y006950D01*
X021686Y007438D02*
X021649Y007409D01*
X021614Y007377D01*
X021581Y007342D01*
X021551Y007305D01*
X021525Y007266D01*
X021502Y007225D01*
X021481Y007181D01*
X021465Y007137D01*
X021452Y007091D01*
X021443Y007045D01*
X021437Y006997D01*
X021435Y006950D01*
X022403Y007424D02*
X022438Y007394D01*
X022471Y007363D01*
X022501Y007328D01*
X022528Y007292D01*
X022552Y007254D01*
X022574Y007214D01*
X022592Y007172D01*
X022608Y007129D01*
X022620Y007085D01*
X022628Y007041D01*
X022633Y006995D01*
X022635Y006950D01*
X021535Y003950D02*
X021537Y003994D01*
X021543Y004038D01*
X021553Y004081D01*
X021566Y004123D01*
X021583Y004164D01*
X021604Y004203D01*
X021628Y004240D01*
X021655Y004275D01*
X021685Y004307D01*
X021718Y004337D01*
X021754Y004363D01*
X021791Y004387D01*
X021831Y004406D01*
X021872Y004423D01*
X021915Y004435D01*
X021958Y004444D01*
X022002Y004449D01*
X022046Y004450D01*
X022090Y004447D01*
X022134Y004440D01*
X022177Y004429D01*
X022219Y004415D01*
X022259Y004397D01*
X022298Y004375D01*
X022334Y004351D01*
X022368Y004323D01*
X022400Y004292D01*
X022429Y004258D01*
X022455Y004222D01*
X022477Y004184D01*
X022496Y004144D01*
X022511Y004102D01*
X022523Y004060D01*
X022531Y004016D01*
X022535Y003972D01*
X022535Y003928D01*
X022531Y003884D01*
X022523Y003840D01*
X022511Y003798D01*
X022496Y003756D01*
X022477Y003716D01*
X022455Y003678D01*
X022429Y003642D01*
X022400Y003608D01*
X022368Y003577D01*
X022334Y003549D01*
X022298Y003525D01*
X022259Y003503D01*
X022219Y003485D01*
X022177Y003471D01*
X022134Y003460D01*
X022090Y003453D01*
X022046Y003450D01*
X022002Y003451D01*
X021958Y003456D01*
X021915Y003465D01*
X021872Y003477D01*
X021831Y003494D01*
X021791Y003513D01*
X021754Y003537D01*
X021718Y003563D01*
X021685Y003593D01*
X021655Y003625D01*
X021628Y003660D01*
X021604Y003697D01*
X021583Y003736D01*
X021566Y003777D01*
X021553Y003819D01*
X021543Y003862D01*
X021537Y003906D01*
X021535Y003950D01*
X023535Y003950D02*
X023537Y003994D01*
X023543Y004038D01*
X023553Y004081D01*
X023566Y004123D01*
X023583Y004164D01*
X023604Y004203D01*
X023628Y004240D01*
X023655Y004275D01*
X023685Y004307D01*
X023718Y004337D01*
X023754Y004363D01*
X023791Y004387D01*
X023831Y004406D01*
X023872Y004423D01*
X023915Y004435D01*
X023958Y004444D01*
X024002Y004449D01*
X024046Y004450D01*
X024090Y004447D01*
X024134Y004440D01*
X024177Y004429D01*
X024219Y004415D01*
X024259Y004397D01*
X024298Y004375D01*
X024334Y004351D01*
X024368Y004323D01*
X024400Y004292D01*
X024429Y004258D01*
X024455Y004222D01*
X024477Y004184D01*
X024496Y004144D01*
X024511Y004102D01*
X024523Y004060D01*
X024531Y004016D01*
X024535Y003972D01*
X024535Y003928D01*
X024531Y003884D01*
X024523Y003840D01*
X024511Y003798D01*
X024496Y003756D01*
X024477Y003716D01*
X024455Y003678D01*
X024429Y003642D01*
X024400Y003608D01*
X024368Y003577D01*
X024334Y003549D01*
X024298Y003525D01*
X024259Y003503D01*
X024219Y003485D01*
X024177Y003471D01*
X024134Y003460D01*
X024090Y003453D01*
X024046Y003450D01*
X024002Y003451D01*
X023958Y003456D01*
X023915Y003465D01*
X023872Y003477D01*
X023831Y003494D01*
X023791Y003513D01*
X023754Y003537D01*
X023718Y003563D01*
X023685Y003593D01*
X023655Y003625D01*
X023628Y003660D01*
X023604Y003697D01*
X023583Y003736D01*
X023566Y003777D01*
X023553Y003819D01*
X023543Y003862D01*
X023537Y003906D01*
X023535Y003950D01*
X003455Y027880D02*
X003115Y027880D01*
X003455Y027880D02*
X003455Y028107D01*
X003455Y028248D02*
X003455Y028475D01*
X003455Y028617D02*
X003115Y028617D01*
X003115Y028787D01*
X003171Y028843D01*
X003398Y028843D01*
X003455Y028787D01*
X003455Y028617D01*
X003285Y028362D02*
X003285Y028248D01*
X003115Y028248D02*
X003455Y028248D01*
X003115Y028248D02*
X003115Y028475D01*
X003171Y028985D02*
X003115Y029042D01*
X003115Y029155D01*
X003171Y029212D01*
X003228Y029212D01*
X003285Y029155D01*
X003342Y029212D01*
X003398Y029212D01*
X003455Y029155D01*
X003455Y029042D01*
X003398Y028985D01*
X003285Y029098D02*
X003285Y029155D01*
X003405Y029880D02*
X003065Y029880D01*
X003405Y029880D02*
X003405Y030107D01*
X003405Y030248D02*
X003405Y030475D01*
X003405Y030617D02*
X003405Y030787D01*
X003348Y030843D01*
X003121Y030843D01*
X003065Y030787D01*
X003065Y030617D01*
X003405Y030617D01*
X003235Y030362D02*
X003235Y030248D01*
X003065Y030248D02*
X003405Y030248D01*
X003065Y030248D02*
X003065Y030475D01*
X003235Y030985D02*
X003065Y031155D01*
X003405Y031155D01*
X003235Y031212D02*
X003235Y030985D01*
X002035Y029850D02*
X001990Y029852D01*
X001944Y029857D01*
X001900Y029865D01*
X001856Y029877D01*
X001813Y029893D01*
X001771Y029911D01*
X001731Y029933D01*
X001693Y029957D01*
X001657Y029984D01*
X001622Y030014D01*
X001591Y030047D01*
X001561Y030082D01*
X002035Y031050D02*
X002082Y031048D01*
X002130Y031042D01*
X002176Y031033D01*
X002222Y031020D01*
X002266Y031004D01*
X002310Y030983D01*
X002351Y030960D01*
X002390Y030934D01*
X002427Y030904D01*
X002462Y030871D01*
X002494Y030836D01*
X002523Y030799D01*
X002035Y031050D02*
X001989Y031048D01*
X001943Y031043D01*
X001897Y031034D01*
X001852Y031022D01*
X001809Y031006D01*
X001767Y030987D01*
X001726Y030964D01*
X001687Y030939D01*
X001651Y030911D01*
X001616Y030880D01*
X001584Y030846D01*
X001555Y030810D01*
X002035Y029850D02*
X002080Y029852D01*
X002126Y029857D01*
X002170Y029865D01*
X002214Y029877D01*
X002257Y029893D01*
X002299Y029911D01*
X002339Y029933D01*
X002377Y029957D01*
X002413Y029984D01*
X002448Y030014D01*
X002479Y030047D01*
X002509Y030082D01*
X001561Y028082D02*
X001591Y028047D01*
X001622Y028014D01*
X001657Y027984D01*
X001693Y027957D01*
X001731Y027933D01*
X001771Y027911D01*
X001813Y027893D01*
X001856Y027877D01*
X001900Y027865D01*
X001944Y027857D01*
X001990Y027852D01*
X002035Y027850D01*
X001555Y028810D02*
X001584Y028846D01*
X001616Y028880D01*
X001651Y028911D01*
X001687Y028939D01*
X001726Y028964D01*
X001767Y028987D01*
X001809Y029006D01*
X001852Y029022D01*
X001897Y029034D01*
X001943Y029043D01*
X001989Y029048D01*
X002035Y029050D01*
X002509Y028082D02*
X002479Y028047D01*
X002448Y028014D01*
X002413Y027984D01*
X002377Y027957D01*
X002339Y027933D01*
X002299Y027911D01*
X002257Y027893D01*
X002214Y027877D01*
X002170Y027865D01*
X002126Y027857D01*
X002080Y027852D01*
X002035Y027850D01*
X002523Y028799D02*
X002494Y028836D01*
X002462Y028871D01*
X002427Y028904D01*
X002390Y028934D01*
X002351Y028960D01*
X002310Y028983D01*
X002266Y029004D01*
X002222Y029020D01*
X002176Y029033D01*
X002130Y029042D01*
X002082Y029048D01*
X002035Y029050D01*
D12*
X001340Y028053D02*
X001370Y028005D01*
X001403Y027960D01*
X001439Y027917D01*
X001477Y027876D01*
X001519Y027839D01*
X001563Y027804D01*
X001609Y027773D01*
X001658Y027744D01*
X001708Y027720D01*
X001760Y027699D01*
X001814Y027681D01*
X001868Y027668D01*
X001923Y027658D01*
X001979Y027652D01*
X002035Y027650D01*
X001329Y028826D02*
X001356Y028873D01*
X001386Y028918D01*
X001419Y028961D01*
X001455Y029001D01*
X001494Y029039D01*
X001535Y029074D01*
X001578Y029107D01*
X001623Y029136D01*
X001671Y029162D01*
X001720Y029185D01*
X001770Y029205D01*
X001821Y029221D01*
X001874Y029234D01*
X001927Y029243D01*
X001981Y029248D01*
X002035Y029250D01*
X002646Y027933D02*
X002610Y027894D01*
X002571Y027856D01*
X002531Y027822D01*
X002488Y027790D01*
X002443Y027762D01*
X002396Y027736D01*
X002347Y027713D01*
X002297Y027694D01*
X002246Y027678D01*
X002194Y027666D01*
X002142Y027657D01*
X002088Y027652D01*
X002035Y027650D01*
X002650Y028962D02*
X002614Y029002D01*
X002575Y029040D01*
X002534Y029075D01*
X002491Y029107D01*
X002446Y029137D01*
X002399Y029163D01*
X002350Y029185D01*
X002299Y029205D01*
X002248Y029221D01*
X002196Y029234D01*
X002142Y029243D01*
X002089Y029248D01*
X002035Y029250D01*
X001329Y030826D02*
X001356Y030873D01*
X001386Y030918D01*
X001419Y030961D01*
X001455Y031001D01*
X001494Y031039D01*
X001535Y031074D01*
X001578Y031107D01*
X001623Y031136D01*
X001671Y031162D01*
X001720Y031185D01*
X001770Y031205D01*
X001821Y031221D01*
X001874Y031234D01*
X001927Y031243D01*
X001981Y031248D01*
X002035Y031250D01*
X001340Y030053D02*
X001370Y030005D01*
X001403Y029960D01*
X001439Y029917D01*
X001477Y029876D01*
X001519Y029839D01*
X001563Y029804D01*
X001609Y029773D01*
X001658Y029744D01*
X001708Y029720D01*
X001760Y029699D01*
X001814Y029681D01*
X001868Y029668D01*
X001923Y029658D01*
X001979Y029652D01*
X002035Y029650D01*
X002088Y029652D01*
X002142Y029657D01*
X002194Y029666D01*
X002246Y029678D01*
X002297Y029694D01*
X002347Y029713D01*
X002396Y029736D01*
X002443Y029762D01*
X002488Y029790D01*
X002531Y029822D01*
X002571Y029856D01*
X002610Y029894D01*
X002646Y029933D01*
X002650Y030962D02*
X002614Y031002D01*
X002575Y031040D01*
X002534Y031075D01*
X002491Y031107D01*
X002446Y031137D01*
X002399Y031163D01*
X002350Y031185D01*
X002299Y031205D01*
X002248Y031221D01*
X002196Y031234D01*
X002142Y031243D01*
X002089Y031248D01*
X002035Y031250D01*
X021235Y006950D02*
X021237Y006896D01*
X021242Y006842D01*
X021251Y006789D01*
X021264Y006736D01*
X021280Y006685D01*
X021300Y006635D01*
X021323Y006586D01*
X021349Y006538D01*
X021378Y006493D01*
X021411Y006450D01*
X021446Y006409D01*
X021484Y006370D01*
X021524Y006334D01*
X021567Y006301D01*
X021612Y006271D01*
X021659Y006244D01*
X022432Y006255D02*
X022480Y006285D01*
X022525Y006318D01*
X022568Y006354D01*
X022609Y006392D01*
X022646Y006434D01*
X022681Y006478D01*
X022712Y006524D01*
X022741Y006573D01*
X022765Y006623D01*
X022786Y006675D01*
X022804Y006729D01*
X022817Y006783D01*
X022827Y006838D01*
X022833Y006894D01*
X022835Y006950D01*
X022833Y007003D01*
X022828Y007057D01*
X022819Y007109D01*
X022807Y007161D01*
X022791Y007212D01*
X022772Y007262D01*
X022749Y007311D01*
X022723Y007358D01*
X022695Y007403D01*
X022663Y007446D01*
X022629Y007486D01*
X022591Y007525D01*
X022552Y007561D01*
X021523Y007565D02*
X021483Y007529D01*
X021445Y007490D01*
X021410Y007449D01*
X021378Y007406D01*
X021348Y007361D01*
X021322Y007314D01*
X021300Y007265D01*
X021280Y007214D01*
X021264Y007163D01*
X021251Y007111D01*
X021242Y007057D01*
X021237Y007004D01*
X021235Y006950D01*
X024432Y006255D02*
X024480Y006285D01*
X024525Y006318D01*
X024568Y006354D01*
X024609Y006392D01*
X024646Y006434D01*
X024681Y006478D01*
X024712Y006524D01*
X024741Y006573D01*
X024765Y006623D01*
X024786Y006675D01*
X024804Y006729D01*
X024817Y006783D01*
X024827Y006838D01*
X024833Y006894D01*
X024835Y006950D01*
X023659Y006244D02*
X023612Y006271D01*
X023567Y006301D01*
X023524Y006334D01*
X023484Y006370D01*
X023446Y006409D01*
X023411Y006450D01*
X023378Y006493D01*
X023349Y006538D01*
X023323Y006586D01*
X023300Y006635D01*
X023280Y006685D01*
X023264Y006736D01*
X023251Y006789D01*
X023242Y006842D01*
X023237Y006896D01*
X023235Y006950D01*
X024552Y007561D02*
X024591Y007525D01*
X024629Y007486D01*
X024663Y007446D01*
X024695Y007403D01*
X024723Y007358D01*
X024749Y007311D01*
X024772Y007262D01*
X024791Y007212D01*
X024807Y007161D01*
X024819Y007109D01*
X024828Y007057D01*
X024833Y007003D01*
X024835Y006950D01*
X023523Y007565D02*
X023483Y007529D01*
X023445Y007490D01*
X023410Y007449D01*
X023378Y007406D01*
X023348Y007361D01*
X023322Y007314D01*
X023300Y007265D01*
X023280Y007214D01*
X023264Y007163D01*
X023251Y007111D01*
X023242Y007057D01*
X023237Y007004D01*
X023235Y006950D01*
X031235Y002550D02*
X031535Y002550D01*
X031835Y002550D01*
X031835Y002350D02*
X031535Y002350D01*
X031235Y002350D01*
X032985Y006350D02*
X033285Y006350D01*
X033585Y006350D01*
X033585Y006550D02*
X033285Y006550D01*
X032985Y006550D01*
X037340Y000553D02*
X037370Y000505D01*
X037403Y000460D01*
X037439Y000417D01*
X037477Y000376D01*
X037519Y000339D01*
X037563Y000304D01*
X037609Y000273D01*
X037658Y000244D01*
X037708Y000220D01*
X037760Y000199D01*
X037814Y000181D01*
X037868Y000168D01*
X037923Y000158D01*
X037979Y000152D01*
X038035Y000150D01*
X037329Y001326D02*
X037356Y001373D01*
X037386Y001418D01*
X037419Y001461D01*
X037455Y001501D01*
X037494Y001539D01*
X037535Y001574D01*
X037578Y001607D01*
X037623Y001636D01*
X037671Y001662D01*
X037720Y001685D01*
X037770Y001705D01*
X037821Y001721D01*
X037874Y001734D01*
X037927Y001743D01*
X037981Y001748D01*
X038035Y001750D01*
X038646Y000433D02*
X038610Y000394D01*
X038571Y000356D01*
X038531Y000322D01*
X038488Y000290D01*
X038443Y000262D01*
X038396Y000236D01*
X038347Y000213D01*
X038297Y000194D01*
X038246Y000178D01*
X038194Y000166D01*
X038142Y000157D01*
X038088Y000152D01*
X038035Y000150D01*
X038650Y001462D02*
X038614Y001502D01*
X038575Y001540D01*
X038534Y001575D01*
X038491Y001607D01*
X038446Y001637D01*
X038399Y001663D01*
X038350Y001685D01*
X038299Y001705D01*
X038248Y001721D01*
X038196Y001734D01*
X038142Y001743D01*
X038089Y001748D01*
X038035Y001750D01*
X002855Y005480D02*
X002857Y005504D01*
X002863Y005528D01*
X002872Y005550D01*
X002885Y005570D01*
X002901Y005588D01*
X002920Y005603D01*
X002941Y005616D01*
X002963Y005624D01*
X002987Y005629D01*
X003011Y005630D01*
X003035Y005627D01*
X003058Y005620D01*
X003080Y005610D01*
X003100Y005596D01*
X003117Y005579D01*
X003132Y005560D01*
X003143Y005539D01*
X003151Y005516D01*
X003155Y005492D01*
X003155Y005468D01*
X003151Y005444D01*
X003143Y005421D01*
X003132Y005400D01*
X003117Y005381D01*
X003100Y005364D01*
X003080Y005350D01*
X003058Y005340D01*
X003035Y005333D01*
X003011Y005330D01*
X002987Y005331D01*
X002963Y005336D01*
X002941Y005344D01*
X002920Y005357D01*
X002901Y005372D01*
X002885Y005390D01*
X002872Y005410D01*
X002863Y005432D01*
X002857Y005456D01*
X002855Y005480D01*
D13*
X000535Y000450D02*
X010035Y000450D01*
X010035Y004450D01*
X000535Y004450D01*
X000535Y000450D01*
X001760Y000767D02*
X001802Y000725D01*
X001843Y000725D01*
X001885Y000767D01*
X001885Y000850D01*
X001927Y000892D01*
X001968Y000892D01*
X002010Y000850D01*
X002010Y000767D01*
X001968Y000725D01*
X001760Y000767D02*
X001760Y000850D01*
X001802Y000892D01*
X001843Y001001D02*
X001843Y001043D01*
X001885Y001085D01*
X001843Y001126D01*
X001885Y001168D01*
X002010Y001168D01*
X002010Y001085D02*
X001885Y001085D01*
X001843Y001001D02*
X002010Y001001D01*
X001968Y001277D02*
X001927Y001319D01*
X001927Y001444D01*
X001885Y001444D02*
X002010Y001444D01*
X002010Y001319D01*
X001968Y001277D01*
X001843Y001319D02*
X001843Y001403D01*
X001885Y001444D01*
X001927Y001554D02*
X001843Y001637D01*
X001843Y001679D01*
X001843Y001784D02*
X001843Y001867D01*
X001802Y001826D02*
X001968Y001826D01*
X002010Y001867D01*
X001968Y001968D02*
X002010Y002010D01*
X002010Y002135D01*
X002052Y002135D02*
X002093Y002093D01*
X002093Y002051D01*
X002052Y002135D02*
X001843Y002135D01*
X001843Y001968D02*
X001968Y001968D01*
X002010Y001554D02*
X001843Y001554D01*
X001843Y002521D02*
X001968Y002521D01*
X002010Y002562D01*
X002010Y002687D01*
X001843Y002687D01*
X001843Y002797D02*
X001885Y002838D01*
X001885Y002922D01*
X001927Y002964D01*
X001968Y002964D01*
X002010Y002922D01*
X002010Y002838D01*
X001968Y002797D01*
X001843Y002797D02*
X001802Y002797D01*
X001760Y002838D01*
X001760Y002922D01*
X001802Y002964D01*
X001760Y003073D02*
X002010Y003073D01*
X001885Y003073D02*
X001843Y003115D01*
X001843Y003198D01*
X001885Y003240D01*
X002010Y003240D01*
X002010Y003349D02*
X002010Y003433D01*
X002010Y003391D02*
X001843Y003391D01*
X001843Y003349D01*
X001760Y003391D02*
X001718Y003391D01*
X001885Y003533D02*
X001843Y003575D01*
X001843Y003658D01*
X001885Y003700D01*
X001927Y003700D01*
X001927Y003533D01*
X001968Y003533D02*
X001885Y003533D01*
X001968Y003533D02*
X002010Y003575D01*
X002010Y003658D01*
X002010Y003810D02*
X002010Y003893D01*
X002010Y003851D02*
X001760Y003851D01*
X001760Y003810D01*
X001885Y003994D02*
X001843Y004035D01*
X001843Y004161D01*
X001760Y004161D02*
X002010Y004161D01*
X002010Y004035D01*
X001968Y003994D01*
X001885Y003994D01*
X002985Y007200D02*
X002985Y007700D01*
X004085Y007700D01*
X004085Y007200D01*
X002985Y007200D01*
X002985Y008200D02*
X002985Y008700D01*
X004085Y008700D01*
X004085Y008200D01*
X002985Y008200D01*
X002985Y009200D02*
X002985Y009700D01*
X004085Y009700D01*
X004085Y009200D01*
X002985Y009200D01*
X001579Y009734D02*
X000791Y009734D01*
X000732Y009708D01*
X000675Y009679D01*
X000620Y009647D01*
X000566Y009611D01*
X000515Y009572D01*
X000467Y009529D01*
X000421Y009484D01*
X000378Y009437D01*
X000337Y009387D01*
X000300Y009334D01*
X000267Y009279D01*
X000236Y009223D01*
X000209Y009164D01*
X000186Y009104D01*
X000166Y009043D01*
X000150Y008981D01*
X000138Y008917D01*
X000130Y008854D01*
X000126Y008790D01*
X000125Y008725D01*
X000129Y008661D01*
X000136Y008597D01*
X000147Y008534D01*
X000162Y008471D01*
X000181Y008410D01*
X000204Y008349D01*
X000230Y008291D01*
X000259Y008234D01*
X000292Y008178D01*
X000329Y008125D01*
X000368Y008075D01*
X000411Y008026D01*
X000456Y007981D01*
X000504Y007938D01*
X000554Y007898D01*
X000607Y007861D01*
X000662Y007828D01*
X000719Y007798D01*
X000778Y007771D01*
X000838Y007748D01*
X000899Y007729D01*
X000962Y007714D01*
X001025Y007702D01*
X001089Y007694D01*
X001153Y007690D01*
X001217Y007690D01*
X001281Y007694D01*
X001345Y007702D01*
X001408Y007714D01*
X001471Y007729D01*
X001532Y007748D01*
X001592Y007771D01*
X001651Y007798D01*
X001708Y007828D01*
X001763Y007861D01*
X001816Y007898D01*
X001866Y007938D01*
X001914Y007981D01*
X001959Y008026D01*
X002002Y008075D01*
X002041Y008125D01*
X002078Y008178D01*
X002111Y008234D01*
X002140Y008291D01*
X002166Y008349D01*
X002189Y008410D01*
X002208Y008471D01*
X002223Y008534D01*
X002234Y008597D01*
X002241Y008661D01*
X002245Y008725D01*
X002244Y008790D01*
X002240Y008854D01*
X002232Y008917D01*
X002220Y008981D01*
X002204Y009043D01*
X002184Y009104D01*
X002161Y009164D01*
X002134Y009223D01*
X002103Y009279D01*
X002070Y009334D01*
X002033Y009387D01*
X001992Y009437D01*
X001949Y009484D01*
X001903Y009529D01*
X001855Y009572D01*
X001804Y009611D01*
X001750Y009647D01*
X001695Y009679D01*
X001638Y009708D01*
X001579Y009734D01*
X007160Y008700D02*
X007235Y008775D01*
X007310Y008775D01*
X007385Y008700D01*
X007385Y008550D01*
X007310Y008475D01*
X007235Y008475D01*
X007160Y008550D01*
X007160Y008700D01*
X007385Y008700D02*
X007460Y008775D01*
X007535Y008775D01*
X007610Y008700D01*
X007610Y008550D01*
X007535Y008475D01*
X007460Y008475D01*
X007385Y008550D01*
X009960Y005425D02*
X010410Y005425D01*
X010410Y005275D02*
X010410Y005575D01*
X010110Y005275D02*
X009960Y005425D01*
X011985Y006400D02*
X011985Y008250D01*
X012235Y008500D01*
X014085Y008500D01*
X014085Y006400D01*
X011985Y006400D01*
X012029Y008475D02*
X011904Y008475D01*
X011863Y008517D01*
X011904Y008558D01*
X012029Y008558D01*
X012029Y008600D02*
X012029Y008475D01*
X012139Y008475D02*
X012139Y008642D01*
X012222Y008642D02*
X012264Y008642D01*
X012222Y008642D02*
X012139Y008558D01*
X012029Y008600D02*
X011988Y008642D01*
X011904Y008642D01*
X011785Y008600D02*
X011787Y008624D01*
X011793Y008648D01*
X011802Y008670D01*
X011815Y008690D01*
X011831Y008708D01*
X011850Y008723D01*
X011871Y008736D01*
X011893Y008744D01*
X011917Y008749D01*
X011941Y008750D01*
X011965Y008747D01*
X011988Y008740D01*
X012010Y008730D01*
X012030Y008716D01*
X012047Y008699D01*
X012062Y008680D01*
X012073Y008659D01*
X012081Y008636D01*
X012085Y008612D01*
X012085Y008588D01*
X012081Y008564D01*
X012073Y008541D01*
X012062Y008520D01*
X012047Y008501D01*
X012030Y008484D01*
X012010Y008470D01*
X011988Y008460D01*
X011965Y008453D01*
X011941Y008450D01*
X011917Y008451D01*
X011893Y008456D01*
X011871Y008464D01*
X011850Y008477D01*
X011831Y008492D01*
X011815Y008510D01*
X011802Y008530D01*
X011793Y008552D01*
X011787Y008576D01*
X011785Y008600D01*
X011753Y008600D02*
X011753Y008475D01*
X011670Y008475D02*
X011670Y008600D01*
X011711Y008642D01*
X011753Y008600D01*
X011670Y008600D02*
X011628Y008642D01*
X011586Y008642D01*
X011586Y008475D01*
X011477Y008517D02*
X011435Y008475D01*
X011352Y008475D01*
X011310Y008517D01*
X011352Y008600D02*
X011435Y008600D01*
X011477Y008558D01*
X011477Y008517D01*
X011352Y008600D02*
X011310Y008642D01*
X011310Y008684D01*
X011352Y008725D01*
X011435Y008725D01*
X011477Y008684D01*
X012369Y008642D02*
X012452Y008642D01*
X012411Y008684D02*
X012411Y008517D01*
X012452Y008475D01*
X012553Y008517D02*
X012595Y008475D01*
X012720Y008475D01*
X012720Y008433D02*
X012678Y008392D01*
X012637Y008392D01*
X012720Y008433D02*
X012720Y008642D01*
X012553Y008642D02*
X012553Y008517D01*
X013106Y008517D02*
X013147Y008475D01*
X013272Y008475D01*
X013272Y008642D01*
X013382Y008642D02*
X013424Y008600D01*
X013507Y008600D01*
X013549Y008558D01*
X013549Y008517D01*
X013507Y008475D01*
X013424Y008475D01*
X013382Y008517D01*
X013382Y008642D02*
X013382Y008684D01*
X013424Y008725D01*
X013507Y008725D01*
X013549Y008684D01*
X013658Y008725D02*
X013658Y008475D01*
X013658Y008600D02*
X013700Y008642D01*
X013783Y008642D01*
X013825Y008600D01*
X013825Y008475D01*
X013934Y008475D02*
X014018Y008475D01*
X013976Y008475D02*
X013976Y008642D01*
X013934Y008642D01*
X013976Y008725D02*
X013976Y008767D01*
X014118Y008600D02*
X014160Y008642D01*
X014244Y008642D01*
X014285Y008600D01*
X014285Y008558D01*
X014118Y008558D01*
X014118Y008517D02*
X014118Y008600D01*
X014118Y008517D02*
X014160Y008475D01*
X014244Y008475D01*
X014395Y008475D02*
X014478Y008475D01*
X014436Y008475D02*
X014436Y008725D01*
X014395Y008725D01*
X014579Y008600D02*
X014621Y008642D01*
X014746Y008642D01*
X014746Y008725D02*
X014746Y008475D01*
X014621Y008475D01*
X014579Y008517D01*
X014579Y008600D01*
X015035Y009950D02*
X015035Y000450D01*
X011035Y000450D01*
X011035Y009950D01*
X015035Y009950D01*
X015035Y010950D02*
X011035Y010950D01*
X011035Y020450D01*
X015035Y020450D01*
X015035Y010950D01*
X016035Y010950D02*
X016035Y020450D01*
X020035Y020450D01*
X020035Y010950D01*
X016035Y010950D01*
X016035Y009950D02*
X016035Y000450D01*
X020035Y000450D01*
X020035Y009950D01*
X016035Y009950D01*
X016352Y008725D02*
X016310Y008684D01*
X016310Y008642D01*
X016352Y008600D01*
X016435Y008600D01*
X016477Y008558D01*
X016477Y008517D01*
X016435Y008475D01*
X016352Y008475D01*
X016310Y008517D01*
X016352Y008725D02*
X016435Y008725D01*
X016477Y008684D01*
X016586Y008642D02*
X016628Y008642D01*
X016670Y008600D01*
X016711Y008642D01*
X016753Y008600D01*
X016753Y008475D01*
X016670Y008475D02*
X016670Y008600D01*
X016586Y008642D02*
X016586Y008475D01*
X016863Y008517D02*
X016904Y008558D01*
X017029Y008558D01*
X017029Y008600D02*
X017029Y008475D01*
X016904Y008475D01*
X016863Y008517D01*
X016904Y008642D02*
X016988Y008642D01*
X017029Y008600D01*
X017139Y008558D02*
X017222Y008642D01*
X017264Y008642D01*
X017369Y008642D02*
X017452Y008642D01*
X017411Y008684D02*
X017411Y008517D01*
X017452Y008475D01*
X017553Y008517D02*
X017595Y008475D01*
X017720Y008475D01*
X017720Y008433D02*
X017678Y008392D01*
X017637Y008392D01*
X017720Y008433D02*
X017720Y008642D01*
X017553Y008642D02*
X017553Y008517D01*
X017139Y008475D02*
X017139Y008642D01*
X017035Y008450D02*
X016035Y008450D01*
X016035Y000450D01*
X017035Y000450D01*
X017035Y008450D01*
X018106Y008517D02*
X018147Y008475D01*
X018272Y008475D01*
X018272Y008642D01*
X018382Y008642D02*
X018424Y008600D01*
X018507Y008600D01*
X018549Y008558D01*
X018549Y008517D01*
X018507Y008475D01*
X018424Y008475D01*
X018382Y008517D01*
X018382Y008642D02*
X018382Y008684D01*
X018424Y008725D01*
X018507Y008725D01*
X018549Y008684D01*
X018658Y008725D02*
X018658Y008475D01*
X018658Y008600D02*
X018700Y008642D01*
X018783Y008642D01*
X018825Y008600D01*
X018825Y008475D01*
X018934Y008475D02*
X019018Y008475D01*
X018976Y008475D02*
X018976Y008642D01*
X018934Y008642D01*
X018976Y008725D02*
X018976Y008767D01*
X019118Y008600D02*
X019160Y008642D01*
X019244Y008642D01*
X019285Y008600D01*
X019285Y008558D01*
X019118Y008558D01*
X019118Y008517D02*
X019118Y008600D01*
X019118Y008517D02*
X019160Y008475D01*
X019244Y008475D01*
X019395Y008475D02*
X019478Y008475D01*
X019436Y008475D02*
X019436Y008725D01*
X019395Y008725D01*
X019579Y008600D02*
X019621Y008642D01*
X019746Y008642D01*
X019746Y008725D02*
X019746Y008475D01*
X019621Y008475D01*
X019579Y008517D01*
X019579Y008600D01*
X018106Y008642D02*
X018106Y008517D01*
X021035Y009950D02*
X021035Y000450D01*
X025035Y000450D01*
X025035Y009950D01*
X021035Y009950D01*
X021035Y010950D02*
X021035Y020450D01*
X025035Y020450D01*
X025035Y010950D01*
X021035Y010950D01*
X021352Y008725D02*
X021310Y008684D01*
X021310Y008642D01*
X021352Y008600D01*
X021435Y008600D01*
X021477Y008558D01*
X021477Y008517D01*
X021435Y008475D01*
X021352Y008475D01*
X021310Y008517D01*
X021352Y008725D02*
X021435Y008725D01*
X021477Y008684D01*
X021586Y008642D02*
X021628Y008642D01*
X021670Y008600D01*
X021711Y008642D01*
X021753Y008600D01*
X021753Y008475D01*
X021670Y008475D02*
X021670Y008600D01*
X021586Y008642D02*
X021586Y008475D01*
X021863Y008517D02*
X021904Y008558D01*
X022029Y008558D01*
X022029Y008600D02*
X022029Y008475D01*
X021904Y008475D01*
X021863Y008517D01*
X021904Y008642D02*
X021988Y008642D01*
X022029Y008600D01*
X022139Y008558D02*
X022222Y008642D01*
X022264Y008642D01*
X022369Y008642D02*
X022452Y008642D01*
X022411Y008684D02*
X022411Y008517D01*
X022452Y008475D01*
X022553Y008517D02*
X022595Y008475D01*
X022720Y008475D01*
X022720Y008433D02*
X022678Y008392D01*
X022637Y008392D01*
X022720Y008433D02*
X022720Y008642D01*
X022553Y008642D02*
X022553Y008517D01*
X022139Y008475D02*
X022139Y008642D01*
X023106Y008642D02*
X023106Y008517D01*
X023147Y008475D01*
X023272Y008475D01*
X023272Y008642D01*
X023382Y008642D02*
X023424Y008600D01*
X023507Y008600D01*
X023549Y008558D01*
X023549Y008517D01*
X023507Y008475D01*
X023424Y008475D01*
X023382Y008517D01*
X023382Y008642D02*
X023382Y008684D01*
X023424Y008725D01*
X023507Y008725D01*
X023549Y008684D01*
X023658Y008725D02*
X023658Y008475D01*
X023658Y008600D02*
X023700Y008642D01*
X023783Y008642D01*
X023825Y008600D01*
X023825Y008475D01*
X023934Y008475D02*
X024018Y008475D01*
X023976Y008475D02*
X023976Y008642D01*
X023934Y008642D01*
X023976Y008725D02*
X023976Y008767D01*
X024118Y008600D02*
X024160Y008642D01*
X024244Y008642D01*
X024285Y008600D01*
X024285Y008558D01*
X024118Y008558D01*
X024118Y008517D02*
X024118Y008600D01*
X024118Y008517D02*
X024160Y008475D01*
X024244Y008475D01*
X024395Y008475D02*
X024478Y008475D01*
X024436Y008475D02*
X024436Y008725D01*
X024395Y008725D01*
X024579Y008600D02*
X024621Y008642D01*
X024746Y008642D01*
X024746Y008725D02*
X024746Y008475D01*
X024621Y008475D01*
X024579Y008517D01*
X024579Y008600D01*
X026220Y011935D02*
X026220Y012385D01*
X026445Y012385D01*
X026520Y012310D01*
X026520Y012160D01*
X026445Y012085D01*
X026220Y012085D01*
X026370Y012085D02*
X026520Y011935D01*
X026680Y011935D02*
X026981Y012235D01*
X026981Y012310D01*
X026906Y012385D01*
X026756Y012385D01*
X026680Y012310D01*
X026680Y011935D02*
X026981Y011935D01*
X027141Y012010D02*
X027216Y011935D01*
X027366Y011935D01*
X027441Y012010D01*
X027441Y012085D01*
X027366Y012160D01*
X027291Y012160D01*
X027366Y012160D02*
X027441Y012235D01*
X027441Y012310D01*
X027366Y012385D01*
X027216Y012385D01*
X027141Y012310D01*
X026981Y013435D02*
X026680Y013435D01*
X026981Y013735D01*
X026981Y013810D01*
X026906Y013885D01*
X026756Y013885D01*
X026680Y013810D01*
X026520Y013810D02*
X026520Y013660D01*
X026445Y013585D01*
X026220Y013585D01*
X026220Y013435D02*
X026220Y013885D01*
X026445Y013885D01*
X026520Y013810D01*
X026370Y013585D02*
X026520Y013435D01*
X027141Y013660D02*
X027441Y013660D01*
X027366Y013435D02*
X027366Y013885D01*
X027141Y013660D01*
X027216Y014935D02*
X027141Y015010D01*
X027141Y015160D01*
X027366Y015160D01*
X027441Y015085D01*
X027441Y015010D01*
X027366Y014935D01*
X027216Y014935D01*
X026981Y014935D02*
X026680Y014935D01*
X026981Y015235D01*
X026981Y015310D01*
X026906Y015385D01*
X026756Y015385D01*
X026680Y015310D01*
X026520Y015310D02*
X026520Y015160D01*
X026445Y015085D01*
X026220Y015085D01*
X026220Y014935D02*
X026220Y015385D01*
X026445Y015385D01*
X026520Y015310D01*
X026370Y015085D02*
X026520Y014935D01*
X027141Y015160D02*
X027291Y015310D01*
X027441Y015385D01*
X027366Y016435D02*
X027216Y016435D01*
X027141Y016510D01*
X027141Y016660D02*
X027291Y016735D01*
X027366Y016735D01*
X027441Y016660D01*
X027441Y016510D01*
X027366Y016435D01*
X027141Y016660D02*
X027141Y016885D01*
X027441Y016885D01*
X026981Y016810D02*
X026906Y016885D01*
X026756Y016885D01*
X026680Y016810D01*
X026520Y016810D02*
X026520Y016660D01*
X026445Y016585D01*
X026220Y016585D01*
X026220Y016435D02*
X026220Y016885D01*
X026445Y016885D01*
X026520Y016810D01*
X026370Y016585D02*
X026520Y016435D01*
X026680Y016435D02*
X026981Y016735D01*
X026981Y016810D01*
X026981Y016435D02*
X026680Y016435D01*
X026680Y017935D02*
X026981Y018235D01*
X026981Y018310D01*
X026906Y018385D01*
X026756Y018385D01*
X026680Y018310D01*
X026520Y018310D02*
X026520Y018160D01*
X026445Y018085D01*
X026220Y018085D01*
X026220Y017935D02*
X026220Y018385D01*
X026445Y018385D01*
X026520Y018310D01*
X026370Y018085D02*
X026520Y017935D01*
X026680Y017935D02*
X026981Y017935D01*
X027141Y018010D02*
X027141Y018085D01*
X027216Y018160D01*
X027366Y018160D01*
X027441Y018085D01*
X027441Y018010D01*
X027366Y017935D01*
X027216Y017935D01*
X027141Y018010D01*
X027216Y018160D02*
X027141Y018235D01*
X027141Y018310D01*
X027216Y018385D01*
X027366Y018385D01*
X027441Y018310D01*
X027441Y018235D01*
X027366Y018160D01*
X027141Y019235D02*
X027141Y019310D01*
X027441Y019610D01*
X027441Y019685D01*
X027141Y019685D01*
X026981Y019610D02*
X026906Y019685D01*
X026756Y019685D01*
X026680Y019610D01*
X026520Y019610D02*
X026520Y019460D01*
X026445Y019385D01*
X026220Y019385D01*
X026220Y019235D02*
X026220Y019685D01*
X026445Y019685D01*
X026520Y019610D01*
X026370Y019385D02*
X026520Y019235D01*
X026680Y019235D02*
X026981Y019535D01*
X026981Y019610D01*
X026981Y019235D02*
X026680Y019235D01*
X026756Y020435D02*
X026680Y020510D01*
X026756Y020435D02*
X026906Y020435D01*
X026981Y020510D01*
X026981Y020585D01*
X026906Y020660D01*
X026831Y020660D01*
X026906Y020660D02*
X026981Y020735D01*
X026981Y020810D01*
X026906Y020885D01*
X026756Y020885D01*
X026680Y020810D01*
X026660Y020825D02*
X026360Y020825D01*
X026445Y020885D02*
X026220Y020885D01*
X026220Y020435D01*
X026220Y020585D02*
X026445Y020585D01*
X026520Y020660D01*
X026520Y020810D01*
X026445Y020885D01*
X026510Y020825D02*
X026510Y021275D01*
X026360Y021125D01*
X026370Y020585D02*
X026520Y020435D01*
X027141Y020510D02*
X027141Y020810D01*
X027216Y020885D01*
X027366Y020885D01*
X027441Y020810D01*
X027141Y020510D01*
X027216Y020435D01*
X027366Y020435D01*
X027441Y020510D01*
X027441Y020810D01*
X024746Y019225D02*
X024746Y018975D01*
X024621Y018975D01*
X024579Y019017D01*
X024579Y019100D01*
X024621Y019142D01*
X024746Y019142D01*
X024478Y018975D02*
X024395Y018975D01*
X024436Y018975D02*
X024436Y019225D01*
X024395Y019225D01*
X024285Y019100D02*
X024285Y019058D01*
X024118Y019058D01*
X024118Y019017D02*
X024118Y019100D01*
X024160Y019142D01*
X024244Y019142D01*
X024285Y019100D01*
X024244Y018975D02*
X024160Y018975D01*
X024118Y019017D01*
X024018Y018975D02*
X023934Y018975D01*
X023976Y018975D02*
X023976Y019142D01*
X023934Y019142D01*
X023976Y019225D02*
X023976Y019267D01*
X023825Y019100D02*
X023825Y018975D01*
X023825Y019100D02*
X023783Y019142D01*
X023700Y019142D01*
X023658Y019100D01*
X023549Y019058D02*
X023549Y019017D01*
X023507Y018975D01*
X023424Y018975D01*
X023382Y019017D01*
X023424Y019100D02*
X023507Y019100D01*
X023549Y019058D01*
X023549Y019184D02*
X023507Y019225D01*
X023424Y019225D01*
X023382Y019184D01*
X023382Y019142D01*
X023424Y019100D01*
X023272Y019142D02*
X023272Y018975D01*
X023147Y018975D01*
X023106Y019017D01*
X023106Y019142D01*
X022720Y019142D02*
X022720Y018933D01*
X022678Y018892D01*
X022637Y018892D01*
X022595Y018975D02*
X022720Y018975D01*
X022595Y018975D02*
X022553Y019017D01*
X022553Y019142D01*
X022452Y019142D02*
X022369Y019142D01*
X022411Y019184D02*
X022411Y019017D01*
X022452Y018975D01*
X022264Y019142D02*
X022222Y019142D01*
X022139Y019058D01*
X022139Y018975D02*
X022139Y019142D01*
X022029Y019100D02*
X022029Y018975D01*
X021904Y018975D01*
X021863Y019017D01*
X021904Y019058D01*
X022029Y019058D01*
X022029Y019100D02*
X021988Y019142D01*
X021904Y019142D01*
X021753Y019100D02*
X021753Y018975D01*
X021670Y018975D02*
X021670Y019100D01*
X021711Y019142D01*
X021753Y019100D01*
X021670Y019100D02*
X021628Y019142D01*
X021586Y019142D01*
X021586Y018975D01*
X021477Y019017D02*
X021435Y018975D01*
X021352Y018975D01*
X021310Y019017D01*
X021352Y019100D02*
X021435Y019100D01*
X021477Y019058D01*
X021477Y019017D01*
X021352Y019100D02*
X021310Y019142D01*
X021310Y019184D01*
X021352Y019225D01*
X021435Y019225D01*
X021477Y019184D01*
X019746Y019225D02*
X019746Y018975D01*
X019621Y018975D01*
X019579Y019017D01*
X019579Y019100D01*
X019621Y019142D01*
X019746Y019142D01*
X019478Y018975D02*
X019395Y018975D01*
X019436Y018975D02*
X019436Y019225D01*
X019395Y019225D01*
X019285Y019100D02*
X019285Y019058D01*
X019118Y019058D01*
X019118Y019017D02*
X019118Y019100D01*
X019160Y019142D01*
X019244Y019142D01*
X019285Y019100D01*
X019244Y018975D02*
X019160Y018975D01*
X019118Y019017D01*
X019018Y018975D02*
X018934Y018975D01*
X018976Y018975D02*
X018976Y019142D01*
X018934Y019142D01*
X018976Y019225D02*
X018976Y019267D01*
X018825Y019100D02*
X018825Y018975D01*
X018825Y019100D02*
X018783Y019142D01*
X018700Y019142D01*
X018658Y019100D01*
X018549Y019058D02*
X018549Y019017D01*
X018507Y018975D01*
X018424Y018975D01*
X018382Y019017D01*
X018424Y019100D02*
X018382Y019142D01*
X018382Y019184D01*
X018424Y019225D01*
X018507Y019225D01*
X018549Y019184D01*
X018507Y019100D02*
X018549Y019058D01*
X018507Y019100D02*
X018424Y019100D01*
X018272Y019142D02*
X018272Y018975D01*
X018147Y018975D01*
X018106Y019017D01*
X018106Y019142D01*
X017720Y019142D02*
X017720Y018933D01*
X017678Y018892D01*
X017637Y018892D01*
X017595Y018975D02*
X017720Y018975D01*
X017595Y018975D02*
X017553Y019017D01*
X017553Y019142D01*
X017452Y019142D02*
X017369Y019142D01*
X017411Y019184D02*
X017411Y019017D01*
X017452Y018975D01*
X017264Y019142D02*
X017222Y019142D01*
X017139Y019058D01*
X017139Y018975D02*
X017139Y019142D01*
X017029Y019100D02*
X017029Y018975D01*
X016904Y018975D01*
X016863Y019017D01*
X016904Y019058D01*
X017029Y019058D01*
X017029Y019100D02*
X016988Y019142D01*
X016904Y019142D01*
X016753Y019100D02*
X016753Y018975D01*
X016670Y018975D02*
X016670Y019100D01*
X016711Y019142D01*
X016753Y019100D01*
X016670Y019100D02*
X016628Y019142D01*
X016586Y019142D01*
X016586Y018975D01*
X016477Y019017D02*
X016435Y018975D01*
X016352Y018975D01*
X016310Y019017D01*
X016352Y019100D02*
X016435Y019100D01*
X016477Y019058D01*
X016477Y019017D01*
X016352Y019100D02*
X016310Y019142D01*
X016310Y019184D01*
X016352Y019225D01*
X016435Y019225D01*
X016477Y019184D01*
X016535Y017950D02*
X019535Y017950D01*
X019535Y013950D01*
X016535Y013950D01*
X016535Y017950D01*
X018035Y016450D02*
X018035Y015450D01*
X017535Y015950D02*
X018535Y015950D01*
X018658Y018975D02*
X018658Y019225D01*
X018519Y022556D02*
X018519Y023344D01*
X018493Y023403D01*
X018464Y023460D01*
X018432Y023515D01*
X018396Y023569D01*
X018357Y023620D01*
X018314Y023668D01*
X018269Y023714D01*
X018222Y023757D01*
X018172Y023798D01*
X018119Y023835D01*
X018064Y023868D01*
X018008Y023899D01*
X017949Y023926D01*
X017889Y023949D01*
X017828Y023969D01*
X017766Y023985D01*
X017702Y023997D01*
X017639Y024005D01*
X017575Y024009D01*
X017510Y024010D01*
X017446Y024006D01*
X017382Y023999D01*
X017319Y023988D01*
X017256Y023973D01*
X017195Y023954D01*
X017134Y023931D01*
X017076Y023905D01*
X017019Y023876D01*
X016963Y023843D01*
X016910Y023806D01*
X016860Y023767D01*
X016811Y023724D01*
X016766Y023679D01*
X016723Y023631D01*
X016683Y023581D01*
X016646Y023528D01*
X016613Y023473D01*
X016583Y023416D01*
X016556Y023357D01*
X016533Y023297D01*
X016514Y023236D01*
X016499Y023173D01*
X016487Y023110D01*
X016479Y023046D01*
X016475Y022982D01*
X016475Y022918D01*
X016479Y022854D01*
X016487Y022790D01*
X016499Y022727D01*
X016514Y022664D01*
X016533Y022603D01*
X016556Y022543D01*
X016583Y022484D01*
X016613Y022427D01*
X016646Y022372D01*
X016683Y022319D01*
X016723Y022269D01*
X016766Y022221D01*
X016811Y022176D01*
X016860Y022133D01*
X016910Y022094D01*
X016963Y022057D01*
X017019Y022024D01*
X017076Y021995D01*
X017134Y021969D01*
X017195Y021946D01*
X017256Y021927D01*
X017319Y021912D01*
X017382Y021901D01*
X017446Y021894D01*
X017510Y021890D01*
X017575Y021891D01*
X017639Y021895D01*
X017702Y021903D01*
X017766Y021915D01*
X017828Y021931D01*
X017889Y021951D01*
X017949Y021974D01*
X018008Y022001D01*
X018064Y022032D01*
X018119Y022065D01*
X018172Y022102D01*
X018222Y022143D01*
X018269Y022186D01*
X018314Y022232D01*
X018357Y022280D01*
X018396Y022331D01*
X018432Y022385D01*
X018464Y022440D01*
X018493Y022497D01*
X018519Y022556D01*
X014860Y024700D02*
X014785Y024625D01*
X014635Y024625D01*
X014560Y024700D01*
X014560Y024775D01*
X014635Y024850D01*
X014785Y024850D01*
X014860Y024775D01*
X014860Y024700D01*
X014785Y024850D02*
X014860Y024925D01*
X014860Y025000D01*
X014785Y025075D01*
X014635Y025075D01*
X014560Y025000D01*
X014560Y024925D01*
X014635Y024850D01*
X011660Y021825D02*
X011360Y021825D01*
X011510Y021825D02*
X011510Y022275D01*
X011360Y022125D01*
X009216Y022269D02*
X006854Y022269D01*
X006854Y024631D01*
X009216Y024631D01*
X009216Y022269D01*
X011352Y019225D02*
X011310Y019184D01*
X011310Y019142D01*
X011352Y019100D01*
X011435Y019100D01*
X011477Y019058D01*
X011477Y019017D01*
X011435Y018975D01*
X011352Y018975D01*
X011310Y019017D01*
X011335Y019050D02*
X011335Y017750D01*
X012035Y017750D01*
X012035Y019050D01*
X011335Y019050D01*
X011352Y019225D02*
X011435Y019225D01*
X011477Y019184D01*
X011586Y019142D02*
X011628Y019142D01*
X011670Y019100D01*
X011711Y019142D01*
X011753Y019100D01*
X011753Y018975D01*
X011670Y018975D02*
X011670Y019100D01*
X011586Y019142D02*
X011586Y018975D01*
X011863Y019017D02*
X011904Y019058D01*
X012029Y019058D01*
X012029Y019100D02*
X012029Y018975D01*
X011904Y018975D01*
X011863Y019017D01*
X011904Y019142D02*
X011988Y019142D01*
X012029Y019100D01*
X012139Y019058D02*
X012222Y019142D01*
X012264Y019142D01*
X012369Y019142D02*
X012452Y019142D01*
X012411Y019184D02*
X012411Y019017D01*
X012452Y018975D01*
X012553Y019017D02*
X012595Y018975D01*
X012720Y018975D01*
X012720Y018933D02*
X012678Y018892D01*
X012637Y018892D01*
X012720Y018933D02*
X012720Y019142D01*
X012553Y019142D02*
X012553Y019017D01*
X012835Y019000D02*
X013535Y019000D01*
X013535Y017700D01*
X012835Y017700D01*
X012835Y019000D01*
X013106Y019017D02*
X013147Y018975D01*
X013272Y018975D01*
X013272Y019142D01*
X013382Y019142D02*
X013424Y019100D01*
X013507Y019100D01*
X013549Y019058D01*
X013549Y019017D01*
X013507Y018975D01*
X013424Y018975D01*
X013382Y019017D01*
X013382Y019142D02*
X013382Y019184D01*
X013424Y019225D01*
X013507Y019225D01*
X013549Y019184D01*
X013658Y019225D02*
X013658Y018975D01*
X013658Y019100D02*
X013700Y019142D01*
X013783Y019142D01*
X013825Y019100D01*
X013825Y018975D01*
X013934Y018975D02*
X014018Y018975D01*
X013976Y018975D02*
X013976Y019142D01*
X013934Y019142D01*
X013976Y019225D02*
X013976Y019267D01*
X014118Y019100D02*
X014160Y019142D01*
X014244Y019142D01*
X014285Y019100D01*
X014285Y019058D01*
X014118Y019058D01*
X014118Y019017D02*
X014118Y019100D01*
X014118Y019017D02*
X014160Y018975D01*
X014244Y018975D01*
X014395Y018975D02*
X014478Y018975D01*
X014436Y018975D02*
X014436Y019225D01*
X014395Y019225D01*
X014579Y019100D02*
X014621Y019142D01*
X014746Y019142D01*
X014746Y019225D02*
X014746Y018975D01*
X014621Y018975D01*
X014579Y019017D01*
X014579Y019100D01*
X013106Y019142D02*
X013106Y019017D01*
X012139Y018975D02*
X012139Y019142D01*
X005716Y022269D02*
X003354Y022269D01*
X003354Y024631D01*
X005716Y024631D01*
X005716Y022269D01*
X009860Y026275D02*
X009710Y026425D01*
X010160Y026425D01*
X010160Y026275D02*
X010160Y026575D01*
X011035Y029450D02*
X011035Y030450D01*
X020035Y030450D01*
X020035Y029450D01*
X011035Y029450D01*
X009676Y031195D02*
X009526Y031195D01*
X009451Y031270D01*
X009522Y031195D02*
X009522Y031645D01*
X009526Y031645D02*
X009451Y031570D01*
X009451Y031495D01*
X009526Y031420D01*
X009676Y031420D01*
X009751Y031345D01*
X009751Y031270D01*
X009676Y031195D01*
X009751Y031570D02*
X009676Y031645D01*
X009526Y031645D01*
X009672Y031645D02*
X009372Y031645D01*
X009291Y031570D02*
X009216Y031645D01*
X009066Y031645D01*
X008990Y031570D01*
X008990Y031495D01*
X009066Y031420D01*
X009216Y031420D01*
X009291Y031345D01*
X009291Y031270D01*
X009216Y031195D01*
X009066Y031195D01*
X008990Y031270D01*
X008911Y031195D02*
X009212Y031195D01*
X009061Y031420D02*
X008911Y031420D01*
X008830Y031345D02*
X008830Y031645D01*
X008911Y031645D02*
X008911Y031195D01*
X008830Y031345D02*
X008680Y031195D01*
X008530Y031345D01*
X008530Y031645D01*
X008526Y031645D02*
X008451Y031570D01*
X008451Y031495D01*
X008526Y031420D01*
X008676Y031420D01*
X008751Y031345D01*
X008751Y031270D01*
X008676Y031195D01*
X008526Y031195D01*
X008451Y031270D01*
X008291Y031195D02*
X007990Y031195D01*
X007990Y031645D01*
X008291Y031645D01*
X008526Y031645D02*
X008676Y031645D01*
X008751Y031570D01*
X008911Y031645D02*
X009212Y031645D01*
X008141Y031420D02*
X007990Y031420D01*
X007830Y031420D02*
X007755Y031345D01*
X007530Y031345D01*
X007530Y031195D02*
X007530Y031645D01*
X007755Y031645D01*
X007830Y031570D01*
X007830Y031420D01*
X007680Y031345D02*
X007830Y031195D01*
X007285Y029775D02*
X007360Y029700D01*
X007360Y029550D01*
X007285Y029475D01*
X007210Y029475D01*
X007135Y029550D01*
X007135Y029700D01*
X007210Y029775D01*
X007285Y029775D01*
X007135Y029700D02*
X007060Y029775D01*
X006985Y029775D01*
X006910Y029700D01*
X006910Y029550D01*
X006985Y029475D01*
X007060Y029475D01*
X007135Y029550D01*
X006035Y029650D02*
X006035Y029150D01*
X005835Y028950D01*
X006035Y028750D01*
X006035Y028150D01*
X005835Y027950D01*
X006035Y027750D01*
X006035Y027250D01*
X005735Y026950D01*
X004335Y026950D01*
X004035Y027250D01*
X004035Y027750D01*
X004235Y027950D01*
X004035Y028150D01*
X004035Y028750D01*
X004235Y028950D01*
X004035Y029150D01*
X004035Y029650D01*
X004335Y029950D01*
X005735Y029950D01*
X006035Y029650D01*
X021100Y028700D02*
X021100Y028625D01*
X021175Y028550D01*
X021325Y028550D01*
X021400Y028475D01*
X021400Y028400D01*
X021325Y028325D01*
X021175Y028325D01*
X021100Y028400D01*
X021100Y028475D01*
X021175Y028550D01*
X021325Y028550D02*
X021400Y028625D01*
X021400Y028700D01*
X021325Y028775D01*
X021175Y028775D01*
X021100Y028700D01*
X024300Y031125D02*
X024600Y031125D01*
X024450Y031125D02*
X024450Y031575D01*
X024300Y031425D01*
X027040Y031375D02*
X027040Y031825D01*
X027265Y031825D01*
X027340Y031750D01*
X027340Y031600D01*
X027265Y031525D01*
X027040Y031525D01*
X027190Y031525D02*
X027340Y031375D01*
X027500Y031375D02*
X027801Y031375D01*
X027651Y031375D02*
X027651Y031825D01*
X027500Y031675D01*
X027961Y031600D02*
X028111Y031675D01*
X028186Y031675D01*
X028261Y031600D01*
X028261Y031450D01*
X028186Y031375D01*
X028036Y031375D01*
X027961Y031450D01*
X027961Y031600D02*
X027961Y031825D01*
X028261Y031825D01*
X029040Y031825D02*
X029040Y031375D01*
X029040Y031525D02*
X029265Y031525D01*
X029340Y031600D01*
X029340Y031750D01*
X029265Y031825D01*
X029040Y031825D01*
X029190Y031525D02*
X029340Y031375D01*
X029500Y031450D02*
X029576Y031375D01*
X029726Y031375D01*
X029801Y031450D01*
X029801Y031600D01*
X029726Y031675D01*
X029651Y031675D01*
X029500Y031600D01*
X029500Y031825D01*
X029801Y031825D01*
X031040Y031825D02*
X031040Y031375D01*
X031040Y031525D02*
X031265Y031525D01*
X031340Y031600D01*
X031340Y031750D01*
X031265Y031825D01*
X031040Y031825D01*
X031190Y031525D02*
X031340Y031375D01*
X031500Y031600D02*
X031801Y031600D01*
X031726Y031375D02*
X031726Y031825D01*
X031500Y031600D01*
X034519Y031344D02*
X034493Y031403D01*
X034464Y031460D01*
X034432Y031515D01*
X034396Y031569D01*
X034357Y031620D01*
X034314Y031668D01*
X034269Y031714D01*
X034222Y031757D01*
X034172Y031798D01*
X034119Y031835D01*
X034064Y031868D01*
X034008Y031899D01*
X033949Y031926D01*
X033889Y031949D01*
X033828Y031969D01*
X033766Y031985D01*
X033702Y031997D01*
X033639Y032005D01*
X033575Y032009D01*
X033510Y032010D01*
X033446Y032006D01*
X033382Y031999D01*
X033319Y031988D01*
X033256Y031973D01*
X033195Y031954D01*
X033134Y031931D01*
X033076Y031905D01*
X033019Y031876D01*
X032963Y031843D01*
X032910Y031806D01*
X032860Y031767D01*
X032811Y031724D01*
X032766Y031679D01*
X032723Y031631D01*
X032683Y031581D01*
X032646Y031528D01*
X032613Y031473D01*
X032583Y031416D01*
X032556Y031357D01*
X032533Y031297D01*
X032514Y031236D01*
X032499Y031173D01*
X032487Y031110D01*
X032479Y031046D01*
X032475Y030982D01*
X032475Y030918D01*
X032479Y030854D01*
X032487Y030790D01*
X032499Y030727D01*
X032514Y030664D01*
X032533Y030603D01*
X032556Y030543D01*
X032583Y030484D01*
X032613Y030427D01*
X032646Y030372D01*
X032683Y030319D01*
X032723Y030269D01*
X032766Y030221D01*
X032811Y030176D01*
X032860Y030133D01*
X032910Y030094D01*
X032963Y030057D01*
X033019Y030024D01*
X033076Y029995D01*
X033134Y029969D01*
X033195Y029946D01*
X033256Y029927D01*
X033319Y029912D01*
X033382Y029901D01*
X033446Y029894D01*
X033510Y029890D01*
X033575Y029891D01*
X033639Y029895D01*
X033702Y029903D01*
X033766Y029915D01*
X033828Y029931D01*
X033889Y029951D01*
X033949Y029974D01*
X034008Y030001D01*
X034064Y030032D01*
X034119Y030065D01*
X034172Y030102D01*
X034222Y030143D01*
X034269Y030186D01*
X034314Y030232D01*
X034357Y030280D01*
X034396Y030331D01*
X034432Y030385D01*
X034464Y030440D01*
X034493Y030497D01*
X034519Y030556D01*
X034519Y031344D01*
X035035Y031600D02*
X039035Y031600D01*
X039035Y022100D01*
X035035Y022100D01*
X035035Y031600D01*
X034716Y023795D02*
X034566Y023795D01*
X034490Y023720D01*
X034330Y023795D02*
X034330Y023495D01*
X034180Y023345D01*
X034030Y023495D01*
X034030Y023795D01*
X034490Y023345D02*
X034791Y023645D01*
X034791Y023720D01*
X034716Y023795D01*
X034791Y023345D02*
X034490Y023345D01*
X035265Y023367D02*
X035307Y023325D01*
X035390Y023325D01*
X035432Y023367D01*
X035432Y023408D01*
X035390Y023450D01*
X035307Y023450D01*
X035265Y023492D01*
X035265Y023534D01*
X035307Y023575D01*
X035390Y023575D01*
X035432Y023534D01*
X035541Y023492D02*
X035583Y023492D01*
X035625Y023450D01*
X035666Y023492D01*
X035708Y023450D01*
X035708Y023325D01*
X035625Y023325D02*
X035625Y023450D01*
X035541Y023492D02*
X035541Y023325D01*
X035818Y023367D02*
X035859Y023408D01*
X035984Y023408D01*
X035984Y023450D02*
X035984Y023325D01*
X035859Y023325D01*
X035818Y023367D01*
X035859Y023492D02*
X035943Y023492D01*
X035984Y023450D01*
X036094Y023408D02*
X036177Y023492D01*
X036219Y023492D01*
X036324Y023492D02*
X036407Y023492D01*
X036366Y023534D02*
X036366Y023367D01*
X036407Y023325D01*
X036508Y023367D02*
X036550Y023325D01*
X036675Y023325D01*
X036675Y023283D02*
X036633Y023242D01*
X036592Y023242D01*
X036675Y023283D02*
X036675Y023492D01*
X036508Y023492D02*
X036508Y023367D01*
X036094Y023325D02*
X036094Y023492D01*
X037061Y023492D02*
X037061Y023367D01*
X037102Y023325D01*
X037227Y023325D01*
X037227Y023492D01*
X037337Y023492D02*
X037379Y023450D01*
X037462Y023450D01*
X037504Y023408D01*
X037504Y023367D01*
X037462Y023325D01*
X037379Y023325D01*
X037337Y023367D01*
X037337Y023492D02*
X037337Y023534D01*
X037379Y023575D01*
X037462Y023575D01*
X037504Y023534D01*
X037613Y023575D02*
X037613Y023325D01*
X037613Y023450D02*
X037655Y023492D01*
X037738Y023492D01*
X037780Y023450D01*
X037780Y023325D01*
X037889Y023325D02*
X037973Y023325D01*
X037931Y023325D02*
X037931Y023492D01*
X037889Y023492D01*
X037931Y023575D02*
X037931Y023617D01*
X038073Y023450D02*
X038115Y023492D01*
X038199Y023492D01*
X038240Y023450D01*
X038240Y023408D01*
X038073Y023408D01*
X038073Y023367D02*
X038073Y023450D01*
X038073Y023367D02*
X038115Y023325D01*
X038199Y023325D01*
X038350Y023325D02*
X038433Y023325D01*
X038391Y023325D02*
X038391Y023575D01*
X038350Y023575D01*
X038534Y023450D02*
X038576Y023492D01*
X038701Y023492D01*
X038701Y023575D02*
X038701Y023325D01*
X038576Y023325D01*
X038534Y023367D01*
X038534Y023450D01*
X038660Y016265D02*
X038660Y015965D01*
X038660Y016115D02*
X038210Y016115D01*
X038360Y015965D01*
X038285Y015804D02*
X038210Y015729D01*
X038210Y015579D01*
X038285Y015504D01*
X038585Y015504D01*
X038660Y015579D01*
X038660Y015729D01*
X038585Y015804D01*
X038660Y015347D02*
X038660Y015197D01*
X038660Y015272D02*
X038210Y015272D01*
X038210Y015197D02*
X038210Y015347D01*
X037710Y009450D02*
X037710Y009150D01*
X037560Y009300D02*
X037860Y009300D01*
X036360Y009300D02*
X036060Y009300D01*
X036485Y006275D02*
X036560Y006275D01*
X036635Y006200D01*
X036635Y006050D01*
X036560Y005975D01*
X036485Y005975D01*
X036410Y006050D01*
X036410Y006200D01*
X036485Y006275D01*
X036635Y006200D02*
X036710Y006275D01*
X036785Y006275D01*
X036860Y006200D01*
X036860Y006050D01*
X036785Y005975D01*
X036710Y005975D01*
X036635Y006050D01*
X039210Y002925D02*
X039660Y002925D01*
X039660Y002775D02*
X039660Y003075D01*
X039360Y002775D02*
X039210Y002925D01*
X032212Y008435D02*
X032212Y008885D01*
X032062Y008885D02*
X032362Y008885D01*
X031902Y008810D02*
X031826Y008885D01*
X031676Y008885D01*
X031601Y008810D01*
X031601Y008735D01*
X031676Y008660D01*
X031826Y008660D01*
X031902Y008585D01*
X031902Y008510D01*
X031826Y008435D01*
X031676Y008435D01*
X031601Y008510D01*
X031441Y008435D02*
X031291Y008585D01*
X031366Y008585D02*
X031141Y008585D01*
X031141Y008435D02*
X031141Y008885D01*
X031366Y008885D01*
X031441Y008810D01*
X031441Y008660D01*
X031366Y008585D01*
X030981Y008660D02*
X030680Y008660D01*
X030520Y008660D02*
X030445Y008585D01*
X030220Y008585D01*
X030220Y008435D02*
X030220Y008885D01*
X030445Y008885D01*
X030520Y008810D01*
X030520Y008660D01*
X030370Y008585D02*
X030520Y008435D01*
X023658Y018975D02*
X023658Y019225D01*
X029560Y023700D02*
X029560Y023775D01*
X029635Y023850D01*
X029785Y023850D01*
X029860Y023775D01*
X029860Y023700D01*
X029785Y023625D01*
X029635Y023625D01*
X029560Y023700D01*
X029635Y023850D02*
X029560Y023925D01*
X029560Y024000D01*
X029635Y024075D01*
X029785Y024075D01*
X029860Y024000D01*
X029860Y023925D01*
X029785Y023850D01*
X030030Y023145D02*
X030030Y022845D01*
X030180Y022695D01*
X030330Y022845D01*
X030330Y023145D01*
X030490Y022995D02*
X030641Y023145D01*
X030641Y022695D01*
X030791Y022695D02*
X030490Y022695D01*
X013106Y008642D02*
X013106Y008517D01*
D14*
X026985Y011450D02*
X027085Y011450D01*
X027085Y012950D02*
X026985Y012950D01*
X026985Y014450D02*
X027085Y014450D01*
X027085Y015950D02*
X026985Y015950D01*
X026985Y017450D02*
X027085Y017450D01*
X027085Y018750D02*
X026985Y018750D01*
X026985Y019950D02*
X027085Y019950D01*
X019035Y025400D02*
X019035Y025500D01*
X017535Y025500D02*
X017535Y025400D01*
X016035Y025400D02*
X016035Y025500D01*
X002085Y025450D02*
X001985Y025450D01*
X001985Y023950D02*
X002085Y023950D01*
X002085Y022450D02*
X001985Y022450D01*
X001985Y026950D02*
X002085Y026950D01*
X030985Y007950D02*
X031085Y007950D01*
X033985Y000950D02*
X034085Y000950D01*
D15*
X026634Y008383D02*
X026320Y008697D01*
X026320Y008540D02*
X026634Y008540D01*
X026634Y008697D02*
X026320Y008383D01*
X026477Y008383D02*
X026477Y008697D01*
X004097Y029865D02*
X003850Y029865D01*
X003974Y029865D02*
X003974Y030235D01*
X003850Y030112D01*
D16*
X030035Y016400D02*
X030035Y014100D01*
X038035Y014100D01*
X038035Y014850D01*
X037996Y014852D01*
X037957Y014858D01*
X037919Y014867D01*
X037882Y014880D01*
X037846Y014897D01*
X037813Y014917D01*
X037781Y014941D01*
X037752Y014967D01*
X037726Y014996D01*
X037702Y015028D01*
X037682Y015061D01*
X037665Y015097D01*
X037652Y015134D01*
X037643Y015172D01*
X037637Y015211D01*
X037635Y015250D01*
X037637Y015289D01*
X037643Y015328D01*
X037652Y015366D01*
X037665Y015403D01*
X037682Y015439D01*
X037702Y015472D01*
X037726Y015504D01*
X037752Y015533D01*
X037781Y015559D01*
X037813Y015583D01*
X037846Y015603D01*
X037882Y015620D01*
X037919Y015633D01*
X037957Y015642D01*
X037996Y015648D01*
X038035Y015650D01*
X038035Y016400D01*
X030035Y016400D01*
X031235Y005570D02*
X031535Y005570D01*
X031835Y005570D01*
X031835Y005320D02*
X031535Y005320D01*
X031235Y005320D01*
D17*
X019110Y012950D03*
X016960Y012950D03*
X034960Y017950D03*
X037110Y017950D03*
D18*
X038785Y015950D03*
X029285Y015950D03*
D19*
X024035Y003550D02*
X024035Y003350D01*
X022035Y003350D02*
X022035Y003550D01*
X026935Y030950D02*
X027135Y030950D01*
X028935Y030950D02*
X029135Y030950D01*
X030935Y030950D02*
X031135Y030950D01*
D20*
X021976Y018098D03*
X021976Y017802D03*
X021976Y016598D03*
X021976Y016302D03*
X021976Y015098D03*
X021976Y014802D03*
X021976Y013598D03*
X021976Y013302D03*
D21*
X021976Y013450D03*
X021976Y014950D03*
X021976Y016450D03*
X021976Y017950D03*
D22*
X035978Y017420D02*
X035978Y017070D01*
X035978Y017187D02*
X036153Y017187D01*
X036211Y017245D01*
X036211Y017362D01*
X036153Y017420D01*
X035978Y017420D01*
X036095Y017187D02*
X036211Y017070D01*
X036337Y017070D02*
X036570Y017304D01*
X036570Y017362D01*
X036512Y017420D01*
X036395Y017420D01*
X036337Y017362D01*
X036337Y017070D02*
X036570Y017070D01*
X036696Y017128D02*
X036754Y017070D01*
X036871Y017070D01*
X036929Y017128D01*
X036929Y017362D01*
X036871Y017420D01*
X036754Y017420D01*
X036696Y017362D01*
X036696Y017304D01*
X036754Y017245D01*
X036929Y017245D01*
X004190Y007870D02*
X003983Y007870D01*
X004086Y007870D02*
X004086Y008180D01*
X003983Y008077D01*
X003867Y008077D02*
X003867Y008129D01*
X003816Y008180D01*
X003712Y008180D01*
X003661Y008129D01*
X003605Y008030D02*
X003501Y008030D01*
X003450Y007979D01*
X003442Y007973D02*
X003545Y007870D01*
X003661Y007870D02*
X003867Y008077D01*
X003867Y007870D02*
X003661Y007870D01*
X003656Y007927D02*
X003656Y007979D01*
X003605Y008030D01*
X003545Y008025D02*
X003493Y007973D01*
X003338Y007973D01*
X003334Y007979D02*
X003282Y008030D01*
X003179Y008030D01*
X003127Y007979D01*
X003012Y007979D02*
X003012Y007875D01*
X002960Y007823D01*
X002805Y007823D01*
X002805Y007720D02*
X002805Y008030D01*
X002960Y008030D01*
X003012Y007979D01*
X002908Y007823D02*
X003012Y007720D01*
X003127Y007720D02*
X003334Y007927D01*
X003334Y007979D01*
X003338Y007870D02*
X003338Y008180D01*
X003493Y008180D01*
X003545Y008129D01*
X003545Y008025D01*
X003656Y007927D02*
X003450Y007720D01*
X003656Y007720D01*
X003334Y007720D02*
X003127Y007720D01*
X003127Y009720D02*
X003334Y009927D01*
X003334Y009979D01*
X003282Y010030D01*
X003179Y010030D01*
X003127Y009979D01*
X003012Y009979D02*
X003012Y009875D01*
X002960Y009823D01*
X002805Y009823D01*
X002805Y009720D02*
X002805Y010030D01*
X002960Y010030D01*
X003012Y009979D01*
X002908Y009823D02*
X003012Y009720D01*
X003127Y009720D02*
X003334Y009720D01*
X003450Y009772D02*
X003656Y009979D01*
X003656Y009772D01*
X003605Y009720D01*
X003501Y009720D01*
X003450Y009772D01*
X003450Y009979D01*
X003501Y010030D01*
X003605Y010030D01*
X003656Y009979D01*
D23*
X011533Y015681D03*
X013337Y015681D03*
D24*
X012435Y015760D03*
D25*
X012535Y015950D02*
X010285Y015950D01*
X010285Y016950D02*
X012535Y016950D01*
X012535Y017950D02*
X010285Y017950D01*
D26*
X012685Y017950D03*
X012685Y016950D03*
X012685Y015950D03*
D27*
X013985Y015950D03*
X013985Y016950D03*
X013985Y017950D03*
M02*
