G75*
%MOIN*%
%OFA0B0*%
%FSLAX24Y24*%
%IPPOS*%
%LPD*%
%AMOC8*
5,1,8,0,0,1.08239X$1,22.5*
%
%ADD10C,0.0000*%
%ADD11C,0.0110*%
%ADD12C,0.0098*%
%ADD13R,0.0840X0.0740*%
%ADD14R,0.0355X0.0591*%
%ADD15C,0.0630*%
%ADD16R,0.0394X0.0630*%
%ADD17OC8,0.0640*%
%ADD18C,0.0640*%
%ADD19R,0.0690X0.0690*%
%ADD20C,0.0690*%
%ADD21OC8,0.0520*%
%ADD22R,0.0840X0.0840*%
%ADD23C,0.0840*%
%ADD24R,0.0625X0.0625*%
%ADD25C,0.0625*%
%ADD26OC8,0.1040*%
%ADD27C,0.0640*%
%ADD28C,0.0780*%
%ADD29R,0.0357X0.0357*%
%ADD30OC8,0.0357*%
%ADD31C,0.0680*%
%ADD32OC8,0.0740*%
%ADD33OC8,0.0700*%
%ADD34C,0.0453*%
%ADD35C,0.0700*%
%ADD36C,0.0520*%
%ADD37R,0.0434X0.0473*%
%ADD38R,0.0473X0.0434*%
D10*
X000535Y000725D02*
X000535Y039721D01*
X039405Y039721D01*
X039405Y000725D01*
X000535Y000725D01*
D11*
X001520Y004185D02*
X001850Y004185D01*
X001520Y004185D02*
X001520Y004665D01*
X001850Y004665D01*
X001850Y004185D01*
X001850Y004294D02*
X001520Y004294D01*
X001520Y004403D02*
X001850Y004403D01*
X001850Y004512D02*
X001520Y004512D01*
X001520Y004621D02*
X001850Y004621D01*
X002220Y004185D02*
X002550Y004185D01*
X002220Y004185D02*
X002220Y004665D01*
X002550Y004665D01*
X002550Y004185D01*
X002550Y004294D02*
X002220Y004294D01*
X002220Y004403D02*
X002550Y004403D01*
X002550Y004512D02*
X002220Y004512D01*
X002220Y004621D02*
X002550Y004621D01*
X002550Y006485D02*
X002220Y006485D01*
X002220Y006965D01*
X002550Y006965D01*
X002550Y006485D01*
X002550Y006594D02*
X002220Y006594D01*
X002220Y006703D02*
X002550Y006703D01*
X002550Y006812D02*
X002220Y006812D01*
X002220Y006921D02*
X002550Y006921D01*
X001850Y006485D02*
X001520Y006485D01*
X001520Y006965D01*
X001850Y006965D01*
X001850Y006485D01*
X001850Y006594D02*
X001520Y006594D01*
X001520Y006703D02*
X001850Y006703D01*
X001850Y006812D02*
X001520Y006812D01*
X001520Y006921D02*
X001850Y006921D01*
X006525Y003990D02*
X006525Y003660D01*
X006045Y003660D01*
X006045Y003990D01*
X006525Y003990D01*
X006525Y003769D02*
X006045Y003769D01*
X006045Y003878D02*
X006525Y003878D01*
X006525Y003987D02*
X006045Y003987D01*
X006525Y003290D02*
X006525Y002960D01*
X006045Y002960D01*
X006045Y003290D01*
X006525Y003290D01*
X006525Y003069D02*
X006045Y003069D01*
X006045Y003178D02*
X006525Y003178D01*
X006525Y003287D02*
X006045Y003287D01*
X008270Y002485D02*
X008600Y002485D01*
X008270Y002485D02*
X008270Y002965D01*
X008600Y002965D01*
X008600Y002485D01*
X008600Y002594D02*
X008270Y002594D01*
X008270Y002703D02*
X008600Y002703D01*
X008600Y002812D02*
X008270Y002812D01*
X008270Y002921D02*
X008600Y002921D01*
X008970Y002485D02*
X009300Y002485D01*
X008970Y002485D02*
X008970Y002965D01*
X009300Y002965D01*
X009300Y002485D01*
X009300Y002594D02*
X008970Y002594D01*
X008970Y002703D02*
X009300Y002703D01*
X009300Y002812D02*
X008970Y002812D01*
X008970Y002921D02*
X009300Y002921D01*
D12*
X004981Y002329D02*
X004689Y002329D01*
X004689Y002621D01*
X004981Y002621D01*
X004981Y002329D01*
X004981Y002426D02*
X004689Y002426D01*
X004689Y002523D02*
X004981Y002523D01*
X004981Y002620D02*
X004689Y002620D01*
X004381Y002329D02*
X004089Y002329D01*
X004089Y002621D01*
X004381Y002621D01*
X004381Y002329D01*
X004381Y002426D02*
X004089Y002426D01*
X004089Y002523D02*
X004381Y002523D01*
X004381Y002620D02*
X004089Y002620D01*
X002381Y003229D02*
X002089Y003229D01*
X002089Y003521D01*
X002381Y003521D01*
X002381Y003229D01*
X002381Y003326D02*
X002089Y003326D01*
X002089Y003423D02*
X002381Y003423D01*
X002381Y003520D02*
X002089Y003520D01*
X001781Y003229D02*
X001489Y003229D01*
X001489Y003521D01*
X001781Y003521D01*
X001781Y003229D01*
X001781Y003326D02*
X001489Y003326D01*
X001489Y003423D02*
X001781Y003423D01*
X001781Y003520D02*
X001489Y003520D01*
X001489Y005429D02*
X001781Y005429D01*
X001489Y005429D02*
X001489Y005721D01*
X001781Y005721D01*
X001781Y005429D01*
X001781Y005526D02*
X001489Y005526D01*
X001489Y005623D02*
X001781Y005623D01*
X001781Y005720D02*
X001489Y005720D01*
X002089Y005429D02*
X002381Y005429D01*
X002089Y005429D02*
X002089Y005721D01*
X002381Y005721D01*
X002381Y005429D01*
X002381Y005526D02*
X002089Y005526D01*
X002089Y005623D02*
X002381Y005623D01*
X002381Y005720D02*
X002089Y005720D01*
X004089Y006479D02*
X004381Y006479D01*
X004089Y006479D02*
X004089Y006771D01*
X004381Y006771D01*
X004381Y006479D01*
X004381Y006576D02*
X004089Y006576D01*
X004089Y006673D02*
X004381Y006673D01*
X004381Y006770D02*
X004089Y006770D01*
X004689Y006479D02*
X004981Y006479D01*
X004689Y006479D02*
X004689Y006771D01*
X004981Y006771D01*
X004981Y006479D01*
X004981Y006576D02*
X004689Y006576D01*
X004689Y006673D02*
X004981Y006673D01*
X004981Y006770D02*
X004689Y006770D01*
X004881Y008679D02*
X004881Y008971D01*
X004881Y008679D02*
X004589Y008679D01*
X004589Y008971D01*
X004881Y008971D01*
X004881Y008776D02*
X004589Y008776D01*
X004589Y008873D02*
X004881Y008873D01*
X004881Y008970D02*
X004589Y008970D01*
X004881Y009279D02*
X004881Y009571D01*
X004881Y009279D02*
X004589Y009279D01*
X004589Y009571D01*
X004881Y009571D01*
X004881Y009376D02*
X004589Y009376D01*
X004589Y009473D02*
X004881Y009473D01*
X004881Y009570D02*
X004589Y009570D01*
D13*
X004585Y005475D03*
X004585Y003775D03*
D14*
X003835Y008125D03*
X002635Y008125D03*
D15*
X003130Y009668D02*
X003340Y009668D01*
X003340Y008822D01*
X003130Y008822D01*
X003130Y009668D01*
X003130Y009451D02*
X003340Y009451D01*
D16*
X003235Y008095D03*
D17*
X008285Y008225D03*
X008285Y007225D03*
X008285Y006225D03*
X008285Y005225D03*
X009285Y005225D03*
X009285Y006225D03*
X009285Y007225D03*
X009285Y008225D03*
X009285Y009225D03*
X008285Y009225D03*
X012035Y012725D03*
X013035Y012725D03*
X013035Y011725D03*
X014035Y011725D03*
X014035Y012725D03*
X013535Y023225D03*
X012535Y023225D03*
X012535Y024225D03*
X013535Y024225D03*
X014535Y024225D03*
X014535Y023225D03*
X011535Y023225D03*
X011535Y024225D03*
X009035Y026725D03*
X008035Y026725D03*
X008035Y027725D03*
X009035Y027725D03*
X009035Y028725D03*
X008035Y028725D03*
X008035Y029725D03*
X009035Y029725D03*
X009035Y030725D03*
X008035Y030725D03*
X021535Y030725D03*
X021535Y029725D03*
X022535Y029725D03*
X023535Y029725D03*
X023535Y030725D03*
X022535Y030725D03*
X024535Y030725D03*
X024535Y029725D03*
X026535Y023225D03*
X027535Y023225D03*
X027535Y022225D03*
X026535Y022225D03*
X028535Y022225D03*
X029535Y022225D03*
X029535Y023225D03*
X028535Y023225D03*
X030535Y023225D03*
X030535Y022225D03*
X030535Y020225D03*
X030535Y019225D03*
X031535Y019225D03*
X031535Y020225D03*
X032535Y020225D03*
X032535Y019225D03*
X033535Y019225D03*
X033535Y020225D03*
X034535Y020225D03*
X034535Y019225D03*
X035535Y019225D03*
X035535Y020225D03*
X036535Y020225D03*
X036535Y019225D03*
X037535Y019225D03*
X037535Y020225D03*
X037035Y012725D03*
X036035Y012725D03*
X036035Y011725D03*
X037035Y011725D03*
X035035Y011725D03*
X034035Y011725D03*
X034035Y012725D03*
X035035Y012725D03*
X033035Y012725D03*
X032035Y012725D03*
X032035Y011725D03*
X033035Y011725D03*
X031035Y011725D03*
X030035Y011725D03*
X030035Y012725D03*
X031035Y012725D03*
X037535Y007225D03*
X037535Y006225D03*
X037535Y005225D03*
X037535Y004225D03*
X037535Y003225D03*
X038535Y003225D03*
X038535Y004225D03*
X038535Y005225D03*
X038535Y006225D03*
X038535Y007225D03*
D18*
X036535Y003025D02*
X036535Y002425D01*
X035535Y002425D02*
X035535Y003025D01*
X034535Y003025D02*
X034535Y002425D01*
X033535Y002425D02*
X033535Y003025D01*
X033535Y008425D02*
X033535Y009025D01*
X032535Y009025D02*
X032535Y008425D01*
X031535Y008425D02*
X031535Y009025D01*
X024635Y008675D02*
X024035Y008675D01*
X024035Y007675D02*
X024635Y007675D01*
X024635Y006675D02*
X024035Y006675D01*
X024035Y005675D02*
X024635Y005675D01*
X024635Y004675D02*
X024035Y004675D01*
X024035Y003675D02*
X024635Y003675D01*
X024635Y002675D02*
X024035Y002675D01*
X022035Y002675D02*
X021435Y002675D01*
X021435Y003675D02*
X022035Y003675D01*
X022035Y004675D02*
X021435Y004675D01*
X021435Y005675D02*
X022035Y005675D01*
X022035Y006675D02*
X021435Y006675D01*
X021435Y007675D02*
X022035Y007675D01*
X022035Y008675D02*
X021435Y008675D01*
X021435Y009675D02*
X022035Y009675D01*
X024035Y009675D02*
X024635Y009675D01*
X021835Y022225D02*
X021235Y022225D01*
X021235Y023225D02*
X021835Y023225D01*
X021835Y024225D02*
X021235Y024225D01*
X021235Y025225D02*
X021835Y025225D01*
X021835Y026225D02*
X021235Y026225D01*
X021235Y027225D02*
X021835Y027225D01*
X024235Y025225D02*
X024835Y025225D01*
X024835Y024225D02*
X024235Y024225D01*
X002535Y002025D02*
X002535Y001425D01*
X001535Y001425D02*
X001535Y002025D01*
D19*
X003685Y022175D03*
X007185Y022175D03*
D20*
X005385Y022175D03*
X005385Y025275D03*
X003685Y025275D03*
X007185Y025275D03*
X008885Y025275D03*
X008885Y022175D03*
D21*
X002535Y022725D03*
X001535Y022725D03*
X001535Y024225D03*
X002535Y024225D03*
X002535Y025725D03*
X001535Y025725D03*
X001535Y027225D03*
X002535Y027225D03*
X002535Y028725D03*
X001535Y028725D03*
X001535Y030725D03*
X002535Y030725D03*
X016035Y026225D03*
X016035Y025225D03*
X017535Y025225D03*
X017535Y026225D03*
X019035Y026225D03*
X019035Y025225D03*
X033035Y023225D03*
X033035Y022225D03*
X034535Y022225D03*
X034535Y023225D03*
X036035Y023225D03*
X036035Y022225D03*
X033285Y007225D03*
X033285Y006225D03*
X032035Y006725D03*
X032035Y004725D03*
X032035Y003225D03*
X032035Y002225D03*
X033535Y001225D03*
X034535Y001225D03*
X034535Y003975D03*
X034035Y004725D03*
X035035Y004725D03*
X037535Y001225D03*
X038535Y001225D03*
D22*
X014035Y003225D03*
X012035Y001725D03*
D23*
X012035Y003225D03*
X014035Y001725D03*
D24*
X027035Y008225D03*
D25*
X027035Y007225D03*
X027035Y006225D03*
X027035Y005225D03*
X027035Y004225D03*
X027035Y003225D03*
X027035Y002225D03*
X030035Y002225D03*
X030035Y003225D03*
X030035Y004225D03*
X030035Y005225D03*
X030035Y006225D03*
X030035Y007225D03*
X030035Y008225D03*
D26*
X035535Y008725D03*
X037035Y008725D03*
D27*
X012035Y011725D03*
D28*
X026535Y024725D03*
X027535Y024725D03*
X028535Y024725D03*
X029535Y024725D03*
X030535Y024725D03*
X031535Y024725D03*
X032535Y024725D03*
X033535Y024725D03*
X034535Y024725D03*
X035535Y024725D03*
X036535Y024725D03*
X037535Y024725D03*
X038535Y025225D03*
X038535Y026225D03*
X038535Y027225D03*
X038535Y028225D03*
X038535Y029225D03*
X038535Y030225D03*
X037535Y030725D03*
X036535Y030725D03*
X035535Y030725D03*
X034535Y030725D03*
X033535Y030725D03*
X032535Y030725D03*
X031535Y030725D03*
X030535Y030725D03*
X029535Y030725D03*
X028535Y030725D03*
X027535Y030725D03*
X026535Y030725D03*
X026535Y029725D03*
X026535Y028725D03*
X033098Y029600D03*
X034098Y029600D03*
D29*
X026982Y014947D03*
X023232Y014847D03*
X018232Y014847D03*
X013232Y014847D03*
X013232Y004347D03*
X018232Y004347D03*
X023232Y004347D03*
D30*
X023232Y004741D03*
X023232Y005134D03*
X022838Y005134D03*
X022838Y004741D03*
X022838Y004347D03*
X022838Y005528D03*
X022838Y005922D03*
X022838Y006316D03*
X022838Y006709D03*
X023232Y006709D03*
X023232Y006316D03*
X023232Y005922D03*
X023232Y005528D03*
X023232Y007103D03*
X022838Y007103D03*
X018232Y007103D03*
X018232Y006709D03*
X018232Y006316D03*
X017838Y006316D03*
X017838Y006709D03*
X017838Y007103D03*
X017838Y005922D03*
X017838Y005528D03*
X017838Y005134D03*
X017838Y004741D03*
X018232Y004741D03*
X018232Y005134D03*
X018232Y005528D03*
X018232Y005922D03*
X017838Y004347D03*
X013232Y004741D03*
X013232Y005134D03*
X012838Y005134D03*
X012838Y004741D03*
X012838Y004347D03*
X012838Y005528D03*
X012838Y005922D03*
X012838Y006316D03*
X012838Y006709D03*
X013232Y006709D03*
X013232Y006316D03*
X013232Y005922D03*
X013232Y005528D03*
X013232Y007103D03*
X012838Y007103D03*
X012838Y014847D03*
X012838Y015241D03*
X012838Y015634D03*
X013232Y015634D03*
X013232Y015241D03*
X013232Y016028D03*
X012838Y016028D03*
X012838Y016422D03*
X012838Y016816D03*
X012838Y017209D03*
X013232Y017209D03*
X013232Y016816D03*
X013232Y016422D03*
X013232Y017603D03*
X012838Y017603D03*
X017838Y017603D03*
X017838Y017209D03*
X017838Y016816D03*
X018232Y016816D03*
X018232Y017209D03*
X018232Y017603D03*
X018232Y016422D03*
X017838Y016422D03*
X017838Y016028D03*
X017838Y015634D03*
X017838Y015241D03*
X018232Y015241D03*
X018232Y015634D03*
X018232Y016028D03*
X017838Y014847D03*
X022838Y014847D03*
X022838Y015241D03*
X022838Y015634D03*
X023232Y015634D03*
X023232Y015241D03*
X023232Y016028D03*
X022838Y016028D03*
X022838Y016422D03*
X022838Y016816D03*
X022838Y017209D03*
X023232Y017209D03*
X023232Y016816D03*
X023232Y016422D03*
X023232Y017603D03*
X022838Y017603D03*
X026588Y017703D03*
X026588Y017309D03*
X026588Y016916D03*
X026982Y016916D03*
X026982Y017309D03*
X026982Y017703D03*
X026982Y016522D03*
X026588Y016522D03*
X026588Y016128D03*
X026588Y015734D03*
X026588Y015341D03*
X026982Y015341D03*
X026982Y015734D03*
X026982Y016128D03*
X026588Y014947D03*
D31*
X005535Y027725D03*
X004535Y027725D03*
X004535Y028725D03*
X004535Y029725D03*
X005535Y029725D03*
X005535Y028725D03*
D32*
X011535Y030225D03*
X012535Y030225D03*
X013535Y030225D03*
X014535Y030225D03*
X015535Y030225D03*
X016535Y030225D03*
X017535Y030225D03*
X018535Y030225D03*
X019535Y030225D03*
X019035Y009225D03*
X019035Y008225D03*
X019035Y007225D03*
X019035Y006225D03*
X019035Y005225D03*
X019035Y004225D03*
X019035Y003225D03*
X019035Y002225D03*
D33*
X018535Y028225D03*
X019535Y028225D03*
X019535Y029225D03*
X018535Y029225D03*
X017535Y029225D03*
X016535Y029225D03*
X015535Y029225D03*
X014535Y029225D03*
X013535Y029225D03*
X012535Y029225D03*
X011535Y029225D03*
X011535Y028225D03*
X012535Y028225D03*
X013535Y028225D03*
X014535Y028225D03*
X015535Y028225D03*
X016535Y028225D03*
X017535Y028225D03*
D34*
X017285Y023432D02*
X017285Y023018D01*
X017785Y023018D02*
X017785Y023432D01*
X018285Y023432D02*
X018285Y023018D01*
X016785Y023018D02*
X016785Y023432D01*
X001392Y009775D02*
X000978Y009775D01*
X000978Y009275D02*
X001392Y009275D01*
X001392Y008775D02*
X000978Y008775D01*
X000978Y008275D02*
X001392Y008275D01*
X038328Y021975D02*
X038742Y021975D01*
X038742Y022475D02*
X038328Y022475D01*
X038328Y022975D02*
X038742Y022975D01*
X038742Y023475D02*
X038328Y023475D01*
D35*
X038759Y019725D03*
X038759Y018725D03*
X038759Y017725D03*
X038759Y016725D03*
X038759Y015725D03*
X038759Y014725D03*
X038759Y013725D03*
X038759Y012725D03*
X029311Y012725D03*
X029311Y013725D03*
X029311Y014725D03*
X029311Y015725D03*
X029311Y016725D03*
X029311Y017725D03*
X029311Y018725D03*
X029311Y019725D03*
D36*
X030535Y017765D02*
X030535Y017285D01*
X031535Y017285D02*
X031535Y017765D01*
X032535Y017765D02*
X032535Y017285D01*
X033535Y017285D02*
X033535Y017765D01*
X034535Y017765D02*
X034535Y017285D01*
X035535Y017285D02*
X035535Y017765D01*
X036535Y017765D02*
X036535Y017285D01*
X037535Y017285D02*
X037535Y017765D01*
X037535Y014765D02*
X037535Y014285D01*
X036535Y014285D02*
X036535Y014765D01*
X035535Y014765D02*
X035535Y014285D01*
X034535Y014285D02*
X034535Y014765D01*
X033535Y014765D02*
X033535Y014285D01*
X032535Y014285D02*
X032535Y014765D01*
X031535Y014765D02*
X031535Y014285D01*
X030535Y014285D02*
X030535Y014765D01*
D37*
X031200Y016225D03*
X031870Y016225D03*
X027370Y011725D03*
X026700Y011725D03*
X026400Y020375D03*
X027070Y020375D03*
D38*
X026585Y019360D03*
X026585Y018690D03*
X028035Y018560D03*
X028035Y017890D03*
X028035Y016560D03*
X028035Y015890D03*
X028035Y014560D03*
X028035Y013890D03*
X026535Y013560D03*
X026535Y012890D03*
M02*
