%
M48
M72
T01C0.0120
T02C0.0160
T03C0.0197
T04C0.0276
T05C0.0315
T06C0.0320
T07C0.0354
T08C0.0390
T09C0.0400
T10C0.0440
T11C0.0460
%
T01
X3895Y2005
X5335Y965
X5815Y2885
X6455Y4245
X6615Y4565
X6855Y4805
X6295Y5765
X5895Y6085
X5255Y6405
X5175Y5925
X5575Y5125
X5095Y4965
X3975Y5445
X3415Y4805
X4615Y7445
X4855Y8405
X3975Y8645
X2455Y9205
X7175Y6645
X7655Y7445
X7255Y3605
X13975Y8645
X14055Y4645
X18535Y13765
X18775Y17045
X17255Y17925
X21895Y17045
X23575Y15525
X23255Y14325
X22295Y14725
X24535Y14565
X26695Y12485
X26935Y13285
X27175Y14005
X27575Y14885
X28135Y15125
X29895Y16005
X30535Y15525
X30215Y15045
X30775Y13685
X31735Y13365
X32215Y13605
X31815Y13925
X33255Y13685
X33895Y14005
X34375Y13605
X35175Y13925
X34375Y15525
X34215Y16165
X33175Y16725
X32295Y16245
X33335Y18245
X35335Y18405
X36215Y18405
X36055Y15685
X37895Y15525
X29815Y17205
X28695Y17205
X28615Y16805
X29815Y18485
X27655Y19605
X27655Y19925
X27015Y18725
X27015Y18245
X27015Y23365
X29015Y24165
X27255Y25525
X27815Y26005
X29015Y26405
X28055Y27925
X32775Y27365
X32935Y26965
X32935Y26645
X33415Y26165
X33255Y25685
X34135Y25445
X35975Y26965
X35975Y27365
X37015Y28005
X35975Y28645
X34215Y28965
X37015Y26485
X23335Y27925
X6295Y25525
X31015Y5525
X31015Y4405
X36295Y3605
T02
X5095Y2085
X6215Y5365
X5815Y6405
X3815Y6725
X3815Y6005
X2055Y9205
X8375Y3525
X8615Y4005
X12295Y17845
X27015Y26485
X35015Y22325
T03
X12838Y17603
X12838Y17209
X12838Y16816
X13232Y16816
X13232Y17209
X13232Y17603
X13232Y16422
X12838Y16422
X12838Y16028
X12838Y15634
X12838Y15241
X13232Y15241
X13232Y15634
X13232Y16028
X13232Y14847
X12838Y14847
X17838Y14847
X17838Y15241
X17838Y15634
X18232Y15634
X18232Y15241
X18232Y14847
X18232Y16028
X17838Y16028
X17838Y16422
X17838Y16816
X17838Y17209
X18232Y17209
X18232Y16816
X18232Y16422
X18232Y17603
X17838Y17603
X22838Y17603
X22838Y17209
X22838Y16816
X23232Y16816
X23232Y17209
X23232Y17603
X23232Y16422
X22838Y16422
X22838Y16028
X22838Y15634
X22838Y15241
X23232Y15241
X23232Y15634
X23232Y16028
X23232Y14847
X22838Y14847
X26588Y14947
X26588Y15341
X26588Y15734
X26982Y15734
X26982Y15341
X26982Y14947
X26982Y16128
X26588Y16128
X26588Y16522
X26588Y16916
X26588Y17309
X26982Y17309
X26982Y16916
X26982Y16522
X26982Y17703
X26588Y17703
X23232Y7103
X23232Y6709
X23232Y6316
X22838Y6316
X22838Y6709
X22838Y7103
X22838Y5922
X22838Y5528
X22838Y5134
X22838Y4741
X23232Y4741
X23232Y5134
X23232Y5528
X23232Y5922
X23232Y4347
X22838Y4347
X18232Y4347
X18232Y4741
X18232Y5134
X17838Y5134
X17838Y4741
X17838Y4347
X17838Y5528
X17838Y5922
X17838Y6316
X17838Y6709
X18232Y6709
X18232Y6316
X18232Y5922
X18232Y5528
X18232Y7103
X17838Y7103
X13232Y7103
X13232Y6709
X13232Y6316
X12838Y6316
X12838Y6709
X12838Y7103
X12838Y5922
X12838Y5528
X12838Y5134
X12838Y4741
X13232Y4741
X13232Y5134
X13232Y5528
X13232Y5922
X13232Y4347
X12838Y4347
T04
X1185Y8275
X1185Y8775
X1185Y9275
X1185Y9775
X16785Y23225
X17285Y23225
X17785Y23225
X18285Y23225
X38535Y22975
X38535Y22475
X38535Y21975
X38535Y23475
T05
X29311Y19725
X29311Y18725
X29311Y17725
X29311Y16725
X29311Y15725
X29311Y14725
X29311Y13725
X29311Y12725
X38759Y12725
X38759Y13725
X38759Y14725
X38759Y15725
X38759Y16725
X38759Y17725
X38759Y18725
X38759Y19725
T06
X1535Y22725
X2535Y22725
X2535Y24225
X1535Y24225
X1535Y25725
X2535Y25725
X2535Y27225
X1535Y27225
X1535Y28725
X2535Y28725
X2535Y30725
X1535Y30725
X16035Y26225
X16035Y25225
X17535Y25225
X17535Y26225
X19035Y26225
X19035Y25225
X30535Y17525
X31535Y17525
X32535Y17525
X33535Y17525
X34535Y17525
X35535Y17525
X36535Y17525
X37535Y17525
X37535Y14525
X36535Y14525
X35535Y14525
X34535Y14525
X33535Y14525
X32535Y14525
X31535Y14525
X30535Y14525
X33285Y7225
X33285Y6225
X32035Y6725
X32035Y4725
X32035Y3225
X32035Y2225
X33535Y1225
X34535Y1225
X34535Y3975
X34035Y4725
X35035Y4725
X37535Y1225
X38535Y1225
X36035Y22225
X36035Y23225
X34535Y23225
X34535Y22225
X33035Y22225
X33035Y23225
T07
X4535Y29725
X4535Y28725
X5535Y28725
X5535Y29725
X5535Y27725
X4535Y27725
T08
X27035Y8225
X27035Y7225
X27035Y6225
X27035Y5225
X27035Y4225
X27035Y3225
X27035Y2225
X30035Y2225
X30035Y3225
X30035Y4225
X30035Y5225
X30035Y6225
X30035Y7225
X30035Y8225
T09
X1535Y1725
X2535Y1725
X8285Y5225
X8285Y6225
X8285Y7225
X8285Y8225
X8285Y9225
X9285Y9225
X9285Y8225
X9285Y7225
X9285Y6225
X9285Y5225
X12035Y11725
X12035Y12725
X13035Y12725
X13035Y11725
X14035Y11725
X14035Y12725
X19035Y9225
X19035Y8225
X19035Y7225
X19035Y6225
X19035Y5225
X19035Y4225
X19035Y3225
X19035Y2225
X21735Y2675
X21735Y3675
X21735Y4675
X21735Y5675
X21735Y6675
X21735Y7675
X21735Y8675
X21735Y9675
X24335Y9675
X24335Y8675
X24335Y7675
X24335Y6675
X24335Y5675
X24335Y4675
X24335Y3675
X24335Y2675
X31535Y8725
X32535Y8725
X33535Y8725
X33035Y11725
X32035Y11725
X32035Y12725
X33035Y12725
X34035Y12725
X34035Y11725
X35035Y11725
X35035Y12725
X36035Y12725
X36035Y11725
X37035Y11725
X37035Y12725
X37535Y7225
X37535Y6225
X37535Y5225
X37535Y4225
X37535Y3225
X36535Y2725
X35535Y2725
X34535Y2725
X33535Y2725
X38535Y3225
X38535Y4225
X38535Y5225
X38535Y6225
X38535Y7225
X31035Y11725
X30035Y11725
X30035Y12725
X31035Y12725
X30535Y19225
X30535Y20225
X31535Y20225
X31535Y19225
X32535Y19225
X32535Y20225
X33535Y20225
X33535Y19225
X34535Y19225
X34535Y20225
X35535Y20225
X35535Y19225
X36535Y19225
X36535Y20225
X37535Y20225
X37535Y19225
X37535Y24725
X36535Y24725
X35535Y24725
X34535Y24725
X33535Y24725
X32535Y24725
X31535Y24725
X30535Y24725
X29535Y24725
X28535Y24725
X27535Y24725
X26535Y24725
X26535Y23225
X27535Y23225
X27535Y22225
X26535Y22225
X28535Y22225
X29535Y22225
X29535Y23225
X28535Y23225
X30535Y23225
X30535Y22225
X24535Y24225
X24535Y25225
X21535Y25225
X21535Y26225
X21535Y27225
X19535Y28225
X18535Y28225
X17535Y28225
X16535Y28225
X15535Y28225
X14535Y28225
X13535Y28225
X12535Y28225
X11535Y28225
X11535Y29225
X11535Y30225
X12535Y30225
X12535Y29225
X13535Y29225
X13535Y30225
X14535Y30225
X14535Y29225
X15535Y29225
X15535Y30225
X16535Y30225
X16535Y29225
X17535Y29225
X17535Y30225
X18535Y30225
X18535Y29225
X19535Y29225
X19535Y30225
X21535Y29725
X21535Y30725
X22535Y30725
X23535Y30725
X23535Y29725
X22535Y29725
X24535Y29725
X24535Y30725
X26535Y30725
X27535Y30725
X28535Y30725
X29535Y30725
X30535Y30725
X31535Y30725
X32535Y30725
X33535Y30725
X34535Y30725
X35535Y30725
X36535Y30725
X37535Y30725
X38535Y30225
X38535Y29225
X38535Y28225
X38535Y27225
X38535Y26225
X38535Y25225
X34098Y29600
X33098Y29600
X26535Y29725
X26535Y28725
X21535Y24225
X21535Y23225
X21535Y22225
X14535Y23225
X14535Y24225
X13535Y24225
X12535Y24225
X12535Y23225
X13535Y23225
X11535Y23225
X11535Y24225
X8885Y25275
X9035Y26725
X8035Y26725
X8035Y27725
X9035Y27725
X9035Y28725
X8035Y28725
X8035Y29725
X9035Y29725
X9035Y30725
X8035Y30725
X7185Y25275
X5385Y25275
X3685Y25275
X3685Y22175
X5385Y22175
X7185Y22175
X8885Y22175
T10
X35535Y8725
X37035Y8725
T11
X12035Y1725
X12035Y3225
X14035Y3225
X14035Y1725
M30
