G75*
%MOIN*%
%OFA0B0*%
%FSLAX24Y24*%
%IPPOS*%
%LPD*%
%AMOC8*
5,1,8,0,0,1.08239X$1,22.5*
%
%ADD10C,0.0000*%
%ADD11C,0.0080*%
%ADD12C,0.0010*%
%ADD13C,0.0050*%
%ADD14C,0.0040*%
%ADD15C,0.0060*%
%ADD16C,0.0100*%
D10*
X000317Y000317D02*
X000317Y009813D01*
X019187Y009813D01*
X019187Y000317D01*
X000317Y000317D01*
D11*
X007317Y007317D02*
X008305Y007317D01*
X008817Y007710D02*
X008817Y008923D01*
X008305Y009317D02*
X007328Y009317D01*
X006817Y008923D02*
X006817Y007710D01*
X007317Y008317D02*
X007319Y008361D01*
X007325Y008405D01*
X007335Y008448D01*
X007348Y008490D01*
X007365Y008531D01*
X007386Y008570D01*
X007410Y008607D01*
X007437Y008642D01*
X007467Y008674D01*
X007500Y008704D01*
X007536Y008730D01*
X007573Y008754D01*
X007613Y008773D01*
X007654Y008790D01*
X007697Y008802D01*
X007740Y008811D01*
X007784Y008816D01*
X007828Y008817D01*
X007872Y008814D01*
X007916Y008807D01*
X007959Y008796D01*
X008001Y008782D01*
X008041Y008764D01*
X008080Y008742D01*
X008116Y008718D01*
X008150Y008690D01*
X008182Y008659D01*
X008211Y008625D01*
X008237Y008589D01*
X008259Y008551D01*
X008278Y008511D01*
X008293Y008469D01*
X008305Y008427D01*
X008313Y008383D01*
X008317Y008339D01*
X008317Y008295D01*
X008313Y008251D01*
X008305Y008207D01*
X008293Y008165D01*
X008278Y008123D01*
X008259Y008083D01*
X008237Y008045D01*
X008211Y008009D01*
X008182Y007975D01*
X008150Y007944D01*
X008116Y007916D01*
X008080Y007892D01*
X008041Y007870D01*
X008001Y007852D01*
X007959Y007838D01*
X007916Y007827D01*
X007872Y007820D01*
X007828Y007817D01*
X007784Y007818D01*
X007740Y007823D01*
X007697Y007832D01*
X007654Y007844D01*
X007613Y007861D01*
X007573Y007880D01*
X007536Y007904D01*
X007500Y007930D01*
X007467Y007960D01*
X007437Y007992D01*
X007410Y008027D01*
X007386Y008064D01*
X007365Y008103D01*
X007348Y008144D01*
X007335Y008186D01*
X007325Y008229D01*
X007319Y008273D01*
X007317Y008317D01*
D12*
X007112Y008219D02*
X007112Y008119D01*
X007112Y008169D02*
X006962Y008169D01*
X007012Y008119D01*
X006987Y008072D02*
X006962Y008047D01*
X006962Y007997D01*
X006987Y007972D01*
X007012Y007972D01*
X007037Y007997D01*
X007037Y008047D01*
X007062Y008072D01*
X007087Y008072D01*
X007112Y008047D01*
X007112Y007997D01*
X007087Y007972D01*
D13*
X005967Y008167D02*
X005967Y007467D01*
X004667Y007467D01*
X004667Y008167D01*
X005967Y008167D01*
X005867Y008567D02*
X005867Y009067D01*
X004767Y009067D01*
X004767Y008567D01*
X005867Y008567D01*
X004367Y008567D02*
X004367Y009067D01*
X003267Y009067D01*
X003267Y008567D01*
X004367Y008567D01*
X004342Y008067D02*
X004342Y007567D01*
X003292Y007567D01*
X003292Y008067D01*
X004342Y008067D01*
X003867Y007817D02*
X003817Y007892D01*
X003817Y007742D01*
X003867Y007817D01*
X003817Y007892D02*
X003767Y007967D01*
X003767Y007667D01*
X003817Y007742D01*
X003792Y007717D02*
X003792Y007917D01*
X002317Y007317D02*
X001067Y007317D01*
X001067Y009317D01*
X002317Y009317D01*
X002317Y007317D01*
X002167Y006667D02*
X003467Y006667D01*
X003467Y005967D01*
X002167Y005967D01*
X002167Y006667D01*
X001967Y006667D02*
X000667Y006667D01*
X000667Y005967D01*
X001967Y005967D01*
X001967Y006667D01*
X001867Y005567D02*
X000767Y005567D01*
X000767Y005067D01*
X001867Y005067D01*
X001867Y005567D01*
X002267Y005567D02*
X003367Y005567D01*
X003367Y005067D01*
X002267Y005067D01*
X002267Y005567D01*
X000978Y003717D02*
X000742Y003717D01*
X000742Y002998D01*
X000742Y000636D01*
X003891Y000636D01*
X003891Y002998D01*
X003891Y003706D01*
X003655Y003706D01*
X003655Y002998D01*
X003891Y002998D01*
X003655Y002998D02*
X000978Y002998D01*
X000978Y003717D01*
X000978Y002998D02*
X000742Y002998D01*
X004767Y002067D02*
X004767Y001567D01*
X005867Y001567D01*
X005867Y002067D01*
X004767Y002067D01*
X004767Y001067D02*
X004767Y000567D01*
X005867Y000567D01*
X005867Y001067D01*
X004767Y001067D01*
X006832Y000844D02*
X006832Y000687D01*
X008801Y000687D01*
X008801Y000844D01*
X008267Y001317D02*
X008067Y001317D01*
X008067Y001817D01*
X007917Y001717D02*
X007717Y001717D01*
X007717Y000917D01*
X007917Y000917D01*
X007917Y001717D01*
X007567Y001817D02*
X007567Y001317D01*
X007367Y001317D01*
X007567Y001317D02*
X007567Y000817D01*
X008067Y000817D02*
X008067Y001317D01*
X008801Y001789D02*
X008801Y001947D01*
X006832Y001947D01*
X006832Y001789D01*
X009691Y002992D02*
X009841Y002842D01*
X010142Y002842D01*
X009916Y002842D02*
X009916Y003142D01*
X009841Y003142D02*
X009691Y002992D01*
X009841Y003142D02*
X010142Y003142D01*
X010142Y003302D02*
X009691Y003302D01*
X010142Y003602D01*
X009691Y003602D01*
X009691Y003762D02*
X010142Y004063D01*
X009691Y004063D01*
X009841Y004223D02*
X009691Y004373D01*
X009841Y004523D01*
X010142Y004523D01*
X009916Y004523D02*
X009916Y004223D01*
X009841Y004223D02*
X010142Y004223D01*
X010142Y004683D02*
X009691Y004683D01*
X009691Y004908D01*
X009766Y004983D01*
X009916Y004983D01*
X009992Y004908D01*
X009992Y004683D01*
X009992Y004833D02*
X010142Y004983D01*
X010142Y005144D02*
X009691Y005144D01*
X009691Y005444D01*
X009691Y005604D02*
X009691Y005904D01*
X009916Y005754D02*
X009916Y005604D01*
X009691Y005604D02*
X010142Y005604D01*
X010142Y005444D02*
X010142Y005144D01*
X009916Y005144D02*
X009916Y005294D01*
X009841Y006342D02*
X009766Y006342D01*
X009691Y006417D01*
X009691Y006567D01*
X009766Y006642D01*
X009841Y006642D01*
X009916Y006567D01*
X009916Y006417D01*
X009841Y006342D01*
X009916Y006417D02*
X009992Y006342D01*
X010067Y006342D01*
X010142Y006417D01*
X010142Y006567D01*
X010067Y006642D01*
X009992Y006642D01*
X009916Y006567D01*
X009317Y007567D02*
X009317Y008567D01*
X012317Y008567D01*
X012317Y007567D01*
X009317Y007567D01*
X009317Y008567D02*
X009317Y009567D01*
X012317Y009567D01*
X012317Y008567D01*
X016191Y008852D02*
X016266Y008702D01*
X016416Y008552D01*
X016416Y008777D01*
X016492Y008852D01*
X016567Y008852D01*
X016642Y008777D01*
X016642Y008627D01*
X016567Y008552D01*
X016416Y008552D01*
X016642Y008392D02*
X016642Y008092D01*
X016642Y008242D02*
X016191Y008242D01*
X016341Y008092D01*
X016191Y005229D02*
X016191Y004928D01*
X016642Y004928D01*
X016416Y004928D02*
X016416Y005078D01*
X016191Y004771D02*
X016191Y004621D01*
X016191Y004696D02*
X016642Y004696D01*
X016642Y004621D02*
X016642Y004771D01*
X016717Y004461D02*
X016717Y004161D01*
X016567Y004001D02*
X016642Y003926D01*
X016642Y003776D01*
X016567Y003701D01*
X016266Y003701D01*
X016191Y003776D01*
X016191Y003926D01*
X016266Y004001D01*
X016191Y003544D02*
X016191Y003394D01*
X016191Y003469D02*
X016642Y003469D01*
X016642Y003394D02*
X016642Y003544D01*
X016642Y003233D02*
X016492Y003083D01*
X016492Y003158D02*
X016492Y002933D01*
X016642Y002933D02*
X016191Y002933D01*
X016191Y003158D01*
X016266Y003233D01*
X016416Y003233D01*
X016492Y003158D01*
X016642Y002773D02*
X016642Y002473D01*
X016191Y002473D01*
X016191Y002773D01*
X016416Y002623D02*
X016416Y002473D01*
X016642Y002313D02*
X016191Y002313D01*
X016191Y002012D02*
X016642Y002313D01*
X016642Y002012D02*
X016191Y002012D01*
X016191Y001852D02*
X016191Y001552D01*
X016642Y001552D01*
X016642Y001852D01*
X016416Y001702D02*
X016416Y001552D01*
X016416Y001392D02*
X016416Y001242D01*
X016416Y001392D02*
X016567Y001392D01*
X016642Y001317D01*
X016642Y001167D01*
X016567Y001092D01*
X016266Y001092D01*
X016191Y001167D01*
X016191Y001317D01*
X016266Y001392D01*
X018991Y001542D02*
X019141Y001392D01*
X018991Y001542D02*
X019442Y001542D01*
X019442Y001392D02*
X019442Y001692D01*
X012942Y003142D02*
X012942Y003442D01*
X012942Y003292D02*
X012491Y003292D01*
X012641Y003142D01*
X011967Y002167D02*
X010667Y002167D01*
X010667Y001467D01*
X011967Y001467D01*
X011967Y002167D01*
X010142Y003762D02*
X009691Y003762D01*
D14*
X010638Y002647D02*
X010587Y002595D01*
X010587Y002388D01*
X010638Y002337D01*
X010742Y002337D01*
X010794Y002388D01*
X010909Y002388D02*
X010909Y002440D01*
X010961Y002492D01*
X011064Y002492D01*
X011116Y002440D01*
X011116Y002388D01*
X011064Y002337D01*
X010961Y002337D01*
X010909Y002388D01*
X010961Y002492D02*
X010909Y002544D01*
X010909Y002595D01*
X010961Y002647D01*
X011064Y002647D01*
X011116Y002595D01*
X011116Y002544D01*
X011064Y002492D01*
X010794Y002595D02*
X010742Y002647D01*
X010638Y002647D01*
X008368Y000547D02*
X008368Y000237D01*
X008471Y000237D02*
X008264Y000237D01*
X008149Y000237D02*
X008046Y000340D01*
X008097Y000237D02*
X008149Y000288D01*
X008149Y000495D01*
X008097Y000547D01*
X007994Y000547D01*
X007942Y000495D01*
X007942Y000288D01*
X007994Y000237D01*
X008097Y000237D01*
X008264Y000444D02*
X008368Y000547D01*
X005116Y001138D02*
X005064Y001087D01*
X004961Y001087D01*
X004909Y001138D01*
X004909Y001242D02*
X005012Y001294D01*
X005064Y001294D01*
X005116Y001242D01*
X005116Y001138D01*
X004909Y001242D02*
X004909Y001397D01*
X005116Y001397D01*
X004794Y001345D02*
X004742Y001397D01*
X004638Y001397D01*
X004587Y001345D01*
X004587Y001138D01*
X004638Y001087D01*
X004742Y001087D01*
X004794Y001138D01*
X004742Y002087D02*
X004794Y002138D01*
X004742Y002087D02*
X004638Y002087D01*
X004587Y002138D01*
X004587Y002345D01*
X004638Y002397D01*
X004742Y002397D01*
X004794Y002345D01*
X004909Y002242D02*
X005064Y002242D01*
X005116Y002190D01*
X005116Y002138D01*
X005064Y002087D01*
X004961Y002087D01*
X004909Y002138D01*
X004909Y002242D01*
X005012Y002345D01*
X005116Y002397D01*
X004245Y003987D02*
X003986Y003987D01*
X004245Y003987D02*
X004297Y004038D01*
X004297Y004142D01*
X004245Y004194D01*
X003986Y004194D01*
X004038Y004309D02*
X003986Y004361D01*
X003986Y004464D01*
X004038Y004516D01*
X004090Y004516D01*
X004297Y004309D01*
X004297Y004516D01*
X003471Y004788D02*
X003420Y004737D01*
X003316Y004737D01*
X003264Y004788D01*
X003149Y004788D02*
X003097Y004737D01*
X002994Y004737D01*
X002942Y004788D01*
X002942Y004995D01*
X002994Y005047D01*
X003097Y005047D01*
X003149Y004995D01*
X003264Y004995D02*
X003316Y005047D01*
X003420Y005047D01*
X003471Y004995D01*
X003471Y004944D01*
X003420Y004892D01*
X003471Y004840D01*
X003471Y004788D01*
X003420Y004892D02*
X003368Y004892D01*
X003420Y005487D02*
X003420Y005797D01*
X003264Y005642D01*
X003471Y005642D01*
X003149Y005745D02*
X003097Y005797D01*
X002994Y005797D01*
X002942Y005745D01*
X002942Y005538D01*
X002994Y005487D01*
X003097Y005487D01*
X003149Y005538D01*
X002012Y005147D02*
X002012Y004837D01*
X001909Y004837D02*
X002116Y004837D01*
X001909Y005044D02*
X002012Y005147D01*
X001794Y005147D02*
X001690Y005147D01*
X001742Y005147D02*
X001742Y004888D01*
X001690Y004837D01*
X001638Y004837D01*
X001587Y004888D01*
X001116Y005587D02*
X000909Y005587D01*
X001012Y005587D02*
X001012Y005897D01*
X000909Y005794D01*
X000794Y005845D02*
X000742Y005897D01*
X000638Y005897D01*
X000587Y005845D01*
X000587Y005638D01*
X000638Y005587D01*
X000742Y005587D01*
X000794Y005638D01*
X000742Y006837D02*
X000794Y006888D01*
X000742Y006837D02*
X000638Y006837D01*
X000587Y006888D01*
X000587Y007095D01*
X000638Y007147D01*
X000742Y007147D01*
X000794Y007095D01*
X000909Y007095D02*
X000961Y007147D01*
X001064Y007147D01*
X001116Y007095D01*
X001116Y007044D01*
X000909Y006837D01*
X001116Y006837D01*
X000495Y007587D02*
X000236Y007587D01*
X000495Y007587D02*
X000547Y007638D01*
X000547Y007742D01*
X000495Y007794D01*
X000236Y007794D01*
X000340Y007909D02*
X000236Y008012D01*
X000547Y008012D01*
X000547Y007909D02*
X000547Y008116D01*
X003087Y008087D02*
X003242Y008087D01*
X003294Y008138D01*
X003294Y008345D01*
X003242Y008397D01*
X003087Y008397D01*
X003087Y008087D01*
X003409Y008087D02*
X003616Y008087D01*
X003512Y008087D02*
X003512Y008397D01*
X003409Y008294D01*
X003942Y008340D02*
X004097Y008340D01*
X004149Y008392D01*
X004149Y008495D01*
X004097Y008547D01*
X003942Y008547D01*
X003942Y008237D01*
X004046Y008340D02*
X004149Y008237D01*
X004264Y008237D02*
X004471Y008237D01*
X004368Y008237D02*
X004368Y008547D01*
X004264Y008444D01*
X004587Y008388D02*
X004587Y008595D01*
X004638Y008647D01*
X004742Y008647D01*
X004794Y008595D01*
X004909Y008647D02*
X005116Y008647D01*
X005116Y008595D01*
X004909Y008388D01*
X004909Y008337D01*
X004794Y008388D02*
X004742Y008337D01*
X004638Y008337D01*
X004587Y008388D01*
X005442Y008340D02*
X005597Y008340D01*
X005649Y008392D01*
X005649Y008495D01*
X005597Y008547D01*
X005442Y008547D01*
X005442Y008237D01*
X005546Y008340D02*
X005649Y008237D01*
X005764Y008237D02*
X005971Y008444D01*
X005971Y008495D01*
X005920Y008547D01*
X005816Y008547D01*
X005764Y008495D01*
X005764Y008237D02*
X005971Y008237D01*
X012586Y008796D02*
X012586Y008899D01*
X012586Y008847D02*
X012845Y008847D01*
X012897Y008796D01*
X012897Y008744D01*
X012845Y008692D01*
X012897Y009014D02*
X012690Y009221D01*
X012638Y009221D01*
X012586Y009170D01*
X012586Y009066D01*
X012638Y009014D01*
X012897Y009014D02*
X012897Y009221D01*
D15*
X012067Y006817D02*
X010567Y006817D01*
X010317Y006567D01*
X010317Y006067D01*
X010567Y005817D01*
X010317Y005567D01*
X010317Y005067D01*
X010567Y004817D01*
X010317Y004567D01*
X010317Y004067D01*
X010567Y003817D01*
X010317Y003567D01*
X010317Y003067D01*
X010567Y002817D01*
X012067Y002817D01*
X012317Y003067D01*
X012317Y003567D01*
X012067Y003817D01*
X012317Y004067D01*
X012317Y004567D01*
X012067Y004817D01*
X012317Y005067D01*
X012317Y005567D01*
X012067Y005817D01*
X012317Y006067D01*
X012317Y006567D01*
X012067Y006817D01*
X007697Y006197D02*
X007697Y003437D01*
X005077Y003437D01*
X004937Y003577D01*
X004937Y006197D01*
X007697Y006197D01*
X016817Y006317D02*
X016817Y006817D01*
X017067Y007067D01*
X016817Y007317D01*
X016817Y007817D01*
X017067Y008067D01*
X016817Y008317D01*
X016817Y008817D01*
X017067Y009067D01*
X018567Y009067D01*
X018817Y008817D01*
X018817Y008317D01*
X018567Y008067D01*
X018817Y007817D01*
X018817Y007317D01*
X018567Y007067D01*
X018817Y006817D01*
X018817Y006317D01*
X018567Y006067D01*
X018817Y005817D01*
X018817Y005317D01*
X018567Y005067D01*
X018817Y004817D01*
X018817Y004317D01*
X018567Y004067D01*
X018817Y003817D01*
X018817Y003317D01*
X018567Y003067D01*
X018817Y002817D01*
X018817Y002317D01*
X018567Y002067D01*
X018817Y001817D01*
X018817Y001317D01*
X018567Y001067D01*
X017067Y001067D01*
X016817Y001317D01*
X016817Y001817D01*
X017067Y002067D01*
X016817Y002317D01*
X016817Y002817D01*
X017067Y003067D01*
X016817Y003317D01*
X016817Y003817D01*
X017067Y004067D01*
X016817Y004317D01*
X016817Y004817D01*
X017067Y005067D01*
X016817Y005317D01*
X016817Y005817D01*
X017067Y006067D01*
X016817Y006317D01*
D16*
X004637Y003287D02*
X004639Y003311D01*
X004645Y003335D01*
X004654Y003357D01*
X004667Y003377D01*
X004683Y003395D01*
X004702Y003410D01*
X004723Y003423D01*
X004745Y003431D01*
X004769Y003436D01*
X004793Y003437D01*
X004817Y003434D01*
X004840Y003427D01*
X004862Y003417D01*
X004882Y003403D01*
X004899Y003386D01*
X004914Y003367D01*
X004925Y003346D01*
X004933Y003323D01*
X004937Y003299D01*
X004937Y003275D01*
X004933Y003251D01*
X004925Y003228D01*
X004914Y003207D01*
X004899Y003188D01*
X004882Y003171D01*
X004862Y003157D01*
X004840Y003147D01*
X004817Y003140D01*
X004793Y003137D01*
X004769Y003138D01*
X004745Y003143D01*
X004723Y003151D01*
X004702Y003164D01*
X004683Y003179D01*
X004667Y003197D01*
X004654Y003217D01*
X004645Y003239D01*
X004639Y003263D01*
X004637Y003287D01*
M02*
