G75*
%MOIN*%
%OFA0B0*%
%FSLAX24Y24*%
%IPPOS*%
%LPD*%
%AMOC8*
5,1,8,0,0,1.08239X$1,22.5*
%
%ADD10C,0.0000*%
%ADD11R,0.0500X0.0220*%
%ADD12R,0.0220X0.0500*%
%ADD13C,0.0100*%
%ADD14R,0.0630X0.0250*%
%ADD15R,0.0433X0.0394*%
%ADD16R,0.0315X0.0315*%
%ADD17R,0.0394X0.0433*%
%ADD18C,0.0088*%
%ADD19R,0.0630X0.1181*%
%ADD20R,0.2441X0.2283*%
%ADD21R,0.0710X0.0630*%
D10*
X000535Y000450D02*
X000535Y039446D01*
X039405Y039446D01*
X039405Y000450D01*
X000535Y000450D01*
D11*
X002845Y002848D03*
X002845Y003163D03*
X002845Y003478D03*
X002845Y003793D03*
X002845Y004107D03*
X002845Y004422D03*
X002845Y004737D03*
X002845Y005052D03*
X006225Y005052D03*
X006225Y004737D03*
X006225Y004422D03*
X006225Y004107D03*
X006225Y003793D03*
X006225Y003478D03*
X006225Y003163D03*
X006225Y002848D03*
D12*
X005637Y002260D03*
X005322Y002260D03*
X005008Y002260D03*
X004693Y002260D03*
X004378Y002260D03*
X004063Y002260D03*
X003748Y002260D03*
X003433Y002260D03*
X003433Y005640D03*
X003748Y005640D03*
X004063Y005640D03*
X004378Y005640D03*
X004693Y005640D03*
X005008Y005640D03*
X005322Y005640D03*
X005637Y005640D03*
D13*
X011910Y017900D02*
X011910Y018200D01*
X011910Y017900D02*
X011460Y017900D01*
X011460Y018200D01*
X011910Y018200D01*
X011910Y017999D02*
X011460Y017999D01*
X011460Y018098D02*
X011910Y018098D01*
X011910Y018197D02*
X011460Y018197D01*
X011910Y018600D02*
X011910Y018900D01*
X011910Y018600D02*
X011460Y018600D01*
X011460Y018900D01*
X011910Y018900D01*
X011910Y018699D02*
X011460Y018699D01*
X011460Y018798D02*
X011910Y018798D01*
X011910Y018897D02*
X011460Y018897D01*
X012960Y018850D02*
X012960Y018550D01*
X012960Y018850D02*
X013410Y018850D01*
X013410Y018550D01*
X012960Y018550D01*
X012960Y018649D02*
X013410Y018649D01*
X013410Y018748D02*
X012960Y018748D01*
X012960Y018847D02*
X013410Y018847D01*
X012960Y018150D02*
X012960Y017850D01*
X012960Y018150D02*
X013410Y018150D01*
X013410Y017850D01*
X012960Y017850D01*
X012960Y017949D02*
X013410Y017949D01*
X013410Y018048D02*
X012960Y018048D01*
X012960Y018147D02*
X013410Y018147D01*
D14*
X014485Y008200D03*
X014485Y007700D03*
X014485Y007200D03*
X014485Y006700D03*
X011585Y006700D03*
X011585Y007200D03*
X011585Y007700D03*
X011585Y008200D03*
D15*
X018035Y006785D03*
X018035Y006115D03*
X018035Y003785D03*
X018035Y003115D03*
D16*
X021740Y013450D03*
X022330Y013450D03*
X022330Y014950D03*
X021740Y014950D03*
X021740Y016450D03*
X022330Y016450D03*
X022330Y017950D03*
X021740Y017950D03*
D17*
X023200Y017950D03*
X023870Y017950D03*
X023870Y016450D03*
X023200Y016450D03*
X023200Y014950D03*
X023870Y014950D03*
X023870Y013450D03*
X023200Y013450D03*
D18*
X003966Y009319D02*
X003704Y009319D01*
X003704Y009581D01*
X003966Y009581D01*
X003966Y009319D01*
X003966Y009406D02*
X003704Y009406D01*
X003704Y009493D02*
X003966Y009493D01*
X003966Y009580D02*
X003704Y009580D01*
X003366Y009319D02*
X003104Y009319D01*
X003104Y009581D01*
X003366Y009581D01*
X003366Y009319D01*
X003366Y009406D02*
X003104Y009406D01*
X003104Y009493D02*
X003366Y009493D01*
X003366Y009580D02*
X003104Y009580D01*
X003104Y008581D02*
X003366Y008581D01*
X003366Y008319D01*
X003104Y008319D01*
X003104Y008581D01*
X003104Y008406D02*
X003366Y008406D01*
X003366Y008493D02*
X003104Y008493D01*
X003104Y008580D02*
X003366Y008580D01*
X003704Y008581D02*
X003966Y008581D01*
X003966Y008319D01*
X003704Y008319D01*
X003704Y008581D01*
X003704Y008406D02*
X003966Y008406D01*
X003966Y008493D02*
X003704Y008493D01*
X003704Y008580D02*
X003966Y008580D01*
X003966Y007319D02*
X003704Y007319D01*
X003704Y007581D01*
X003966Y007581D01*
X003966Y007319D01*
X003966Y007406D02*
X003704Y007406D01*
X003704Y007493D02*
X003966Y007493D01*
X003966Y007580D02*
X003704Y007580D01*
X003366Y007319D02*
X003104Y007319D01*
X003104Y007581D01*
X003366Y007581D01*
X003366Y007319D01*
X003366Y007406D02*
X003104Y007406D01*
X003104Y007493D02*
X003366Y007493D01*
X003366Y007580D02*
X003104Y007580D01*
D19*
X011535Y016477D03*
X013335Y016477D03*
D20*
X012435Y013650D03*
D21*
X014535Y013390D03*
X014535Y014510D03*
X014385Y005560D03*
X014385Y004440D03*
M02*
