G75*
%MOIN*%
%OFA0B0*%
%FSLAX24Y24*%
%IPPOS*%
%LPD*%
%AMOC8*
5,1,8,0,0,1.08239X$1,22.5*
%
%ADD10C,0.0000*%
%ADD11C,0.0060*%
%ADD12C,0.0100*%
%ADD13C,0.0050*%
%ADD14C,0.0010*%
D10*
X000535Y000300D02*
X000535Y009796D01*
X009905Y009796D01*
X009905Y000300D01*
X000535Y000300D01*
D11*
X003155Y001420D02*
X003155Y004040D01*
X003295Y004180D01*
X005915Y004180D01*
X005915Y001420D01*
X003155Y001420D01*
X002135Y004750D02*
X001795Y004750D01*
X001795Y004920D01*
X001851Y004977D01*
X001965Y004977D01*
X002022Y004920D01*
X002022Y004750D01*
X002078Y005118D02*
X001851Y005118D01*
X001795Y005175D01*
X001795Y005288D01*
X001851Y005345D01*
X002078Y005345D01*
X002135Y005288D01*
X002135Y005175D01*
X002078Y005118D01*
X002135Y005487D02*
X001795Y005487D01*
X001795Y005713D02*
X002135Y005713D01*
X002022Y005600D01*
X002135Y005487D01*
X002135Y005855D02*
X001795Y005855D01*
X001795Y006082D01*
X001795Y006223D02*
X001795Y006393D01*
X001851Y006450D01*
X001965Y006450D01*
X002022Y006393D01*
X002022Y006223D01*
X002135Y006223D02*
X001795Y006223D01*
X002022Y006337D02*
X002135Y006450D01*
X002135Y006082D02*
X002135Y005855D01*
X001965Y005855D02*
X001965Y005968D01*
X001535Y006050D02*
X001285Y005800D01*
X001535Y005550D01*
X001535Y005050D01*
X001285Y004800D01*
X000785Y004800D01*
X000535Y005050D01*
X000535Y005550D01*
X000785Y005800D01*
X000535Y006050D01*
X000535Y006550D01*
X000785Y006800D01*
X001285Y006800D01*
X001535Y006550D01*
X001535Y006050D01*
X001285Y005800D02*
X000785Y005800D01*
X007265Y005793D02*
X007605Y005793D01*
X007265Y005567D01*
X007605Y005567D01*
X007605Y005425D02*
X007265Y005425D01*
X007265Y005198D02*
X007605Y005425D01*
X007785Y005550D02*
X008035Y005800D01*
X007785Y006050D01*
X007785Y006550D01*
X008035Y006800D01*
X007785Y007050D01*
X007785Y007550D01*
X008035Y007800D01*
X007785Y008050D01*
X007785Y008550D01*
X008035Y008800D01*
X008535Y008800D01*
X008785Y009050D01*
X009035Y008800D01*
X009535Y008800D01*
X009785Y009050D01*
X009785Y009550D01*
X009535Y009800D01*
X009035Y009800D01*
X008785Y009550D01*
X008785Y009050D01*
X008785Y009550D01*
X008535Y009800D01*
X008035Y009800D01*
X007785Y009550D01*
X007785Y009050D01*
X008035Y008800D01*
X009535Y008800D01*
X009785Y008550D01*
X009785Y008050D01*
X009535Y007800D01*
X009785Y007550D01*
X009785Y007050D01*
X009535Y006800D01*
X009785Y006550D01*
X009785Y006050D01*
X009535Y005800D01*
X009785Y005550D01*
X009785Y005050D01*
X009535Y004800D01*
X008035Y004800D01*
X007785Y005050D01*
X007785Y005550D01*
X007605Y005935D02*
X007378Y005935D01*
X007265Y006048D01*
X007378Y006162D01*
X007605Y006162D01*
X007605Y006303D02*
X007265Y006303D01*
X007265Y006473D01*
X007321Y006530D01*
X007435Y006530D01*
X007492Y006473D01*
X007492Y006303D01*
X007492Y006417D02*
X007605Y006530D01*
X007605Y006672D02*
X007605Y006898D01*
X007605Y007040D02*
X007265Y007040D01*
X007265Y007267D01*
X007435Y007153D02*
X007435Y007040D01*
X007265Y006898D02*
X007265Y006672D01*
X007605Y006672D01*
X007435Y006672D02*
X007435Y006785D01*
X007435Y006162D02*
X007435Y005935D01*
X007605Y005198D02*
X007265Y005198D01*
X007378Y005057D02*
X007605Y005057D01*
X007435Y005057D02*
X007435Y004830D01*
X007378Y004830D02*
X007265Y004943D01*
X007378Y005057D01*
X007378Y004830D02*
X007605Y004830D01*
D12*
X002855Y004330D02*
X002857Y004354D01*
X002863Y004378D01*
X002872Y004400D01*
X002885Y004420D01*
X002901Y004438D01*
X002920Y004453D01*
X002941Y004466D01*
X002963Y004474D01*
X002987Y004479D01*
X003011Y004480D01*
X003035Y004477D01*
X003058Y004470D01*
X003080Y004460D01*
X003100Y004446D01*
X003117Y004429D01*
X003132Y004410D01*
X003143Y004389D01*
X003151Y004366D01*
X003155Y004342D01*
X003155Y004318D01*
X003151Y004294D01*
X003143Y004271D01*
X003132Y004250D01*
X003117Y004231D01*
X003100Y004214D01*
X003080Y004200D01*
X003058Y004190D01*
X003035Y004183D01*
X003011Y004180D01*
X002987Y004181D01*
X002963Y004186D01*
X002941Y004194D01*
X002920Y004207D01*
X002901Y004222D01*
X002885Y004240D01*
X002872Y004260D01*
X002863Y004282D01*
X002857Y004306D01*
X002855Y004330D01*
D13*
X000535Y000300D02*
X010035Y000300D01*
X010035Y004300D01*
X000535Y004300D01*
X000535Y000300D01*
X001760Y000617D02*
X001802Y000575D01*
X001843Y000575D01*
X001885Y000617D01*
X001885Y000700D01*
X001927Y000742D01*
X001968Y000742D01*
X002010Y000700D01*
X002010Y000617D01*
X001968Y000575D01*
X001760Y000617D02*
X001760Y000700D01*
X001802Y000742D01*
X001843Y000851D02*
X001843Y000893D01*
X001885Y000935D01*
X001843Y000976D01*
X001885Y001018D01*
X002010Y001018D01*
X002010Y000935D02*
X001885Y000935D01*
X001843Y000851D02*
X002010Y000851D01*
X001968Y001127D02*
X001927Y001169D01*
X001927Y001294D01*
X001885Y001294D02*
X002010Y001294D01*
X002010Y001169D01*
X001968Y001127D01*
X001843Y001169D02*
X001843Y001253D01*
X001885Y001294D01*
X001927Y001404D02*
X001843Y001487D01*
X001843Y001529D01*
X001843Y001634D02*
X001843Y001717D01*
X001802Y001676D02*
X001968Y001676D01*
X002010Y001717D01*
X001968Y001818D02*
X001843Y001818D01*
X001968Y001818D02*
X002010Y001860D01*
X002010Y001985D01*
X002052Y001985D02*
X001843Y001985D01*
X002052Y001985D02*
X002093Y001943D01*
X002093Y001901D01*
X001968Y002371D02*
X001843Y002371D01*
X001968Y002371D02*
X002010Y002412D01*
X002010Y002537D01*
X001843Y002537D01*
X001843Y002647D02*
X001802Y002647D01*
X001760Y002688D01*
X001760Y002772D01*
X001802Y002814D01*
X001885Y002772D02*
X001885Y002688D01*
X001843Y002647D01*
X001968Y002647D02*
X002010Y002688D01*
X002010Y002772D01*
X001968Y002814D01*
X001927Y002814D01*
X001885Y002772D01*
X001885Y002923D02*
X001843Y002965D01*
X001843Y003048D01*
X001885Y003090D01*
X002010Y003090D01*
X002010Y003199D02*
X002010Y003283D01*
X002010Y003241D02*
X001843Y003241D01*
X001843Y003199D01*
X001760Y003241D02*
X001718Y003241D01*
X001885Y003383D02*
X001843Y003425D01*
X001843Y003508D01*
X001885Y003550D01*
X001927Y003550D01*
X001927Y003383D01*
X001968Y003383D02*
X001885Y003383D01*
X001968Y003383D02*
X002010Y003425D01*
X002010Y003508D01*
X002010Y003660D02*
X002010Y003743D01*
X002010Y003701D02*
X001760Y003701D01*
X001760Y003660D01*
X001885Y003844D02*
X001843Y003885D01*
X001843Y004011D01*
X001760Y004011D02*
X002010Y004011D01*
X002010Y003885D01*
X001968Y003844D01*
X001885Y003844D01*
X001760Y002923D02*
X002010Y002923D01*
X002010Y001404D02*
X001843Y001404D01*
X007235Y008325D02*
X007310Y008325D01*
X007385Y008400D01*
X007385Y008550D01*
X007460Y008625D01*
X007535Y008625D01*
X007610Y008550D01*
X007610Y008400D01*
X007535Y008325D01*
X007460Y008325D01*
X007385Y008400D01*
X007385Y008550D02*
X007310Y008625D01*
X007235Y008625D01*
X007160Y008550D01*
X007160Y008400D01*
X007235Y008325D01*
X010410Y005425D02*
X010410Y005125D01*
X010410Y005275D02*
X009960Y005275D01*
X010110Y005125D01*
X001579Y009584D02*
X000791Y009584D01*
X000732Y009558D01*
X000675Y009529D01*
X000620Y009497D01*
X000566Y009461D01*
X000515Y009422D01*
X000467Y009379D01*
X000421Y009334D01*
X000378Y009287D01*
X000337Y009237D01*
X000300Y009184D01*
X000267Y009129D01*
X000236Y009073D01*
X000209Y009014D01*
X000186Y008954D01*
X000166Y008893D01*
X000150Y008831D01*
X000138Y008767D01*
X000130Y008704D01*
X000126Y008640D01*
X000125Y008575D01*
X000129Y008511D01*
X000136Y008447D01*
X000147Y008384D01*
X000162Y008321D01*
X000181Y008260D01*
X000204Y008199D01*
X000230Y008141D01*
X000259Y008084D01*
X000292Y008028D01*
X000329Y007975D01*
X000368Y007925D01*
X000411Y007876D01*
X000456Y007831D01*
X000504Y007788D01*
X000554Y007748D01*
X000607Y007711D01*
X000662Y007678D01*
X000719Y007648D01*
X000778Y007621D01*
X000838Y007598D01*
X000899Y007579D01*
X000962Y007564D01*
X001025Y007552D01*
X001089Y007544D01*
X001153Y007540D01*
X001217Y007540D01*
X001281Y007544D01*
X001345Y007552D01*
X001408Y007564D01*
X001471Y007579D01*
X001532Y007598D01*
X001592Y007621D01*
X001651Y007648D01*
X001708Y007678D01*
X001763Y007711D01*
X001816Y007748D01*
X001866Y007788D01*
X001914Y007831D01*
X001959Y007876D01*
X002002Y007925D01*
X002041Y007975D01*
X002078Y008028D01*
X002111Y008084D01*
X002140Y008141D01*
X002166Y008199D01*
X002189Y008260D01*
X002208Y008321D01*
X002223Y008384D01*
X002234Y008447D01*
X002241Y008511D01*
X002245Y008575D01*
X002244Y008640D01*
X002240Y008704D01*
X002232Y008767D01*
X002220Y008831D01*
X002204Y008893D01*
X002184Y008954D01*
X002161Y009014D01*
X002134Y009073D01*
X002103Y009129D01*
X002070Y009184D01*
X002033Y009237D01*
X001992Y009287D01*
X001949Y009334D01*
X001903Y009379D01*
X001855Y009422D01*
X001804Y009461D01*
X001750Y009497D01*
X001695Y009529D01*
X001638Y009558D01*
X001579Y009584D01*
D14*
X003040Y009755D02*
X003040Y009905D01*
X003115Y009905D01*
X003140Y009880D01*
X003140Y009830D01*
X003115Y009805D01*
X003040Y009805D01*
X003090Y009805D02*
X003140Y009755D01*
X003187Y009755D02*
X003287Y009855D01*
X003287Y009880D01*
X003262Y009905D01*
X003212Y009905D01*
X003187Y009880D01*
X003187Y009755D02*
X003287Y009755D01*
X003335Y009780D02*
X003435Y009880D01*
X003435Y009780D01*
X003410Y009755D01*
X003360Y009755D01*
X003335Y009780D01*
X003335Y009880D01*
X003360Y009905D01*
X003410Y009905D01*
X003435Y009880D01*
X003598Y007345D02*
X003673Y007345D01*
X003698Y007320D01*
X003698Y007270D01*
X003673Y007245D01*
X003598Y007245D01*
X003598Y007195D02*
X003598Y007345D01*
X003648Y007245D02*
X003698Y007195D01*
X003745Y007195D02*
X003846Y007295D01*
X003846Y007320D01*
X003820Y007345D01*
X003770Y007345D01*
X003745Y007320D01*
X003745Y007195D02*
X003846Y007195D01*
X003893Y007195D02*
X003993Y007195D01*
X003943Y007195D02*
X003943Y007345D01*
X003893Y007295D01*
X003435Y006880D02*
X003410Y006905D01*
X003360Y006905D01*
X003335Y006880D01*
X003287Y006880D02*
X003262Y006905D01*
X003212Y006905D01*
X003187Y006880D01*
X003140Y006880D02*
X003140Y006830D01*
X003115Y006805D01*
X003040Y006805D01*
X003040Y006755D02*
X003040Y006905D01*
X003115Y006905D01*
X003140Y006880D01*
X003090Y006805D02*
X003140Y006755D01*
X003187Y006755D02*
X003287Y006855D01*
X003287Y006880D01*
X003287Y006755D02*
X003187Y006755D01*
X003335Y006755D02*
X003435Y006855D01*
X003435Y006880D01*
X003435Y006755D02*
X003335Y006755D01*
M02*
