G75*
%MOIN*%
%OFA0B0*%
%FSLAX24Y24*%
%IPPOS*%
%LPD*%
%AMOC8*
5,1,8,0,0,1.08239X$1,22.5*
%
%ADD10C,0.0000*%
%ADD11R,0.0749X0.0670*%
%ADD12R,0.0740X0.0840*%
%ADD13R,0.0355X0.0591*%
%ADD14C,0.0630*%
%ADD15R,0.0394X0.0630*%
%ADD16OC8,0.0640*%
%ADD17C,0.0640*%
%ADD18C,0.0453*%
%ADD19C,0.0780*%
%ADD20R,0.0780X0.0780*%
%ADD21R,0.0985X0.0631*%
%ADD22R,0.0631X0.0985*%
D10*
X000535Y000300D02*
X000535Y009796D01*
X009905Y009796D01*
X009905Y000300D01*
X000535Y000300D01*
D11*
X003785Y001249D03*
X003785Y002351D03*
X005685Y002351D03*
X005685Y001249D03*
X007785Y001249D03*
X007785Y002351D03*
X005235Y007649D03*
X005235Y008751D03*
X003535Y008751D03*
X003535Y007649D03*
D12*
X004785Y004350D03*
X006485Y004350D03*
D13*
X003335Y005200D03*
X002135Y005200D03*
D14*
X002630Y003657D02*
X002840Y003657D01*
X002630Y003657D02*
X002630Y004503D01*
X002840Y004503D01*
X002840Y003657D01*
X002840Y004286D02*
X002630Y004286D01*
D15*
X002735Y005230D03*
D16*
X008285Y005300D03*
X009285Y005300D03*
X009285Y006300D03*
X008285Y006300D03*
X008285Y007300D03*
X009285Y007300D03*
X009285Y008300D03*
X008285Y008300D03*
X008285Y009300D03*
X009285Y009300D03*
D17*
X001335Y006300D02*
X000735Y006300D01*
X000735Y005300D02*
X001335Y005300D01*
D18*
X001392Y007850D02*
X000978Y007850D01*
X000978Y008350D02*
X001392Y008350D01*
X001392Y008850D02*
X000978Y008850D01*
X000978Y009350D02*
X001392Y009350D01*
D19*
X001035Y003800D03*
X001035Y002800D03*
X001035Y001800D03*
X009535Y001800D03*
X009535Y000800D03*
X009535Y002800D03*
X009535Y003800D03*
D20*
X001035Y000800D03*
D21*
X007035Y007394D03*
X007035Y009206D03*
D22*
X006441Y005800D03*
X004630Y005800D03*
M02*
