G75*
%MOIN*%
%OFA0B0*%
%FSLAX24Y24*%
%IPPOS*%
%LPD*%
%AMOC8*
5,1,8,0,0,1.08239X$1,22.5*
%
%ADD10C,0.0000*%
%ADD11R,0.0709X0.0630*%
%ADD12R,0.0700X0.0800*%
%ADD13R,0.0315X0.0551*%
%ADD14R,0.0315X0.0748*%
%ADD15C,0.0600*%
%ADD16OC8,0.0600*%
%ADD17C,0.0413*%
%ADD18C,0.0740*%
%ADD19R,0.0740X0.0740*%
%ADD20R,0.0945X0.0591*%
%ADD21R,0.0591X0.0945*%
%ADD22C,0.0100*%
%ADD23C,0.0280*%
%ADD24C,0.0080*%
%ADD25C,0.0240*%
D10*
X000535Y000300D02*
X000535Y009796D01*
X009905Y009796D01*
X009905Y000300D01*
X000535Y000300D01*
D11*
X003785Y001249D03*
X003785Y002351D03*
X005685Y002351D03*
X005685Y001249D03*
X007785Y001249D03*
X007785Y002351D03*
X005235Y007649D03*
X005235Y008751D03*
X003535Y008751D03*
X003535Y007649D03*
D12*
X004785Y004350D03*
X006485Y004350D03*
D13*
X003335Y005200D03*
X002135Y005200D03*
D14*
X002735Y005100D03*
D15*
X002835Y003662D02*
X002635Y003662D01*
X002635Y004498D01*
X002835Y004498D01*
X002835Y003662D01*
X002835Y004261D02*
X002635Y004261D01*
X001335Y005300D02*
X000735Y005300D01*
X000735Y006300D02*
X001335Y006300D01*
D16*
X008285Y006300D03*
X009285Y006300D03*
X009285Y005300D03*
X008285Y005300D03*
X008285Y007300D03*
X009285Y007300D03*
X009285Y008300D03*
X008285Y008300D03*
X008285Y009300D03*
X009285Y009300D03*
D17*
X001392Y009350D02*
X000978Y009350D01*
X000978Y008850D02*
X001392Y008850D01*
X001392Y008350D02*
X000978Y008350D01*
X000978Y007850D02*
X001392Y007850D01*
D18*
X001035Y003800D03*
X001035Y002800D03*
X001035Y001800D03*
X009535Y001800D03*
X009535Y000800D03*
X009535Y002800D03*
X009535Y003800D03*
D19*
X001035Y000800D03*
D20*
X007035Y007394D03*
X007035Y009206D03*
D21*
X006441Y005800D03*
X004630Y005800D03*
D22*
X004615Y005820D01*
X004375Y006060D01*
X001255Y006060D01*
X001035Y006300D01*
X001015Y006300D01*
X001255Y006060D01*
X002095Y005220D01*
X002135Y005200D01*
X002215Y005100D01*
X002215Y003300D01*
X001975Y002700D02*
X002815Y002700D01*
X002815Y004020D01*
X002735Y004080D01*
X002815Y004140D01*
X002815Y004740D01*
X002735Y005100D01*
X002815Y005100D01*
X002815Y004740D01*
X003535Y004740D01*
X003655Y004860D01*
X004735Y004860D01*
X006055Y006180D01*
X005935Y006300D01*
X006055Y006180D02*
X006415Y005820D01*
X006441Y005800D01*
X006535Y005700D01*
X006895Y005340D01*
X008215Y005340D01*
X008285Y005300D01*
X009175Y005340D02*
X009285Y005300D01*
X009175Y005340D02*
X009175Y005820D01*
X008695Y006300D01*
X008695Y006780D01*
X007375Y006780D01*
X005695Y006780D01*
X004735Y005820D01*
X004630Y005800D01*
X005695Y006780D02*
X006295Y007380D01*
X007015Y007380D01*
X007035Y007394D01*
X005815Y008460D02*
X005575Y008460D01*
X005335Y008700D01*
X005235Y008751D01*
X003535Y008700D02*
X003535Y008751D01*
X003535Y008700D02*
X001375Y008700D01*
X001255Y008820D01*
X001185Y008850D01*
X002455Y009060D02*
X002575Y009180D01*
X007015Y009180D01*
X007035Y009206D01*
X007135Y009180D01*
X007495Y008820D01*
X008695Y008820D01*
X009175Y009300D01*
X009285Y009300D01*
X003335Y005200D02*
X003295Y005220D01*
X003295Y005700D01*
X001975Y005700D01*
X001035Y002800D02*
X001135Y002700D01*
X001975Y002700D01*
X002815Y002700D02*
X003535Y002700D01*
X003775Y002460D01*
X003785Y002351D01*
X003895Y002340D01*
X004255Y002340D01*
X004495Y002100D01*
X003895Y001260D02*
X003785Y001249D01*
X003775Y001140D01*
X001375Y001140D01*
X001035Y000800D01*
X003895Y001260D02*
X005575Y001260D01*
X005685Y001249D01*
X005695Y001260D01*
X006055Y001620D01*
X007135Y001620D01*
X007495Y001260D01*
X007735Y001260D01*
X007785Y001249D01*
D23*
X007135Y001620D03*
X004495Y002100D03*
X002215Y003300D03*
X001975Y002700D03*
X001975Y005700D03*
X002455Y009060D03*
X005815Y008460D03*
X007375Y006780D03*
X005935Y006300D03*
D24*
X005335Y006660D02*
X006535Y007860D01*
X007855Y007860D01*
X008215Y008220D01*
X008285Y008300D01*
X007015Y008100D02*
X006175Y008100D01*
X005815Y007740D01*
X005335Y007740D01*
X005235Y007649D01*
X005215Y007620D01*
X004975Y007620D01*
X004975Y006900D01*
X004855Y006660D02*
X005335Y006660D01*
X004855Y006660D02*
X004735Y006540D01*
X003535Y006300D02*
X003535Y007649D01*
X003535Y007740D01*
X003055Y008220D02*
X002935Y008340D01*
X003055Y008220D02*
X006055Y008220D01*
X006175Y008340D01*
X007855Y006300D02*
X008285Y006300D01*
X007855Y006300D02*
X007135Y005580D01*
X006485Y004350D02*
X006415Y004260D01*
X005695Y004260D01*
X005455Y004020D01*
X005695Y003780D02*
X008335Y003780D01*
X009775Y005220D01*
X009775Y006300D01*
X009285Y006300D01*
X009535Y003800D02*
X009535Y003780D01*
X009295Y003540D01*
X005215Y003540D01*
X005095Y003660D01*
X004735Y003660D02*
X005335Y003060D01*
X009295Y003060D01*
X009535Y002820D01*
X009535Y002800D01*
X009535Y001860D02*
X009535Y001800D01*
X009535Y001860D02*
X004255Y001860D01*
X005095Y002820D02*
X007375Y002820D01*
X007735Y002460D01*
X007785Y002351D01*
X007855Y002340D01*
X006655Y002580D02*
X006535Y002460D01*
X005695Y002460D01*
X005685Y002351D01*
X003655Y000780D02*
X009535Y000780D01*
X009535Y000800D01*
X004735Y004260D02*
X004785Y004350D01*
X004735Y004260D02*
X003535Y003060D01*
X001855Y003900D02*
X001135Y003900D01*
X001035Y003800D01*
X003655Y000780D02*
X003535Y000660D01*
X002575Y006900D02*
X001735Y007740D01*
X001255Y007740D01*
X001185Y007850D01*
X001185Y008350D02*
X001255Y008460D01*
X002575Y008460D01*
D25*
X002575Y008460D03*
X002935Y008340D03*
X002575Y006900D03*
X003535Y006300D03*
X004735Y006540D03*
X004975Y006900D03*
X006175Y008340D03*
X007015Y008100D03*
X007135Y005580D03*
X005455Y004020D03*
X005695Y003780D03*
X005095Y003660D03*
X004735Y003660D03*
X005095Y002820D03*
X004255Y001860D03*
X003535Y000660D03*
X003535Y003060D03*
X001855Y003900D03*
X006655Y002580D03*
M02*
