G75*
%MOIN*%
%OFA0B0*%
%FSLAX24Y24*%
%IPPOS*%
%LPD*%
%AMOC8*
5,1,8,0,0,1.08239X$1,22.5*
%
%ADD10C,0.0000*%
%ADD11R,0.0500X0.0220*%
%ADD12R,0.0220X0.0500*%
%ADD13OC8,0.0600*%
%ADD14C,0.0600*%
%ADD15R,0.0630X0.0709*%
%ADD16C,0.0413*%
%ADD17C,0.0740*%
%ADD18R,0.0740X0.0740*%
%ADD19C,0.0100*%
%ADD20C,0.0280*%
%ADD21C,0.0080*%
%ADD22C,0.0240*%
D10*
X000535Y000300D02*
X000535Y009796D01*
X009905Y009796D01*
X009905Y000300D01*
X000535Y000300D01*
D11*
X002845Y001698D03*
X002845Y002013D03*
X002845Y002328D03*
X002845Y002643D03*
X002845Y002957D03*
X002845Y003272D03*
X002845Y003587D03*
X002845Y003902D03*
X006225Y003902D03*
X006225Y003587D03*
X006225Y003272D03*
X006225Y002957D03*
X006225Y002643D03*
X006225Y002328D03*
X006225Y002013D03*
X006225Y001698D03*
D12*
X005637Y001110D03*
X005322Y001110D03*
X005008Y001110D03*
X004693Y001110D03*
X004378Y001110D03*
X004063Y001110D03*
X003748Y001110D03*
X003433Y001110D03*
X003433Y004490D03*
X003748Y004490D03*
X004063Y004490D03*
X004378Y004490D03*
X004693Y004490D03*
X005008Y004490D03*
X005322Y004490D03*
X005637Y004490D03*
D13*
X008285Y005300D03*
X009285Y005300D03*
X009285Y006300D03*
X008285Y006300D03*
X008285Y007300D03*
X009285Y007300D03*
X009285Y008300D03*
X008285Y008300D03*
X008285Y009300D03*
X009285Y009300D03*
D14*
X001335Y006300D02*
X000735Y006300D01*
X000735Y005300D02*
X001335Y005300D01*
D15*
X002984Y006300D03*
X004086Y006300D03*
X004086Y007800D03*
X002984Y007800D03*
X002984Y009300D03*
X004086Y009300D03*
D16*
X001392Y009350D02*
X000978Y009350D01*
X000978Y008850D02*
X001392Y008850D01*
X001392Y008350D02*
X000978Y008350D01*
X000978Y007850D02*
X001392Y007850D01*
D17*
X001035Y003800D03*
X001035Y002800D03*
X001035Y001800D03*
X009535Y001800D03*
X009535Y000800D03*
X009535Y002800D03*
X009535Y003800D03*
D18*
X001035Y000800D03*
D19*
X001135Y000780D01*
X001035Y001800D02*
X001135Y001860D01*
X001615Y002340D01*
X001615Y005700D01*
X001975Y005700D01*
X001975Y008580D01*
X002455Y009060D01*
X001735Y008820D02*
X001735Y006900D01*
X001135Y006300D01*
X001035Y006300D01*
X001135Y005700D02*
X001135Y005340D01*
X001035Y005300D01*
X001135Y005700D02*
X001615Y005700D01*
X002215Y003300D02*
X002815Y003300D01*
X002845Y003272D01*
X002935Y003180D01*
X003175Y003180D01*
X003295Y003060D01*
X003295Y002700D01*
X002935Y002700D01*
X002845Y002643D01*
X002815Y002940D02*
X002575Y002940D01*
X002455Y002820D01*
X002455Y002700D01*
X001975Y002700D01*
X002455Y002700D02*
X002455Y002340D01*
X002815Y002340D01*
X002845Y002328D01*
X002815Y002940D02*
X002845Y002957D01*
X004495Y002100D02*
X006175Y002100D01*
X006225Y002013D01*
X006295Y002940D02*
X006225Y002957D01*
X006295Y002940D02*
X007135Y002940D01*
X007375Y003180D01*
X007375Y006780D01*
X005935Y006300D02*
X005935Y008340D01*
X005815Y008460D01*
X001735Y008820D02*
X001255Y008820D01*
X001185Y008850D01*
X007135Y002940D02*
X007135Y001620D01*
D20*
X007135Y001620D03*
X004495Y002100D03*
X002215Y003300D03*
X001975Y002700D03*
X001975Y005700D03*
X002455Y009060D03*
X005815Y008460D03*
X007375Y006780D03*
X005935Y006300D03*
D21*
X005575Y006660D02*
X005095Y007140D01*
X004135Y007140D01*
X004135Y006300D01*
X004086Y006300D01*
X003535Y006300D02*
X003415Y006180D01*
X003415Y004980D01*
X003175Y004740D01*
X003175Y004140D01*
X003535Y003780D01*
X003535Y003060D01*
X003535Y002100D01*
X002935Y002100D01*
X002845Y002013D01*
X002935Y001740D02*
X002845Y001698D01*
X002935Y001740D02*
X003895Y001740D01*
X003895Y002100D01*
X004855Y003060D01*
X005095Y002820D01*
X004855Y003060D02*
X005455Y003660D01*
X005455Y004020D01*
X005695Y003780D02*
X005695Y002340D01*
X006175Y002340D01*
X006225Y002328D01*
X006295Y002580D02*
X006225Y002643D01*
X006295Y002580D02*
X006655Y002580D01*
X006295Y003300D02*
X006225Y003272D01*
X006295Y003300D02*
X007135Y003300D01*
X007135Y005580D01*
X007855Y006900D02*
X008215Y007260D01*
X008285Y007300D01*
X008095Y007740D02*
X009175Y007740D01*
X009175Y007380D01*
X009285Y007300D01*
X009775Y007740D02*
X009295Y008220D01*
X009285Y008300D01*
X009775Y007740D02*
X009775Y005220D01*
X009055Y004500D01*
X009055Y000540D01*
X006535Y000540D01*
X006055Y001020D01*
X005695Y001020D01*
X005637Y001110D01*
X005335Y001140D02*
X005322Y001110D01*
X005335Y001140D02*
X005335Y001380D01*
X005455Y001500D01*
X005815Y001500D01*
X006535Y000780D01*
X007855Y000780D01*
X007855Y006900D01*
X007615Y007260D02*
X008095Y007740D01*
X007615Y007260D02*
X007615Y001020D01*
X006895Y001020D01*
X006295Y001620D01*
X006225Y001698D01*
X004255Y001860D02*
X003775Y001380D01*
X003775Y001140D01*
X003748Y001110D01*
X003535Y001020D02*
X003433Y001110D01*
X003535Y001020D02*
X003535Y000660D01*
X006225Y003587D02*
X006295Y003660D01*
X006655Y003660D01*
X006655Y008220D01*
X005575Y009300D01*
X004086Y009300D01*
X003295Y008580D02*
X002575Y008580D01*
X002575Y008460D01*
X002935Y008340D02*
X002935Y007860D01*
X002984Y007800D01*
X003295Y008580D02*
X004015Y007860D01*
X004086Y007800D01*
X004975Y006900D02*
X004975Y006060D01*
X004375Y005460D01*
X004375Y004500D01*
X004378Y004490D01*
X004693Y004490D02*
X004735Y004380D01*
X004735Y003660D01*
X005095Y003660D02*
X005095Y004380D01*
X005008Y004490D01*
X005575Y004500D02*
X005637Y004490D01*
X005575Y004500D02*
X005575Y006660D01*
X004735Y006540D02*
X004735Y006060D01*
X003535Y004860D01*
X003535Y004500D01*
X003433Y004490D01*
X002845Y003902D02*
X002815Y003900D01*
X001855Y003900D01*
X002935Y006300D02*
X002984Y006300D01*
X002935Y006300D02*
X002575Y006660D01*
X002575Y006900D01*
X002984Y009300D02*
X001255Y009300D01*
X001185Y009350D01*
X006175Y008340D02*
X006175Y003900D01*
X006225Y003902D01*
X007015Y008100D02*
X008215Y009300D01*
X008285Y009300D01*
D22*
X007015Y008100D03*
X006175Y008340D03*
X004975Y006900D03*
X004735Y006540D03*
X003535Y006300D03*
X002575Y006900D03*
X002935Y008340D03*
X002575Y008460D03*
X007135Y005580D03*
X005455Y004020D03*
X005695Y003780D03*
X005095Y003660D03*
X004735Y003660D03*
X005095Y002820D03*
X004255Y001860D03*
X003535Y000660D03*
X003535Y003060D03*
X001855Y003900D03*
X006655Y002580D03*
M02*
