G75*
%MOIN*%
%OFA0B0*%
%FSLAX24Y24*%
%IPPOS*%
%LPD*%
%AMOC8*
5,1,8,0,0,1.08239X$1,22.5*
%
%ADD10C,0.0000*%
%ADD11R,0.0709X0.0630*%
%ADD12R,0.0700X0.0800*%
%ADD13R,0.0315X0.0551*%
%ADD14R,0.0315X0.0748*%
%ADD15C,0.0600*%
%ADD16OC8,0.0600*%
%ADD17R,0.0650X0.0650*%
%ADD18C,0.0650*%
%ADD19OC8,0.0480*%
%ADD20R,0.0585X0.0585*%
%ADD21C,0.0585*%
%ADD22OC8,0.1000*%
%ADD23C,0.0740*%
%ADD24C,0.0640*%
%ADD25OC8,0.0700*%
%ADD26OC8,0.0660*%
%ADD27C,0.0413*%
%ADD28C,0.0660*%
%ADD29C,0.0480*%
%ADD30R,0.0740X0.0740*%
%ADD31R,0.0591X0.0591*%
%ADD32R,0.0945X0.0591*%
%ADD33R,0.0591X0.0945*%
%ADD34C,0.0100*%
%ADD35C,0.0280*%
%ADD36C,0.0080*%
%ADD37C,0.0240*%
D10*
X000535Y000450D02*
X000535Y039446D01*
X039405Y039446D01*
X039405Y000450D01*
X000535Y000450D01*
D11*
X003785Y001399D03*
X003785Y002501D03*
X005685Y002501D03*
X005685Y001399D03*
X007785Y001399D03*
X007785Y002501D03*
X005235Y007799D03*
X005235Y008901D03*
X003535Y008901D03*
X003535Y007799D03*
D12*
X004785Y004500D03*
X006485Y004500D03*
D13*
X003335Y005350D03*
X002135Y005350D03*
D14*
X002735Y005250D03*
D15*
X002835Y003812D02*
X002635Y003812D01*
X002635Y004648D01*
X002835Y004648D01*
X002835Y003812D01*
X002835Y004411D02*
X002635Y004411D01*
X001335Y005450D02*
X000735Y005450D01*
X000735Y006450D02*
X001335Y006450D01*
X011535Y005250D02*
X011535Y004650D01*
X012535Y004650D02*
X012535Y005250D01*
X012535Y003250D02*
X012535Y002650D01*
X011535Y002650D02*
X011535Y003250D01*
X014235Y015950D02*
X014835Y015950D01*
X014835Y016950D02*
X014235Y016950D01*
X014235Y017950D02*
X014835Y017950D01*
X021235Y021950D02*
X021835Y021950D01*
X021835Y022950D02*
X021235Y022950D01*
X021235Y023950D02*
X021835Y023950D01*
X021835Y024950D02*
X021235Y024950D01*
X021235Y025950D02*
X021835Y025950D01*
X021835Y026950D02*
X021235Y026950D01*
X024235Y024950D02*
X024835Y024950D01*
X024835Y023950D02*
X024235Y023950D01*
X033035Y008750D02*
X033035Y008150D01*
X034035Y008150D02*
X034035Y008750D01*
X035035Y008750D02*
X035035Y008150D01*
X035035Y002750D02*
X035035Y002150D01*
X034035Y002150D02*
X034035Y002750D01*
X033035Y002750D02*
X033035Y002150D01*
X036035Y002150D02*
X036035Y002750D01*
D16*
X037535Y002950D03*
X037535Y003950D03*
X037535Y004950D03*
X037535Y005950D03*
X037535Y006950D03*
X038535Y006950D03*
X038535Y005950D03*
X038535Y004950D03*
X038535Y003950D03*
X038535Y002950D03*
X037535Y011450D03*
X036535Y011450D03*
X035535Y011450D03*
X034535Y011450D03*
X033535Y011450D03*
X032535Y011450D03*
X031535Y011450D03*
X030535Y011450D03*
X030535Y012450D03*
X031535Y012450D03*
X032535Y012450D03*
X033535Y012450D03*
X034535Y012450D03*
X035535Y012450D03*
X036535Y012450D03*
X037535Y012450D03*
X037535Y018950D03*
X036535Y018950D03*
X035535Y018950D03*
X034535Y018950D03*
X033535Y018950D03*
X032535Y018950D03*
X031535Y018950D03*
X030535Y018950D03*
X030535Y019950D03*
X031535Y019950D03*
X032535Y019950D03*
X033535Y019950D03*
X034535Y019950D03*
X035535Y019950D03*
X036535Y019950D03*
X037535Y019950D03*
X034535Y022600D03*
X030535Y022950D03*
X029535Y022950D03*
X028535Y022950D03*
X027535Y022950D03*
X026535Y022950D03*
X026535Y021950D03*
X027535Y021950D03*
X028535Y021950D03*
X029535Y021950D03*
X030535Y021950D03*
X024535Y029450D03*
X024535Y030450D03*
X023535Y030450D03*
X022535Y030450D03*
X022535Y029450D03*
X023535Y029450D03*
X021535Y029450D03*
X021535Y030450D03*
X014535Y023950D03*
X014535Y022950D03*
X013535Y022950D03*
X012535Y022950D03*
X012535Y023950D03*
X013535Y023950D03*
X011535Y023950D03*
X011535Y022950D03*
X009035Y026450D03*
X008035Y026450D03*
X008035Y027450D03*
X008035Y028450D03*
X009035Y028450D03*
X009035Y027450D03*
X009035Y029450D03*
X008035Y029450D03*
X008035Y030450D03*
X009035Y030450D03*
X009285Y009450D03*
X009285Y008450D03*
X008285Y008450D03*
X008285Y009450D03*
X008285Y007450D03*
X008285Y006450D03*
X008285Y005450D03*
X009285Y005450D03*
X009285Y006450D03*
X009285Y007450D03*
D17*
X007185Y021900D03*
X003685Y021900D03*
D18*
X005385Y021900D03*
X005385Y025000D03*
X003685Y025000D03*
X007185Y025000D03*
X008885Y025000D03*
X008885Y021900D03*
D19*
X002535Y022450D03*
X001535Y022450D03*
X001535Y023950D03*
X002535Y023950D03*
X002535Y025450D03*
X001535Y025450D03*
X001535Y026950D03*
X002535Y026950D03*
X002535Y028450D03*
X001535Y028450D03*
X001535Y030450D03*
X002535Y030450D03*
X016035Y025950D03*
X016035Y024950D03*
X017535Y024950D03*
X017535Y025950D03*
X019035Y025950D03*
X019035Y024950D03*
X026535Y019950D03*
X027535Y019950D03*
X027535Y018750D03*
X026535Y018750D03*
X026535Y017450D03*
X027535Y017450D03*
X027535Y015950D03*
X026535Y015950D03*
X026535Y014450D03*
X027535Y014450D03*
X027535Y012950D03*
X026535Y012950D03*
X026535Y011450D03*
X027535Y011450D03*
X030535Y007950D03*
X031535Y007950D03*
X031535Y006450D03*
X033285Y005950D03*
X033285Y006950D03*
X034035Y004450D03*
X034535Y003700D03*
X035035Y004450D03*
X031535Y004450D03*
X031535Y002950D03*
X031535Y001950D03*
X033535Y000950D03*
X034535Y000950D03*
X037535Y000950D03*
X038535Y000950D03*
X024035Y002950D03*
X024035Y003950D03*
X022035Y003950D03*
X022035Y002950D03*
X022035Y006450D03*
X022035Y007450D03*
X024035Y007450D03*
X024035Y006450D03*
X019535Y012950D03*
X016535Y012950D03*
X034535Y017950D03*
X037535Y017950D03*
X031535Y030950D03*
X030535Y030950D03*
X029535Y030950D03*
X028535Y030950D03*
X027535Y030950D03*
X026535Y030950D03*
D20*
X026535Y007950D03*
D21*
X026535Y006950D03*
X026535Y005950D03*
X026535Y004950D03*
X026535Y003950D03*
X026535Y002950D03*
X026535Y001950D03*
X029535Y001950D03*
X029535Y002950D03*
X029535Y003950D03*
X029535Y004950D03*
X029535Y005950D03*
X029535Y006950D03*
X029535Y007950D03*
D22*
X036535Y008450D03*
X038035Y008450D03*
D23*
X024535Y009450D03*
X023535Y009450D03*
X022535Y009450D03*
X022535Y011450D03*
X023535Y011450D03*
X024535Y011450D03*
X021535Y011450D03*
X019535Y011450D03*
X018535Y011450D03*
X017535Y011450D03*
X016535Y011450D03*
X014535Y011450D03*
X013535Y011450D03*
X012535Y011450D03*
X011535Y011450D03*
X012535Y009450D03*
X013535Y009450D03*
X014535Y009450D03*
X017535Y009450D03*
X018535Y009450D03*
X019535Y009450D03*
X019535Y000950D03*
X018535Y000950D03*
X017535Y000950D03*
X016535Y000950D03*
X014535Y000950D03*
X013535Y000950D03*
X012535Y000950D03*
X011535Y000950D03*
X009535Y000950D03*
X009535Y001950D03*
X009535Y002950D03*
X009535Y003950D03*
X001035Y003950D03*
X001035Y002950D03*
X001035Y001950D03*
X012535Y019950D03*
X013535Y019950D03*
X014535Y019950D03*
X017535Y019950D03*
X018535Y019950D03*
X019535Y019950D03*
X022535Y019950D03*
X023535Y019950D03*
X024535Y019950D03*
X026535Y023950D03*
X027535Y023950D03*
X028535Y023950D03*
X029535Y023950D03*
X030535Y023950D03*
X031535Y023950D03*
X032535Y023950D03*
X033535Y023950D03*
X034535Y023950D03*
X035535Y023950D03*
X036535Y023950D03*
X037535Y023950D03*
X038535Y024450D03*
X038535Y025450D03*
X038535Y026450D03*
X038535Y027450D03*
X038535Y028450D03*
X038535Y029450D03*
X037535Y029950D03*
X036535Y029950D03*
X035535Y029950D03*
X034535Y029950D03*
X033535Y029950D03*
X032535Y029950D03*
X031535Y029950D03*
X030535Y029950D03*
X029535Y029950D03*
X028535Y029950D03*
X027535Y029950D03*
X026535Y029950D03*
X026535Y025950D03*
X026535Y024950D03*
X033098Y025075D03*
X034098Y025075D03*
X035535Y022600D03*
X036535Y022600D03*
X037535Y022600D03*
X037535Y031100D03*
X036535Y031100D03*
X035535Y031100D03*
X038535Y031100D03*
X024535Y000950D03*
X023535Y000950D03*
X022535Y000950D03*
X021535Y000950D03*
D24*
X005535Y027450D03*
X004535Y027450D03*
X004535Y028450D03*
X005535Y028450D03*
X005535Y029450D03*
X004535Y029450D03*
D25*
X011535Y029950D03*
X012535Y029950D03*
X013535Y029950D03*
X014535Y029950D03*
X015535Y029950D03*
X016535Y029950D03*
X017535Y029950D03*
X018535Y029950D03*
X019535Y029950D03*
X016535Y007950D03*
X016535Y006950D03*
X016535Y005950D03*
X016535Y004950D03*
X016535Y003950D03*
X016535Y002950D03*
X016535Y001950D03*
X016535Y000950D03*
D26*
X016535Y027950D03*
X017535Y027950D03*
X017535Y028950D03*
X016535Y028950D03*
X015535Y028950D03*
X014535Y028950D03*
X013535Y028950D03*
X012535Y028950D03*
X011535Y028950D03*
X011535Y027950D03*
X012535Y027950D03*
X013535Y027950D03*
X014535Y027950D03*
X015535Y027950D03*
X018535Y027950D03*
X019535Y027950D03*
X019535Y028950D03*
X018535Y028950D03*
D27*
X018285Y023157D02*
X018285Y022743D01*
X017785Y022743D02*
X017785Y023157D01*
X017285Y023157D02*
X017285Y022743D01*
X016785Y022743D02*
X016785Y023157D01*
X001392Y009500D02*
X000978Y009500D01*
X000978Y009000D02*
X001392Y009000D01*
X001392Y008500D02*
X000978Y008500D01*
X000978Y008000D02*
X001392Y008000D01*
X032785Y030743D02*
X032785Y031157D01*
X033285Y031157D02*
X033285Y030743D01*
X033785Y030743D02*
X033785Y031157D01*
X034285Y031157D02*
X034285Y030743D01*
D28*
X038759Y019450D03*
X038759Y018450D03*
X038759Y017450D03*
X038759Y016450D03*
X038759Y015450D03*
X038759Y014450D03*
X038759Y013450D03*
X038759Y012450D03*
X029311Y012450D03*
X029311Y013450D03*
X029311Y014450D03*
X029311Y015450D03*
X029311Y016450D03*
X029311Y017450D03*
X029311Y018450D03*
X029311Y019450D03*
D29*
X030535Y016990D02*
X030535Y016510D01*
X031535Y016510D02*
X031535Y016990D01*
X032535Y016990D02*
X032535Y016510D01*
X033535Y016510D02*
X033535Y016990D01*
X034535Y016990D02*
X034535Y016510D01*
X035535Y016510D02*
X035535Y016990D01*
X036535Y016990D02*
X036535Y016510D01*
X037535Y016510D02*
X037535Y016990D01*
X037535Y013990D02*
X037535Y013510D01*
X036535Y013510D02*
X036535Y013990D01*
X035535Y013990D02*
X035535Y013510D01*
X034535Y013510D02*
X034535Y013990D01*
X033535Y013990D02*
X033535Y013510D01*
X032535Y013510D02*
X032535Y013990D01*
X031535Y013990D02*
X031535Y013510D01*
X030535Y013510D02*
X030535Y013990D01*
D30*
X038535Y022600D03*
X021535Y019950D03*
X016535Y019950D03*
X011535Y019950D03*
X011535Y009450D03*
X016535Y009450D03*
X021535Y009450D03*
X001035Y000950D03*
D31*
X017035Y014450D03*
X019035Y014450D03*
X019035Y017450D03*
X017035Y017450D03*
D32*
X012535Y016544D03*
X012535Y014856D03*
X012535Y013044D03*
X012535Y018356D03*
X007035Y009356D03*
X007035Y007544D03*
D33*
X006441Y005950D03*
X004630Y005950D03*
D34*
X004615Y005970D01*
X004375Y006210D01*
X001255Y006210D01*
X001035Y006450D01*
X001015Y006450D01*
X001255Y006210D01*
X002095Y005370D01*
X002135Y005350D01*
X002215Y005250D01*
X002215Y003450D01*
X001975Y002850D02*
X002815Y002850D01*
X002815Y004170D01*
X002735Y004230D01*
X002815Y004290D01*
X002815Y004890D01*
X002735Y005250D01*
X002815Y005250D01*
X002815Y004890D01*
X003535Y004890D01*
X003655Y005010D01*
X004735Y005010D01*
X006055Y006330D01*
X005935Y006450D01*
X006055Y006330D02*
X006415Y005970D01*
X006441Y005950D01*
X006535Y005850D01*
X006895Y005490D01*
X008215Y005490D01*
X008285Y005450D01*
X009175Y005490D02*
X009175Y005970D01*
X008695Y006450D01*
X008695Y006930D01*
X007375Y006930D01*
X005695Y006930D01*
X004735Y005970D01*
X004630Y005950D01*
X003295Y005850D02*
X003295Y005370D01*
X003335Y005350D01*
X003295Y005850D02*
X001975Y005850D01*
X001975Y002850D02*
X001135Y002850D01*
X001035Y002950D01*
X001375Y001290D02*
X003775Y001290D01*
X003785Y001399D01*
X003895Y001410D01*
X005575Y001410D01*
X005685Y001399D01*
X005695Y001410D01*
X006055Y001770D01*
X007135Y001770D01*
X007495Y001410D01*
X007735Y001410D01*
X007785Y001399D01*
X004495Y002250D02*
X004255Y002490D01*
X003895Y002490D01*
X003785Y002501D01*
X003775Y002610D01*
X003535Y002850D01*
X002815Y002850D01*
X001375Y001290D02*
X001035Y000950D01*
X005695Y006930D02*
X006295Y007530D01*
X007015Y007530D01*
X007035Y007544D01*
X007495Y008970D02*
X008695Y008970D01*
X009175Y009450D01*
X009285Y009450D01*
X007495Y008970D02*
X007135Y009330D01*
X007035Y009356D01*
X007015Y009330D01*
X002575Y009330D01*
X002455Y009210D01*
X003535Y008901D02*
X003535Y008850D01*
X001375Y008850D01*
X001255Y008970D01*
X001185Y009000D01*
X005235Y008901D02*
X005335Y008850D01*
X005575Y008610D01*
X005815Y008610D01*
X009175Y005490D02*
X009285Y005450D01*
X013255Y017610D02*
X012535Y018330D01*
X012535Y018356D01*
X012535Y019950D01*
X011535Y022950D02*
X011575Y023010D01*
X012055Y023490D01*
X017695Y023490D01*
X017695Y023010D01*
X017785Y022950D01*
X017695Y025530D02*
X019015Y026850D01*
X019015Y028890D01*
X019495Y028890D01*
X019535Y028950D01*
X021535Y026970D02*
X021535Y026950D01*
X021535Y026970D02*
X023815Y026970D01*
X023935Y027090D01*
X023935Y029010D01*
X023335Y029010D01*
X023095Y029250D01*
X023095Y030930D01*
X024055Y030930D01*
X024535Y030450D01*
X027055Y026970D02*
X035935Y026970D01*
X036055Y026850D01*
X036055Y023370D01*
X035095Y023370D01*
X034615Y023850D01*
X034535Y023950D01*
X034135Y022410D02*
X034495Y022050D01*
X037975Y022050D01*
X038455Y022530D01*
X038535Y022600D01*
X038455Y022650D01*
X037975Y023130D01*
X037255Y023130D01*
X036535Y023850D01*
X036535Y023950D01*
X036055Y023370D02*
X036055Y022650D01*
X036535Y022650D01*
X036535Y022600D01*
X034135Y022410D02*
X026935Y022410D01*
X026575Y022050D01*
X026535Y021950D01*
X026535Y022950D02*
X026575Y023010D01*
X027055Y023490D01*
X027055Y026970D01*
X034615Y029130D02*
X036295Y029130D01*
X034615Y029130D02*
X034615Y029850D01*
X034535Y029950D01*
X017695Y025530D02*
X013135Y025530D01*
X011575Y023970D01*
X011535Y023950D01*
X029535Y007950D02*
X029575Y007890D01*
X031015Y006450D01*
X031535Y006450D01*
X031615Y006450D01*
X032095Y006930D01*
X033175Y006930D01*
X033285Y006950D01*
X031975Y004890D02*
X031535Y004450D01*
X031975Y004890D02*
X034615Y004890D01*
X034975Y004530D01*
X035035Y004450D01*
X034615Y003690D02*
X034535Y003700D01*
X034615Y003690D02*
X035095Y003210D01*
X035215Y003210D01*
X035935Y002490D01*
X036035Y002450D01*
X036055Y002490D01*
X038095Y002490D01*
X038455Y002850D01*
X038535Y002950D01*
D35*
X013255Y017610D03*
X005815Y008610D03*
X007375Y006930D03*
X005935Y006450D03*
X002455Y009210D03*
X001975Y005850D03*
X002215Y003450D03*
X001975Y002850D03*
X004495Y002250D03*
X007135Y001770D03*
X036295Y029130D03*
D36*
X036175Y028650D02*
X037015Y029490D01*
X037015Y031050D01*
X037495Y031050D01*
X037535Y031100D01*
X036535Y031100D02*
X036535Y031050D01*
X036055Y031050D01*
X036055Y029730D01*
X035695Y029370D01*
X035335Y029370D01*
X036175Y028650D02*
X029575Y028650D01*
X029815Y029130D02*
X033055Y029130D01*
X033535Y029610D01*
X033535Y029950D01*
X033175Y030330D02*
X033055Y030210D01*
X033055Y029370D01*
X030415Y029370D01*
X030055Y029730D01*
X030055Y030930D01*
X029575Y030930D01*
X029535Y030950D01*
X028015Y030930D02*
X028015Y029730D01*
X028855Y028890D01*
X034015Y028890D01*
X034015Y030210D01*
X034255Y030450D01*
X034255Y030930D01*
X034285Y030950D01*
X033285Y030950D02*
X033175Y030930D01*
X033175Y030330D01*
X030775Y028410D02*
X036775Y028410D01*
X038455Y030090D01*
X038455Y031050D01*
X038535Y031100D01*
X035815Y026730D02*
X034735Y026730D01*
X033175Y025170D01*
X033098Y025075D01*
X034015Y024450D02*
X034015Y023730D01*
X033655Y023370D01*
X030895Y023370D01*
X030535Y023010D01*
X030535Y022950D01*
X029935Y022650D02*
X029935Y023370D01*
X029095Y023370D01*
X028615Y023850D01*
X028535Y023950D01*
X027655Y023850D02*
X028495Y023010D01*
X028535Y022950D01*
X027655Y023850D02*
X027535Y023850D01*
X027535Y023950D01*
X029575Y026730D02*
X032335Y023970D01*
X032455Y023970D01*
X032535Y023950D01*
X034015Y024450D02*
X034975Y024450D01*
X035455Y023970D01*
X035535Y023950D01*
X034535Y019950D02*
X034615Y019890D01*
X035095Y019410D01*
X035095Y018450D01*
X036415Y018450D01*
X036175Y018210D02*
X037015Y018210D01*
X037015Y019410D01*
X036535Y019890D01*
X036535Y019950D01*
X037255Y019410D02*
X038095Y019410D01*
X038215Y019290D01*
X038695Y019410D02*
X038759Y019450D01*
X038695Y019410D02*
X037615Y018330D01*
X037375Y018330D01*
X036655Y017610D01*
X032935Y017610D01*
X032575Y017490D02*
X032935Y017130D01*
X032935Y015930D01*
X032695Y015930D01*
X032575Y015690D02*
X032095Y016170D01*
X030295Y016170D01*
X029455Y017010D01*
X027895Y017010D01*
X027535Y017370D01*
X027535Y017450D01*
X027175Y017730D02*
X027415Y017970D01*
X030535Y017970D01*
X030775Y018210D01*
X033175Y018210D01*
X033295Y017370D02*
X038695Y017370D01*
X038759Y017450D01*
X037535Y016750D02*
X037495Y016650D01*
X036535Y015690D01*
X032575Y015690D01*
X032215Y015690D02*
X031975Y015930D01*
X027535Y015930D01*
X027535Y015950D01*
X027175Y015810D02*
X027175Y014010D01*
X029455Y014010D01*
X030295Y013170D01*
X034735Y013170D01*
X035095Y013530D01*
X035095Y014370D01*
X038695Y014370D01*
X038759Y014450D01*
X038759Y015450D02*
X037615Y015450D01*
X037135Y015930D01*
X037375Y014610D02*
X032095Y014610D01*
X031375Y013890D01*
X031535Y013750D01*
X031495Y013770D01*
X031375Y013890D01*
X031015Y014250D01*
X030895Y014250D01*
X031135Y014490D02*
X029335Y014490D01*
X029311Y014450D01*
X028855Y014610D02*
X029215Y014970D01*
X031375Y014970D01*
X031975Y014730D02*
X032335Y015090D01*
X033175Y015090D01*
X033895Y014370D02*
X032215Y014370D01*
X031975Y014730D02*
X029815Y014730D01*
X029815Y015210D02*
X030055Y015450D01*
X034375Y015450D01*
X033895Y014370D02*
X034495Y013770D01*
X034535Y013750D01*
X035095Y013170D02*
X036055Y013170D01*
X036535Y013650D01*
X036535Y013750D01*
X037135Y012930D02*
X038215Y012930D01*
X038695Y012450D01*
X038759Y012450D01*
X038215Y011970D02*
X037015Y011970D01*
X036535Y011490D01*
X036535Y011450D01*
X036655Y011970D02*
X037135Y012450D01*
X037135Y012930D01*
X036655Y011970D02*
X035095Y011970D01*
X034615Y011490D01*
X034535Y011450D01*
X034735Y011970D02*
X035095Y012330D01*
X035095Y013170D01*
X034535Y012450D02*
X034495Y012450D01*
X034015Y012930D01*
X030655Y012930D01*
X029311Y012450D02*
X029215Y012450D01*
X028375Y013290D01*
X027655Y013290D01*
X026575Y014370D01*
X026535Y014450D01*
X027535Y014490D02*
X027535Y014450D01*
X027535Y014490D02*
X027655Y014610D01*
X028855Y014610D01*
X029215Y013530D02*
X028255Y013530D01*
X028015Y013770D01*
X028255Y012810D02*
X029095Y011970D01*
X034735Y011970D01*
X031975Y008610D02*
X033055Y007530D01*
X038575Y007530D01*
X038935Y007170D01*
X038935Y004050D01*
X038575Y004050D01*
X038535Y003950D01*
X037535Y003950D02*
X037495Y004050D01*
X031375Y004050D01*
X031255Y004170D01*
X030295Y004170D01*
X030055Y004410D01*
X029095Y004410D01*
X029535Y004950D02*
X029575Y005010D01*
X030175Y005610D01*
X031975Y005610D01*
X031135Y005130D02*
X037135Y005130D01*
X037375Y005370D01*
X038095Y005370D01*
X038455Y005010D01*
X038535Y004950D01*
X037975Y006450D02*
X037375Y006450D01*
X036895Y005970D01*
X033295Y005970D01*
X033285Y005950D01*
X032935Y006090D02*
X033175Y006330D01*
X036895Y006330D01*
X037535Y006950D02*
X037495Y007050D01*
X037255Y007290D01*
X031135Y007290D01*
X030535Y007890D01*
X030535Y007950D01*
X030535Y008010D01*
X030175Y008370D01*
X029335Y008370D01*
X029215Y008250D01*
X029095Y008250D01*
X029095Y007530D01*
X026575Y005010D01*
X026535Y004950D01*
X026575Y004050D02*
X026535Y003950D01*
X026575Y004050D02*
X028975Y006450D01*
X030775Y006450D01*
X031135Y006090D01*
X032935Y006090D01*
X032815Y005850D02*
X033295Y005370D01*
X034135Y005370D01*
X032815Y005850D02*
X029575Y005850D01*
X029535Y005950D01*
X030415Y004410D02*
X031135Y005130D01*
X031255Y003930D02*
X031375Y003810D01*
X032455Y003810D01*
X033175Y003330D02*
X034015Y002490D01*
X034035Y002450D01*
X033175Y003330D02*
X031015Y003330D01*
X030655Y003690D01*
X031255Y003930D02*
X029575Y003930D01*
X029535Y003950D01*
X029535Y001950D02*
X029575Y001890D01*
X029935Y001530D01*
X037735Y001530D01*
X037375Y001290D02*
X038215Y001290D01*
X038455Y001050D01*
X038535Y000950D01*
X037375Y001290D02*
X037135Y001050D01*
X034615Y001050D01*
X034535Y000950D01*
X035815Y001290D02*
X027175Y001290D01*
X026575Y001890D01*
X026535Y001950D01*
X026535Y005950D02*
X026575Y005970D01*
X029215Y008610D01*
X031975Y008610D01*
X028375Y012090D02*
X028135Y012090D01*
X027535Y011490D01*
X027535Y011450D01*
X029215Y013530D02*
X029311Y013450D01*
X027175Y015810D02*
X026695Y016290D01*
X026575Y016290D01*
X026575Y017370D01*
X026535Y017450D01*
X027295Y016770D02*
X028855Y016770D01*
X029815Y017010D02*
X030775Y017970D01*
X034015Y017970D01*
X034535Y017950D02*
X034615Y017850D01*
X036415Y017850D01*
X034255Y019530D02*
X030295Y019530D01*
X029935Y019890D01*
X027535Y019890D01*
X027535Y019950D01*
X027295Y019170D02*
X028495Y019170D01*
X029215Y018450D01*
X029311Y018450D01*
X030535Y016770D02*
X030535Y016750D01*
X030535Y016770D02*
X031495Y017730D01*
X027295Y016770D02*
X026935Y016410D01*
X024535Y014610D02*
X024535Y013410D01*
X024295Y018210D02*
X023095Y019410D01*
X022015Y019410D01*
X021535Y019890D01*
X021535Y019950D01*
X021535Y021950D02*
X021535Y022050D01*
X023815Y024330D01*
X023815Y026730D01*
X024175Y027090D01*
X024175Y029130D01*
X023935Y029370D01*
X023935Y030450D01*
X023535Y030450D01*
X021535Y029450D02*
X021535Y029370D01*
X023695Y027210D01*
X022735Y026730D02*
X022255Y026730D01*
X021535Y026010D01*
X021535Y025950D01*
X017535Y025950D02*
X017455Y026010D01*
X016015Y027450D01*
X013015Y027450D01*
X012535Y027930D01*
X012535Y027950D01*
X012295Y027210D02*
X011575Y027930D01*
X011535Y027950D01*
X012295Y027210D02*
X014815Y027210D01*
X016015Y026010D01*
X016035Y025950D01*
X011535Y019950D02*
X011455Y019890D01*
X011335Y019890D01*
X011335Y017850D01*
X012535Y016650D01*
X012535Y016544D01*
X012535Y016530D01*
X011215Y016530D01*
X011215Y014370D01*
X012535Y013050D01*
X012535Y013044D01*
X012535Y013050D02*
X013255Y013050D01*
X014215Y014010D01*
X012775Y015210D02*
X012535Y014970D01*
X012535Y014856D01*
X012775Y015210D02*
X012175Y015810D01*
X012775Y015210D02*
X014455Y016890D01*
X014535Y016950D01*
X014535Y015950D02*
X014455Y015930D01*
X014455Y011970D01*
X012055Y011970D01*
X011535Y011450D01*
X011575Y009450D02*
X011535Y009450D01*
X011575Y009450D02*
X011575Y005010D01*
X011535Y004950D01*
X013015Y004410D02*
X011575Y002970D01*
X011535Y002950D01*
X013015Y001530D02*
X012535Y001050D01*
X012535Y000950D01*
X013015Y001530D02*
X013735Y001530D01*
X013735Y004170D01*
X013495Y002970D02*
X011575Y001050D01*
X011535Y000950D01*
X009535Y000930D02*
X009535Y000950D01*
X009535Y000930D02*
X003655Y000930D01*
X003535Y000810D01*
X004255Y002010D02*
X009535Y002010D01*
X009535Y001950D01*
X009535Y002950D02*
X009535Y002970D01*
X009295Y003210D01*
X005335Y003210D01*
X004735Y003810D01*
X005095Y003810D02*
X005215Y003690D01*
X009295Y003690D01*
X009535Y003930D01*
X009535Y003950D01*
X008335Y003930D02*
X009775Y005370D01*
X009775Y006450D01*
X009285Y006450D01*
X008285Y006450D02*
X007855Y006450D01*
X007135Y005730D01*
X006485Y004500D02*
X006415Y004410D01*
X005695Y004410D01*
X005455Y004170D01*
X005695Y003930D02*
X008335Y003930D01*
X007375Y002970D02*
X005095Y002970D01*
X005695Y002610D02*
X005685Y002501D01*
X005695Y002610D02*
X006535Y002610D01*
X006655Y002730D01*
X007375Y002970D02*
X007735Y002610D01*
X007785Y002501D01*
X007855Y002490D01*
X004735Y004410D02*
X004785Y004500D01*
X004735Y004410D02*
X003535Y003210D01*
X001855Y004050D02*
X001135Y004050D01*
X001035Y003950D01*
X003535Y006450D02*
X003535Y007799D01*
X003535Y007890D01*
X003055Y008370D02*
X002935Y008490D01*
X003055Y008370D02*
X006055Y008370D01*
X006175Y008490D01*
X006175Y008250D02*
X005815Y007890D01*
X005335Y007890D01*
X005235Y007799D01*
X005215Y007770D01*
X004975Y007770D01*
X004975Y007050D01*
X004855Y006810D02*
X005335Y006810D01*
X006535Y008010D01*
X007855Y008010D01*
X008215Y008370D01*
X008285Y008450D01*
X007015Y008250D02*
X006175Y008250D01*
X004855Y006810D02*
X004735Y006690D01*
X002575Y007050D02*
X001735Y007890D01*
X001255Y007890D01*
X001185Y008000D01*
X001185Y008500D02*
X001255Y008610D01*
X002575Y008610D01*
X002535Y022450D02*
X002575Y022530D01*
X004375Y024330D01*
X007495Y024330D01*
X008935Y025770D01*
X009175Y025770D01*
X009775Y026370D01*
X009775Y027450D01*
X009035Y027450D01*
X008575Y026970D02*
X008095Y027450D01*
X008035Y027450D01*
X008095Y026970D02*
X006055Y026970D01*
X005575Y027450D01*
X005535Y027450D01*
X005455Y027450D01*
X005215Y027690D01*
X004975Y027690D01*
X004735Y027930D01*
X003055Y027930D01*
X002535Y028450D01*
X002535Y026950D02*
X002575Y026850D01*
X003895Y025530D01*
X006655Y025530D01*
X007185Y025000D01*
X007495Y024570D02*
X008935Y026010D01*
X009175Y026010D01*
X009535Y026370D01*
X009535Y026970D01*
X008575Y026970D01*
X008695Y026730D02*
X008335Y026730D01*
X008095Y026970D01*
X008695Y026730D02*
X008935Y026490D01*
X009035Y026450D01*
X008455Y027930D02*
X005095Y027930D01*
X004615Y028410D01*
X004535Y028450D01*
X004975Y029010D02*
X004535Y029450D01*
X004975Y029010D02*
X008575Y029010D01*
X008935Y029370D01*
X009035Y029450D01*
X008335Y029850D02*
X008935Y030450D01*
X009035Y030450D01*
X008335Y029850D02*
X005935Y029850D01*
X005535Y029450D01*
X005575Y028530D02*
X005535Y028450D01*
X005575Y028530D02*
X007975Y028530D01*
X008035Y028450D01*
X008455Y027930D02*
X008935Y028410D01*
X009035Y028450D01*
X007495Y024570D02*
X003175Y024570D01*
X002575Y023970D01*
X002535Y023950D01*
X001615Y023970D02*
X001535Y023950D01*
X001615Y023970D02*
X001615Y025050D01*
X001735Y025050D01*
X001975Y025290D01*
X001975Y030450D01*
X001535Y030450D01*
X002535Y025450D02*
X002935Y025050D01*
X003655Y025050D01*
X003685Y025000D01*
X018535Y009450D02*
X018055Y008970D01*
X017575Y008970D01*
X016615Y008010D01*
X016535Y007950D01*
X016535Y003950D02*
X016615Y003930D01*
X019495Y001050D01*
X019535Y000950D01*
X037975Y006450D02*
X038455Y006930D01*
X038535Y006950D01*
X027295Y019170D02*
X026575Y019890D01*
X026535Y019950D01*
X027535Y030930D02*
X027535Y030950D01*
X027535Y030930D02*
X028015Y030930D01*
D37*
X029815Y029130D03*
X029575Y028650D03*
X030775Y028410D03*
X029575Y026730D03*
X029935Y022650D03*
X034255Y019530D03*
X033175Y018210D03*
X032935Y017610D03*
X032575Y017490D03*
X033295Y017370D03*
X034015Y017970D03*
X036175Y018210D03*
X036415Y018450D03*
X036415Y017850D03*
X037255Y019410D03*
X038215Y019290D03*
X037135Y015930D03*
X037375Y014610D03*
X037135Y012930D03*
X038215Y011970D03*
X034375Y015450D03*
X033175Y015090D03*
X032695Y015930D03*
X032215Y015690D03*
X031375Y014970D03*
X031135Y014490D03*
X030895Y014250D03*
X029815Y014730D03*
X029815Y015210D03*
X028855Y016770D03*
X029815Y017010D03*
X031495Y017730D03*
X032215Y014370D03*
X030655Y012930D03*
X028255Y012810D03*
X028375Y012090D03*
X028015Y013770D03*
X026935Y016410D03*
X027175Y017730D03*
X024295Y018210D03*
X024535Y014610D03*
X024535Y013410D03*
X031975Y005610D03*
X030415Y004410D03*
X030655Y003690D03*
X029095Y004410D03*
X032455Y003810D03*
X034135Y005370D03*
X036895Y006330D03*
X037735Y001530D03*
X035815Y001290D03*
X014215Y014010D03*
X012175Y015810D03*
X006175Y008490D03*
X007015Y008250D03*
X004975Y007050D03*
X004735Y006690D03*
X003535Y006450D03*
X002575Y007050D03*
X002935Y008490D03*
X002575Y008610D03*
X001855Y004050D03*
X003535Y003210D03*
X004735Y003810D03*
X005095Y003810D03*
X005455Y004170D03*
X005695Y003930D03*
X005095Y002970D03*
X004255Y002010D03*
X003535Y000810D03*
X006655Y002730D03*
X007135Y005730D03*
X013015Y004410D03*
X013735Y004170D03*
X013495Y002970D03*
X022735Y026730D03*
X023695Y027210D03*
X035335Y029370D03*
X035815Y026730D03*
M02*
