G75*
%MOIN*%
%OFA0B0*%
%FSLAX24Y24*%
%IPPOS*%
%LPD*%
%AMOC8*
5,1,8,0,0,1.08239X$1,22.5*
%
%ADD10C,0.0000*%
%ADD11R,0.0500X0.0220*%
%ADD12R,0.0220X0.0500*%
%ADD13OC8,0.0600*%
%ADD14C,0.0600*%
%ADD15R,0.0650X0.0650*%
%ADD16C,0.0650*%
%ADD17OC8,0.0480*%
%ADD18R,0.0585X0.0585*%
%ADD19C,0.0585*%
%ADD20OC8,0.1000*%
%ADD21C,0.0740*%
%ADD22R,0.0630X0.0250*%
%ADD23C,0.0640*%
%ADD24R,0.0709X0.0630*%
%ADD25OC8,0.0700*%
%ADD26OC8,0.0660*%
%ADD27C,0.0413*%
%ADD28C,0.0660*%
%ADD29C,0.0480*%
%ADD30R,0.0591X0.0591*%
%ADD31R,0.0630X0.0709*%
%ADD32R,0.0630X0.1181*%
%ADD33R,0.2441X0.2283*%
%ADD34R,0.0710X0.0630*%
%ADD35R,0.0740X0.0740*%
%ADD36C,0.0100*%
%ADD37C,0.0280*%
%ADD38C,0.0080*%
%ADD39C,0.0240*%
D10*
X000535Y000450D02*
X000535Y039446D01*
X039405Y039446D01*
X039405Y000450D01*
X000535Y000450D01*
D11*
X002845Y001848D03*
X002845Y002163D03*
X002845Y002478D03*
X002845Y002793D03*
X002845Y003107D03*
X002845Y003422D03*
X002845Y003737D03*
X002845Y004052D03*
X006225Y004052D03*
X006225Y003737D03*
X006225Y003422D03*
X006225Y003107D03*
X006225Y002793D03*
X006225Y002478D03*
X006225Y002163D03*
X006225Y001848D03*
D12*
X005637Y001260D03*
X005322Y001260D03*
X005008Y001260D03*
X004693Y001260D03*
X004378Y001260D03*
X004063Y001260D03*
X003748Y001260D03*
X003433Y001260D03*
X003433Y004640D03*
X003748Y004640D03*
X004063Y004640D03*
X004378Y004640D03*
X004693Y004640D03*
X005008Y004640D03*
X005322Y004640D03*
X005637Y004640D03*
D13*
X008285Y005450D03*
X008285Y006450D03*
X008285Y007450D03*
X008285Y008450D03*
X008285Y009450D03*
X009285Y009450D03*
X009285Y008450D03*
X009285Y007450D03*
X009285Y006450D03*
X009285Y005450D03*
X026535Y021950D03*
X027535Y021950D03*
X027535Y022950D03*
X026535Y022950D03*
X028535Y022950D03*
X029535Y022950D03*
X029535Y021950D03*
X028535Y021950D03*
X030535Y021950D03*
X030535Y022950D03*
X030535Y019950D03*
X031535Y019950D03*
X031535Y018950D03*
X030535Y018950D03*
X032535Y018950D03*
X033535Y018950D03*
X033535Y019950D03*
X032535Y019950D03*
X034535Y019950D03*
X035535Y019950D03*
X035535Y018950D03*
X034535Y018950D03*
X036535Y018950D03*
X037535Y018950D03*
X037535Y019950D03*
X036535Y019950D03*
X034535Y022600D03*
X024535Y029450D03*
X024535Y030450D03*
X023535Y030450D03*
X022535Y030450D03*
X022535Y029450D03*
X023535Y029450D03*
X021535Y029450D03*
X021535Y030450D03*
X014535Y023950D03*
X014535Y022950D03*
X013535Y022950D03*
X012535Y022950D03*
X012535Y023950D03*
X013535Y023950D03*
X011535Y023950D03*
X011535Y022950D03*
X009035Y026450D03*
X008035Y026450D03*
X008035Y027450D03*
X008035Y028450D03*
X009035Y028450D03*
X009035Y027450D03*
X009035Y029450D03*
X008035Y029450D03*
X008035Y030450D03*
X009035Y030450D03*
X030535Y012450D03*
X031535Y012450D03*
X031535Y011450D03*
X030535Y011450D03*
X032535Y011450D03*
X033535Y011450D03*
X033535Y012450D03*
X032535Y012450D03*
X034535Y012450D03*
X035535Y012450D03*
X035535Y011450D03*
X034535Y011450D03*
X036535Y011450D03*
X037535Y011450D03*
X037535Y012450D03*
X036535Y012450D03*
X037535Y006950D03*
X037535Y005950D03*
X037535Y004950D03*
X037535Y003950D03*
X037535Y002950D03*
X038535Y002950D03*
X038535Y003950D03*
X038535Y004950D03*
X038535Y005950D03*
X038535Y006950D03*
D14*
X035035Y008150D02*
X035035Y008750D01*
X034035Y008750D02*
X034035Y008150D01*
X033035Y008150D02*
X033035Y008750D01*
X033035Y002750D02*
X033035Y002150D01*
X034035Y002150D02*
X034035Y002750D01*
X035035Y002750D02*
X035035Y002150D01*
X036035Y002150D02*
X036035Y002750D01*
X021835Y021950D02*
X021235Y021950D01*
X021235Y022950D02*
X021835Y022950D01*
X021835Y023950D02*
X021235Y023950D01*
X021235Y024950D02*
X021835Y024950D01*
X021835Y025950D02*
X021235Y025950D01*
X021235Y026950D02*
X021835Y026950D01*
X024235Y024950D02*
X024835Y024950D01*
X024835Y023950D02*
X024235Y023950D01*
X014835Y017950D02*
X014235Y017950D01*
X014235Y016950D02*
X014835Y016950D01*
X014835Y015950D02*
X014235Y015950D01*
X012535Y005250D02*
X012535Y004650D01*
X011535Y004650D02*
X011535Y005250D01*
X011535Y003250D02*
X011535Y002650D01*
X012535Y002650D02*
X012535Y003250D01*
X001335Y005450D02*
X000735Y005450D01*
X000735Y006450D02*
X001335Y006450D01*
D15*
X003685Y021900D03*
X007185Y021900D03*
D16*
X005385Y021900D03*
X005385Y025000D03*
X003685Y025000D03*
X007185Y025000D03*
X008885Y025000D03*
X008885Y021900D03*
D17*
X002535Y022450D03*
X001535Y022450D03*
X001535Y023950D03*
X002535Y023950D03*
X002535Y025450D03*
X001535Y025450D03*
X001535Y026950D03*
X002535Y026950D03*
X002535Y028450D03*
X001535Y028450D03*
X001535Y030450D03*
X002535Y030450D03*
X016035Y025950D03*
X016035Y024950D03*
X017535Y024950D03*
X017535Y025950D03*
X019035Y025950D03*
X019035Y024950D03*
X026535Y019950D03*
X027535Y019950D03*
X027535Y018750D03*
X026535Y018750D03*
X026535Y017450D03*
X027535Y017450D03*
X027535Y015950D03*
X026535Y015950D03*
X026535Y014450D03*
X027535Y014450D03*
X027535Y012950D03*
X026535Y012950D03*
X026535Y011450D03*
X027535Y011450D03*
X030535Y007950D03*
X031535Y007950D03*
X031535Y006450D03*
X033285Y005950D03*
X033285Y006950D03*
X034035Y004450D03*
X034535Y003700D03*
X035035Y004450D03*
X031535Y004450D03*
X031535Y002950D03*
X031535Y001950D03*
X033535Y000950D03*
X034535Y000950D03*
X037535Y000950D03*
X038535Y000950D03*
X024035Y002950D03*
X024035Y003950D03*
X022035Y003950D03*
X022035Y002950D03*
X022035Y006450D03*
X022035Y007450D03*
X024035Y007450D03*
X024035Y006450D03*
X019535Y012950D03*
X016535Y012950D03*
X034535Y017950D03*
X037535Y017950D03*
X031535Y030950D03*
X030535Y030950D03*
X029535Y030950D03*
X028535Y030950D03*
X027535Y030950D03*
X026535Y030950D03*
D18*
X026535Y007950D03*
D19*
X026535Y006950D03*
X026535Y005950D03*
X026535Y004950D03*
X026535Y003950D03*
X026535Y002950D03*
X026535Y001950D03*
X029535Y001950D03*
X029535Y002950D03*
X029535Y003950D03*
X029535Y004950D03*
X029535Y005950D03*
X029535Y006950D03*
X029535Y007950D03*
D20*
X036535Y008450D03*
X038035Y008450D03*
D21*
X024535Y009450D03*
X023535Y009450D03*
X022535Y009450D03*
X022535Y011450D03*
X023535Y011450D03*
X024535Y011450D03*
X021535Y011450D03*
X019535Y011450D03*
X018535Y011450D03*
X017535Y011450D03*
X016535Y011450D03*
X014535Y011450D03*
X013535Y011450D03*
X012535Y011450D03*
X011535Y011450D03*
X012535Y009450D03*
X013535Y009450D03*
X014535Y009450D03*
X017535Y009450D03*
X018535Y009450D03*
X019535Y009450D03*
X019535Y000950D03*
X018535Y000950D03*
X017535Y000950D03*
X016535Y000950D03*
X014535Y000950D03*
X013535Y000950D03*
X012535Y000950D03*
X011535Y000950D03*
X009535Y000950D03*
X009535Y001950D03*
X009535Y002950D03*
X009535Y003950D03*
X001035Y003950D03*
X001035Y002950D03*
X001035Y001950D03*
X012535Y019950D03*
X013535Y019950D03*
X014535Y019950D03*
X017535Y019950D03*
X018535Y019950D03*
X019535Y019950D03*
X022535Y019950D03*
X023535Y019950D03*
X024535Y019950D03*
X026535Y023950D03*
X027535Y023950D03*
X028535Y023950D03*
X029535Y023950D03*
X030535Y023950D03*
X031535Y023950D03*
X032535Y023950D03*
X033535Y023950D03*
X034535Y023950D03*
X035535Y023950D03*
X036535Y023950D03*
X037535Y023950D03*
X038535Y024450D03*
X038535Y025450D03*
X038535Y026450D03*
X038535Y027450D03*
X038535Y028450D03*
X038535Y029450D03*
X037535Y029950D03*
X036535Y029950D03*
X035535Y029950D03*
X034535Y029950D03*
X033535Y029950D03*
X032535Y029950D03*
X031535Y029950D03*
X030535Y029950D03*
X029535Y029950D03*
X028535Y029950D03*
X027535Y029950D03*
X026535Y029950D03*
X026535Y025950D03*
X026535Y024950D03*
X033098Y025075D03*
X034098Y025075D03*
X035535Y022600D03*
X036535Y022600D03*
X037535Y022600D03*
X037535Y031100D03*
X036535Y031100D03*
X035535Y031100D03*
X038535Y031100D03*
X024535Y000950D03*
X023535Y000950D03*
X022535Y000950D03*
X021535Y000950D03*
D22*
X014485Y006700D03*
X014485Y007200D03*
X014485Y007700D03*
X014485Y008200D03*
X011585Y008200D03*
X011585Y007700D03*
X011585Y007200D03*
X011585Y006700D03*
D23*
X005535Y027450D03*
X004535Y027450D03*
X004535Y028450D03*
X005535Y028450D03*
X005535Y029450D03*
X004535Y029450D03*
D24*
X021535Y014001D03*
X022535Y014001D03*
X023535Y014001D03*
X024535Y014001D03*
X024535Y012899D03*
X023535Y012899D03*
X022535Y012899D03*
X021535Y012899D03*
X018035Y007001D03*
X018035Y005899D03*
X018035Y004001D03*
X018035Y002899D03*
D25*
X016535Y002950D03*
X016535Y003950D03*
X016535Y004950D03*
X016535Y005950D03*
X016535Y006950D03*
X016535Y007950D03*
X016535Y001950D03*
X016535Y000950D03*
X016535Y029950D03*
X017535Y029950D03*
X018535Y029950D03*
X019535Y029950D03*
X015535Y029950D03*
X014535Y029950D03*
X013535Y029950D03*
X012535Y029950D03*
X011535Y029950D03*
D26*
X011535Y028950D03*
X011535Y027950D03*
X012535Y027950D03*
X013535Y027950D03*
X013535Y028950D03*
X012535Y028950D03*
X014535Y028950D03*
X015535Y028950D03*
X015535Y027950D03*
X014535Y027950D03*
X016535Y027950D03*
X017535Y027950D03*
X017535Y028950D03*
X016535Y028950D03*
X018535Y028950D03*
X019535Y028950D03*
X019535Y027950D03*
X018535Y027950D03*
D27*
X018285Y023157D02*
X018285Y022743D01*
X017785Y022743D02*
X017785Y023157D01*
X017285Y023157D02*
X017285Y022743D01*
X016785Y022743D02*
X016785Y023157D01*
X001392Y009500D02*
X000978Y009500D01*
X000978Y009000D02*
X001392Y009000D01*
X001392Y008500D02*
X000978Y008500D01*
X000978Y008000D02*
X001392Y008000D01*
X032785Y030743D02*
X032785Y031157D01*
X033285Y031157D02*
X033285Y030743D01*
X033785Y030743D02*
X033785Y031157D01*
X034285Y031157D02*
X034285Y030743D01*
D28*
X038759Y019450D03*
X038759Y018450D03*
X038759Y017450D03*
X038759Y016450D03*
X038759Y015450D03*
X038759Y014450D03*
X038759Y013450D03*
X038759Y012450D03*
X029311Y012450D03*
X029311Y013450D03*
X029311Y014450D03*
X029311Y015450D03*
X029311Y016450D03*
X029311Y017450D03*
X029311Y018450D03*
X029311Y019450D03*
D29*
X030535Y016990D02*
X030535Y016510D01*
X031535Y016510D02*
X031535Y016990D01*
X032535Y016990D02*
X032535Y016510D01*
X033535Y016510D02*
X033535Y016990D01*
X034535Y016990D02*
X034535Y016510D01*
X035535Y016510D02*
X035535Y016990D01*
X036535Y016990D02*
X036535Y016510D01*
X037535Y016510D02*
X037535Y016990D01*
X037535Y013990D02*
X037535Y013510D01*
X036535Y013510D02*
X036535Y013990D01*
X035535Y013990D02*
X035535Y013510D01*
X034535Y013510D02*
X034535Y013990D01*
X033535Y013990D02*
X033535Y013510D01*
X032535Y013510D02*
X032535Y013990D01*
X031535Y013990D02*
X031535Y013510D01*
X030535Y013510D02*
X030535Y013990D01*
D30*
X024535Y016261D03*
X023535Y016261D03*
X022535Y016261D03*
X021535Y016261D03*
X021535Y017639D03*
X022535Y017639D03*
X023535Y017639D03*
X024535Y017639D03*
X019035Y017450D03*
X017035Y017450D03*
X017035Y014450D03*
X019035Y014450D03*
D31*
X004086Y009450D03*
X002984Y009450D03*
X002984Y007950D03*
X004086Y007950D03*
X004086Y006450D03*
X002984Y006450D03*
D32*
X011535Y016477D03*
X013335Y016477D03*
D33*
X012435Y013650D03*
D34*
X014535Y013390D03*
X014535Y014510D03*
X014385Y005560D03*
X014385Y004440D03*
D35*
X016535Y009450D03*
X021535Y009450D03*
X011535Y009450D03*
X001035Y000950D03*
X011535Y019950D03*
X016535Y019950D03*
X021535Y019950D03*
X038535Y022600D03*
D36*
X037615Y022650D02*
X037535Y022600D01*
X037495Y022530D01*
X037495Y022050D01*
X030535Y022050D01*
X030535Y021950D01*
X036535Y023950D02*
X036535Y028890D01*
X036295Y029130D01*
X034535Y029950D02*
X034495Y029970D01*
X033895Y030570D01*
X033895Y030930D01*
X033785Y030950D01*
X037535Y023950D02*
X037615Y023850D01*
X037615Y022650D01*
X024535Y024950D02*
X024535Y029450D01*
X019535Y029950D02*
X019495Y029850D01*
X019015Y029370D01*
X019015Y026490D01*
X017935Y025410D01*
X017935Y023130D01*
X017815Y023010D01*
X017785Y022950D01*
X013255Y017610D02*
X013255Y016530D01*
X013335Y016477D01*
X005815Y008610D02*
X005935Y008490D01*
X005935Y006450D01*
X007375Y006930D02*
X007375Y003330D01*
X007135Y003090D01*
X007135Y001770D01*
X006225Y002163D02*
X006175Y002250D01*
X004495Y002250D01*
X003295Y002850D02*
X003295Y003210D01*
X003175Y003330D01*
X002935Y003330D01*
X002845Y003422D01*
X002815Y003450D01*
X002215Y003450D01*
X002575Y003090D02*
X002815Y003090D01*
X002845Y003107D01*
X002575Y003090D02*
X002455Y002970D01*
X002455Y002850D01*
X001975Y002850D01*
X001615Y002490D02*
X001615Y005850D01*
X001975Y005850D01*
X001975Y008730D01*
X002455Y009210D01*
X001735Y008970D02*
X001735Y007050D01*
X001135Y006450D01*
X001035Y006450D01*
X001135Y005850D02*
X001135Y005490D01*
X001035Y005450D01*
X001135Y005850D02*
X001615Y005850D01*
X002455Y002850D02*
X002455Y002490D01*
X002815Y002490D01*
X002845Y002478D01*
X002845Y002793D02*
X002935Y002850D01*
X003295Y002850D01*
X001615Y002490D02*
X001135Y002010D01*
X001035Y001950D01*
X001035Y000950D02*
X001135Y000930D01*
X006225Y003107D02*
X006295Y003090D01*
X007135Y003090D01*
X001735Y008970D02*
X001255Y008970D01*
X001185Y009000D01*
X026535Y007950D02*
X026575Y007890D01*
X029095Y007890D01*
X029095Y007770D01*
X029455Y007410D01*
X031015Y007410D01*
X031495Y007890D01*
X031535Y007950D01*
X031015Y007410D02*
X030895Y007290D01*
X030895Y003810D01*
X031535Y004450D01*
X032215Y005010D02*
X031735Y005490D01*
X031735Y006330D01*
X031615Y006450D01*
X031535Y006450D01*
X032215Y005010D02*
X032215Y002370D01*
X033535Y001050D01*
X033535Y000950D01*
X033535Y001050D02*
X034495Y002010D01*
X034495Y003690D01*
X034535Y003700D01*
X035035Y004450D02*
X035095Y004410D01*
X035455Y004050D01*
X035455Y001050D01*
X037495Y001050D01*
X037535Y000950D01*
X037495Y001050D02*
X037495Y002850D01*
X037535Y002950D01*
X036055Y002490D02*
X036035Y002450D01*
X036055Y002490D02*
X036055Y007890D01*
X036535Y008370D01*
X036535Y008450D01*
X030895Y003810D02*
X030895Y002610D01*
X031495Y002010D01*
X031535Y001950D01*
X032215Y002370D02*
X031615Y002970D01*
X031535Y002950D01*
D37*
X013255Y017610D03*
X005815Y008610D03*
X007375Y006930D03*
X005935Y006450D03*
X002455Y009210D03*
X001975Y005850D03*
X002215Y003450D03*
X001975Y002850D03*
X004495Y002250D03*
X007135Y001770D03*
X036295Y029130D03*
D38*
X035335Y029370D02*
X035335Y026370D01*
X034135Y025170D01*
X034098Y025075D01*
X033655Y024570D02*
X032575Y024570D01*
X032575Y029850D01*
X032535Y029950D01*
X032785Y030950D02*
X032695Y031050D01*
X031615Y031050D01*
X031535Y030950D01*
X031015Y031290D02*
X031015Y024450D01*
X031495Y023970D01*
X031535Y023950D01*
X030535Y023950D02*
X030535Y025890D01*
X030055Y026370D01*
X030055Y030450D01*
X030535Y030930D01*
X030535Y030950D01*
X031015Y031290D02*
X029335Y031290D01*
X029095Y031050D01*
X028615Y031050D01*
X028535Y030950D01*
X029535Y029950D02*
X029575Y029850D01*
X029575Y028650D01*
X029815Y029130D02*
X029815Y026370D01*
X030055Y026130D01*
X030055Y023490D01*
X029575Y023010D01*
X029535Y022950D01*
X029935Y022650D02*
X029935Y022410D01*
X029575Y022050D01*
X029535Y021950D01*
X029095Y022530D02*
X029095Y023490D01*
X029455Y023850D01*
X029535Y023950D01*
X028015Y023490D02*
X028015Y024450D01*
X026575Y025890D01*
X026535Y025950D01*
X026535Y024950D02*
X026575Y024930D01*
X027055Y024450D01*
X027055Y022530D01*
X027535Y022050D01*
X027535Y021950D01*
X027535Y022950D02*
X027535Y023010D01*
X028015Y023490D01*
X029095Y022530D02*
X028615Y022050D01*
X028535Y021950D01*
X030535Y019950D02*
X030535Y019890D01*
X029695Y019050D01*
X030055Y018690D01*
X030055Y011970D01*
X030535Y011490D01*
X030535Y011450D01*
X031135Y011850D02*
X031135Y014490D01*
X031135Y019530D01*
X031495Y019890D01*
X031535Y019950D01*
X031535Y018950D02*
X031495Y018930D01*
X031495Y017730D01*
X031975Y017250D01*
X031975Y014130D01*
X031975Y012810D01*
X031615Y012450D01*
X031535Y012450D01*
X030895Y012810D02*
X030535Y012450D01*
X030655Y012930D02*
X030655Y013530D01*
X030535Y013650D01*
X030535Y013750D01*
X030895Y014250D02*
X030895Y012810D01*
X031135Y011850D02*
X031535Y011450D01*
X032535Y011450D02*
X032935Y011850D01*
X032935Y017610D01*
X032935Y019530D01*
X032575Y019890D01*
X032535Y019950D01*
X033535Y019950D02*
X033535Y019890D01*
X034135Y019290D01*
X034135Y017970D01*
X034015Y017970D01*
X034135Y017970D02*
X034135Y012090D01*
X033535Y011490D01*
X033535Y011450D01*
X033535Y012450D02*
X033535Y013750D01*
X033535Y013770D01*
X033895Y014130D01*
X033895Y017130D01*
X033775Y017250D01*
X033775Y018690D01*
X033535Y018930D01*
X033535Y018950D01*
X033175Y018210D02*
X033295Y018090D01*
X033295Y017370D01*
X033535Y016750D02*
X033535Y015450D01*
X033175Y015090D01*
X032575Y015810D02*
X032575Y013770D01*
X032535Y013750D01*
X032575Y013650D01*
X032575Y012450D01*
X032535Y012450D01*
X031975Y014130D02*
X032215Y014370D01*
X031495Y015090D02*
X031495Y016650D01*
X031535Y016750D01*
X032455Y016650D02*
X032455Y015930D01*
X032215Y015690D01*
X032575Y015810D02*
X032695Y015930D01*
X032455Y016650D02*
X032535Y016750D01*
X032575Y017490D02*
X032575Y018930D01*
X032535Y018950D01*
X030895Y018570D02*
X030895Y014250D01*
X031375Y014970D02*
X031495Y015090D01*
X029815Y015210D02*
X029815Y014970D01*
X029215Y014970D01*
X028855Y014610D01*
X028855Y012570D01*
X028375Y012090D01*
X028135Y012330D02*
X028135Y011610D01*
X028255Y011490D01*
X029815Y011490D01*
X029815Y014730D01*
X029311Y015450D02*
X029215Y015450D01*
X028615Y016050D01*
X028615Y019410D01*
X027175Y019410D01*
X026575Y018810D01*
X026535Y018750D01*
X027055Y017970D02*
X028015Y017970D01*
X028015Y013770D01*
X027535Y012950D02*
X027535Y012930D01*
X028135Y012330D01*
X028255Y012810D02*
X028255Y017970D01*
X027535Y018690D01*
X027535Y018750D01*
X027055Y017970D02*
X026935Y017850D01*
X026935Y017250D01*
X026695Y017010D01*
X026695Y016170D01*
X026575Y016050D01*
X026535Y015950D01*
X026935Y016410D02*
X026935Y013410D01*
X026575Y013050D01*
X026535Y012950D01*
X027175Y012090D02*
X027175Y017730D01*
X028855Y016770D02*
X029215Y017130D01*
X029215Y017370D01*
X029311Y017450D01*
X029815Y017010D02*
X029335Y016530D01*
X029311Y016450D01*
X030895Y018570D02*
X030535Y018930D01*
X030535Y018950D01*
X029695Y019050D02*
X029335Y019410D01*
X029311Y019450D01*
X033535Y023610D02*
X033535Y023950D01*
X033535Y023610D02*
X034495Y022650D01*
X034535Y022600D01*
X034735Y023370D02*
X034015Y023370D01*
X034015Y024210D01*
X033655Y024570D01*
X034735Y023370D02*
X035455Y022650D01*
X035535Y022600D01*
X035535Y023950D02*
X035575Y023970D01*
X035575Y029850D01*
X035535Y029950D01*
X036055Y030570D02*
X035575Y031050D01*
X035535Y031100D01*
X036055Y030570D02*
X036055Y026970D01*
X035815Y026730D01*
X030775Y028410D02*
X030775Y029610D01*
X030535Y029850D01*
X030535Y029950D01*
X029575Y026730D02*
X027055Y029250D01*
X027055Y030450D01*
X026575Y030930D01*
X026535Y030950D01*
X023535Y029450D02*
X023455Y029370D01*
X023455Y024930D01*
X021535Y023010D01*
X021535Y022950D01*
X021535Y023950D02*
X021535Y023970D01*
X022495Y024930D01*
X022495Y029370D01*
X022535Y029450D01*
X022255Y029130D02*
X022015Y029370D01*
X022015Y029970D01*
X021535Y030450D01*
X022535Y030450D02*
X022615Y030450D01*
X022975Y030090D01*
X022975Y026970D01*
X022735Y026730D01*
X022255Y025770D02*
X022255Y029130D01*
X023695Y027210D02*
X023695Y024810D01*
X024535Y023970D01*
X024535Y023950D01*
X022255Y025770D02*
X021535Y025050D01*
X021535Y024950D01*
X019495Y026370D02*
X019495Y027930D01*
X019535Y027950D01*
X018535Y027950D02*
X018535Y027450D01*
X016975Y027450D01*
X015655Y026130D01*
X015655Y022290D01*
X013135Y022290D01*
X012535Y022890D01*
X012535Y022950D01*
X012535Y023950D02*
X012535Y023970D01*
X013615Y025050D01*
X013615Y027090D01*
X014455Y027930D01*
X014535Y027950D01*
X015055Y027810D02*
X015055Y028170D01*
X015295Y028410D01*
X017455Y028410D01*
X017455Y028050D01*
X017535Y027950D01*
X016535Y027950D02*
X016495Y027930D01*
X015415Y026850D01*
X015415Y023850D01*
X014575Y023010D01*
X014535Y022950D01*
X014095Y023490D02*
X014095Y026490D01*
X015535Y027930D01*
X015535Y027950D01*
X015055Y027810D02*
X013855Y026610D01*
X013855Y024210D01*
X013615Y023970D01*
X013535Y023950D01*
X014095Y023490D02*
X013615Y023010D01*
X013535Y022950D01*
X016135Y023610D02*
X016135Y024930D01*
X016035Y024950D01*
X017455Y024930D02*
X017535Y024950D01*
X017455Y024930D02*
X017455Y023130D01*
X017335Y023010D01*
X017285Y022950D01*
X016785Y022950D02*
X016735Y023010D01*
X016135Y023610D01*
X018295Y023010D02*
X018285Y022950D01*
X018295Y023010D02*
X019015Y023730D01*
X019015Y024930D01*
X019035Y024950D01*
X019035Y025950D02*
X019135Y026010D01*
X019495Y026370D01*
X018535Y019950D02*
X018535Y019890D01*
X019495Y018930D01*
X019495Y013050D01*
X019535Y012950D01*
X019035Y014450D02*
X019015Y014490D01*
X019015Y017370D01*
X019035Y017450D01*
X019015Y017490D01*
X016615Y019890D01*
X016535Y019950D01*
X014535Y017950D02*
X014455Y017850D01*
X012895Y017850D01*
X012895Y015810D01*
X013975Y014730D01*
X013975Y013890D01*
X014455Y013410D01*
X014535Y013390D01*
X014575Y013290D01*
X014575Y011490D01*
X014535Y011450D01*
X016615Y012330D02*
X016615Y012930D01*
X016535Y012950D01*
X016615Y013050D01*
X016975Y013410D01*
X016975Y014370D01*
X017035Y014450D01*
X016615Y012330D02*
X017455Y011490D01*
X017535Y011450D01*
X016615Y009450D02*
X016535Y009450D01*
X016615Y009450D02*
X017095Y008970D01*
X017095Y006450D01*
X016615Y005970D01*
X016535Y005950D01*
X017575Y006570D02*
X017935Y006930D01*
X018035Y007001D01*
X018055Y007050D01*
X018535Y007530D01*
X018535Y009450D01*
X021535Y009450D02*
X022015Y008970D01*
X022015Y007530D01*
X022035Y007450D01*
X022135Y007410D01*
X023935Y007410D01*
X024035Y007450D01*
X024055Y006450D02*
X024035Y006450D01*
X024055Y006450D02*
X024055Y004050D01*
X024035Y003950D01*
X024035Y002950D02*
X022615Y001530D01*
X022615Y001050D01*
X022535Y000950D01*
X021535Y000950D02*
X021535Y002370D01*
X022015Y002850D01*
X022035Y002950D01*
X022035Y003950D02*
X022135Y004050D01*
X022135Y006450D01*
X022035Y006450D01*
X018535Y005370D02*
X018535Y003570D01*
X017575Y003570D01*
X017575Y003930D01*
X016615Y004890D01*
X016535Y004950D01*
X017575Y004410D02*
X017575Y006570D01*
X018035Y005899D02*
X018055Y005850D01*
X018535Y005370D01*
X017575Y004410D02*
X017935Y004050D01*
X018035Y004001D01*
X018535Y003570D02*
X018535Y000950D01*
X018035Y002899D02*
X017935Y002970D01*
X016975Y003930D01*
X016615Y003930D01*
X016535Y003950D01*
X014455Y005610D02*
X014385Y005560D01*
X014455Y005610D02*
X014455Y006690D01*
X014485Y006700D01*
X014575Y006690D01*
X014935Y007050D01*
X014935Y001410D01*
X014575Y001050D01*
X014535Y000950D01*
X013135Y002250D02*
X011935Y002250D01*
X011935Y003690D01*
X011575Y004050D01*
X011575Y004890D01*
X011535Y004950D01*
X012535Y004950D02*
X012535Y007170D01*
X011695Y007170D01*
X011585Y007200D01*
X011575Y007290D01*
X011575Y007650D01*
X011585Y007700D01*
X011695Y008130D02*
X011585Y008200D01*
X011695Y008130D02*
X013015Y008130D01*
X013015Y004410D01*
X013735Y004170D02*
X013735Y007170D01*
X014455Y007170D01*
X014485Y007200D01*
X014455Y007650D02*
X014485Y007700D01*
X014455Y007650D02*
X013495Y007650D01*
X013495Y002970D01*
X013735Y002850D02*
X013135Y002250D01*
X013735Y002850D02*
X013735Y003810D01*
X014335Y004410D01*
X014385Y004440D01*
X012535Y003330D02*
X012535Y002950D01*
X012535Y003330D02*
X012055Y003810D01*
X012055Y006330D01*
X011695Y006690D01*
X011585Y006700D01*
X009775Y007890D02*
X009775Y005370D01*
X009055Y004650D01*
X009055Y000690D01*
X006535Y000690D01*
X006055Y001170D01*
X005695Y001170D01*
X005637Y001260D01*
X005335Y001290D02*
X005322Y001260D01*
X005335Y001290D02*
X005335Y001530D01*
X005455Y001650D01*
X005815Y001650D01*
X006535Y000930D01*
X007855Y000930D01*
X007855Y007050D01*
X008215Y007410D01*
X008285Y007450D01*
X008095Y007890D02*
X009175Y007890D01*
X009175Y007530D01*
X009285Y007450D01*
X009775Y007890D02*
X009295Y008370D01*
X009285Y008450D01*
X008095Y007890D02*
X007615Y007410D01*
X007615Y001170D01*
X006895Y001170D01*
X006295Y001770D01*
X006225Y001848D01*
X006225Y002478D02*
X006175Y002490D01*
X005695Y002490D01*
X005695Y003930D01*
X005455Y003810D02*
X005455Y004170D01*
X005455Y003810D02*
X004855Y003210D01*
X005095Y002970D01*
X004855Y003210D02*
X003895Y002250D01*
X003895Y001890D01*
X002935Y001890D01*
X002845Y001848D01*
X002845Y002163D02*
X002935Y002250D01*
X003535Y002250D01*
X003535Y003210D01*
X003535Y003930D01*
X003175Y004290D01*
X003175Y004890D01*
X003415Y005130D01*
X003415Y006330D01*
X003535Y006450D01*
X002984Y006450D02*
X002935Y006450D01*
X002575Y006810D01*
X002575Y007050D01*
X002984Y007950D02*
X002935Y008010D01*
X002935Y008490D01*
X002575Y008610D02*
X002575Y008730D01*
X003295Y008730D01*
X004015Y008010D01*
X004086Y007950D01*
X004135Y007290D02*
X004135Y006450D01*
X004086Y006450D01*
X004735Y006690D02*
X004735Y006210D01*
X003535Y005010D01*
X003535Y004650D01*
X003433Y004640D01*
X002845Y004052D02*
X002815Y004050D01*
X001855Y004050D01*
X004375Y004650D02*
X004378Y004640D01*
X004375Y004650D02*
X004375Y005610D01*
X004975Y006210D01*
X004975Y007050D01*
X005095Y007290D02*
X004135Y007290D01*
X005095Y007290D02*
X005575Y006810D01*
X005575Y004650D01*
X005637Y004640D01*
X006175Y004050D02*
X006225Y004052D01*
X006175Y004050D02*
X006175Y008490D01*
X006655Y008370D02*
X005575Y009450D01*
X004086Y009450D01*
X002984Y009450D02*
X001255Y009450D01*
X001185Y009500D01*
X004693Y004640D02*
X004735Y004530D01*
X004735Y003810D01*
X005095Y003810D02*
X005095Y004530D01*
X005008Y004640D01*
X006225Y003737D02*
X006295Y003810D01*
X006655Y003810D01*
X006655Y008370D01*
X007015Y008250D02*
X008215Y009450D01*
X008285Y009450D01*
X007135Y005730D02*
X007135Y003450D01*
X006295Y003450D01*
X006225Y003422D01*
X006225Y002793D02*
X006295Y002730D01*
X006655Y002730D01*
X004255Y002010D02*
X003775Y001530D01*
X003775Y001290D01*
X003748Y001260D01*
X003535Y001170D02*
X003433Y001260D01*
X003535Y001170D02*
X003535Y000810D01*
X014485Y008200D02*
X014575Y008130D01*
X014935Y008130D01*
X014935Y007050D01*
X021535Y011450D02*
X021535Y012899D01*
X022535Y012899D02*
X022615Y012810D01*
X022615Y011490D01*
X022535Y011450D01*
X023535Y011450D02*
X023575Y011490D01*
X023575Y012810D01*
X023535Y012899D01*
X024535Y012899D02*
X024535Y013410D01*
X024535Y014001D02*
X024535Y014010D01*
X024055Y014490D01*
X024055Y019410D01*
X024535Y019890D01*
X024535Y019950D01*
X024295Y018210D02*
X024295Y017970D01*
X024535Y017730D01*
X024535Y017639D01*
X023535Y017639D02*
X023455Y017730D01*
X022615Y017730D01*
X022535Y017639D01*
X022495Y017730D01*
X021535Y017730D01*
X021535Y017639D01*
X021535Y017730D02*
X021535Y019950D01*
X021535Y016261D02*
X021535Y014001D01*
X022495Y014010D02*
X022535Y014001D01*
X022495Y014010D02*
X022495Y016170D01*
X022535Y016261D01*
X023535Y016261D02*
X023575Y016170D01*
X023575Y014010D01*
X023535Y014001D01*
X024535Y014610D02*
X024535Y016261D01*
X027175Y012090D02*
X026535Y011450D01*
X026535Y006950D02*
X026575Y006930D01*
X029095Y004410D01*
X030415Y004410D02*
X030415Y003810D01*
X029575Y002970D01*
X029535Y002950D01*
X029095Y002850D02*
X029095Y001770D01*
X029455Y001410D01*
X031975Y001410D01*
X031975Y002010D01*
X031135Y002850D01*
X031135Y003450D01*
X031975Y004290D01*
X031975Y005010D01*
X031135Y005850D01*
X031135Y007050D01*
X032575Y008490D01*
X032575Y008970D01*
X032815Y009210D01*
X034975Y009210D01*
X034975Y008490D01*
X035035Y008450D01*
X034035Y008450D02*
X034015Y008370D01*
X034015Y007170D01*
X032935Y006090D01*
X032935Y004290D01*
X032455Y003810D01*
X033055Y002490D02*
X033035Y002450D01*
X033055Y002490D02*
X034015Y003450D01*
X034015Y004410D01*
X034035Y004450D01*
X034015Y004530D01*
X034015Y005130D01*
X033295Y005850D01*
X033285Y005950D01*
X032935Y006570D02*
X032935Y008370D01*
X033035Y008450D01*
X032935Y006570D02*
X031975Y005610D01*
X030655Y005850D02*
X030655Y003690D01*
X029095Y002850D02*
X026575Y002850D01*
X026535Y002950D01*
X029535Y006950D02*
X029575Y006930D01*
X030655Y005850D01*
X034135Y005370D02*
X034615Y004890D01*
X034615Y004170D01*
X034975Y003810D01*
X034975Y002490D01*
X035035Y002450D01*
X035815Y001290D02*
X037135Y002610D01*
X037135Y004530D01*
X037495Y004890D01*
X037535Y004950D01*
X038095Y005490D02*
X038455Y005850D01*
X038535Y005950D01*
X038095Y005490D02*
X038095Y001890D01*
X037735Y001530D01*
X037535Y005950D02*
X037495Y005970D01*
X037495Y006330D01*
X036895Y006330D01*
X038095Y007410D02*
X038095Y008370D01*
X038035Y008450D01*
X038095Y007410D02*
X038455Y007050D01*
X038535Y006950D01*
X037535Y011450D02*
X037615Y011490D01*
X037975Y011850D01*
X037975Y015690D01*
X037975Y019530D01*
X037615Y019890D01*
X037535Y019950D01*
X037255Y019410D02*
X035935Y019410D01*
X035935Y011850D01*
X035535Y011450D01*
X036535Y011490D02*
X036535Y011450D01*
X036535Y011490D02*
X037015Y011970D01*
X037015Y012570D01*
X036895Y012690D01*
X036895Y014130D01*
X036175Y014850D01*
X036175Y018210D01*
X036415Y018450D02*
X036895Y017970D01*
X036895Y014370D01*
X037135Y014130D01*
X037135Y012930D01*
X037535Y013750D02*
X037495Y013770D01*
X037375Y013890D01*
X037375Y014610D01*
X037975Y015690D02*
X038695Y016410D01*
X038759Y016450D01*
X037135Y015930D02*
X037135Y017490D01*
X037495Y017850D01*
X037535Y017950D01*
X036535Y017730D02*
X036535Y016750D01*
X036535Y017730D02*
X036415Y017850D01*
X035455Y017850D02*
X035455Y016770D01*
X035535Y016750D01*
X034535Y016750D02*
X034495Y016650D01*
X034495Y015570D01*
X034375Y015450D01*
X034975Y014250D02*
X034975Y018090D01*
X034615Y018450D01*
X034615Y018930D01*
X034535Y018950D01*
X035095Y019530D02*
X035095Y018210D01*
X035455Y017850D01*
X035935Y019410D02*
X035935Y019530D01*
X035575Y019890D01*
X035535Y019950D01*
X035095Y019530D02*
X034255Y019530D01*
X038215Y019290D02*
X038215Y018930D01*
X038695Y018450D01*
X038759Y018450D01*
X034975Y014250D02*
X035455Y013770D01*
X035535Y013750D01*
X038215Y012930D02*
X038215Y011970D01*
X038215Y012930D02*
X038695Y013410D01*
X038759Y013450D01*
X014535Y014510D02*
X014455Y014490D01*
X014215Y014250D01*
X014215Y014010D01*
X012435Y013650D02*
X012415Y013650D01*
X012415Y019050D01*
X011575Y019890D01*
X011535Y019950D01*
X011535Y016477D02*
X011575Y016410D01*
X012175Y015810D01*
X007255Y021930D02*
X007185Y021900D01*
X007255Y021930D02*
X007615Y022290D01*
X007615Y029010D01*
X007975Y029370D01*
X008035Y029450D01*
X008035Y030450D02*
X004975Y030450D01*
X004975Y027810D01*
X004615Y027450D01*
X004535Y027450D01*
X004495Y027450D01*
X004495Y022650D01*
X003775Y021930D01*
X003685Y021900D01*
X001535Y022450D02*
X001495Y022530D01*
X001135Y022890D01*
X001135Y028050D01*
X001535Y028450D01*
X001615Y027570D02*
X001615Y026970D01*
X001535Y026950D01*
X001615Y026850D01*
X001615Y025530D01*
X001535Y025450D01*
X001615Y027570D02*
X002455Y028410D01*
X002535Y028450D01*
X002575Y028530D01*
X002575Y030450D01*
X002535Y030450D01*
D39*
X012175Y015810D03*
X014215Y014010D03*
X007015Y008250D03*
X006175Y008490D03*
X004975Y007050D03*
X004735Y006690D03*
X003535Y006450D03*
X002575Y007050D03*
X002935Y008490D03*
X002575Y008610D03*
X001855Y004050D03*
X003535Y003210D03*
X004735Y003810D03*
X005095Y003810D03*
X005455Y004170D03*
X005695Y003930D03*
X005095Y002970D03*
X004255Y002010D03*
X003535Y000810D03*
X006655Y002730D03*
X007135Y005730D03*
X013015Y004410D03*
X013735Y004170D03*
X013495Y002970D03*
X024535Y013410D03*
X024535Y014610D03*
X026935Y016410D03*
X027175Y017730D03*
X028855Y016770D03*
X029815Y017010D03*
X031495Y017730D03*
X032575Y017490D03*
X032935Y017610D03*
X033295Y017370D03*
X034015Y017970D03*
X033175Y018210D03*
X034255Y019530D03*
X036175Y018210D03*
X036415Y018450D03*
X036415Y017850D03*
X037255Y019410D03*
X038215Y019290D03*
X037135Y015930D03*
X037375Y014610D03*
X037135Y012930D03*
X038215Y011970D03*
X034375Y015450D03*
X033175Y015090D03*
X032695Y015930D03*
X032215Y015690D03*
X031375Y014970D03*
X031135Y014490D03*
X030895Y014250D03*
X029815Y014730D03*
X029815Y015210D03*
X028015Y013770D03*
X028255Y012810D03*
X028375Y012090D03*
X030655Y012930D03*
X032215Y014370D03*
X024295Y018210D03*
X029935Y022650D03*
X029575Y026730D03*
X030775Y028410D03*
X029815Y029130D03*
X029575Y028650D03*
X023695Y027210D03*
X022735Y026730D03*
X035335Y029370D03*
X035815Y026730D03*
X036895Y006330D03*
X034135Y005370D03*
X032455Y003810D03*
X030655Y003690D03*
X030415Y004410D03*
X031975Y005610D03*
X029095Y004410D03*
X035815Y001290D03*
X037735Y001530D03*
M02*
