M48
INCH,TZ
T10C0.012
T11C0.016
T12C0.028
T13C0.032
T14C0.032
T15C0.035
T16C0.039
T17C0.039
T18C0.040
T19C0.044
T20C0.024
%
T10
X003535Y000810
X004255Y002010
X005095Y002970
X005095Y003810
X004735Y003810
X005455Y004170
X005695Y003930
X006655Y002730
X007135Y005730
X004975Y007050
X004735Y006690
X003535Y006450
X002575Y007050
X002935Y008490
X002575Y008610
X006175Y008490
X007015Y008250
X003535Y003210
X001855Y004050
X013015Y004410
X013735Y004170
X013495Y002970
X014215Y014010
X012175Y015810
X022735Y026730
X023695Y027210
X029575Y026730
X030775Y028410
X029815Y029130
X029575Y028650
X035335Y029370
X035815Y026730
X029935Y022650
X034255Y019530
X033175Y018210
X032935Y017610
X032575Y017490
X033295Y017370
X034015Y017970
X036175Y018210
X036415Y018450
X036415Y017850
X037255Y019410
X038215Y019290
X037135Y015930
X037375Y014610
X037135Y012930
X038215Y011970
X034375Y015450
X033175Y015090
X032695Y015930
X032215Y015690
X031375Y014970
X031135Y014490
X030895Y014250
X029815Y014730
X029815Y015210
X028855Y016770
X029815Y017010
X031495Y017730
X032215Y014370
X030655Y012930
X028255Y012810
X028375Y012090
X028015Y013770
X026935Y016410
X027175Y017730
X024295Y018210
X024535Y014610
X024535Y013410
X031975Y005610
X030415Y004410
X030655Y003690
X029095Y004410
X032455Y003810
X034135Y005370
X036895Y006330
X037735Y001530
X035815Y001290
X003535Y011260
X004255Y012460
X005095Y013420
X005095Y014260
X004735Y014260
X005455Y014620
X005695Y014380
X006655Y013180
X003535Y013660
X001855Y014500
X003535Y016900
X002575Y017500
X002935Y018940
X002575Y019060
X004735Y017140
X004975Y017500
X006175Y018940
X007015Y018700
X007135Y016180
T11
X001975Y002850
X002215Y003450
X001975Y005850
X002455Y009210
X005815Y008610
X007375Y006930
X005935Y006450
X004495Y002250
X007135Y001770
X013255Y017610
X036295Y029130
X002455Y019660
X005815Y019060
X007375Y017380
X005935Y016900
X002215Y013900
X001975Y013300
X004495Y012700
X007135Y012220
X001975Y016300
T12
X016785Y022950
X017285Y022950
X017785Y022950
X018285Y022950
X032785Y030950
X033285Y030950
X033785Y030950
X034285Y030950
X001185Y009500
X001185Y009000
X001185Y008500
X001185Y008000
X001185Y019950
X001185Y019450
X001185Y018950
X001185Y018450
T13
X029311Y012450
X029311Y013450
X029311Y014450
X029311Y015450
X029311Y016450
X029311Y017450
X029311Y018450
X029311Y019450
X038759Y019450
X038759Y018450
X038759Y017450
X038759Y016450
X038759Y015450
X038759Y014450
X038759Y013450
X038759Y012450
T14
X016535Y012950
X019535Y012950
X022035Y007450
X022035Y006450
X024035Y006450
X024035Y007450
X024035Y003950
X024035Y002950
X022035Y002950
X022035Y003950
X026535Y011450
X027535Y011450
X027535Y012950
X026535Y012950
X026535Y014450
X027535Y014450
X027535Y015950
X026535Y015950
X026535Y017450
X027535Y017450
X027535Y018750
X026535Y018750
X026535Y019950
X027535Y019950
X030535Y016750
X031535Y016750
X032535Y016750
X033535Y016750
X034535Y016750
X035535Y016750
X036535Y016750
X037535Y016750
X037535Y017950
X034535Y017950
X034535Y013750
X035535Y013750
X036535Y013750
X037535Y013750
X033535Y013750
X032535Y013750
X031535Y013750
X030535Y013750
X030535Y007950
X031535Y007950
X031535Y006450
X033285Y005950
X033285Y006950
X034035Y004450
X034535Y003700
X035035Y004450
X031535Y004450
X031535Y002950
X031535Y001950
X033535Y000950
X034535Y000950
X037535Y000950
X038535Y000950
X019035Y024950
X019035Y025950
X017535Y025950
X017535Y024950
X016035Y024950
X016035Y025950
X026535Y030950
X027535Y030950
X028535Y030950
X029535Y030950
X030535Y030950
X031535Y030950
X002535Y030450
X001535Y030450
X001535Y028450
X002535Y028450
X002535Y026950
X001535Y026950
X001535Y025450
X002535Y025450
X002535Y023950
X001535Y023950
X001535Y022450
X002535Y022450
X007100Y038830
X008100Y038830
X009100Y038830
X010100Y038830
X008100Y037830
X007100Y037830
X006350Y036830
X005350Y036830
X005850Y036080
X012100Y035830
X014100Y035830
X016100Y035830
X018100Y035830
X020100Y035830
X022100Y035830
X024100Y035830
X026100Y035830
X026100Y034830
X024100Y034830
X022100Y034830
X020100Y034830
X018100Y034830
X016100Y034830
X014100Y034830
X012100Y034830
X007600Y034830
X005600Y034830
X005600Y033830
X007600Y033830
X007600Y032830
X005600Y032830
X012100Y036830
X014100Y036830
X016100Y036830
X018100Y036830
X020100Y036830
X022100Y036830
X024100Y036830
X026100Y036830
X030850Y037330
X031850Y037330
X032850Y037330
X033850Y037330
X034850Y037330
X035850Y037330
X036850Y037330
X037850Y037330
X037850Y034330
X036850Y034330
X035850Y034330
X034850Y034330
X033850Y034330
X032850Y034330
X031850Y034330
X030850Y034330
T15
X004535Y029450
X005535Y029450
X005535Y028450
X004535Y028450
X004535Y027450
X005535Y027450
T16
X026535Y007950
X026535Y006950
X026535Y005950
X026535Y004950
X026535Y003950
X026535Y002950
X026535Y001950
X029535Y001950
X029535Y002950
X029535Y003950
X029535Y004950
X029535Y005950
X029535Y006950
X029535Y007950
T17
X017035Y014450
X019035Y014450
X019035Y017450
X017035Y017450
T18
X001035Y000950
X001035Y001950
X001035Y002950
X001035Y003950
X001035Y005450
X001035Y006450
X008285Y006450
X008285Y007450
X008285Y008450
X008285Y009450
X009285Y009450
X009285Y008450
X009285Y007450
X009285Y006450
X009285Y005450
X008285Y005450
X009535Y003950
X009535Y002950
X009535Y001950
X009535Y000950
X011535Y000950
X012535Y000950
X013535Y000950
X014535Y000950
X016535Y000950
X016535Y000950
X016535Y001950
X017535Y000950
X018535Y000950
X019535Y000950
X021535Y000950
X022535Y000950
X023535Y000950
X024535Y000950
X016535Y002950
X016535Y003950
X016535Y004950
X016535Y005950
X016535Y006950
X016535Y007950
X016535Y009450
X017535Y009450
X018535Y009450
X019535Y009450
X019535Y011450
X018535Y011450
X017535Y011450
X016535Y011450
X014535Y011450
X013535Y011450
X012535Y011450
X011535Y011450
X011535Y009450
X012535Y009450
X013535Y009450
X014535Y009450
X012535Y004950
X011535Y004950
X011535Y002950
X012535Y002950
X021535Y009450
X022535Y009450
X023535Y009450
X024535Y009450
X024535Y011450
X023535Y011450
X022535Y011450
X021535Y011450
X014535Y015950
X014535Y016950
X014535Y017950
X014535Y019950
X013535Y019950
X012535Y019950
X011535Y019950
X008885Y021900
X007185Y021900
X005385Y021900
X003685Y021900
X003685Y025000
X005385Y025000
X007185Y025000
X008035Y026450
X009035Y026450
X009035Y027450
X008035Y027450
X008035Y028450
X009035Y028450
X009035Y029450
X008035Y029450
X008035Y030450
X009035Y030450
X011535Y029950
X011535Y028950
X011535Y027950
X012535Y027950
X013535Y027950
X013535Y028950
X012535Y028950
X012535Y029950
X013535Y029950
X014535Y029950
X014535Y028950
X015535Y028950
X015535Y029950
X016535Y029950
X016535Y028950
X017535Y028950
X017535Y029950
X018535Y029950
X018535Y028950
X019535Y028950
X019535Y029950
X019535Y027950
X018535Y027950
X017535Y027950
X016535Y027950
X015535Y027950
X014535Y027950
X014535Y023950
X014535Y022950
X013535Y022950
X012535Y022950
X012535Y023950
X013535Y023950
X011535Y023950
X011535Y022950
X008885Y025000
X016535Y019950
X017535Y019950
X018535Y019950
X019535Y019950
X021535Y019950
X022535Y019950
X023535Y019950
X024535Y019950
X026535Y021950
X027535Y021950
X027535Y022950
X026535Y022950
X026535Y023950
X027535Y023950
X028535Y023950
X028535Y022950
X029535Y022950
X029535Y023950
X030535Y023950
X030535Y022950
X031535Y023950
X032535Y023950
X033535Y023950
X034535Y023950
X035535Y023950
X036535Y023950
X037535Y023950
X038535Y024450
X038535Y025450
X038535Y026450
X038535Y027450
X038535Y028450
X038535Y029450
X037535Y029950
X036535Y029950
X035535Y029950
X034535Y029950
X033535Y029950
X032535Y029950
X031535Y029950
X030535Y029950
X029535Y029950
X028535Y029950
X027535Y029950
X026535Y029950
X024535Y029450
X024535Y030450
X023535Y030450
X022535Y030450
X022535Y029450
X023535Y029450
X021535Y029450
X021535Y030450
X021535Y026950
X021535Y025950
X021535Y024950
X021535Y023950
X021535Y022950
X021535Y021950
X024535Y023950
X024535Y024950
X026535Y024950
X026535Y025950
X028535Y021950
X029535Y021950
X030535Y021950
X030535Y019950
X031535Y019950
X031535Y018950
X030535Y018950
X032535Y018950
X033535Y018950
X033535Y019950
X032535Y019950
X034535Y019950
X035535Y019950
X035535Y018950
X034535Y018950
X036535Y018950
X037535Y018950
X037535Y019950
X036535Y019950
X036535Y022600
X037535Y022600
X038535Y022600
X035535Y022600
X034535Y022600
X034098Y025075
X033098Y025075
X035535Y031100
X036535Y031100
X037535Y031100
X038535Y031100
X037535Y012450
X036535Y012450
X035535Y012450
X034535Y012450
X033535Y012450
X032535Y012450
X031535Y012450
X030535Y012450
X030535Y011450
X031535Y011450
X032535Y011450
X033535Y011450
X034535Y011450
X035535Y011450
X036535Y011450
X037535Y011450
X035035Y008450
X034035Y008450
X033035Y008450
X037535Y006950
X037535Y005950
X037535Y004950
X037535Y003950
X037535Y002950
X038535Y002950
X038535Y003950
X038535Y004950
X038535Y005950
X038535Y006950
X036035Y002450
X035035Y002450
X034035Y002450
X033035Y002450
X001035Y016900
X001035Y015900
X001035Y014400
X001035Y013400
X001035Y012400
X001035Y011400
X008285Y015900
X009285Y015900
X009285Y016900
X008285Y016900
X008285Y017900
X009285Y017900
X009285Y018900
X008285Y018900
X008285Y019900
X009285Y019900
X009535Y014400
X009535Y013400
X009535Y012400
X009535Y011400
X009100Y033330
X010100Y033330
X010100Y034330
X009100Y034330
X009100Y035330
X010100Y035330
X010100Y036330
X009100Y036330
X009100Y037330
X010100Y037330
X005100Y038330
X017100Y033830
X018100Y033830
X019100Y033830
X020100Y033830
X021100Y033830
X022100Y033830
X023100Y033830
X024100Y033830
X024100Y032830
X023100Y032830
X022100Y032830
X021100Y032830
X020100Y032830
X019100Y032830
X018100Y032830
X017100Y032830
X030100Y034330
X030100Y035330
X030100Y036330
X030100Y037330
X030100Y038330
X038600Y037330
X038600Y036330
X038600Y035330
X038600Y034330
T19
X036535Y008450
X038035Y008450
X001350Y033080
X004350Y033080
X004350Y034080
X001350Y034080
X001350Y035080
X004350Y035080
X004350Y036080
X001350Y036080
X001600Y038330
X003100Y038330
T20
X006200Y033230
X008200Y033430
X005000Y033830
X008300Y034430
X006800Y035230
X003800Y036530
X004900Y037230
X019000Y037530
X019400Y037230
X021100Y037330
X025300Y036830
X028500Y036130
X026900Y035730
X024900Y036030
X030800Y035130
X027800Y034630
X029200Y034430
X026900Y033830
X026100Y033430
X025000Y033130
X028100Y033230
X029300Y033430
X031500Y033630
X025300Y034630
X037900Y033130
X029300Y037330
X031200Y038030
X029500Y038430
X034500Y038430
X035600Y038430
M30

