%
M48
M72
T01C0.0120
T02C0.0160
T03C0.0276
T04C0.0400
%
T01
X3535Y660
X4255Y1860
X5095Y2820
X5095Y3660
X4735Y3660
X5455Y4020
X5695Y3780
X6655Y2580
X3535Y3060
X1855Y3900
X3535Y6300
X2575Y6900
X2935Y8340
X2575Y8460
X4735Y6540
X4975Y6900
X6175Y8340
X7015Y8100
X7135Y5580
T02
X2455Y9060
X5815Y8460
X7375Y6780
X5935Y6300
X2215Y3300
X1975Y2700
X4495Y2100
X7135Y1620
X1975Y5700
T03
X1185Y9350
X1185Y8850
X1185Y8350
X1185Y7850
T04
X1035Y6300
X1035Y5300
X1035Y3800
X1035Y2800
X1035Y1800
X1035Y800
X8285Y5300
X9285Y5300
X9285Y6300
X8285Y6300
X8285Y7300
X9285Y7300
X9285Y8300
X8285Y8300
X8285Y9300
X9285Y9300
X9535Y3800
X9535Y2800
X9535Y1800
X9535Y800
M30
