G75*
%MOIN*%
%OFA0B0*%
%FSLAX24Y24*%
%IPPOS*%
%LPD*%
%AMOC8*
5,1,8,0,0,1.08239X$1,22.5*
%
%ADD10C,0.0000*%
%ADD11C,0.0060*%
%ADD12C,0.0050*%
D10*
X000535Y000450D02*
X000535Y039446D01*
X039405Y039446D01*
X039405Y000450D01*
X000535Y000450D01*
D11*
X002815Y001650D02*
X002815Y001764D01*
X002872Y001820D01*
X002872Y001962D02*
X002929Y001962D01*
X002985Y002018D01*
X002985Y002132D01*
X002929Y002189D01*
X002872Y002189D01*
X002815Y002132D01*
X002815Y002018D01*
X002872Y001962D01*
X002985Y002018D02*
X003042Y001962D01*
X003099Y001962D01*
X003155Y002018D01*
X003155Y002132D01*
X003099Y002189D01*
X003042Y002189D01*
X002985Y002132D01*
X003099Y001820D02*
X003155Y001764D01*
X003155Y001650D01*
X003099Y001593D01*
X002872Y001593D01*
X002815Y001650D01*
X005260Y003114D02*
X005487Y002887D01*
X005487Y002830D01*
X005628Y002887D02*
X005685Y002830D01*
X005798Y002830D01*
X005855Y002887D01*
X005855Y003114D01*
X005798Y003170D01*
X005685Y003170D01*
X005628Y003114D01*
X005487Y003170D02*
X005260Y003170D01*
X005260Y003114D01*
X007547Y001220D02*
X007773Y001220D01*
X007773Y001050D01*
X007660Y001107D01*
X007603Y001107D01*
X007547Y001050D01*
X007547Y000937D01*
X007603Y000880D01*
X007717Y000880D01*
X007773Y000937D01*
X007915Y000937D02*
X007972Y000880D01*
X008085Y000880D01*
X008142Y000937D01*
X008142Y001164D01*
X008085Y001220D01*
X007972Y001220D01*
X007915Y001164D01*
X005642Y007230D02*
X005642Y007570D01*
X005472Y007570D01*
X005415Y007514D01*
X005415Y007400D01*
X005472Y007343D01*
X005642Y007343D01*
X005528Y007343D02*
X005415Y007230D01*
X005273Y007230D02*
X005047Y007457D01*
X005047Y007514D01*
X005103Y007570D01*
X005217Y007570D01*
X005273Y007514D01*
X005273Y007230D02*
X005047Y007230D01*
X003935Y008980D02*
X003822Y008980D01*
X003765Y009037D01*
X003623Y009037D02*
X003567Y008980D01*
X003453Y008980D01*
X003397Y009037D01*
X003397Y009093D01*
X003453Y009150D01*
X003623Y009150D01*
X003623Y009037D01*
X003623Y009150D02*
X003510Y009264D01*
X003397Y009320D01*
X003765Y009264D02*
X003822Y009320D01*
X003935Y009320D01*
X003992Y009264D01*
X003992Y009037D01*
X003935Y008980D01*
X030035Y011200D02*
X030285Y010950D01*
X030785Y010950D01*
X031035Y011200D01*
X031035Y012700D01*
X031285Y012950D01*
X031785Y012950D01*
X032035Y012700D01*
X032035Y011200D01*
X032285Y010950D01*
X032785Y010950D01*
X033035Y011200D01*
X033035Y012700D01*
X033285Y012950D01*
X033785Y012950D01*
X034035Y012700D01*
X034035Y011200D01*
X034285Y010950D01*
X034785Y010950D01*
X035035Y011200D01*
X035035Y012700D01*
X035285Y012950D01*
X035785Y012950D01*
X036035Y012700D01*
X036035Y011200D01*
X036285Y010950D01*
X036785Y010950D01*
X037035Y011200D01*
X037285Y010950D01*
X037785Y010950D01*
X038035Y011200D01*
X038035Y012700D01*
X037785Y012950D01*
X037285Y012950D01*
X037035Y012700D01*
X037035Y011200D01*
X036035Y011200D02*
X035785Y010950D01*
X035285Y010950D01*
X035035Y011200D01*
X034035Y011200D02*
X033785Y010950D01*
X033285Y010950D01*
X033035Y011200D01*
X032035Y011200D02*
X031785Y010950D01*
X031285Y010950D01*
X031035Y011200D01*
X030035Y011200D02*
X030035Y012700D01*
X030285Y012950D01*
X030785Y012950D01*
X031035Y012700D01*
X032035Y012700D02*
X032285Y012950D01*
X032785Y012950D01*
X033035Y012700D01*
X034035Y012700D02*
X034285Y012950D01*
X034785Y012950D01*
X035035Y012700D01*
X036035Y012700D02*
X036285Y012950D01*
X036785Y012950D01*
X037035Y012700D01*
D12*
X013165Y012690D02*
X013165Y015052D01*
X012929Y015289D01*
X012141Y015289D01*
X011905Y015052D01*
X011905Y012690D01*
X013165Y012690D01*
X013165Y016190D02*
X011905Y016190D01*
X011905Y018552D01*
X012141Y018789D01*
X012929Y018789D01*
X013165Y018552D01*
X013165Y016190D01*
X007429Y009789D02*
X006641Y009789D01*
X006405Y009552D01*
X006405Y007190D01*
X007665Y007190D01*
X007665Y009552D01*
X007429Y009789D01*
X006637Y006580D02*
X004275Y006580D01*
X004275Y005320D01*
X006637Y005320D01*
X006874Y005556D01*
X006874Y006344D01*
X006637Y006580D01*
X006619Y005130D02*
X004651Y005130D01*
X004651Y004972D01*
X005185Y004500D02*
X005385Y004500D01*
X005385Y004000D01*
X005535Y004100D02*
X005535Y004900D01*
X005735Y004900D01*
X005735Y004100D01*
X005535Y004100D01*
X005885Y004000D02*
X005885Y004500D01*
X006085Y004500D01*
X005885Y004500D02*
X005885Y005000D01*
X005385Y005000D02*
X005385Y004500D01*
X004651Y004028D02*
X004651Y003870D01*
X006619Y003870D01*
X006619Y004028D01*
X006619Y004972D02*
X006619Y005130D01*
X003735Y005100D02*
X003735Y003850D01*
X001735Y003850D01*
X001735Y005100D01*
X003735Y005100D01*
M02*
