G04 This is an RS-274x file exported by *
G04 gerbv version 2.6.1 *
G04 More information is available about gerbv at *
G04 http://gerbv.geda-project.org/ *
G04 --End of header info--*
%MOIN*%
%FSLAX34Y34*%
%IPPOS*%
G04 --Define apertures--*
%ADD10C,0.0000*%
%ADD11C,0.0060*%
%ADD12C,0.0050*%
%ADD13C,0.0040*%
G04 --Start main section--*
G54D10*
G01X0000535Y0000450D02*
G01X0000535Y0039446D01*
G01X0000535Y0039446D02*
G01X0039405Y0039446D01*
G01X0039405Y0039446D02*
G01X0039405Y0000450D01*
G01X0039405Y0000450D02*
G01X0000535Y0000450D01*
G54D11*
G01X0002815Y0001650D02*
G01X0002815Y0001764D01*
G01X0002815Y0001764D02*
G01X0002872Y0001820D01*
G01X0002872Y0001962D02*
G01X0002929Y0001962D01*
G01X0002929Y0001962D02*
G01X0002985Y0002018D01*
G01X0002985Y0002018D02*
G01X0002985Y0002132D01*
G01X0002985Y0002132D02*
G01X0002929Y0002189D01*
G01X0002929Y0002189D02*
G01X0002872Y0002189D01*
G01X0002872Y0002189D02*
G01X0002815Y0002132D01*
G01X0002815Y0002132D02*
G01X0002815Y0002018D01*
G01X0002815Y0002018D02*
G01X0002872Y0001962D01*
G01X0002985Y0002018D02*
G01X0003042Y0001962D01*
G01X0003042Y0001962D02*
G01X0003099Y0001962D01*
G01X0003099Y0001962D02*
G01X0003155Y0002018D01*
G01X0003155Y0002018D02*
G01X0003155Y0002132D01*
G01X0003155Y0002132D02*
G01X0003099Y0002189D01*
G01X0003099Y0002189D02*
G01X0003042Y0002189D01*
G01X0003042Y0002189D02*
G01X0002985Y0002132D01*
G01X0003099Y0001820D02*
G01X0003155Y0001764D01*
G01X0003155Y0001764D02*
G01X0003155Y0001650D01*
G01X0003155Y0001650D02*
G01X0003099Y0001593D01*
G01X0003099Y0001593D02*
G01X0002872Y0001593D01*
G01X0002872Y0001593D02*
G01X0002815Y0001650D01*
G01X0005260Y0003114D02*
G01X0005487Y0002887D01*
G01X0005487Y0002887D02*
G01X0005487Y0002830D01*
G01X0005628Y0002887D02*
G01X0005685Y0002830D01*
G01X0005685Y0002830D02*
G01X0005798Y0002830D01*
G01X0005798Y0002830D02*
G01X0005855Y0002887D01*
G01X0005855Y0002887D02*
G01X0005855Y0003114D01*
G01X0005855Y0003114D02*
G01X0005798Y0003170D01*
G01X0005798Y0003170D02*
G01X0005685Y0003170D01*
G01X0005685Y0003170D02*
G01X0005628Y0003114D01*
G01X0005487Y0003170D02*
G01X0005260Y0003170D01*
G01X0005260Y0003170D02*
G01X0005260Y0003114D01*
G01X0007547Y0001220D02*
G01X0007773Y0001220D01*
G01X0007773Y0001220D02*
G01X0007773Y0001050D01*
G01X0007773Y0001050D02*
G01X0007660Y0001107D01*
G01X0007660Y0001107D02*
G01X0007603Y0001107D01*
G01X0007603Y0001107D02*
G01X0007547Y0001050D01*
G01X0007547Y0001050D02*
G01X0007547Y0000937D01*
G01X0007547Y0000937D02*
G01X0007603Y0000880D01*
G01X0007603Y0000880D02*
G01X0007717Y0000880D01*
G01X0007717Y0000880D02*
G01X0007773Y0000937D01*
G01X0007915Y0000937D02*
G01X0007972Y0000880D01*
G01X0007972Y0000880D02*
G01X0008085Y0000880D01*
G01X0008085Y0000880D02*
G01X0008142Y0000937D01*
G01X0008142Y0000937D02*
G01X0008142Y0001164D01*
G01X0008142Y0001164D02*
G01X0008085Y0001220D01*
G01X0008085Y0001220D02*
G01X0007972Y0001220D01*
G01X0007972Y0001220D02*
G01X0007915Y0001164D01*
G01X0005642Y0007230D02*
G01X0005642Y0007570D01*
G01X0005642Y0007570D02*
G01X0005472Y0007570D01*
G01X0005472Y0007570D02*
G01X0005415Y0007514D01*
G01X0005415Y0007514D02*
G01X0005415Y0007400D01*
G01X0005415Y0007400D02*
G01X0005472Y0007343D01*
G01X0005472Y0007343D02*
G01X0005642Y0007343D01*
G01X0005528Y0007343D02*
G01X0005415Y0007230D01*
G01X0005273Y0007230D02*
G01X0005047Y0007457D01*
G01X0005047Y0007457D02*
G01X0005047Y0007514D01*
G01X0005047Y0007514D02*
G01X0005103Y0007570D01*
G01X0005103Y0007570D02*
G01X0005217Y0007570D01*
G01X0005217Y0007570D02*
G01X0005273Y0007514D01*
G01X0005273Y0007230D02*
G01X0005047Y0007230D01*
G01X0003935Y0008980D02*
G01X0003822Y0008980D01*
G01X0003822Y0008980D02*
G01X0003765Y0009037D01*
G01X0003623Y0009037D02*
G01X0003567Y0008980D01*
G01X0003567Y0008980D02*
G01X0003453Y0008980D01*
G01X0003453Y0008980D02*
G01X0003397Y0009037D01*
G01X0003397Y0009037D02*
G01X0003397Y0009093D01*
G01X0003397Y0009093D02*
G01X0003453Y0009150D01*
G01X0003453Y0009150D02*
G01X0003623Y0009150D01*
G01X0003623Y0009150D02*
G01X0003623Y0009037D01*
G01X0003623Y0009150D02*
G01X0003510Y0009264D01*
G01X0003510Y0009264D02*
G01X0003397Y0009320D01*
G01X0003765Y0009264D02*
G01X0003822Y0009320D01*
G01X0003822Y0009320D02*
G01X0003935Y0009320D01*
G01X0003935Y0009320D02*
G01X0003992Y0009264D01*
G01X0003992Y0009264D02*
G01X0003992Y0009037D01*
G01X0003992Y0009037D02*
G01X0003935Y0008980D01*
G01X0030035Y0011200D02*
G01X0030285Y0010950D01*
G01X0030285Y0010950D02*
G01X0030785Y0010950D01*
G01X0030785Y0010950D02*
G01X0031035Y0011200D01*
G01X0031035Y0011200D02*
G01X0031035Y0012700D01*
G01X0031035Y0012700D02*
G01X0031285Y0012950D01*
G01X0031285Y0012950D02*
G01X0031785Y0012950D01*
G01X0031785Y0012950D02*
G01X0032035Y0012700D01*
G01X0032035Y0012700D02*
G01X0032035Y0011200D01*
G01X0032035Y0011200D02*
G01X0032285Y0010950D01*
G01X0032285Y0010950D02*
G01X0032785Y0010950D01*
G01X0032785Y0010950D02*
G01X0033035Y0011200D01*
G01X0033035Y0011200D02*
G01X0033035Y0012700D01*
G01X0033035Y0012700D02*
G01X0033285Y0012950D01*
G01X0033285Y0012950D02*
G01X0033785Y0012950D01*
G01X0033785Y0012950D02*
G01X0034035Y0012700D01*
G01X0034035Y0012700D02*
G01X0034035Y0011200D01*
G01X0034035Y0011200D02*
G01X0034285Y0010950D01*
G01X0034285Y0010950D02*
G01X0034785Y0010950D01*
G01X0034785Y0010950D02*
G01X0035035Y0011200D01*
G01X0035035Y0011200D02*
G01X0035035Y0012700D01*
G01X0035035Y0012700D02*
G01X0035285Y0012950D01*
G01X0035285Y0012950D02*
G01X0035785Y0012950D01*
G01X0035785Y0012950D02*
G01X0036035Y0012700D01*
G01X0036035Y0012700D02*
G01X0036035Y0011200D01*
G01X0036035Y0011200D02*
G01X0036285Y0010950D01*
G01X0036285Y0010950D02*
G01X0036785Y0010950D01*
G01X0036785Y0010950D02*
G01X0037035Y0011200D01*
G01X0037035Y0011200D02*
G01X0037285Y0010950D01*
G01X0037285Y0010950D02*
G01X0037785Y0010950D01*
G01X0037785Y0010950D02*
G01X0038035Y0011200D01*
G01X0038035Y0011200D02*
G01X0038035Y0012700D01*
G01X0038035Y0012700D02*
G01X0037785Y0012950D01*
G01X0037785Y0012950D02*
G01X0037285Y0012950D01*
G01X0037285Y0012950D02*
G01X0037035Y0012700D01*
G01X0037035Y0012700D02*
G01X0037035Y0011200D01*
G01X0036035Y0011200D02*
G01X0035785Y0010950D01*
G01X0035785Y0010950D02*
G01X0035285Y0010950D01*
G01X0035285Y0010950D02*
G01X0035035Y0011200D01*
G01X0034035Y0011200D02*
G01X0033785Y0010950D01*
G01X0033785Y0010950D02*
G01X0033285Y0010950D01*
G01X0033285Y0010950D02*
G01X0033035Y0011200D01*
G01X0032035Y0011200D02*
G01X0031785Y0010950D01*
G01X0031785Y0010950D02*
G01X0031285Y0010950D01*
G01X0031285Y0010950D02*
G01X0031035Y0011200D01*
G01X0030035Y0011200D02*
G01X0030035Y0012700D01*
G01X0030035Y0012700D02*
G01X0030285Y0012950D01*
G01X0030285Y0012950D02*
G01X0030785Y0012950D01*
G01X0030785Y0012950D02*
G01X0031035Y0012700D01*
G01X0032035Y0012700D02*
G01X0032285Y0012950D01*
G01X0032285Y0012950D02*
G01X0032785Y0012950D01*
G01X0032785Y0012950D02*
G01X0033035Y0012700D01*
G01X0034035Y0012700D02*
G01X0034285Y0012950D01*
G01X0034285Y0012950D02*
G01X0034785Y0012950D01*
G01X0034785Y0012950D02*
G01X0035035Y0012700D01*
G01X0036035Y0012700D02*
G01X0036285Y0012950D01*
G01X0036285Y0012950D02*
G01X0036785Y0012950D01*
G01X0036785Y0012950D02*
G01X0037035Y0012700D01*
G54D12*
G01X0013165Y0012690D02*
G01X0013165Y0015052D01*
G01X0013165Y0015052D02*
G01X0012929Y0015289D01*
G01X0012929Y0015289D02*
G01X0012141Y0015289D01*
G01X0012141Y0015289D02*
G01X0011905Y0015052D01*
G01X0011905Y0015052D02*
G01X0011905Y0012690D01*
G01X0011905Y0012690D02*
G01X0013165Y0012690D01*
G01X0013165Y0016190D02*
G01X0011905Y0016190D01*
G01X0011905Y0016190D02*
G01X0011905Y0018552D01*
G01X0011905Y0018552D02*
G01X0012141Y0018789D01*
G01X0012141Y0018789D02*
G01X0012929Y0018789D01*
G01X0012929Y0018789D02*
G01X0013165Y0018552D01*
G01X0013165Y0018552D02*
G01X0013165Y0016190D01*
G01X0007429Y0009789D02*
G01X0006641Y0009789D01*
G01X0006641Y0009789D02*
G01X0006405Y0009552D01*
G01X0006405Y0009552D02*
G01X0006405Y0007190D01*
G01X0006405Y0007190D02*
G01X0007665Y0007190D01*
G01X0007665Y0007190D02*
G01X0007665Y0009552D01*
G01X0007665Y0009552D02*
G01X0007429Y0009789D01*
G01X0006637Y0006580D02*
G01X0004275Y0006580D01*
G01X0004275Y0006580D02*
G01X0004275Y0005320D01*
G01X0004275Y0005320D02*
G01X0006637Y0005320D01*
G01X0006637Y0005320D02*
G01X0006874Y0005556D01*
G01X0006874Y0005556D02*
G01X0006874Y0006344D01*
G01X0006874Y0006344D02*
G01X0006637Y0006580D01*
G01X0006619Y0005130D02*
G01X0004651Y0005130D01*
G01X0004651Y0005130D02*
G01X0004651Y0004972D01*
G01X0005185Y0004500D02*
G01X0005385Y0004500D01*
G01X0005385Y0004500D02*
G01X0005385Y0004000D01*
G01X0005535Y0004100D02*
G01X0005535Y0004900D01*
G01X0005535Y0004900D02*
G01X0005735Y0004900D01*
G01X0005735Y0004900D02*
G01X0005735Y0004100D01*
G01X0005735Y0004100D02*
G01X0005535Y0004100D01*
G01X0005885Y0004000D02*
G01X0005885Y0004500D01*
G01X0005885Y0004500D02*
G01X0006085Y0004500D01*
G01X0005885Y0004500D02*
G01X0005885Y0005000D01*
G01X0005385Y0005000D02*
G01X0005385Y0004500D01*
G01X0004651Y0004028D02*
G01X0004651Y0003870D01*
G01X0004651Y0003870D02*
G01X0006619Y0003870D01*
G01X0006619Y0003870D02*
G01X0006619Y0004028D01*
G01X0006619Y0004972D02*
G01X0006619Y0005130D01*
G01X0003735Y0005100D02*
G01X0003735Y0003850D01*
G01X0003735Y0003850D02*
G01X0001735Y0003850D01*
G01X0001735Y0003850D02*
G01X0001735Y0005100D01*
G01X0001735Y0005100D02*
G01X0003735Y0005100D01*
G01X0000000Y0010600D02*
G54D10*
G01X0000535Y0010900D02*
G01X0000535Y0020396D01*
G01X0000535Y0020396D02*
G01X0009905Y0020396D01*
G01X0009905Y0020396D02*
G01X0009905Y0010900D01*
G01X0009905Y0010900D02*
G01X0000535Y0010900D01*
G54D11*
G01X0002815Y0012100D02*
G01X0002815Y0012214D01*
G01X0002815Y0012214D02*
G01X0002872Y0012270D01*
G01X0002872Y0012412D02*
G01X0002929Y0012412D01*
G01X0002929Y0012412D02*
G01X0002985Y0012468D01*
G01X0002985Y0012468D02*
G01X0002985Y0012582D01*
G01X0002985Y0012582D02*
G01X0002929Y0012639D01*
G01X0002929Y0012639D02*
G01X0002872Y0012639D01*
G01X0002872Y0012639D02*
G01X0002815Y0012582D01*
G01X0002815Y0012582D02*
G01X0002815Y0012468D01*
G01X0002815Y0012468D02*
G01X0002872Y0012412D01*
G01X0002985Y0012468D02*
G01X0003042Y0012412D01*
G01X0003042Y0012412D02*
G01X0003099Y0012412D01*
G01X0003099Y0012412D02*
G01X0003155Y0012468D01*
G01X0003155Y0012468D02*
G01X0003155Y0012582D01*
G01X0003155Y0012582D02*
G01X0003099Y0012639D01*
G01X0003099Y0012639D02*
G01X0003042Y0012639D01*
G01X0003042Y0012639D02*
G01X0002985Y0012582D01*
G01X0003099Y0012270D02*
G01X0003155Y0012214D01*
G01X0003155Y0012214D02*
G01X0003155Y0012100D01*
G01X0003155Y0012100D02*
G01X0003099Y0012043D01*
G01X0003099Y0012043D02*
G01X0002872Y0012043D01*
G01X0002872Y0012043D02*
G01X0002815Y0012100D01*
G01X0005260Y0013564D02*
G01X0005487Y0013337D01*
G01X0005487Y0013337D02*
G01X0005487Y0013280D01*
G01X0005628Y0013337D02*
G01X0005685Y0013280D01*
G01X0005685Y0013280D02*
G01X0005798Y0013280D01*
G01X0005798Y0013280D02*
G01X0005855Y0013337D01*
G01X0005855Y0013337D02*
G01X0005855Y0013564D01*
G01X0005855Y0013564D02*
G01X0005798Y0013620D01*
G01X0005798Y0013620D02*
G01X0005685Y0013620D01*
G01X0005685Y0013620D02*
G01X0005628Y0013564D01*
G01X0005487Y0013620D02*
G01X0005260Y0013620D01*
G01X0005260Y0013620D02*
G01X0005260Y0013564D01*
G01X0007547Y0011670D02*
G01X0007773Y0011670D01*
G01X0007773Y0011670D02*
G01X0007773Y0011500D01*
G01X0007773Y0011500D02*
G01X0007660Y0011557D01*
G01X0007660Y0011557D02*
G01X0007603Y0011557D01*
G01X0007603Y0011557D02*
G01X0007547Y0011500D01*
G01X0007547Y0011500D02*
G01X0007547Y0011387D01*
G01X0007547Y0011387D02*
G01X0007603Y0011330D01*
G01X0007603Y0011330D02*
G01X0007717Y0011330D01*
G01X0007717Y0011330D02*
G01X0007773Y0011387D01*
G01X0007915Y0011387D02*
G01X0007972Y0011330D01*
G01X0007972Y0011330D02*
G01X0008085Y0011330D01*
G01X0008085Y0011330D02*
G01X0008142Y0011387D01*
G01X0008142Y0011387D02*
G01X0008142Y0011614D01*
G01X0008142Y0011614D02*
G01X0008085Y0011670D01*
G01X0008085Y0011670D02*
G01X0007972Y0011670D01*
G01X0007972Y0011670D02*
G01X0007915Y0011614D01*
G01X0005642Y0017680D02*
G01X0005642Y0018020D01*
G01X0005642Y0018020D02*
G01X0005472Y0018020D01*
G01X0005472Y0018020D02*
G01X0005415Y0017964D01*
G01X0005415Y0017964D02*
G01X0005415Y0017850D01*
G01X0005415Y0017850D02*
G01X0005472Y0017793D01*
G01X0005472Y0017793D02*
G01X0005642Y0017793D01*
G01X0005528Y0017793D02*
G01X0005415Y0017680D01*
G01X0005273Y0017680D02*
G01X0005047Y0017907D01*
G01X0005047Y0017907D02*
G01X0005047Y0017964D01*
G01X0005047Y0017964D02*
G01X0005103Y0018020D01*
G01X0005103Y0018020D02*
G01X0005217Y0018020D01*
G01X0005217Y0018020D02*
G01X0005273Y0017964D01*
G01X0005273Y0017680D02*
G01X0005047Y0017680D01*
G01X0003935Y0019430D02*
G01X0003822Y0019430D01*
G01X0003822Y0019430D02*
G01X0003765Y0019487D01*
G01X0003935Y0019430D02*
G01X0003992Y0019487D01*
G01X0003992Y0019487D02*
G01X0003992Y0019714D01*
G01X0003992Y0019714D02*
G01X0003935Y0019770D01*
G01X0003935Y0019770D02*
G01X0003822Y0019770D01*
G01X0003822Y0019770D02*
G01X0003765Y0019714D01*
G01X0003623Y0019600D02*
G01X0003623Y0019487D01*
G01X0003623Y0019487D02*
G01X0003567Y0019430D01*
G01X0003567Y0019430D02*
G01X0003453Y0019430D01*
G01X0003453Y0019430D02*
G01X0003397Y0019487D01*
G01X0003397Y0019487D02*
G01X0003397Y0019543D01*
G01X0003397Y0019543D02*
G01X0003453Y0019600D01*
G01X0003453Y0019600D02*
G01X0003623Y0019600D01*
G01X0003623Y0019600D02*
G01X0003510Y0019714D01*
G01X0003510Y0019714D02*
G01X0003397Y0019770D01*
G54D12*
G01X0004275Y0017030D02*
G01X0006637Y0017030D01*
G01X0006637Y0017030D02*
G01X0006874Y0016794D01*
G01X0006874Y0016794D02*
G01X0006874Y0016006D01*
G01X0006874Y0016006D02*
G01X0006637Y0015770D01*
G01X0006637Y0015770D02*
G01X0004275Y0015770D01*
G01X0004275Y0015770D02*
G01X0004275Y0017030D01*
G01X0004651Y0015580D02*
G01X0006619Y0015580D01*
G01X0006619Y0015580D02*
G01X0006619Y0015422D01*
G01X0006085Y0014950D02*
G01X0005885Y0014950D01*
G01X0005885Y0014950D02*
G01X0005885Y0014450D01*
G01X0005735Y0014550D02*
G01X0005535Y0014550D01*
G01X0005535Y0014550D02*
G01X0005535Y0015350D01*
G01X0005535Y0015350D02*
G01X0005735Y0015350D01*
G01X0005735Y0015350D02*
G01X0005735Y0014550D01*
G01X0005385Y0014450D02*
G01X0005385Y0014950D01*
G01X0005385Y0014950D02*
G01X0005185Y0014950D01*
G01X0005385Y0014950D02*
G01X0005385Y0015450D01*
G01X0005885Y0015450D02*
G01X0005885Y0014950D01*
G01X0006619Y0014478D02*
G01X0006619Y0014320D01*
G01X0006619Y0014320D02*
G01X0004651Y0014320D01*
G01X0004651Y0014320D02*
G01X0004651Y0014478D01*
G01X0003735Y0014300D02*
G01X0003735Y0015550D01*
G01X0003735Y0015550D02*
G01X0001735Y0015550D01*
G01X0001735Y0015550D02*
G01X0001735Y0014300D01*
G01X0001735Y0014300D02*
G01X0003735Y0014300D01*
G01X0004651Y0015422D02*
G01X0004651Y0015580D01*
G01X0006405Y0017640D02*
G01X0006405Y0020002D01*
G01X0006405Y0020002D02*
G01X0006641Y0020239D01*
G01X0006641Y0020239D02*
G01X0007429Y0020239D01*
G01X0007429Y0020239D02*
G01X0007665Y0020002D01*
G01X0007665Y0020002D02*
G01X0007665Y0017640D01*
G01X0007665Y0017640D02*
G01X0006405Y0017640D01*
G01X0000500Y0032200D02*
G54D10*
G01X0000600Y0032330D02*
G01X0000600Y0039326D01*
G01X0000600Y0039326D02*
G01X0039470Y0039326D01*
G01X0039470Y0039326D02*
G01X0039470Y0032330D01*
G01X0039470Y0032330D02*
G01X0000600Y0032330D01*
G54D13*
G01X0027733Y0032927D02*
G01X0027810Y0032850D01*
G01X0027810Y0032850D02*
G01X0027964Y0032850D01*
G01X0027964Y0032850D02*
G01X0028040Y0032927D01*
G01X0028194Y0032850D02*
G01X0028194Y0033310D01*
G01X0028040Y0033310D02*
G01X0028040Y0033080D01*
G01X0028040Y0033080D02*
G01X0027887Y0033157D01*
G01X0027887Y0033157D02*
G01X0027810Y0033157D01*
G01X0027810Y0033157D02*
G01X0027733Y0033080D01*
G01X0027733Y0033080D02*
G01X0027733Y0032927D01*
G01X0028194Y0032850D02*
G01X0028347Y0033003D01*
G01X0028347Y0033003D02*
G01X0028501Y0032850D01*
G01X0028501Y0032850D02*
G01X0028501Y0033310D01*
G01X0028654Y0033234D02*
G01X0028731Y0033310D01*
G01X0028731Y0033310D02*
G01X0028884Y0033310D01*
G01X0028884Y0033310D02*
G01X0028961Y0033234D01*
G01X0028961Y0033234D02*
G01X0028961Y0032927D01*
G01X0028961Y0032927D02*
G01X0028884Y0032850D01*
G01X0028884Y0032850D02*
G01X0028731Y0032850D01*
G01X0028731Y0032850D02*
G01X0028654Y0032927D01*
G01X0028654Y0032927D02*
G01X0028654Y0033234D01*
G01X0029115Y0033234D02*
G01X0029191Y0033310D01*
G01X0029191Y0033310D02*
G01X0029422Y0033310D01*
G01X0029422Y0033310D02*
G01X0029422Y0032850D01*
G01X0029268Y0033003D02*
G01X0029115Y0032850D01*
G01X0029191Y0033003D02*
G01X0029422Y0033003D01*
G01X0029575Y0033080D02*
G01X0029882Y0033080D01*
G01X0030035Y0033080D02*
G01X0030112Y0033003D01*
G01X0030112Y0033003D02*
G01X0030342Y0033003D01*
G01X0030189Y0033003D02*
G01X0030035Y0032850D01*
G01X0030342Y0032850D02*
G01X0030342Y0033310D01*
G01X0030342Y0033310D02*
G01X0030112Y0033310D01*
G01X0030112Y0033310D02*
G01X0030035Y0033234D01*
G01X0030035Y0033234D02*
G01X0030035Y0033080D01*
G01X0029191Y0033003D02*
G01X0029115Y0033080D01*
G01X0029115Y0033080D02*
G01X0029115Y0033234D01*
G01X0028040Y0033310D02*
G01X0027733Y0033310D01*
G01X0027810Y0034350D02*
G01X0027733Y0034427D01*
G01X0027733Y0034427D02*
G01X0027733Y0034503D01*
G01X0027733Y0034503D02*
G01X0027810Y0034580D01*
G01X0027810Y0034580D02*
G01X0028040Y0034580D01*
G01X0028040Y0034580D02*
G01X0028040Y0034427D01*
G01X0028040Y0034427D02*
G01X0027964Y0034350D01*
G01X0027964Y0034350D02*
G01X0027810Y0034350D01*
G01X0028194Y0034350D02*
G01X0028194Y0034810D01*
G01X0028040Y0034580D02*
G01X0027887Y0034734D01*
G01X0027887Y0034734D02*
G01X0027733Y0034810D01*
G01X0028501Y0034810D02*
G01X0028501Y0034350D01*
G01X0028501Y0034350D02*
G01X0028347Y0034503D01*
G01X0028347Y0034503D02*
G01X0028194Y0034350D01*
G01X0028654Y0034427D02*
G01X0028731Y0034350D01*
G01X0028731Y0034350D02*
G01X0028884Y0034350D01*
G01X0028884Y0034350D02*
G01X0028961Y0034427D01*
G01X0028961Y0034427D02*
G01X0028961Y0034734D01*
G01X0028961Y0034734D02*
G01X0028884Y0034810D01*
G01X0028884Y0034810D02*
G01X0028731Y0034810D01*
G01X0028731Y0034810D02*
G01X0028654Y0034734D01*
G01X0028654Y0034734D02*
G01X0028654Y0034427D01*
G01X0029115Y0034350D02*
G01X0029268Y0034503D01*
G01X0029191Y0034503D02*
G01X0029422Y0034503D01*
G01X0029575Y0034580D02*
G01X0029882Y0034580D01*
G01X0030035Y0034580D02*
G01X0030112Y0034503D01*
G01X0030112Y0034503D02*
G01X0030342Y0034503D01*
G01X0030189Y0034503D02*
G01X0030035Y0034350D01*
G01X0030342Y0034350D02*
G01X0030342Y0034810D01*
G01X0030342Y0034810D02*
G01X0030112Y0034810D01*
G01X0030112Y0034810D02*
G01X0030035Y0034734D01*
G01X0030035Y0034734D02*
G01X0030035Y0034580D01*
G01X0029191Y0034503D02*
G01X0029115Y0034580D01*
G01X0029115Y0034580D02*
G01X0029115Y0034734D01*
G01X0029115Y0034734D02*
G01X0029191Y0034810D01*
G01X0029191Y0034810D02*
G01X0029422Y0034810D01*
G01X0029422Y0034810D02*
G01X0029422Y0034350D01*
G01X0029422Y0035850D02*
G01X0029422Y0036310D01*
G01X0029422Y0036310D02*
G01X0029191Y0036310D01*
G01X0029191Y0036310D02*
G01X0029115Y0036234D01*
G01X0029115Y0036234D02*
G01X0029115Y0036080D01*
G01X0029115Y0036080D02*
G01X0029191Y0036003D01*
G01X0029191Y0036003D02*
G01X0029422Y0036003D01*
G01X0029268Y0036003D02*
G01X0029115Y0035850D01*
G01X0028961Y0035927D02*
G01X0028884Y0035850D01*
G01X0028884Y0035850D02*
G01X0028731Y0035850D01*
G01X0028731Y0035850D02*
G01X0028654Y0035927D01*
G01X0028654Y0035927D02*
G01X0028654Y0036234D01*
G01X0028654Y0036234D02*
G01X0028731Y0036310D01*
G01X0028731Y0036310D02*
G01X0028884Y0036310D01*
G01X0028884Y0036310D02*
G01X0028961Y0036234D01*
G01X0028961Y0036234D02*
G01X0028961Y0035927D01*
G01X0028501Y0035850D02*
G01X0028347Y0036003D01*
G01X0028347Y0036003D02*
G01X0028194Y0035850D01*
G01X0028194Y0035850D02*
G01X0028194Y0036310D01*
G01X0028040Y0036310D02*
G01X0027733Y0036310D01*
G01X0027733Y0036310D02*
G01X0027733Y0036234D01*
G01X0027733Y0036234D02*
G01X0028040Y0035927D01*
G01X0028040Y0035927D02*
G01X0028040Y0035850D01*
G01X0028501Y0035850D02*
G01X0028501Y0036310D01*
G01X0029575Y0036080D02*
G01X0029882Y0036080D01*
G01X0030035Y0036080D02*
G01X0030112Y0036003D01*
G01X0030112Y0036003D02*
G01X0030342Y0036003D01*
G01X0030189Y0036003D02*
G01X0030035Y0035850D01*
G01X0030342Y0035850D02*
G01X0030342Y0036310D01*
G01X0030342Y0036310D02*
G01X0030112Y0036310D01*
G01X0030112Y0036310D02*
G01X0030035Y0036234D01*
G01X0030035Y0036234D02*
G01X0030035Y0036080D01*
G01X0030035Y0037350D02*
G01X0030189Y0037503D01*
G01X0030112Y0037503D02*
G01X0030342Y0037503D01*
G01X0030112Y0037503D02*
G01X0030035Y0037580D01*
G01X0030035Y0037580D02*
G01X0030035Y0037734D01*
G01X0030035Y0037734D02*
G01X0030112Y0037810D01*
G01X0030112Y0037810D02*
G01X0030342Y0037810D01*
G01X0030342Y0037810D02*
G01X0030342Y0037350D01*
G01X0029422Y0037350D02*
G01X0029422Y0037810D01*
G01X0029422Y0037810D02*
G01X0029191Y0037810D01*
G01X0029191Y0037810D02*
G01X0029115Y0037734D01*
G01X0029115Y0037734D02*
G01X0029115Y0037580D01*
G01X0029115Y0037580D02*
G01X0029191Y0037503D01*
G01X0029191Y0037503D02*
G01X0029422Y0037503D01*
G01X0029268Y0037503D02*
G01X0029115Y0037350D01*
G01X0028961Y0037427D02*
G01X0028884Y0037350D01*
G01X0028884Y0037350D02*
G01X0028731Y0037350D01*
G01X0028731Y0037350D02*
G01X0028654Y0037427D01*
G01X0028654Y0037427D02*
G01X0028654Y0037734D01*
G01X0028654Y0037734D02*
G01X0028731Y0037810D01*
G01X0028731Y0037810D02*
G01X0028884Y0037810D01*
G01X0028884Y0037810D02*
G01X0028961Y0037734D01*
G01X0028961Y0037734D02*
G01X0028961Y0037427D01*
G01X0028501Y0037350D02*
G01X0028347Y0037503D01*
G01X0028347Y0037503D02*
G01X0028194Y0037350D01*
G01X0028194Y0037350D02*
G01X0028194Y0037810D01*
G01X0028040Y0037734D02*
G01X0027964Y0037810D01*
G01X0027964Y0037810D02*
G01X0027810Y0037810D01*
G01X0027810Y0037810D02*
G01X0027733Y0037734D01*
G01X0027733Y0037734D02*
G01X0027733Y0037657D01*
G01X0027733Y0037657D02*
G01X0027810Y0037580D01*
G01X0027810Y0037580D02*
G01X0027964Y0037580D01*
G01X0027964Y0037580D02*
G01X0028040Y0037657D01*
G01X0028040Y0037657D02*
G01X0028040Y0037734D01*
G01X0028501Y0037810D02*
G01X0028501Y0037350D01*
G01X0028040Y0037427D02*
G01X0028040Y0037503D01*
G01X0028040Y0037503D02*
G01X0027964Y0037580D01*
G01X0027810Y0037580D02*
G01X0027733Y0037503D01*
G01X0027733Y0037503D02*
G01X0027733Y0037427D01*
G01X0027733Y0037427D02*
G01X0027810Y0037350D01*
G01X0027810Y0037350D02*
G01X0027964Y0037350D01*
G01X0027964Y0037350D02*
G01X0028040Y0037427D01*
G01X0029575Y0037580D02*
G01X0029882Y0037580D01*
M02*
