G75*
%MOIN*%
%OFA0B0*%
%FSLAX24Y24*%
%IPPOS*%
%LPD*%
%AMOC8*
5,1,8,0,0,1.08239X$1,22.5*
%
%ADD10C,0.0000*%
%ADD11R,0.0540X0.0260*%
%ADD12R,0.0260X0.0540*%
%ADD13OC8,0.0640*%
%ADD14C,0.0640*%
%ADD15R,0.0690X0.0690*%
%ADD16C,0.0690*%
%ADD17OC8,0.0520*%
%ADD18R,0.0625X0.0625*%
%ADD19C,0.0625*%
%ADD20OC8,0.1040*%
%ADD21C,0.0780*%
%ADD22R,0.0670X0.0290*%
%ADD23C,0.0680*%
%ADD24R,0.0749X0.0670*%
%ADD25OC8,0.0740*%
%ADD26OC8,0.0700*%
%ADD27C,0.0453*%
%ADD28C,0.0700*%
%ADD29C,0.0520*%
%ADD30R,0.0631X0.0631*%
%ADD31R,0.0670X0.0749*%
%ADD32R,0.0670X0.1221*%
%ADD33R,0.2481X0.2323*%
%ADD34R,0.0750X0.0670*%
%ADD35R,0.0780X0.0780*%
D10*
X000535Y000450D02*
X000535Y039446D01*
X039405Y039446D01*
X039405Y000450D01*
X000535Y000450D01*
D11*
X002845Y001848D03*
X002845Y002163D03*
X002845Y002478D03*
X002845Y002793D03*
X002845Y003107D03*
X002845Y003422D03*
X002845Y003737D03*
X002845Y004052D03*
X006225Y004052D03*
X006225Y003737D03*
X006225Y003422D03*
X006225Y003107D03*
X006225Y002793D03*
X006225Y002478D03*
X006225Y002163D03*
X006225Y001848D03*
D12*
X005637Y001260D03*
X005322Y001260D03*
X005008Y001260D03*
X004693Y001260D03*
X004378Y001260D03*
X004063Y001260D03*
X003748Y001260D03*
X003433Y001260D03*
X003433Y004640D03*
X003748Y004640D03*
X004063Y004640D03*
X004378Y004640D03*
X004693Y004640D03*
X005008Y004640D03*
X005322Y004640D03*
X005637Y004640D03*
D13*
X008285Y005450D03*
X008285Y006450D03*
X008285Y007450D03*
X008285Y008450D03*
X008285Y009450D03*
X009285Y009450D03*
X009285Y008450D03*
X009285Y007450D03*
X009285Y006450D03*
X009285Y005450D03*
X026535Y021950D03*
X027535Y021950D03*
X027535Y022950D03*
X026535Y022950D03*
X028535Y022950D03*
X029535Y022950D03*
X029535Y021950D03*
X028535Y021950D03*
X030535Y021950D03*
X030535Y022950D03*
X030535Y019950D03*
X031535Y019950D03*
X031535Y018950D03*
X030535Y018950D03*
X032535Y018950D03*
X033535Y018950D03*
X033535Y019950D03*
X032535Y019950D03*
X034535Y019950D03*
X035535Y019950D03*
X035535Y018950D03*
X034535Y018950D03*
X036535Y018950D03*
X037535Y018950D03*
X037535Y019950D03*
X036535Y019950D03*
X034535Y022600D03*
X024535Y029450D03*
X024535Y030450D03*
X023535Y030450D03*
X022535Y030450D03*
X022535Y029450D03*
X023535Y029450D03*
X021535Y029450D03*
X021535Y030450D03*
X014535Y023950D03*
X014535Y022950D03*
X013535Y022950D03*
X012535Y022950D03*
X012535Y023950D03*
X013535Y023950D03*
X011535Y023950D03*
X011535Y022950D03*
X009035Y026450D03*
X008035Y026450D03*
X008035Y027450D03*
X008035Y028450D03*
X009035Y028450D03*
X009035Y027450D03*
X009035Y029450D03*
X008035Y029450D03*
X008035Y030450D03*
X009035Y030450D03*
X030535Y012450D03*
X031535Y012450D03*
X031535Y011450D03*
X030535Y011450D03*
X032535Y011450D03*
X033535Y011450D03*
X033535Y012450D03*
X032535Y012450D03*
X034535Y012450D03*
X035535Y012450D03*
X035535Y011450D03*
X034535Y011450D03*
X036535Y011450D03*
X037535Y011450D03*
X037535Y012450D03*
X036535Y012450D03*
X037535Y006950D03*
X037535Y005950D03*
X037535Y004950D03*
X037535Y003950D03*
X037535Y002950D03*
X038535Y002950D03*
X038535Y003950D03*
X038535Y004950D03*
X038535Y005950D03*
X038535Y006950D03*
D14*
X035035Y008150D02*
X035035Y008750D01*
X034035Y008750D02*
X034035Y008150D01*
X033035Y008150D02*
X033035Y008750D01*
X033035Y002750D02*
X033035Y002150D01*
X034035Y002150D02*
X034035Y002750D01*
X035035Y002750D02*
X035035Y002150D01*
X036035Y002150D02*
X036035Y002750D01*
X021835Y021950D02*
X021235Y021950D01*
X021235Y022950D02*
X021835Y022950D01*
X021835Y023950D02*
X021235Y023950D01*
X021235Y024950D02*
X021835Y024950D01*
X021835Y025950D02*
X021235Y025950D01*
X021235Y026950D02*
X021835Y026950D01*
X024235Y024950D02*
X024835Y024950D01*
X024835Y023950D02*
X024235Y023950D01*
X014835Y017950D02*
X014235Y017950D01*
X014235Y016950D02*
X014835Y016950D01*
X014835Y015950D02*
X014235Y015950D01*
X012535Y005250D02*
X012535Y004650D01*
X011535Y004650D02*
X011535Y005250D01*
X011535Y003250D02*
X011535Y002650D01*
X012535Y002650D02*
X012535Y003250D01*
X001335Y005450D02*
X000735Y005450D01*
X000735Y006450D02*
X001335Y006450D01*
D15*
X003685Y021900D03*
X007185Y021900D03*
D16*
X005385Y021900D03*
X005385Y025000D03*
X003685Y025000D03*
X007185Y025000D03*
X008885Y025000D03*
X008885Y021900D03*
D17*
X002535Y022450D03*
X001535Y022450D03*
X001535Y023950D03*
X002535Y023950D03*
X002535Y025450D03*
X001535Y025450D03*
X001535Y026950D03*
X002535Y026950D03*
X002535Y028450D03*
X001535Y028450D03*
X001535Y030450D03*
X002535Y030450D03*
X016035Y025950D03*
X016035Y024950D03*
X017535Y024950D03*
X017535Y025950D03*
X019035Y025950D03*
X019035Y024950D03*
X026535Y019950D03*
X027535Y019950D03*
X027535Y018750D03*
X026535Y018750D03*
X026535Y017450D03*
X027535Y017450D03*
X027535Y015950D03*
X026535Y015950D03*
X026535Y014450D03*
X027535Y014450D03*
X027535Y012950D03*
X026535Y012950D03*
X026535Y011450D03*
X027535Y011450D03*
X030535Y007950D03*
X031535Y007950D03*
X031535Y006450D03*
X033285Y005950D03*
X033285Y006950D03*
X034035Y004450D03*
X034535Y003700D03*
X035035Y004450D03*
X031535Y004450D03*
X031535Y002950D03*
X031535Y001950D03*
X033535Y000950D03*
X034535Y000950D03*
X037535Y000950D03*
X038535Y000950D03*
X024035Y002950D03*
X024035Y003950D03*
X022035Y003950D03*
X022035Y002950D03*
X022035Y006450D03*
X022035Y007450D03*
X024035Y007450D03*
X024035Y006450D03*
X019535Y012950D03*
X016535Y012950D03*
X034535Y017950D03*
X037535Y017950D03*
X031535Y030950D03*
X030535Y030950D03*
X029535Y030950D03*
X028535Y030950D03*
X027535Y030950D03*
X026535Y030950D03*
D18*
X026535Y007950D03*
D19*
X026535Y006950D03*
X026535Y005950D03*
X026535Y004950D03*
X026535Y003950D03*
X026535Y002950D03*
X026535Y001950D03*
X029535Y001950D03*
X029535Y002950D03*
X029535Y003950D03*
X029535Y004950D03*
X029535Y005950D03*
X029535Y006950D03*
X029535Y007950D03*
D20*
X036535Y008450D03*
X038035Y008450D03*
D21*
X024535Y009450D03*
X023535Y009450D03*
X022535Y009450D03*
X022535Y011450D03*
X023535Y011450D03*
X024535Y011450D03*
X021535Y011450D03*
X019535Y011450D03*
X018535Y011450D03*
X017535Y011450D03*
X016535Y011450D03*
X014535Y011450D03*
X013535Y011450D03*
X012535Y011450D03*
X011535Y011450D03*
X012535Y009450D03*
X013535Y009450D03*
X014535Y009450D03*
X017535Y009450D03*
X018535Y009450D03*
X019535Y009450D03*
X019535Y000950D03*
X018535Y000950D03*
X017535Y000950D03*
X016535Y000950D03*
X014535Y000950D03*
X013535Y000950D03*
X012535Y000950D03*
X011535Y000950D03*
X009535Y000950D03*
X009535Y001950D03*
X009535Y002950D03*
X009535Y003950D03*
X001035Y003950D03*
X001035Y002950D03*
X001035Y001950D03*
X012535Y019950D03*
X013535Y019950D03*
X014535Y019950D03*
X017535Y019950D03*
X018535Y019950D03*
X019535Y019950D03*
X022535Y019950D03*
X023535Y019950D03*
X024535Y019950D03*
X026535Y023950D03*
X027535Y023950D03*
X028535Y023950D03*
X029535Y023950D03*
X030535Y023950D03*
X031535Y023950D03*
X032535Y023950D03*
X033535Y023950D03*
X034535Y023950D03*
X035535Y023950D03*
X036535Y023950D03*
X037535Y023950D03*
X038535Y024450D03*
X038535Y025450D03*
X038535Y026450D03*
X038535Y027450D03*
X038535Y028450D03*
X038535Y029450D03*
X037535Y029950D03*
X036535Y029950D03*
X035535Y029950D03*
X034535Y029950D03*
X033535Y029950D03*
X032535Y029950D03*
X031535Y029950D03*
X030535Y029950D03*
X029535Y029950D03*
X028535Y029950D03*
X027535Y029950D03*
X026535Y029950D03*
X026535Y025950D03*
X026535Y024950D03*
X033098Y025075D03*
X034098Y025075D03*
X035535Y022600D03*
X036535Y022600D03*
X037535Y022600D03*
X037535Y031100D03*
X036535Y031100D03*
X035535Y031100D03*
X038535Y031100D03*
X024535Y000950D03*
X023535Y000950D03*
X022535Y000950D03*
X021535Y000950D03*
D22*
X014485Y006700D03*
X014485Y007200D03*
X014485Y007700D03*
X014485Y008200D03*
X011585Y008200D03*
X011585Y007700D03*
X011585Y007200D03*
X011585Y006700D03*
D23*
X005535Y027450D03*
X004535Y027450D03*
X004535Y028450D03*
X005535Y028450D03*
X005535Y029450D03*
X004535Y029450D03*
D24*
X021535Y014001D03*
X022535Y014001D03*
X023535Y014001D03*
X024535Y014001D03*
X024535Y012899D03*
X023535Y012899D03*
X022535Y012899D03*
X021535Y012899D03*
X018035Y007001D03*
X018035Y005899D03*
X018035Y004001D03*
X018035Y002899D03*
D25*
X016535Y002950D03*
X016535Y003950D03*
X016535Y004950D03*
X016535Y005950D03*
X016535Y006950D03*
X016535Y007950D03*
X016535Y001950D03*
X016535Y000950D03*
X016535Y029950D03*
X017535Y029950D03*
X018535Y029950D03*
X019535Y029950D03*
X015535Y029950D03*
X014535Y029950D03*
X013535Y029950D03*
X012535Y029950D03*
X011535Y029950D03*
D26*
X011535Y028950D03*
X011535Y027950D03*
X012535Y027950D03*
X013535Y027950D03*
X013535Y028950D03*
X012535Y028950D03*
X014535Y028950D03*
X015535Y028950D03*
X015535Y027950D03*
X014535Y027950D03*
X016535Y027950D03*
X017535Y027950D03*
X017535Y028950D03*
X016535Y028950D03*
X018535Y028950D03*
X019535Y028950D03*
X019535Y027950D03*
X018535Y027950D03*
D27*
X018285Y023157D02*
X018285Y022743D01*
X017785Y022743D02*
X017785Y023157D01*
X017285Y023157D02*
X017285Y022743D01*
X016785Y022743D02*
X016785Y023157D01*
X001392Y009500D02*
X000978Y009500D01*
X000978Y009000D02*
X001392Y009000D01*
X001392Y008500D02*
X000978Y008500D01*
X000978Y008000D02*
X001392Y008000D01*
X032785Y030743D02*
X032785Y031157D01*
X033285Y031157D02*
X033285Y030743D01*
X033785Y030743D02*
X033785Y031157D01*
X034285Y031157D02*
X034285Y030743D01*
D28*
X038759Y019450D03*
X038759Y018450D03*
X038759Y017450D03*
X038759Y016450D03*
X038759Y015450D03*
X038759Y014450D03*
X038759Y013450D03*
X038759Y012450D03*
X029311Y012450D03*
X029311Y013450D03*
X029311Y014450D03*
X029311Y015450D03*
X029311Y016450D03*
X029311Y017450D03*
X029311Y018450D03*
X029311Y019450D03*
D29*
X030535Y016990D02*
X030535Y016510D01*
X031535Y016510D02*
X031535Y016990D01*
X032535Y016990D02*
X032535Y016510D01*
X033535Y016510D02*
X033535Y016990D01*
X034535Y016990D02*
X034535Y016510D01*
X035535Y016510D02*
X035535Y016990D01*
X036535Y016990D02*
X036535Y016510D01*
X037535Y016510D02*
X037535Y016990D01*
X037535Y013990D02*
X037535Y013510D01*
X036535Y013510D02*
X036535Y013990D01*
X035535Y013990D02*
X035535Y013510D01*
X034535Y013510D02*
X034535Y013990D01*
X033535Y013990D02*
X033535Y013510D01*
X032535Y013510D02*
X032535Y013990D01*
X031535Y013990D02*
X031535Y013510D01*
X030535Y013510D02*
X030535Y013990D01*
D30*
X024535Y016261D03*
X023535Y016261D03*
X022535Y016261D03*
X021535Y016261D03*
X021535Y017639D03*
X022535Y017639D03*
X023535Y017639D03*
X024535Y017639D03*
X019035Y017450D03*
X017035Y017450D03*
X017035Y014450D03*
X019035Y014450D03*
D31*
X004086Y009450D03*
X002984Y009450D03*
X002984Y007950D03*
X004086Y007950D03*
X004086Y006450D03*
X002984Y006450D03*
D32*
X011535Y016477D03*
X013335Y016477D03*
D33*
X012435Y013650D03*
D34*
X014535Y013390D03*
X014535Y014510D03*
X014385Y005560D03*
X014385Y004440D03*
D35*
X016535Y009450D03*
X021535Y009450D03*
X011535Y009450D03*
X001035Y000950D03*
X011535Y019950D03*
X016535Y019950D03*
X021535Y019950D03*
X038535Y022600D03*
M02*
