G75*
%MOIN*%
%OFA0B0*%
%FSLAX24Y24*%
%IPPOS*%
%LPD*%
%AMOC8*
5,1,8,0,0,1.08239X$1,22.5*
%
%ADD10C,0.0000*%
%ADD11C,0.0060*%
%ADD12C,0.0030*%
%ADD13C,0.0100*%
%ADD14C,0.0200*%
%ADD15C,0.0120*%
%ADD16C,0.0050*%
%ADD17C,0.0040*%
%ADD18C,0.0005*%
D10*
X000100Y000130D02*
X000100Y007126D01*
X038970Y007126D01*
X038970Y000130D01*
X000100Y000130D01*
D11*
X000980Y000380D02*
X003720Y000380D01*
X004200Y000280D02*
X004200Y001980D01*
X004202Y001997D01*
X004206Y002014D01*
X004213Y002030D01*
X004223Y002044D01*
X004236Y002057D01*
X004250Y002067D01*
X004266Y002074D01*
X004283Y002078D01*
X004300Y002080D01*
X005900Y002080D01*
X005917Y002078D01*
X005934Y002074D01*
X005950Y002067D01*
X005964Y002057D01*
X005977Y002044D01*
X005987Y002030D01*
X005994Y002014D01*
X005998Y001997D01*
X006000Y001980D01*
X006000Y000280D01*
X005998Y000263D01*
X005994Y000246D01*
X005987Y000230D01*
X005977Y000216D01*
X005964Y000203D01*
X005950Y000193D01*
X005934Y000186D01*
X005917Y000182D01*
X005900Y000180D01*
X004300Y000180D01*
X004283Y000182D01*
X004266Y000186D01*
X004250Y000193D01*
X004236Y000203D01*
X004223Y000216D01*
X004213Y000230D01*
X004206Y000246D01*
X004202Y000263D01*
X004200Y000280D01*
X006200Y000280D02*
X006200Y001980D01*
X006202Y001997D01*
X006206Y002014D01*
X006213Y002030D01*
X006223Y002044D01*
X006236Y002057D01*
X006250Y002067D01*
X006266Y002074D01*
X006283Y002078D01*
X006300Y002080D01*
X007900Y002080D01*
X007917Y002078D01*
X007934Y002074D01*
X007950Y002067D01*
X007964Y002057D01*
X007977Y002044D01*
X007987Y002030D01*
X007994Y002014D01*
X007998Y001997D01*
X008000Y001980D01*
X008000Y000280D01*
X007998Y000263D01*
X007994Y000246D01*
X007987Y000230D01*
X007977Y000216D01*
X007964Y000203D01*
X007950Y000193D01*
X007934Y000186D01*
X007917Y000182D01*
X007900Y000180D01*
X006300Y000180D01*
X006283Y000182D01*
X006266Y000186D01*
X006250Y000193D01*
X006236Y000203D01*
X006223Y000216D01*
X006213Y000230D01*
X006206Y000246D01*
X006202Y000263D01*
X006200Y000280D01*
X008100Y000880D02*
X008350Y000630D01*
X009850Y000630D01*
X010100Y000880D01*
X010100Y001380D01*
X009850Y001630D01*
X010100Y001880D01*
X010100Y002380D01*
X009850Y002630D01*
X010100Y002880D01*
X010100Y003380D01*
X009850Y003630D01*
X010100Y003880D01*
X010100Y004380D01*
X009850Y004630D01*
X009350Y004630D01*
X009100Y004880D01*
X009100Y005380D01*
X009350Y005630D01*
X009850Y005630D01*
X010100Y005380D01*
X010100Y004880D01*
X009850Y004630D01*
X008350Y004630D01*
X008850Y004630D01*
X009100Y004880D01*
X009100Y005380D01*
X008850Y005630D01*
X008350Y005630D01*
X008100Y005380D01*
X008100Y004880D01*
X008350Y004630D01*
X008100Y004380D01*
X008100Y003880D01*
X008350Y003630D01*
X008100Y003380D01*
X008100Y002880D01*
X008350Y002630D01*
X008100Y002380D01*
X008100Y001880D01*
X008350Y001630D01*
X008100Y001380D01*
X008100Y000880D01*
X007100Y000980D02*
X007100Y001030D01*
X007100Y001230D02*
X007100Y001280D01*
X005100Y001280D02*
X005100Y001230D01*
X005100Y001030D02*
X005100Y000980D01*
X005450Y002180D02*
X006750Y002180D01*
X006776Y002182D01*
X006802Y002187D01*
X006827Y002195D01*
X006850Y002207D01*
X006872Y002221D01*
X006891Y002239D01*
X006909Y002258D01*
X006923Y002280D01*
X006935Y002303D01*
X006943Y002328D01*
X006948Y002354D01*
X006950Y002380D01*
X006600Y002630D02*
X006220Y002630D01*
X005970Y002630D02*
X005600Y002630D01*
X005250Y002380D02*
X005252Y002354D01*
X005257Y002328D01*
X005265Y002303D01*
X005277Y002280D01*
X005291Y002258D01*
X005309Y002239D01*
X005328Y002221D01*
X005350Y002207D01*
X005373Y002195D01*
X005398Y002187D01*
X005424Y002182D01*
X005450Y002180D01*
X005250Y002880D02*
X005252Y002906D01*
X005257Y002932D01*
X005265Y002957D01*
X005277Y002980D01*
X005291Y003002D01*
X005309Y003021D01*
X005328Y003039D01*
X005350Y003053D01*
X005373Y003065D01*
X005398Y003073D01*
X005424Y003078D01*
X005450Y003080D01*
X006750Y003080D01*
X006776Y003078D01*
X006802Y003073D01*
X006827Y003065D01*
X006850Y003053D01*
X006872Y003039D01*
X006891Y003021D01*
X006909Y003002D01*
X006923Y002980D01*
X006935Y002957D01*
X006943Y002932D01*
X006948Y002906D01*
X006950Y002880D01*
X003720Y004380D02*
X002470Y004380D01*
X002230Y004380D01*
X001300Y004380D01*
X002230Y004380D02*
X002232Y004359D01*
X002237Y004339D01*
X002246Y004320D01*
X002258Y004303D01*
X002273Y004288D01*
X002290Y004276D01*
X002309Y004267D01*
X002329Y004262D01*
X002350Y004260D01*
X002371Y004262D01*
X002391Y004267D01*
X002410Y004276D01*
X002427Y004288D01*
X002442Y004303D01*
X002454Y004320D01*
X002463Y004339D01*
X002468Y004359D01*
X002470Y004380D01*
X004305Y004730D02*
X004463Y004730D01*
X004525Y005280D02*
X004488Y005229D01*
X004453Y005176D01*
X004421Y005120D01*
X004393Y005063D01*
X004369Y005004D01*
X004348Y004944D01*
X004331Y004883D01*
X004317Y004821D01*
X004308Y004758D01*
X004302Y004695D01*
X004300Y004631D01*
X004302Y004567D01*
X004308Y004504D01*
X004317Y004441D01*
X004330Y004379D01*
X004348Y004318D01*
X004368Y004258D01*
X004393Y004199D01*
X004420Y004142D01*
X004452Y004086D01*
X004486Y004033D01*
X004524Y003982D01*
X004565Y003933D01*
X004609Y003887D01*
X004655Y003843D01*
X004704Y003802D01*
X004755Y003765D01*
X004809Y003730D01*
X004864Y003699D01*
X004921Y003671D01*
X004980Y003647D01*
X005040Y003627D01*
X005660Y003627D02*
X005720Y003647D01*
X005779Y003671D01*
X005836Y003699D01*
X005891Y003730D01*
X005945Y003765D01*
X005996Y003802D01*
X006045Y003843D01*
X006091Y003887D01*
X006135Y003933D01*
X006176Y003982D01*
X006214Y004033D01*
X006248Y004086D01*
X006279Y004142D01*
X006307Y004199D01*
X006332Y004258D01*
X006352Y004318D01*
X006370Y004379D01*
X006383Y004441D01*
X006392Y004504D01*
X006398Y004567D01*
X006400Y004631D01*
X006398Y004695D01*
X006392Y004758D01*
X006383Y004821D01*
X006369Y004883D01*
X006352Y004944D01*
X006331Y005004D01*
X006307Y005063D01*
X006279Y005120D01*
X006247Y005176D01*
X006212Y005229D01*
X006175Y005280D01*
X004525Y005280D01*
X004350Y005630D02*
X004850Y005630D01*
X005100Y005880D01*
X005100Y006380D01*
X004850Y006630D01*
X004350Y006630D01*
X004100Y006380D01*
X004100Y005880D01*
X004350Y005630D01*
X003100Y005630D02*
X003100Y005830D01*
X003100Y005630D02*
X002900Y005630D01*
X002300Y005630D02*
X002100Y005630D01*
X002100Y005830D01*
X001600Y005830D02*
X001600Y005630D01*
X001400Y005630D01*
X000800Y005630D02*
X000600Y005630D01*
X000600Y005830D01*
X000600Y006430D02*
X000600Y006630D01*
X000800Y006630D01*
X001400Y006630D02*
X001600Y006630D01*
X001600Y006430D01*
X002100Y006430D02*
X002100Y006630D01*
X002300Y006630D01*
X002900Y006630D02*
X003100Y006630D01*
X003100Y006430D01*
X009100Y007230D02*
X009147Y007228D01*
X009195Y007222D01*
X009241Y007213D01*
X009287Y007200D01*
X009331Y007184D01*
X009375Y007163D01*
X009416Y007140D01*
X009455Y007114D01*
X009492Y007084D01*
X009527Y007051D01*
X009559Y007016D01*
X009588Y006979D01*
X009100Y006030D02*
X009055Y006032D01*
X009009Y006037D01*
X008965Y006045D01*
X008921Y006057D01*
X008878Y006073D01*
X008836Y006091D01*
X008796Y006113D01*
X008758Y006137D01*
X008722Y006164D01*
X008687Y006194D01*
X008656Y006227D01*
X008626Y006262D01*
X009100Y006030D02*
X009145Y006032D01*
X009191Y006037D01*
X009235Y006045D01*
X009279Y006057D01*
X009322Y006073D01*
X009364Y006091D01*
X009404Y006113D01*
X009442Y006137D01*
X009478Y006164D01*
X009513Y006194D01*
X009544Y006227D01*
X009574Y006262D01*
X009100Y007230D02*
X009054Y007228D01*
X009008Y007223D01*
X008962Y007214D01*
X008917Y007202D01*
X008874Y007186D01*
X008832Y007167D01*
X008791Y007144D01*
X008752Y007119D01*
X008716Y007091D01*
X008681Y007060D01*
X008649Y007026D01*
X008620Y006990D01*
X006395Y004730D02*
X006237Y004730D01*
X016100Y001880D02*
X016350Y002130D01*
X016850Y002130D01*
X017100Y001880D01*
X017100Y000380D01*
X016850Y000130D01*
X016350Y000130D01*
X016100Y000380D01*
X016100Y001880D01*
X017100Y001880D02*
X017350Y002130D01*
X017850Y002130D01*
X018100Y001880D01*
X018100Y000380D01*
X017850Y000130D01*
X017350Y000130D01*
X017100Y000380D01*
X018100Y000380D02*
X018350Y000130D01*
X018850Y000130D01*
X019100Y000380D01*
X019100Y001880D01*
X018850Y002130D01*
X018350Y002130D01*
X018100Y001880D01*
X019100Y001880D02*
X019350Y002130D01*
X019850Y002130D01*
X020100Y001880D01*
X020100Y000380D01*
X019850Y000130D01*
X019350Y000130D01*
X019100Y000380D01*
X020100Y000380D02*
X020350Y000130D01*
X020850Y000130D01*
X021100Y000380D01*
X021100Y001880D01*
X020850Y002130D01*
X020350Y002130D01*
X020100Y001880D01*
X021100Y001880D02*
X021350Y002130D01*
X021850Y002130D01*
X022100Y001880D01*
X022100Y000380D01*
X021850Y000130D01*
X021350Y000130D01*
X021100Y000380D01*
X022100Y000380D02*
X022350Y000130D01*
X022850Y000130D01*
X023100Y000380D01*
X023100Y001880D01*
X022850Y002130D01*
X022350Y002130D01*
X022100Y001880D01*
X023100Y001880D02*
X023350Y002130D01*
X023850Y002130D01*
X024100Y001880D01*
X024100Y000380D01*
X023850Y000130D01*
X023350Y000130D01*
X023100Y000380D01*
X029100Y005880D02*
X029350Y005630D01*
X029850Y005630D01*
X030100Y005880D01*
X030100Y006380D01*
X029850Y006630D01*
X029350Y006630D01*
X029100Y006380D01*
X029100Y005880D01*
D12*
X005725Y006663D02*
X005725Y006857D01*
X005677Y006905D01*
X005580Y006905D01*
X005531Y006857D01*
X005531Y006663D01*
X005580Y006615D01*
X005677Y006615D01*
X005725Y006663D01*
X005432Y006615D02*
X005335Y006615D01*
X005383Y006615D02*
X005383Y006905D01*
X005335Y006905D02*
X005432Y006905D01*
X000949Y004727D02*
X000635Y004413D01*
X000792Y004413D02*
X000792Y004727D01*
X000635Y004727D02*
X000949Y004413D01*
X000949Y004570D02*
X000635Y004570D01*
D13*
X008405Y006233D02*
X008435Y006185D01*
X008468Y006140D01*
X008504Y006097D01*
X008542Y006056D01*
X008584Y006019D01*
X008628Y005984D01*
X008674Y005953D01*
X008723Y005924D01*
X008773Y005900D01*
X008825Y005879D01*
X008879Y005861D01*
X008933Y005848D01*
X008988Y005838D01*
X009044Y005832D01*
X009100Y005830D01*
X008394Y007006D02*
X008421Y007053D01*
X008451Y007098D01*
X008484Y007141D01*
X008520Y007181D01*
X008559Y007219D01*
X008600Y007254D01*
X008643Y007287D01*
X008688Y007316D01*
X008736Y007342D01*
X008785Y007365D01*
X008835Y007385D01*
X008886Y007401D01*
X008939Y007414D01*
X008992Y007423D01*
X009046Y007428D01*
X009100Y007430D01*
X009711Y006113D02*
X009675Y006074D01*
X009636Y006036D01*
X009596Y006002D01*
X009553Y005970D01*
X009508Y005942D01*
X009461Y005916D01*
X009412Y005893D01*
X009362Y005874D01*
X009311Y005858D01*
X009259Y005846D01*
X009207Y005837D01*
X009153Y005832D01*
X009100Y005830D01*
X009715Y007142D02*
X009679Y007182D01*
X009640Y007220D01*
X009599Y007255D01*
X009556Y007287D01*
X009511Y007317D01*
X009464Y007343D01*
X009415Y007365D01*
X009364Y007385D01*
X009313Y007401D01*
X009261Y007414D01*
X009207Y007423D01*
X009154Y007428D01*
X009100Y007430D01*
X007400Y001230D02*
X007100Y001230D01*
X006800Y001230D01*
X006800Y001030D02*
X007100Y001030D01*
X007400Y001030D01*
X005400Y001030D02*
X005100Y001030D01*
X004800Y001030D01*
X004800Y001230D02*
X005100Y001230D01*
X005400Y001230D01*
D14*
X007050Y005630D02*
X007150Y005630D01*
X007150Y006630D02*
X007050Y006630D01*
D15*
X006220Y002930D02*
X006220Y002630D01*
X006220Y002330D01*
X005970Y002330D02*
X005970Y002630D01*
X005970Y002930D01*
X029850Y003230D02*
X029850Y002480D01*
X037850Y002480D01*
X037850Y004780D01*
X029850Y004780D01*
X029850Y004030D01*
X029889Y004028D01*
X029928Y004022D01*
X029966Y004013D01*
X030003Y004000D01*
X030039Y003983D01*
X030072Y003963D01*
X030104Y003939D01*
X030133Y003913D01*
X030159Y003884D01*
X030183Y003852D01*
X030203Y003819D01*
X030220Y003783D01*
X030233Y003746D01*
X030242Y003708D01*
X030248Y003669D01*
X030250Y003630D01*
X030248Y003591D01*
X030242Y003552D01*
X030233Y003514D01*
X030220Y003477D01*
X030203Y003441D01*
X030183Y003408D01*
X030159Y003376D01*
X030133Y003347D01*
X030104Y003321D01*
X030072Y003297D01*
X030039Y003277D01*
X030003Y003260D01*
X029966Y003247D01*
X029928Y003238D01*
X029889Y003232D01*
X029850Y003230D01*
D16*
X029675Y003272D02*
X029675Y003573D01*
X029675Y003422D02*
X029225Y003422D01*
X029375Y003272D01*
X029300Y003112D02*
X029225Y003037D01*
X029225Y002887D01*
X029300Y002812D01*
X029600Y002812D01*
X029675Y002887D01*
X029675Y003037D01*
X029600Y003112D01*
X030366Y003006D02*
X030533Y003006D01*
X030575Y003047D01*
X030533Y003148D02*
X030408Y003148D01*
X030408Y003047D02*
X030408Y002964D01*
X030408Y002859D02*
X030408Y002817D01*
X030492Y002734D01*
X030575Y002734D02*
X030408Y002734D01*
X030450Y002624D02*
X030575Y002624D01*
X030575Y002499D01*
X030533Y002457D01*
X030492Y002499D01*
X030492Y002624D01*
X030450Y002624D02*
X030408Y002583D01*
X030408Y002499D01*
X030450Y002348D02*
X030575Y002348D01*
X030575Y002265D02*
X030450Y002265D01*
X030408Y002306D01*
X030450Y002348D01*
X030450Y002265D02*
X030408Y002223D01*
X030408Y002181D01*
X030575Y002181D01*
X030533Y002072D02*
X030575Y002030D01*
X030575Y001947D01*
X030533Y001905D01*
X030450Y001947D02*
X030450Y002030D01*
X030492Y002072D01*
X030533Y002072D01*
X030366Y002072D02*
X030325Y002030D01*
X030325Y001947D01*
X030366Y001905D01*
X030408Y001905D01*
X030450Y001947D01*
X029100Y001630D02*
X038600Y001630D01*
X038600Y005630D01*
X029100Y005630D01*
X029100Y001630D01*
X025375Y002305D02*
X024925Y002305D01*
X024925Y002155D02*
X024925Y002455D01*
X025075Y002615D02*
X024925Y002766D01*
X025375Y002766D01*
X025375Y002916D02*
X025375Y002615D01*
X026250Y002805D02*
X026250Y004455D01*
X025650Y004183D02*
X025650Y004077D01*
X024250Y004455D02*
X024250Y002805D01*
X023650Y003077D02*
X023650Y003183D01*
X023375Y002916D02*
X023375Y002615D01*
X023075Y002916D01*
X023000Y002916D01*
X022925Y002841D01*
X022925Y002690D01*
X023000Y002615D01*
X022925Y002455D02*
X022925Y002155D01*
X022925Y002305D02*
X023375Y002305D01*
X021375Y002305D02*
X020925Y002305D01*
X020925Y002155D02*
X020925Y002455D01*
X021000Y002615D02*
X020925Y002690D01*
X020925Y002841D01*
X021000Y002916D01*
X021075Y002916D01*
X021150Y002841D01*
X021225Y002916D01*
X021300Y002916D01*
X021375Y002841D01*
X021375Y002690D01*
X021300Y002615D01*
X021150Y002766D02*
X021150Y002841D01*
X022250Y002805D02*
X022250Y004455D01*
X021650Y004183D02*
X021650Y004077D01*
X020250Y004455D02*
X020250Y002805D01*
X019375Y002841D02*
X018925Y002841D01*
X019150Y002615D01*
X019150Y002916D01*
X019650Y003077D02*
X019650Y003183D01*
X018250Y002805D02*
X018250Y004455D01*
X017650Y004183D02*
X017650Y004077D01*
X016250Y004455D02*
X016250Y002805D01*
X016425Y002916D02*
X016425Y002615D01*
X016650Y002615D01*
X016575Y002766D01*
X016575Y002841D01*
X016650Y002916D01*
X016800Y002916D01*
X016875Y002841D01*
X016875Y002690D01*
X016800Y002615D01*
X016425Y002455D02*
X016425Y002155D01*
X016425Y002305D02*
X016875Y002305D01*
X015375Y002305D02*
X014925Y002305D01*
X014925Y002155D02*
X014925Y002455D01*
X015150Y002615D02*
X015150Y002841D01*
X015225Y002916D01*
X015300Y002916D01*
X015375Y002841D01*
X015375Y002690D01*
X015300Y002615D01*
X015150Y002615D01*
X015000Y002766D01*
X014925Y002916D01*
X014250Y002805D02*
X014250Y004455D01*
X013650Y004183D02*
X013650Y004077D01*
X012250Y004455D02*
X012250Y002805D01*
X012150Y002841D02*
X012150Y002690D01*
X012075Y002615D01*
X012000Y002615D01*
X011925Y002690D01*
X011925Y002841D01*
X012000Y002916D01*
X012075Y002916D01*
X012150Y002841D01*
X012225Y002916D01*
X012300Y002916D01*
X012375Y002841D01*
X012375Y002690D01*
X012300Y002615D01*
X012225Y002615D01*
X012150Y002690D01*
X012925Y002615D02*
X012925Y002916D01*
X013000Y002916D01*
X013300Y002615D01*
X013375Y002615D01*
X012925Y002455D02*
X012925Y002155D01*
X012925Y002305D02*
X013375Y002305D01*
X012375Y002305D02*
X011925Y002305D01*
X011925Y002155D02*
X011925Y002455D01*
X011650Y003077D02*
X011650Y003183D01*
X013650Y003183D02*
X013650Y003077D01*
X015650Y003077D02*
X015650Y003183D01*
X017650Y003183D02*
X017650Y003077D01*
X018925Y002455D02*
X018925Y002155D01*
X018925Y002305D02*
X019375Y002305D01*
X021650Y003077D02*
X021650Y003183D01*
X025650Y003183D02*
X025650Y003077D01*
X029225Y002655D02*
X029225Y002505D01*
X029225Y002580D02*
X029675Y002580D01*
X029675Y002505D02*
X029675Y002655D01*
X030533Y003148D02*
X030575Y003190D01*
X030575Y003315D01*
X030617Y003315D02*
X030658Y003273D01*
X030658Y003231D01*
X030617Y003315D02*
X030408Y003315D01*
X030408Y003701D02*
X030533Y003701D01*
X030575Y003742D01*
X030575Y003867D01*
X030408Y003867D01*
X030408Y003977D02*
X030450Y004018D01*
X030450Y004102D01*
X030492Y004144D01*
X030533Y004144D01*
X030575Y004102D01*
X030575Y004018D01*
X030533Y003977D01*
X030408Y003977D02*
X030366Y003977D01*
X030325Y004018D01*
X030325Y004102D01*
X030366Y004144D01*
X030325Y004253D02*
X030575Y004253D01*
X030450Y004253D02*
X030408Y004295D01*
X030408Y004378D01*
X030450Y004420D01*
X030575Y004420D01*
X030575Y004529D02*
X030575Y004613D01*
X030575Y004571D02*
X030408Y004571D01*
X030408Y004529D01*
X030325Y004571D02*
X030283Y004571D01*
X030450Y004713D02*
X030408Y004755D01*
X030408Y004838D01*
X030450Y004880D01*
X030492Y004880D01*
X030492Y004713D01*
X030533Y004713D02*
X030450Y004713D01*
X030533Y004713D02*
X030575Y004755D01*
X030575Y004838D01*
X030575Y004990D02*
X030575Y005073D01*
X030575Y005031D02*
X030325Y005031D01*
X030325Y004990D01*
X030450Y005174D02*
X030408Y005215D01*
X030408Y005341D01*
X030325Y005341D02*
X030575Y005341D01*
X030575Y005215D01*
X030533Y005174D01*
X030450Y005174D01*
X023650Y004183D02*
X023650Y004077D01*
X019650Y004077D02*
X019650Y004183D01*
X015650Y004183D02*
X015650Y004077D01*
X011650Y004077D02*
X011650Y004183D01*
X007925Y004230D02*
X007850Y004155D01*
X007775Y004155D01*
X007700Y004230D01*
X007700Y004380D01*
X007775Y004455D01*
X007850Y004455D01*
X007925Y004380D01*
X007925Y004230D01*
X007700Y004230D02*
X007625Y004155D01*
X007550Y004155D01*
X007475Y004230D01*
X007475Y004380D01*
X007550Y004455D01*
X007625Y004455D01*
X007700Y004380D01*
X000775Y006830D02*
X000775Y007130D01*
X000625Y006980D02*
X000925Y006980D01*
X002125Y006980D02*
X002425Y006980D01*
X010725Y001255D02*
X010725Y000955D01*
X010425Y000955D02*
X010275Y001105D01*
X010725Y001105D01*
D17*
X012120Y003427D02*
X012120Y003657D01*
X012196Y003734D01*
X012350Y003734D01*
X012427Y003657D01*
X012427Y003427D01*
X012580Y003427D02*
X012120Y003427D01*
X012427Y003581D02*
X012580Y003734D01*
X012350Y003888D02*
X012350Y004195D01*
X012427Y004348D02*
X012427Y004578D01*
X012350Y004655D01*
X012196Y004655D01*
X012120Y004578D01*
X012120Y004348D01*
X012580Y004348D01*
X012427Y004501D02*
X012580Y004655D01*
X012503Y004808D02*
X012196Y004808D01*
X012120Y004885D01*
X012120Y005039D01*
X012196Y005115D01*
X012503Y005115D01*
X012580Y005039D01*
X012580Y004885D01*
X012503Y004808D01*
X014120Y004885D02*
X014196Y004808D01*
X014503Y004808D01*
X014580Y004885D01*
X014580Y005039D01*
X014503Y005115D01*
X014196Y005115D01*
X014120Y005039D01*
X014120Y004885D01*
X014196Y004655D02*
X014350Y004655D01*
X014427Y004578D01*
X014427Y004348D01*
X014580Y004348D02*
X014120Y004348D01*
X014120Y004578D01*
X014196Y004655D01*
X014427Y004501D02*
X014580Y004655D01*
X016120Y004578D02*
X016120Y004348D01*
X016580Y004348D01*
X016427Y004348D02*
X016427Y004578D01*
X016350Y004655D01*
X016196Y004655D01*
X016120Y004578D01*
X016427Y004501D02*
X016580Y004655D01*
X016503Y004808D02*
X016196Y004808D01*
X016120Y004885D01*
X016120Y005039D01*
X016196Y005115D01*
X016503Y005115D01*
X016580Y005039D01*
X016580Y004885D01*
X016503Y004808D01*
X018120Y004885D02*
X018196Y004808D01*
X018503Y004808D01*
X018580Y004885D01*
X018580Y005039D01*
X018503Y005115D01*
X018196Y005115D01*
X018120Y005039D01*
X018120Y004885D01*
X018196Y004655D02*
X018350Y004655D01*
X018427Y004578D01*
X018427Y004348D01*
X018580Y004348D02*
X018120Y004348D01*
X018120Y004578D01*
X018196Y004655D01*
X018427Y004501D02*
X018580Y004655D01*
X020120Y004578D02*
X020120Y004348D01*
X020580Y004348D01*
X020427Y004348D02*
X020427Y004578D01*
X020350Y004655D01*
X020196Y004655D01*
X020120Y004578D01*
X020427Y004501D02*
X020580Y004655D01*
X020503Y004808D02*
X020196Y004808D01*
X020120Y004885D01*
X020120Y005039D01*
X020196Y005115D01*
X020503Y005115D01*
X020580Y005039D01*
X020580Y004885D01*
X020503Y004808D01*
X022120Y004885D02*
X022196Y004808D01*
X022503Y004808D01*
X022580Y004885D01*
X022580Y005039D01*
X022503Y005115D01*
X022196Y005115D01*
X022120Y005039D01*
X022120Y004885D01*
X022196Y004655D02*
X022350Y004655D01*
X022427Y004578D01*
X022427Y004348D01*
X022580Y004348D02*
X022120Y004348D01*
X022120Y004578D01*
X022196Y004655D01*
X022427Y004501D02*
X022580Y004655D01*
X024120Y004578D02*
X024120Y004348D01*
X024580Y004348D01*
X024427Y004348D02*
X024427Y004578D01*
X024350Y004655D01*
X024196Y004655D01*
X024120Y004578D01*
X024427Y004501D02*
X024580Y004655D01*
X024503Y004808D02*
X024196Y004808D01*
X024120Y004885D01*
X024120Y005039D01*
X024196Y005115D01*
X024503Y005115D01*
X024580Y005039D01*
X024580Y004885D01*
X024503Y004808D01*
X026120Y004885D02*
X026196Y004808D01*
X026503Y004808D01*
X026580Y004885D01*
X026580Y005039D01*
X026503Y005115D01*
X026196Y005115D01*
X026120Y005039D01*
X026120Y004885D01*
X026196Y004655D02*
X026350Y004655D01*
X026427Y004578D01*
X026427Y004348D01*
X026580Y004348D02*
X026120Y004348D01*
X026120Y004578D01*
X026196Y004655D01*
X026427Y004501D02*
X026580Y004655D01*
X026350Y004195D02*
X026350Y003888D01*
X026350Y003734D02*
X026427Y003657D01*
X026427Y003427D01*
X026580Y003427D02*
X026120Y003427D01*
X026120Y003657D01*
X026196Y003734D01*
X026350Y003734D01*
X026427Y003581D02*
X026580Y003734D01*
X027120Y003803D02*
X027350Y003803D01*
X027427Y003880D01*
X027427Y004034D01*
X027350Y004110D01*
X027120Y004110D01*
X027120Y003650D01*
X027273Y003803D02*
X027427Y003650D01*
X028041Y003650D02*
X028041Y004110D01*
X028271Y004110D01*
X028348Y004034D01*
X028348Y003880D01*
X028271Y003803D01*
X028041Y003803D01*
X028194Y003803D02*
X028348Y003650D01*
X028501Y003727D02*
X028578Y003650D01*
X028731Y003650D01*
X028808Y003727D01*
X028808Y004034D01*
X028731Y004110D01*
X028578Y004110D01*
X028501Y004034D01*
X028501Y003727D01*
X028962Y003650D02*
X029115Y003803D01*
X029268Y003650D01*
X029268Y004110D01*
X029422Y004034D02*
X029499Y004110D01*
X029652Y004110D01*
X029729Y004034D01*
X029729Y003957D01*
X029652Y003880D01*
X029729Y003803D01*
X029729Y003727D01*
X029652Y003650D01*
X029499Y003650D01*
X029422Y003727D01*
X028962Y003650D02*
X028962Y004110D01*
X029575Y003880D02*
X029652Y003880D01*
X027887Y003880D02*
X027580Y003880D01*
X024580Y003734D02*
X024427Y003581D01*
X024427Y003657D02*
X024427Y003427D01*
X024580Y003427D02*
X024120Y003427D01*
X024120Y003657D01*
X024196Y003734D01*
X024350Y003734D01*
X024427Y003657D01*
X024350Y003888D02*
X024350Y004195D01*
X022350Y004195D02*
X022350Y003888D01*
X022350Y003734D02*
X022196Y003734D01*
X022120Y003657D01*
X022120Y003427D01*
X022580Y003427D01*
X022427Y003427D02*
X022427Y003657D01*
X022350Y003734D01*
X022427Y003581D02*
X022580Y003734D01*
X020580Y003734D02*
X020427Y003581D01*
X020427Y003657D02*
X020427Y003427D01*
X020580Y003427D02*
X020120Y003427D01*
X020120Y003657D01*
X020196Y003734D01*
X020350Y003734D01*
X020427Y003657D01*
X020350Y003888D02*
X020350Y004195D01*
X018580Y003734D02*
X018427Y003581D01*
X018427Y003657D02*
X018427Y003427D01*
X018580Y003427D02*
X018120Y003427D01*
X018120Y003657D01*
X018196Y003734D01*
X018350Y003734D01*
X018427Y003657D01*
X018350Y003888D02*
X018350Y004195D01*
X016350Y004195D02*
X016350Y003888D01*
X016350Y003734D02*
X016427Y003657D01*
X016427Y003427D01*
X016580Y003427D02*
X016120Y003427D01*
X016120Y003657D01*
X016196Y003734D01*
X016350Y003734D01*
X016427Y003581D02*
X016580Y003734D01*
X014580Y003734D02*
X014427Y003581D01*
X014427Y003657D02*
X014427Y003427D01*
X014580Y003427D02*
X014120Y003427D01*
X014120Y003657D01*
X014196Y003734D01*
X014350Y003734D01*
X014427Y003657D01*
X014350Y003888D02*
X014350Y004195D01*
X014120Y005269D02*
X014580Y005269D01*
X014427Y005422D01*
X014580Y005576D01*
X014120Y005576D01*
X014120Y005729D02*
X014120Y006036D01*
X014196Y006036D01*
X014503Y005729D01*
X014580Y005729D01*
X016120Y005576D02*
X016580Y005576D01*
X016427Y005422D01*
X016580Y005269D01*
X016120Y005269D01*
X018120Y005269D02*
X018580Y005269D01*
X018427Y005422D01*
X018580Y005576D01*
X018120Y005576D01*
X018120Y005729D02*
X018350Y005729D01*
X018273Y005883D01*
X018273Y005959D01*
X018350Y006036D01*
X018503Y006036D01*
X018580Y005959D01*
X018580Y005806D01*
X018503Y005729D01*
X018120Y005729D02*
X018120Y006036D01*
X018120Y006190D02*
X018120Y006420D01*
X018196Y006497D01*
X018350Y006497D01*
X018427Y006420D01*
X018427Y006190D01*
X018580Y006190D02*
X018120Y006190D01*
X016580Y006190D02*
X016120Y006190D01*
X016120Y006420D01*
X016196Y006497D01*
X016350Y006497D01*
X016427Y006420D01*
X016427Y006190D01*
X016427Y006036D02*
X016350Y005959D01*
X016350Y005729D01*
X016503Y005729D01*
X016580Y005806D01*
X016580Y005959D01*
X016503Y006036D01*
X016427Y006036D01*
X016196Y005883D02*
X016120Y006036D01*
X016196Y005883D02*
X016350Y005729D01*
X014580Y006190D02*
X014120Y006190D01*
X014120Y006420D01*
X014196Y006497D01*
X014350Y006497D01*
X014427Y006420D01*
X014427Y006190D01*
X012580Y006190D02*
X012120Y006190D01*
X012120Y006420D01*
X012196Y006497D01*
X012350Y006497D01*
X012427Y006420D01*
X012427Y006190D01*
X012427Y006036D02*
X012503Y006036D01*
X012580Y005959D01*
X012580Y005806D01*
X012503Y005729D01*
X012427Y005729D01*
X012350Y005806D01*
X012350Y005959D01*
X012427Y006036D01*
X012350Y005959D02*
X012273Y006036D01*
X012196Y006036D01*
X012120Y005959D01*
X012120Y005806D01*
X012196Y005729D01*
X012273Y005729D01*
X012350Y005806D01*
X012580Y005576D02*
X012120Y005576D01*
X012427Y005422D02*
X012580Y005576D01*
X012427Y005422D02*
X012580Y005269D01*
X012120Y005269D01*
X020120Y005269D02*
X020580Y005269D01*
X020427Y005422D01*
X020580Y005576D01*
X020120Y005576D01*
X020350Y005729D02*
X020350Y006036D01*
X020580Y005959D02*
X020120Y005959D01*
X020350Y005729D01*
X022120Y005806D02*
X022196Y005729D01*
X022120Y005806D02*
X022120Y005959D01*
X022196Y006036D01*
X022273Y006036D01*
X022350Y005959D01*
X022427Y006036D01*
X022503Y006036D01*
X022580Y005959D01*
X022580Y005806D01*
X022503Y005729D01*
X022580Y005576D02*
X022120Y005576D01*
X022427Y005422D02*
X022580Y005576D01*
X022427Y005422D02*
X022580Y005269D01*
X022120Y005269D01*
X024120Y005269D02*
X024580Y005269D01*
X024427Y005422D01*
X024580Y005576D01*
X024120Y005576D01*
X024196Y005729D02*
X024120Y005806D01*
X024120Y005959D01*
X024196Y006036D01*
X024273Y006036D01*
X024580Y005729D01*
X024580Y006036D01*
X024580Y006190D02*
X024120Y006190D01*
X024120Y006420D01*
X024196Y006497D01*
X024350Y006497D01*
X024427Y006420D01*
X024427Y006190D01*
X026120Y006190D02*
X026120Y006420D01*
X026196Y006497D01*
X026350Y006497D01*
X026427Y006420D01*
X026427Y006190D01*
X026580Y006190D02*
X026120Y006190D01*
X026580Y006036D02*
X026580Y005729D01*
X026273Y005729D02*
X026120Y005883D01*
X026580Y005883D01*
X027120Y005610D02*
X027350Y005610D01*
X027427Y005534D01*
X027427Y005380D01*
X027350Y005303D01*
X027120Y005303D01*
X027273Y005303D02*
X027427Y005150D01*
X027120Y005150D02*
X027120Y005610D01*
X026580Y005576D02*
X026120Y005576D01*
X026427Y005422D02*
X026580Y005576D01*
X026427Y005422D02*
X026580Y005269D01*
X026120Y005269D01*
X027580Y005380D02*
X027887Y005380D01*
X028041Y005303D02*
X028271Y005303D01*
X028348Y005380D01*
X028348Y005534D01*
X028271Y005610D01*
X028041Y005610D01*
X028041Y005150D01*
X028194Y005303D02*
X028348Y005150D01*
X028501Y005227D02*
X028578Y005150D01*
X028731Y005150D01*
X028808Y005227D01*
X028808Y005534D01*
X028731Y005610D01*
X028578Y005610D01*
X028501Y005534D01*
X028501Y005227D01*
X028962Y005150D02*
X029115Y005303D01*
X029268Y005150D01*
X029268Y005610D01*
X029422Y005534D02*
X029499Y005610D01*
X029652Y005610D01*
X029729Y005534D01*
X029729Y005457D01*
X029422Y005150D01*
X029729Y005150D01*
X028962Y005150D02*
X028962Y005610D01*
X028962Y006650D02*
X029115Y006803D01*
X029268Y006650D01*
X029268Y007110D01*
X029422Y006957D02*
X029575Y007110D01*
X029575Y006650D01*
X029422Y006650D02*
X029729Y006650D01*
X028962Y006650D02*
X028962Y007110D01*
X028808Y007034D02*
X028731Y007110D01*
X028578Y007110D01*
X028501Y007034D01*
X028501Y006727D01*
X028578Y006650D01*
X028731Y006650D01*
X028808Y006727D01*
X028808Y007034D01*
X028348Y007034D02*
X028271Y007110D01*
X028041Y007110D01*
X028041Y006650D01*
X028194Y006803D02*
X028348Y006650D01*
X028271Y006803D02*
X028041Y006803D01*
X027887Y006880D02*
X027580Y006880D01*
X027427Y006880D02*
X027350Y006803D01*
X027120Y006803D01*
X027273Y006803D02*
X027427Y006650D01*
X027120Y006650D02*
X027120Y007110D01*
X027350Y007110D01*
X027427Y007034D01*
X027427Y006880D01*
X028271Y006803D02*
X028348Y006880D01*
X028348Y007034D01*
X022580Y006190D02*
X022120Y006190D01*
X022120Y006420D01*
X022196Y006497D01*
X022350Y006497D01*
X022427Y006420D01*
X022427Y006190D01*
X022350Y005959D02*
X022350Y005883D01*
X020580Y006190D02*
X020120Y006190D01*
X020120Y006420D01*
X020196Y006497D01*
X020350Y006497D01*
X020427Y006420D01*
X020427Y006190D01*
X027120Y002610D02*
X027350Y002610D01*
X027427Y002534D01*
X027427Y002380D01*
X027350Y002303D01*
X027120Y002303D01*
X027273Y002303D02*
X027427Y002150D01*
X027120Y002150D02*
X027120Y002610D01*
X028041Y002610D02*
X028271Y002610D01*
X028348Y002534D01*
X028348Y002380D01*
X028271Y002303D01*
X028041Y002303D01*
X028194Y002303D02*
X028348Y002150D01*
X028501Y002227D02*
X028578Y002150D01*
X028731Y002150D01*
X028808Y002227D01*
X028808Y002534D01*
X028731Y002610D01*
X028578Y002610D01*
X028501Y002534D01*
X028501Y002227D01*
X028041Y002150D02*
X028041Y002610D01*
X027887Y002380D02*
X027580Y002380D01*
X028962Y002150D02*
X029115Y002303D01*
X029268Y002150D01*
X029268Y002610D01*
X029422Y002380D02*
X029652Y002610D01*
X029652Y002150D01*
X028962Y002150D02*
X028962Y002610D01*
X029422Y002380D02*
X029729Y002380D01*
D18*
X026059Y002661D02*
X026040Y002701D01*
X026091Y002727D01*
X026141Y002756D01*
X026188Y002787D01*
X026234Y002821D01*
X026262Y002786D01*
X026214Y002750D01*
X026164Y002717D01*
X026113Y002687D01*
X026059Y002660D01*
X026058Y002664D01*
X026111Y002691D01*
X026162Y002721D01*
X026212Y002753D01*
X026260Y002789D01*
X026257Y002792D01*
X026210Y002757D01*
X026160Y002724D01*
X026109Y002694D01*
X026056Y002668D01*
X026054Y002671D01*
X026107Y002698D01*
X026158Y002728D01*
X026207Y002760D01*
X026255Y002795D01*
X026252Y002798D01*
X026205Y002763D01*
X026156Y002731D01*
X026105Y002701D01*
X026052Y002675D01*
X026051Y002678D01*
X026103Y002705D01*
X026154Y002734D01*
X026203Y002767D01*
X026250Y002802D01*
X026247Y002805D01*
X026200Y002770D01*
X026152Y002738D01*
X026101Y002708D01*
X026049Y002682D01*
X026047Y002686D01*
X026099Y002712D01*
X026150Y002741D01*
X026198Y002773D01*
X026245Y002808D01*
X026242Y002811D01*
X026196Y002776D01*
X026147Y002745D01*
X026097Y002715D01*
X026046Y002689D01*
X026044Y002693D01*
X026095Y002719D01*
X026145Y002748D01*
X026194Y002780D01*
X026240Y002814D01*
X026238Y002817D01*
X026191Y002783D01*
X026143Y002751D01*
X026094Y002723D01*
X026042Y002696D01*
X026041Y002700D01*
X026092Y002726D01*
X026141Y002755D01*
X026189Y002786D01*
X026235Y002820D01*
X025141Y004599D02*
X025160Y004559D01*
X025104Y004530D01*
X025050Y004499D01*
X024998Y004463D01*
X024949Y004425D01*
X024901Y004384D01*
X024857Y004340D01*
X024815Y004293D01*
X024776Y004244D01*
X024740Y004193D01*
X024707Y004139D01*
X024678Y004084D01*
X024652Y004027D01*
X024629Y003968D01*
X024610Y003909D01*
X024595Y003848D01*
X024584Y003786D01*
X024576Y003724D01*
X024572Y003661D01*
X024572Y003599D01*
X024576Y003536D01*
X024584Y003474D01*
X024595Y003412D01*
X024610Y003351D01*
X024629Y003292D01*
X024652Y003233D01*
X024678Y003176D01*
X024707Y003121D01*
X024740Y003067D01*
X024776Y003016D01*
X024815Y002967D01*
X024857Y002920D01*
X024901Y002876D01*
X024949Y002835D01*
X024998Y002797D01*
X025050Y002761D01*
X025104Y002730D01*
X025160Y002701D01*
X025141Y002661D01*
X025141Y002660D01*
X025082Y002690D01*
X025026Y002723D01*
X024972Y002760D01*
X024920Y002800D01*
X024871Y002843D01*
X024824Y002889D01*
X024780Y002938D01*
X024740Y002989D01*
X024702Y003042D01*
X024668Y003098D01*
X024637Y003156D01*
X024610Y003216D01*
X024587Y003277D01*
X024567Y003339D01*
X024551Y003403D01*
X024539Y003467D01*
X024531Y003532D01*
X024527Y003597D01*
X024527Y003663D01*
X024531Y003728D01*
X024539Y003793D01*
X024551Y003857D01*
X024567Y003921D01*
X024587Y003983D01*
X024610Y004044D01*
X024637Y004104D01*
X024668Y004162D01*
X024702Y004218D01*
X024740Y004271D01*
X024780Y004322D01*
X024824Y004371D01*
X024871Y004417D01*
X024920Y004460D01*
X024972Y004500D01*
X025026Y004537D01*
X025082Y004570D01*
X025141Y004600D01*
X025142Y004596D01*
X025084Y004566D01*
X025028Y004533D01*
X024974Y004497D01*
X024923Y004457D01*
X024873Y004414D01*
X024827Y004368D01*
X024783Y004320D01*
X024743Y004269D01*
X024706Y004215D01*
X024672Y004160D01*
X024641Y004102D01*
X024614Y004043D01*
X024591Y003982D01*
X024571Y003920D01*
X024555Y003856D01*
X024543Y003792D01*
X024535Y003728D01*
X024531Y003663D01*
X024531Y003597D01*
X024535Y003532D01*
X024543Y003468D01*
X024555Y003404D01*
X024571Y003340D01*
X024591Y003278D01*
X024614Y003217D01*
X024641Y003158D01*
X024672Y003100D01*
X024706Y003045D01*
X024743Y002991D01*
X024783Y002940D01*
X024827Y002892D01*
X024873Y002846D01*
X024923Y002803D01*
X024974Y002763D01*
X025028Y002727D01*
X025084Y002694D01*
X025142Y002664D01*
X025144Y002667D01*
X025086Y002697D01*
X025030Y002730D01*
X024977Y002767D01*
X024925Y002806D01*
X024876Y002849D01*
X024830Y002894D01*
X024786Y002943D01*
X024746Y002994D01*
X024709Y003047D01*
X024675Y003102D01*
X024645Y003160D01*
X024618Y003219D01*
X024594Y003279D01*
X024575Y003341D01*
X024559Y003404D01*
X024547Y003468D01*
X024539Y003533D01*
X024535Y003598D01*
X024535Y003662D01*
X024539Y003727D01*
X024547Y003792D01*
X024559Y003856D01*
X024575Y003919D01*
X024594Y003981D01*
X024618Y004041D01*
X024645Y004100D01*
X024675Y004158D01*
X024709Y004213D01*
X024746Y004266D01*
X024786Y004317D01*
X024830Y004366D01*
X024876Y004411D01*
X024925Y004454D01*
X024977Y004493D01*
X025030Y004530D01*
X025086Y004563D01*
X025144Y004593D01*
X025146Y004589D01*
X025088Y004559D01*
X025033Y004526D01*
X024979Y004490D01*
X024928Y004451D01*
X024879Y004408D01*
X024833Y004363D01*
X024790Y004315D01*
X024749Y004264D01*
X024712Y004211D01*
X024678Y004156D01*
X024648Y004099D01*
X024621Y004040D01*
X024598Y003979D01*
X024579Y003918D01*
X024563Y003855D01*
X024551Y003791D01*
X024543Y003727D01*
X024539Y003662D01*
X024539Y003598D01*
X024543Y003533D01*
X024551Y003469D01*
X024563Y003405D01*
X024579Y003342D01*
X024598Y003281D01*
X024621Y003220D01*
X024648Y003161D01*
X024678Y003104D01*
X024712Y003049D01*
X024749Y002996D01*
X024790Y002945D01*
X024833Y002897D01*
X024879Y002852D01*
X024928Y002809D01*
X024979Y002770D01*
X025033Y002734D01*
X025088Y002701D01*
X025146Y002671D01*
X025148Y002675D01*
X025090Y002704D01*
X025035Y002737D01*
X024981Y002773D01*
X024930Y002812D01*
X024882Y002855D01*
X024836Y002900D01*
X024793Y002948D01*
X024752Y002998D01*
X024716Y003051D01*
X024682Y003106D01*
X024652Y003163D01*
X024625Y003222D01*
X024602Y003282D01*
X024583Y003343D01*
X024567Y003406D01*
X024555Y003469D01*
X024547Y003533D01*
X024543Y003598D01*
X024543Y003662D01*
X024547Y003727D01*
X024555Y003791D01*
X024567Y003854D01*
X024583Y003917D01*
X024602Y003978D01*
X024625Y004038D01*
X024652Y004097D01*
X024682Y004154D01*
X024716Y004209D01*
X024752Y004262D01*
X024793Y004312D01*
X024836Y004360D01*
X024882Y004405D01*
X024930Y004448D01*
X024981Y004487D01*
X025035Y004523D01*
X025090Y004556D01*
X025148Y004585D01*
X025149Y004582D01*
X025092Y004552D01*
X025037Y004520D01*
X024984Y004484D01*
X024933Y004445D01*
X024884Y004402D01*
X024839Y004357D01*
X024796Y004310D01*
X024756Y004259D01*
X024719Y004207D01*
X024685Y004152D01*
X024655Y004095D01*
X024629Y004037D01*
X024606Y003977D01*
X024586Y003915D01*
X024571Y003853D01*
X024559Y003790D01*
X024551Y003726D01*
X024547Y003662D01*
X024547Y003598D01*
X024551Y003534D01*
X024559Y003470D01*
X024571Y003407D01*
X024586Y003345D01*
X024606Y003283D01*
X024629Y003223D01*
X024655Y003165D01*
X024685Y003108D01*
X024719Y003053D01*
X024756Y003001D01*
X024796Y002950D01*
X024839Y002903D01*
X024884Y002858D01*
X024933Y002815D01*
X024984Y002776D01*
X025037Y002740D01*
X025092Y002708D01*
X025149Y002678D01*
X025151Y002682D01*
X025094Y002711D01*
X025039Y002744D01*
X024986Y002780D01*
X024935Y002819D01*
X024887Y002861D01*
X024841Y002905D01*
X024799Y002953D01*
X024759Y003003D01*
X024722Y003056D01*
X024689Y003110D01*
X024659Y003167D01*
X024632Y003225D01*
X024609Y003285D01*
X024590Y003346D01*
X024575Y003408D01*
X024563Y003471D01*
X024555Y003534D01*
X024551Y003598D01*
X024551Y003662D01*
X024555Y003726D01*
X024563Y003789D01*
X024575Y003852D01*
X024590Y003914D01*
X024609Y003975D01*
X024632Y004035D01*
X024659Y004093D01*
X024689Y004150D01*
X024722Y004204D01*
X024759Y004257D01*
X024799Y004307D01*
X024841Y004355D01*
X024887Y004399D01*
X024935Y004441D01*
X024986Y004480D01*
X025039Y004516D01*
X025094Y004549D01*
X025151Y004578D01*
X025153Y004574D01*
X025096Y004545D01*
X025041Y004513D01*
X024988Y004477D01*
X024938Y004438D01*
X024890Y004397D01*
X024844Y004352D01*
X024802Y004304D01*
X024762Y004254D01*
X024726Y004202D01*
X024692Y004148D01*
X024662Y004092D01*
X024636Y004034D01*
X024613Y003974D01*
X024594Y003913D01*
X024579Y003851D01*
X024567Y003789D01*
X024559Y003725D01*
X024555Y003662D01*
X024555Y003598D01*
X024559Y003535D01*
X024567Y003471D01*
X024579Y003409D01*
X024594Y003347D01*
X024613Y003286D01*
X024636Y003226D01*
X024662Y003168D01*
X024692Y003112D01*
X024726Y003058D01*
X024762Y003006D01*
X024802Y002956D01*
X024844Y002908D01*
X024890Y002863D01*
X024938Y002822D01*
X024988Y002783D01*
X025041Y002747D01*
X025096Y002715D01*
X025153Y002686D01*
X025154Y002689D01*
X025098Y002718D01*
X025043Y002750D01*
X024991Y002786D01*
X024940Y002825D01*
X024892Y002866D01*
X024847Y002911D01*
X024805Y002958D01*
X024765Y003008D01*
X024729Y003060D01*
X024696Y003114D01*
X024666Y003170D01*
X024640Y003228D01*
X024617Y003287D01*
X024598Y003348D01*
X024583Y003409D01*
X024571Y003472D01*
X024563Y003535D01*
X024559Y003598D01*
X024559Y003662D01*
X024563Y003725D01*
X024571Y003788D01*
X024583Y003851D01*
X024598Y003912D01*
X024617Y003973D01*
X024640Y004032D01*
X024666Y004090D01*
X024696Y004146D01*
X024729Y004200D01*
X024765Y004252D01*
X024805Y004302D01*
X024847Y004349D01*
X024892Y004394D01*
X024940Y004435D01*
X024991Y004474D01*
X025043Y004510D01*
X025098Y004542D01*
X025154Y004571D01*
X025156Y004567D01*
X025100Y004538D01*
X025045Y004506D01*
X024993Y004471D01*
X024943Y004432D01*
X024895Y004391D01*
X024850Y004346D01*
X024808Y004299D01*
X024769Y004250D01*
X024732Y004198D01*
X024699Y004144D01*
X024670Y004088D01*
X024643Y004030D01*
X024621Y003971D01*
X024602Y003911D01*
X024587Y003850D01*
X024575Y003788D01*
X024567Y003725D01*
X024563Y003662D01*
X024563Y003598D01*
X024567Y003535D01*
X024575Y003472D01*
X024587Y003410D01*
X024602Y003349D01*
X024621Y003289D01*
X024643Y003230D01*
X024670Y003172D01*
X024699Y003116D01*
X024732Y003062D01*
X024769Y003010D01*
X024808Y002961D01*
X024850Y002914D01*
X024895Y002869D01*
X024943Y002828D01*
X024993Y002789D01*
X025045Y002754D01*
X025100Y002722D01*
X025156Y002693D01*
X025158Y002696D01*
X025102Y002725D01*
X025047Y002757D01*
X024995Y002793D01*
X024945Y002831D01*
X024898Y002872D01*
X024853Y002917D01*
X024811Y002963D01*
X024772Y003013D01*
X024736Y003064D01*
X024703Y003118D01*
X024673Y003174D01*
X024647Y003231D01*
X024625Y003290D01*
X024606Y003350D01*
X024590Y003411D01*
X024579Y003473D01*
X024571Y003536D01*
X024567Y003599D01*
X024567Y003661D01*
X024571Y003724D01*
X024579Y003787D01*
X024590Y003849D01*
X024606Y003910D01*
X024625Y003970D01*
X024647Y004029D01*
X024673Y004086D01*
X024703Y004142D01*
X024736Y004196D01*
X024772Y004247D01*
X024811Y004297D01*
X024853Y004343D01*
X024898Y004388D01*
X024945Y004429D01*
X024995Y004467D01*
X025047Y004503D01*
X025102Y004535D01*
X025158Y004564D01*
X025159Y004560D01*
X025104Y004531D01*
X025050Y004499D01*
X024998Y004464D01*
X024948Y004426D01*
X024901Y004385D01*
X024856Y004341D01*
X024814Y004294D01*
X024775Y004245D01*
X024739Y004193D01*
X024706Y004140D01*
X024677Y004084D01*
X024651Y004027D01*
X024628Y003969D01*
X024610Y003909D01*
X024594Y003848D01*
X024583Y003786D01*
X024575Y003724D01*
X024571Y003661D01*
X024571Y003599D01*
X024575Y003536D01*
X024583Y003474D01*
X024594Y003412D01*
X024610Y003351D01*
X024628Y003291D01*
X024651Y003233D01*
X024677Y003176D01*
X024706Y003120D01*
X024739Y003067D01*
X024775Y003015D01*
X024814Y002966D01*
X024856Y002919D01*
X024901Y002875D01*
X024948Y002834D01*
X024998Y002796D01*
X025050Y002761D01*
X025104Y002729D01*
X025159Y002700D01*
X026262Y004474D02*
X026234Y004438D01*
X026234Y004439D02*
X026186Y004474D01*
X026136Y004507D01*
X026084Y004537D01*
X026031Y004563D01*
X026049Y004604D01*
X026050Y004604D01*
X026106Y004576D01*
X026160Y004545D01*
X026212Y004511D01*
X026262Y004474D01*
X026260Y004471D01*
X026210Y004508D01*
X026158Y004542D01*
X026104Y004573D01*
X026048Y004601D01*
X026046Y004597D01*
X026102Y004569D01*
X026156Y004539D01*
X026207Y004505D01*
X026257Y004468D01*
X026255Y004465D01*
X026205Y004501D01*
X026153Y004535D01*
X026100Y004566D01*
X026045Y004593D01*
X026043Y004590D01*
X026098Y004562D01*
X026151Y004532D01*
X026203Y004498D01*
X026252Y004462D01*
X026250Y004458D01*
X026201Y004495D01*
X026149Y004528D01*
X026096Y004559D01*
X026041Y004586D01*
X026040Y004582D01*
X026094Y004555D01*
X026147Y004525D01*
X026198Y004492D01*
X026247Y004455D01*
X026245Y004452D01*
X026196Y004488D01*
X026145Y004522D01*
X026092Y004552D01*
X026038Y004579D01*
X026036Y004575D01*
X026090Y004548D01*
X026143Y004518D01*
X026194Y004485D01*
X026242Y004449D01*
X026240Y004446D01*
X026191Y004482D01*
X026141Y004515D01*
X026089Y004545D01*
X026035Y004572D01*
X026033Y004568D01*
X026087Y004541D01*
X026139Y004511D01*
X026189Y004478D01*
X026238Y004443D01*
X026235Y004440D01*
X026187Y004475D01*
X026137Y004508D01*
X026085Y004538D01*
X026031Y004564D01*
X024262Y004474D02*
X024234Y004438D01*
X024234Y004439D02*
X024186Y004474D01*
X024136Y004507D01*
X024084Y004537D01*
X024031Y004563D01*
X024049Y004604D01*
X024050Y004604D01*
X024106Y004576D01*
X024160Y004545D01*
X024212Y004511D01*
X024262Y004474D01*
X024260Y004471D01*
X024210Y004508D01*
X024158Y004542D01*
X024104Y004573D01*
X024048Y004601D01*
X024046Y004597D01*
X024102Y004569D01*
X024156Y004539D01*
X024207Y004505D01*
X024257Y004468D01*
X024255Y004465D01*
X024205Y004501D01*
X024153Y004535D01*
X024100Y004566D01*
X024045Y004593D01*
X024043Y004590D01*
X024098Y004562D01*
X024151Y004532D01*
X024203Y004498D01*
X024252Y004462D01*
X024250Y004458D01*
X024201Y004495D01*
X024149Y004528D01*
X024096Y004559D01*
X024041Y004586D01*
X024040Y004582D01*
X024094Y004555D01*
X024147Y004525D01*
X024198Y004492D01*
X024247Y004455D01*
X024245Y004452D01*
X024196Y004488D01*
X024145Y004522D01*
X024092Y004552D01*
X024038Y004579D01*
X024036Y004575D01*
X024090Y004548D01*
X024143Y004518D01*
X024194Y004485D01*
X024242Y004449D01*
X024240Y004446D01*
X024191Y004482D01*
X024141Y004515D01*
X024089Y004545D01*
X024035Y004572D01*
X024033Y004568D01*
X024087Y004541D01*
X024139Y004511D01*
X024189Y004478D01*
X024238Y004443D01*
X024235Y004440D01*
X024187Y004475D01*
X024137Y004508D01*
X024085Y004538D01*
X024031Y004564D01*
X023141Y004599D02*
X023160Y004559D01*
X023104Y004530D01*
X023050Y004499D01*
X022998Y004463D01*
X022949Y004425D01*
X022901Y004384D01*
X022857Y004340D01*
X022815Y004293D01*
X022776Y004244D01*
X022740Y004193D01*
X022707Y004139D01*
X022678Y004084D01*
X022652Y004027D01*
X022629Y003968D01*
X022610Y003909D01*
X022595Y003848D01*
X022584Y003786D01*
X022576Y003724D01*
X022572Y003661D01*
X022572Y003599D01*
X022576Y003536D01*
X022584Y003474D01*
X022595Y003412D01*
X022610Y003351D01*
X022629Y003292D01*
X022652Y003233D01*
X022678Y003176D01*
X022707Y003121D01*
X022740Y003067D01*
X022776Y003016D01*
X022815Y002967D01*
X022857Y002920D01*
X022901Y002876D01*
X022949Y002835D01*
X022998Y002797D01*
X023050Y002761D01*
X023104Y002730D01*
X023160Y002701D01*
X023141Y002661D01*
X023141Y002660D01*
X023082Y002690D01*
X023026Y002723D01*
X022972Y002760D01*
X022920Y002800D01*
X022871Y002843D01*
X022824Y002889D01*
X022780Y002938D01*
X022740Y002989D01*
X022702Y003042D01*
X022668Y003098D01*
X022637Y003156D01*
X022610Y003216D01*
X022587Y003277D01*
X022567Y003339D01*
X022551Y003403D01*
X022539Y003467D01*
X022531Y003532D01*
X022527Y003597D01*
X022527Y003663D01*
X022531Y003728D01*
X022539Y003793D01*
X022551Y003857D01*
X022567Y003921D01*
X022587Y003983D01*
X022610Y004044D01*
X022637Y004104D01*
X022668Y004162D01*
X022702Y004218D01*
X022740Y004271D01*
X022780Y004322D01*
X022824Y004371D01*
X022871Y004417D01*
X022920Y004460D01*
X022972Y004500D01*
X023026Y004537D01*
X023082Y004570D01*
X023141Y004600D01*
X023142Y004596D01*
X023084Y004566D01*
X023028Y004533D01*
X022974Y004497D01*
X022923Y004457D01*
X022873Y004414D01*
X022827Y004368D01*
X022783Y004320D01*
X022743Y004269D01*
X022706Y004215D01*
X022672Y004160D01*
X022641Y004102D01*
X022614Y004043D01*
X022591Y003982D01*
X022571Y003920D01*
X022555Y003856D01*
X022543Y003792D01*
X022535Y003728D01*
X022531Y003663D01*
X022531Y003597D01*
X022535Y003532D01*
X022543Y003468D01*
X022555Y003404D01*
X022571Y003340D01*
X022591Y003278D01*
X022614Y003217D01*
X022641Y003158D01*
X022672Y003100D01*
X022706Y003045D01*
X022743Y002991D01*
X022783Y002940D01*
X022827Y002892D01*
X022873Y002846D01*
X022923Y002803D01*
X022974Y002763D01*
X023028Y002727D01*
X023084Y002694D01*
X023142Y002664D01*
X023144Y002667D01*
X023086Y002697D01*
X023030Y002730D01*
X022977Y002767D01*
X022925Y002806D01*
X022876Y002849D01*
X022830Y002894D01*
X022786Y002943D01*
X022746Y002994D01*
X022709Y003047D01*
X022675Y003102D01*
X022645Y003160D01*
X022618Y003219D01*
X022594Y003279D01*
X022575Y003341D01*
X022559Y003404D01*
X022547Y003468D01*
X022539Y003533D01*
X022535Y003598D01*
X022535Y003662D01*
X022539Y003727D01*
X022547Y003792D01*
X022559Y003856D01*
X022575Y003919D01*
X022594Y003981D01*
X022618Y004041D01*
X022645Y004100D01*
X022675Y004158D01*
X022709Y004213D01*
X022746Y004266D01*
X022786Y004317D01*
X022830Y004366D01*
X022876Y004411D01*
X022925Y004454D01*
X022977Y004493D01*
X023030Y004530D01*
X023086Y004563D01*
X023144Y004593D01*
X023146Y004589D01*
X023088Y004559D01*
X023033Y004526D01*
X022979Y004490D01*
X022928Y004451D01*
X022879Y004408D01*
X022833Y004363D01*
X022790Y004315D01*
X022749Y004264D01*
X022712Y004211D01*
X022678Y004156D01*
X022648Y004099D01*
X022621Y004040D01*
X022598Y003979D01*
X022579Y003918D01*
X022563Y003855D01*
X022551Y003791D01*
X022543Y003727D01*
X022539Y003662D01*
X022539Y003598D01*
X022543Y003533D01*
X022551Y003469D01*
X022563Y003405D01*
X022579Y003342D01*
X022598Y003281D01*
X022621Y003220D01*
X022648Y003161D01*
X022678Y003104D01*
X022712Y003049D01*
X022749Y002996D01*
X022790Y002945D01*
X022833Y002897D01*
X022879Y002852D01*
X022928Y002809D01*
X022979Y002770D01*
X023033Y002734D01*
X023088Y002701D01*
X023146Y002671D01*
X023148Y002675D01*
X023090Y002704D01*
X023035Y002737D01*
X022981Y002773D01*
X022930Y002812D01*
X022882Y002855D01*
X022836Y002900D01*
X022793Y002948D01*
X022752Y002998D01*
X022716Y003051D01*
X022682Y003106D01*
X022652Y003163D01*
X022625Y003222D01*
X022602Y003282D01*
X022583Y003343D01*
X022567Y003406D01*
X022555Y003469D01*
X022547Y003533D01*
X022543Y003598D01*
X022543Y003662D01*
X022547Y003727D01*
X022555Y003791D01*
X022567Y003854D01*
X022583Y003917D01*
X022602Y003978D01*
X022625Y004038D01*
X022652Y004097D01*
X022682Y004154D01*
X022716Y004209D01*
X022752Y004262D01*
X022793Y004312D01*
X022836Y004360D01*
X022882Y004405D01*
X022930Y004448D01*
X022981Y004487D01*
X023035Y004523D01*
X023090Y004556D01*
X023148Y004585D01*
X023149Y004582D01*
X023092Y004552D01*
X023037Y004520D01*
X022984Y004484D01*
X022933Y004445D01*
X022884Y004402D01*
X022839Y004357D01*
X022796Y004310D01*
X022756Y004259D01*
X022719Y004207D01*
X022685Y004152D01*
X022655Y004095D01*
X022629Y004037D01*
X022606Y003977D01*
X022586Y003915D01*
X022571Y003853D01*
X022559Y003790D01*
X022551Y003726D01*
X022547Y003662D01*
X022547Y003598D01*
X022551Y003534D01*
X022559Y003470D01*
X022571Y003407D01*
X022586Y003345D01*
X022606Y003283D01*
X022629Y003223D01*
X022655Y003165D01*
X022685Y003108D01*
X022719Y003053D01*
X022756Y003001D01*
X022796Y002950D01*
X022839Y002903D01*
X022884Y002858D01*
X022933Y002815D01*
X022984Y002776D01*
X023037Y002740D01*
X023092Y002708D01*
X023149Y002678D01*
X023151Y002682D01*
X023094Y002711D01*
X023039Y002744D01*
X022986Y002780D01*
X022935Y002819D01*
X022887Y002861D01*
X022841Y002905D01*
X022799Y002953D01*
X022759Y003003D01*
X022722Y003056D01*
X022689Y003110D01*
X022659Y003167D01*
X022632Y003225D01*
X022609Y003285D01*
X022590Y003346D01*
X022575Y003408D01*
X022563Y003471D01*
X022555Y003534D01*
X022551Y003598D01*
X022551Y003662D01*
X022555Y003726D01*
X022563Y003789D01*
X022575Y003852D01*
X022590Y003914D01*
X022609Y003975D01*
X022632Y004035D01*
X022659Y004093D01*
X022689Y004150D01*
X022722Y004204D01*
X022759Y004257D01*
X022799Y004307D01*
X022841Y004355D01*
X022887Y004399D01*
X022935Y004441D01*
X022986Y004480D01*
X023039Y004516D01*
X023094Y004549D01*
X023151Y004578D01*
X023153Y004574D01*
X023096Y004545D01*
X023041Y004513D01*
X022988Y004477D01*
X022938Y004438D01*
X022890Y004397D01*
X022844Y004352D01*
X022802Y004304D01*
X022762Y004254D01*
X022726Y004202D01*
X022692Y004148D01*
X022662Y004092D01*
X022636Y004034D01*
X022613Y003974D01*
X022594Y003913D01*
X022579Y003851D01*
X022567Y003789D01*
X022559Y003725D01*
X022555Y003662D01*
X022555Y003598D01*
X022559Y003535D01*
X022567Y003471D01*
X022579Y003409D01*
X022594Y003347D01*
X022613Y003286D01*
X022636Y003226D01*
X022662Y003168D01*
X022692Y003112D01*
X022726Y003058D01*
X022762Y003006D01*
X022802Y002956D01*
X022844Y002908D01*
X022890Y002863D01*
X022938Y002822D01*
X022988Y002783D01*
X023041Y002747D01*
X023096Y002715D01*
X023153Y002686D01*
X023154Y002689D01*
X023098Y002718D01*
X023043Y002750D01*
X022991Y002786D01*
X022940Y002825D01*
X022892Y002866D01*
X022847Y002911D01*
X022805Y002958D01*
X022765Y003008D01*
X022729Y003060D01*
X022696Y003114D01*
X022666Y003170D01*
X022640Y003228D01*
X022617Y003287D01*
X022598Y003348D01*
X022583Y003409D01*
X022571Y003472D01*
X022563Y003535D01*
X022559Y003598D01*
X022559Y003662D01*
X022563Y003725D01*
X022571Y003788D01*
X022583Y003851D01*
X022598Y003912D01*
X022617Y003973D01*
X022640Y004032D01*
X022666Y004090D01*
X022696Y004146D01*
X022729Y004200D01*
X022765Y004252D01*
X022805Y004302D01*
X022847Y004349D01*
X022892Y004394D01*
X022940Y004435D01*
X022991Y004474D01*
X023043Y004510D01*
X023098Y004542D01*
X023154Y004571D01*
X023156Y004567D01*
X023100Y004538D01*
X023045Y004506D01*
X022993Y004471D01*
X022943Y004432D01*
X022895Y004391D01*
X022850Y004346D01*
X022808Y004299D01*
X022769Y004250D01*
X022732Y004198D01*
X022699Y004144D01*
X022670Y004088D01*
X022643Y004030D01*
X022621Y003971D01*
X022602Y003911D01*
X022587Y003850D01*
X022575Y003788D01*
X022567Y003725D01*
X022563Y003662D01*
X022563Y003598D01*
X022567Y003535D01*
X022575Y003472D01*
X022587Y003410D01*
X022602Y003349D01*
X022621Y003289D01*
X022643Y003230D01*
X022670Y003172D01*
X022699Y003116D01*
X022732Y003062D01*
X022769Y003010D01*
X022808Y002961D01*
X022850Y002914D01*
X022895Y002869D01*
X022943Y002828D01*
X022993Y002789D01*
X023045Y002754D01*
X023100Y002722D01*
X023156Y002693D01*
X023158Y002696D01*
X023102Y002725D01*
X023047Y002757D01*
X022995Y002793D01*
X022945Y002831D01*
X022898Y002872D01*
X022853Y002917D01*
X022811Y002963D01*
X022772Y003013D01*
X022736Y003064D01*
X022703Y003118D01*
X022673Y003174D01*
X022647Y003231D01*
X022625Y003290D01*
X022606Y003350D01*
X022590Y003411D01*
X022579Y003473D01*
X022571Y003536D01*
X022567Y003599D01*
X022567Y003661D01*
X022571Y003724D01*
X022579Y003787D01*
X022590Y003849D01*
X022606Y003910D01*
X022625Y003970D01*
X022647Y004029D01*
X022673Y004086D01*
X022703Y004142D01*
X022736Y004196D01*
X022772Y004247D01*
X022811Y004297D01*
X022853Y004343D01*
X022898Y004388D01*
X022945Y004429D01*
X022995Y004467D01*
X023047Y004503D01*
X023102Y004535D01*
X023158Y004564D01*
X023159Y004560D01*
X023104Y004531D01*
X023050Y004499D01*
X022998Y004464D01*
X022948Y004426D01*
X022901Y004385D01*
X022856Y004341D01*
X022814Y004294D01*
X022775Y004245D01*
X022739Y004193D01*
X022706Y004140D01*
X022677Y004084D01*
X022651Y004027D01*
X022628Y003969D01*
X022610Y003909D01*
X022594Y003848D01*
X022583Y003786D01*
X022575Y003724D01*
X022571Y003661D01*
X022571Y003599D01*
X022575Y003536D01*
X022583Y003474D01*
X022594Y003412D01*
X022610Y003351D01*
X022628Y003291D01*
X022651Y003233D01*
X022677Y003176D01*
X022706Y003120D01*
X022739Y003067D01*
X022775Y003015D01*
X022814Y002966D01*
X022856Y002919D01*
X022901Y002875D01*
X022948Y002834D01*
X022998Y002796D01*
X023050Y002761D01*
X023104Y002729D01*
X023159Y002700D01*
X024059Y002661D02*
X024040Y002701D01*
X024091Y002727D01*
X024141Y002756D01*
X024188Y002787D01*
X024234Y002821D01*
X024262Y002786D01*
X024214Y002750D01*
X024164Y002717D01*
X024113Y002687D01*
X024059Y002660D01*
X024058Y002664D01*
X024111Y002691D01*
X024162Y002721D01*
X024212Y002753D01*
X024260Y002789D01*
X024257Y002792D01*
X024210Y002757D01*
X024160Y002724D01*
X024109Y002694D01*
X024056Y002668D01*
X024054Y002671D01*
X024107Y002698D01*
X024158Y002728D01*
X024207Y002760D01*
X024255Y002795D01*
X024252Y002798D01*
X024205Y002763D01*
X024156Y002731D01*
X024105Y002701D01*
X024052Y002675D01*
X024051Y002678D01*
X024103Y002705D01*
X024154Y002734D01*
X024203Y002767D01*
X024250Y002802D01*
X024247Y002805D01*
X024200Y002770D01*
X024152Y002738D01*
X024101Y002708D01*
X024049Y002682D01*
X024047Y002686D01*
X024099Y002712D01*
X024150Y002741D01*
X024198Y002773D01*
X024245Y002808D01*
X024242Y002811D01*
X024196Y002776D01*
X024147Y002745D01*
X024097Y002715D01*
X024046Y002689D01*
X024044Y002693D01*
X024095Y002719D01*
X024145Y002748D01*
X024194Y002780D01*
X024240Y002814D01*
X024238Y002817D01*
X024191Y002783D01*
X024143Y002751D01*
X024094Y002723D01*
X024042Y002696D01*
X024041Y002700D01*
X024092Y002726D01*
X024141Y002755D01*
X024189Y002786D01*
X024235Y002820D01*
X022059Y002661D02*
X022040Y002701D01*
X022091Y002727D01*
X022141Y002756D01*
X022188Y002787D01*
X022234Y002821D01*
X022262Y002786D01*
X022214Y002750D01*
X022164Y002717D01*
X022113Y002687D01*
X022059Y002660D01*
X022058Y002664D01*
X022111Y002691D01*
X022162Y002721D01*
X022212Y002753D01*
X022260Y002789D01*
X022257Y002792D01*
X022210Y002757D01*
X022160Y002724D01*
X022109Y002694D01*
X022056Y002668D01*
X022054Y002671D01*
X022107Y002698D01*
X022158Y002728D01*
X022207Y002760D01*
X022255Y002795D01*
X022252Y002798D01*
X022205Y002763D01*
X022156Y002731D01*
X022105Y002701D01*
X022052Y002675D01*
X022051Y002678D01*
X022103Y002705D01*
X022154Y002734D01*
X022203Y002767D01*
X022250Y002802D01*
X022247Y002805D01*
X022200Y002770D01*
X022152Y002738D01*
X022101Y002708D01*
X022049Y002682D01*
X022047Y002686D01*
X022099Y002712D01*
X022150Y002741D01*
X022198Y002773D01*
X022245Y002808D01*
X022242Y002811D01*
X022196Y002776D01*
X022147Y002745D01*
X022097Y002715D01*
X022046Y002689D01*
X022044Y002693D01*
X022095Y002719D01*
X022145Y002748D01*
X022194Y002780D01*
X022240Y002814D01*
X022238Y002817D01*
X022191Y002783D01*
X022143Y002751D01*
X022094Y002723D01*
X022042Y002696D01*
X022041Y002700D01*
X022092Y002726D01*
X022141Y002755D01*
X022189Y002786D01*
X022235Y002820D01*
X021141Y004599D02*
X021160Y004559D01*
X021104Y004530D01*
X021050Y004499D01*
X020998Y004463D01*
X020949Y004425D01*
X020901Y004384D01*
X020857Y004340D01*
X020815Y004293D01*
X020776Y004244D01*
X020740Y004193D01*
X020707Y004139D01*
X020678Y004084D01*
X020652Y004027D01*
X020629Y003968D01*
X020610Y003909D01*
X020595Y003848D01*
X020584Y003786D01*
X020576Y003724D01*
X020572Y003661D01*
X020572Y003599D01*
X020576Y003536D01*
X020584Y003474D01*
X020595Y003412D01*
X020610Y003351D01*
X020629Y003292D01*
X020652Y003233D01*
X020678Y003176D01*
X020707Y003121D01*
X020740Y003067D01*
X020776Y003016D01*
X020815Y002967D01*
X020857Y002920D01*
X020901Y002876D01*
X020949Y002835D01*
X020998Y002797D01*
X021050Y002761D01*
X021104Y002730D01*
X021160Y002701D01*
X021141Y002661D01*
X021141Y002660D01*
X021082Y002690D01*
X021026Y002723D01*
X020972Y002760D01*
X020920Y002800D01*
X020871Y002843D01*
X020824Y002889D01*
X020780Y002938D01*
X020740Y002989D01*
X020702Y003042D01*
X020668Y003098D01*
X020637Y003156D01*
X020610Y003216D01*
X020587Y003277D01*
X020567Y003339D01*
X020551Y003403D01*
X020539Y003467D01*
X020531Y003532D01*
X020527Y003597D01*
X020527Y003663D01*
X020531Y003728D01*
X020539Y003793D01*
X020551Y003857D01*
X020567Y003921D01*
X020587Y003983D01*
X020610Y004044D01*
X020637Y004104D01*
X020668Y004162D01*
X020702Y004218D01*
X020740Y004271D01*
X020780Y004322D01*
X020824Y004371D01*
X020871Y004417D01*
X020920Y004460D01*
X020972Y004500D01*
X021026Y004537D01*
X021082Y004570D01*
X021141Y004600D01*
X021142Y004596D01*
X021084Y004566D01*
X021028Y004533D01*
X020974Y004497D01*
X020923Y004457D01*
X020873Y004414D01*
X020827Y004368D01*
X020783Y004320D01*
X020743Y004269D01*
X020706Y004215D01*
X020672Y004160D01*
X020641Y004102D01*
X020614Y004043D01*
X020591Y003982D01*
X020571Y003920D01*
X020555Y003856D01*
X020543Y003792D01*
X020535Y003728D01*
X020531Y003663D01*
X020531Y003597D01*
X020535Y003532D01*
X020543Y003468D01*
X020555Y003404D01*
X020571Y003340D01*
X020591Y003278D01*
X020614Y003217D01*
X020641Y003158D01*
X020672Y003100D01*
X020706Y003045D01*
X020743Y002991D01*
X020783Y002940D01*
X020827Y002892D01*
X020873Y002846D01*
X020923Y002803D01*
X020974Y002763D01*
X021028Y002727D01*
X021084Y002694D01*
X021142Y002664D01*
X021144Y002667D01*
X021086Y002697D01*
X021030Y002730D01*
X020977Y002767D01*
X020925Y002806D01*
X020876Y002849D01*
X020830Y002894D01*
X020786Y002943D01*
X020746Y002994D01*
X020709Y003047D01*
X020675Y003102D01*
X020645Y003160D01*
X020618Y003219D01*
X020594Y003279D01*
X020575Y003341D01*
X020559Y003404D01*
X020547Y003468D01*
X020539Y003533D01*
X020535Y003598D01*
X020535Y003662D01*
X020539Y003727D01*
X020547Y003792D01*
X020559Y003856D01*
X020575Y003919D01*
X020594Y003981D01*
X020618Y004041D01*
X020645Y004100D01*
X020675Y004158D01*
X020709Y004213D01*
X020746Y004266D01*
X020786Y004317D01*
X020830Y004366D01*
X020876Y004411D01*
X020925Y004454D01*
X020977Y004493D01*
X021030Y004530D01*
X021086Y004563D01*
X021144Y004593D01*
X021146Y004589D01*
X021088Y004559D01*
X021033Y004526D01*
X020979Y004490D01*
X020928Y004451D01*
X020879Y004408D01*
X020833Y004363D01*
X020790Y004315D01*
X020749Y004264D01*
X020712Y004211D01*
X020678Y004156D01*
X020648Y004099D01*
X020621Y004040D01*
X020598Y003979D01*
X020579Y003918D01*
X020563Y003855D01*
X020551Y003791D01*
X020543Y003727D01*
X020539Y003662D01*
X020539Y003598D01*
X020543Y003533D01*
X020551Y003469D01*
X020563Y003405D01*
X020579Y003342D01*
X020598Y003281D01*
X020621Y003220D01*
X020648Y003161D01*
X020678Y003104D01*
X020712Y003049D01*
X020749Y002996D01*
X020790Y002945D01*
X020833Y002897D01*
X020879Y002852D01*
X020928Y002809D01*
X020979Y002770D01*
X021033Y002734D01*
X021088Y002701D01*
X021146Y002671D01*
X021148Y002675D01*
X021090Y002704D01*
X021035Y002737D01*
X020981Y002773D01*
X020930Y002812D01*
X020882Y002855D01*
X020836Y002900D01*
X020793Y002948D01*
X020752Y002998D01*
X020716Y003051D01*
X020682Y003106D01*
X020652Y003163D01*
X020625Y003222D01*
X020602Y003282D01*
X020583Y003343D01*
X020567Y003406D01*
X020555Y003469D01*
X020547Y003533D01*
X020543Y003598D01*
X020543Y003662D01*
X020547Y003727D01*
X020555Y003791D01*
X020567Y003854D01*
X020583Y003917D01*
X020602Y003978D01*
X020625Y004038D01*
X020652Y004097D01*
X020682Y004154D01*
X020716Y004209D01*
X020752Y004262D01*
X020793Y004312D01*
X020836Y004360D01*
X020882Y004405D01*
X020930Y004448D01*
X020981Y004487D01*
X021035Y004523D01*
X021090Y004556D01*
X021148Y004585D01*
X021149Y004582D01*
X021092Y004552D01*
X021037Y004520D01*
X020984Y004484D01*
X020933Y004445D01*
X020884Y004402D01*
X020839Y004357D01*
X020796Y004310D01*
X020756Y004259D01*
X020719Y004207D01*
X020685Y004152D01*
X020655Y004095D01*
X020629Y004037D01*
X020606Y003977D01*
X020586Y003915D01*
X020571Y003853D01*
X020559Y003790D01*
X020551Y003726D01*
X020547Y003662D01*
X020547Y003598D01*
X020551Y003534D01*
X020559Y003470D01*
X020571Y003407D01*
X020586Y003345D01*
X020606Y003283D01*
X020629Y003223D01*
X020655Y003165D01*
X020685Y003108D01*
X020719Y003053D01*
X020756Y003001D01*
X020796Y002950D01*
X020839Y002903D01*
X020884Y002858D01*
X020933Y002815D01*
X020984Y002776D01*
X021037Y002740D01*
X021092Y002708D01*
X021149Y002678D01*
X021151Y002682D01*
X021094Y002711D01*
X021039Y002744D01*
X020986Y002780D01*
X020935Y002819D01*
X020887Y002861D01*
X020841Y002905D01*
X020799Y002953D01*
X020759Y003003D01*
X020722Y003056D01*
X020689Y003110D01*
X020659Y003167D01*
X020632Y003225D01*
X020609Y003285D01*
X020590Y003346D01*
X020575Y003408D01*
X020563Y003471D01*
X020555Y003534D01*
X020551Y003598D01*
X020551Y003662D01*
X020555Y003726D01*
X020563Y003789D01*
X020575Y003852D01*
X020590Y003914D01*
X020609Y003975D01*
X020632Y004035D01*
X020659Y004093D01*
X020689Y004150D01*
X020722Y004204D01*
X020759Y004257D01*
X020799Y004307D01*
X020841Y004355D01*
X020887Y004399D01*
X020935Y004441D01*
X020986Y004480D01*
X021039Y004516D01*
X021094Y004549D01*
X021151Y004578D01*
X021153Y004574D01*
X021096Y004545D01*
X021041Y004513D01*
X020988Y004477D01*
X020938Y004438D01*
X020890Y004397D01*
X020844Y004352D01*
X020802Y004304D01*
X020762Y004254D01*
X020726Y004202D01*
X020692Y004148D01*
X020662Y004092D01*
X020636Y004034D01*
X020613Y003974D01*
X020594Y003913D01*
X020579Y003851D01*
X020567Y003789D01*
X020559Y003725D01*
X020555Y003662D01*
X020555Y003598D01*
X020559Y003535D01*
X020567Y003471D01*
X020579Y003409D01*
X020594Y003347D01*
X020613Y003286D01*
X020636Y003226D01*
X020662Y003168D01*
X020692Y003112D01*
X020726Y003058D01*
X020762Y003006D01*
X020802Y002956D01*
X020844Y002908D01*
X020890Y002863D01*
X020938Y002822D01*
X020988Y002783D01*
X021041Y002747D01*
X021096Y002715D01*
X021153Y002686D01*
X021154Y002689D01*
X021098Y002718D01*
X021043Y002750D01*
X020991Y002786D01*
X020940Y002825D01*
X020892Y002866D01*
X020847Y002911D01*
X020805Y002958D01*
X020765Y003008D01*
X020729Y003060D01*
X020696Y003114D01*
X020666Y003170D01*
X020640Y003228D01*
X020617Y003287D01*
X020598Y003348D01*
X020583Y003409D01*
X020571Y003472D01*
X020563Y003535D01*
X020559Y003598D01*
X020559Y003662D01*
X020563Y003725D01*
X020571Y003788D01*
X020583Y003851D01*
X020598Y003912D01*
X020617Y003973D01*
X020640Y004032D01*
X020666Y004090D01*
X020696Y004146D01*
X020729Y004200D01*
X020765Y004252D01*
X020805Y004302D01*
X020847Y004349D01*
X020892Y004394D01*
X020940Y004435D01*
X020991Y004474D01*
X021043Y004510D01*
X021098Y004542D01*
X021154Y004571D01*
X021156Y004567D01*
X021100Y004538D01*
X021045Y004506D01*
X020993Y004471D01*
X020943Y004432D01*
X020895Y004391D01*
X020850Y004346D01*
X020808Y004299D01*
X020769Y004250D01*
X020732Y004198D01*
X020699Y004144D01*
X020670Y004088D01*
X020643Y004030D01*
X020621Y003971D01*
X020602Y003911D01*
X020587Y003850D01*
X020575Y003788D01*
X020567Y003725D01*
X020563Y003662D01*
X020563Y003598D01*
X020567Y003535D01*
X020575Y003472D01*
X020587Y003410D01*
X020602Y003349D01*
X020621Y003289D01*
X020643Y003230D01*
X020670Y003172D01*
X020699Y003116D01*
X020732Y003062D01*
X020769Y003010D01*
X020808Y002961D01*
X020850Y002914D01*
X020895Y002869D01*
X020943Y002828D01*
X020993Y002789D01*
X021045Y002754D01*
X021100Y002722D01*
X021156Y002693D01*
X021158Y002696D01*
X021102Y002725D01*
X021047Y002757D01*
X020995Y002793D01*
X020945Y002831D01*
X020898Y002872D01*
X020853Y002917D01*
X020811Y002963D01*
X020772Y003013D01*
X020736Y003064D01*
X020703Y003118D01*
X020673Y003174D01*
X020647Y003231D01*
X020625Y003290D01*
X020606Y003350D01*
X020590Y003411D01*
X020579Y003473D01*
X020571Y003536D01*
X020567Y003599D01*
X020567Y003661D01*
X020571Y003724D01*
X020579Y003787D01*
X020590Y003849D01*
X020606Y003910D01*
X020625Y003970D01*
X020647Y004029D01*
X020673Y004086D01*
X020703Y004142D01*
X020736Y004196D01*
X020772Y004247D01*
X020811Y004297D01*
X020853Y004343D01*
X020898Y004388D01*
X020945Y004429D01*
X020995Y004467D01*
X021047Y004503D01*
X021102Y004535D01*
X021158Y004564D01*
X021159Y004560D01*
X021104Y004531D01*
X021050Y004499D01*
X020998Y004464D01*
X020948Y004426D01*
X020901Y004385D01*
X020856Y004341D01*
X020814Y004294D01*
X020775Y004245D01*
X020739Y004193D01*
X020706Y004140D01*
X020677Y004084D01*
X020651Y004027D01*
X020628Y003969D01*
X020610Y003909D01*
X020594Y003848D01*
X020583Y003786D01*
X020575Y003724D01*
X020571Y003661D01*
X020571Y003599D01*
X020575Y003536D01*
X020583Y003474D01*
X020594Y003412D01*
X020610Y003351D01*
X020628Y003291D01*
X020651Y003233D01*
X020677Y003176D01*
X020706Y003120D01*
X020739Y003067D01*
X020775Y003015D01*
X020814Y002966D01*
X020856Y002919D01*
X020901Y002875D01*
X020948Y002834D01*
X020998Y002796D01*
X021050Y002761D01*
X021104Y002729D01*
X021159Y002700D01*
X022262Y004474D02*
X022234Y004438D01*
X022234Y004439D02*
X022186Y004474D01*
X022136Y004507D01*
X022084Y004537D01*
X022031Y004563D01*
X022049Y004604D01*
X022050Y004604D01*
X022106Y004576D01*
X022160Y004545D01*
X022212Y004511D01*
X022262Y004474D01*
X022260Y004471D01*
X022210Y004508D01*
X022158Y004542D01*
X022104Y004573D01*
X022048Y004601D01*
X022046Y004597D01*
X022102Y004569D01*
X022156Y004539D01*
X022207Y004505D01*
X022257Y004468D01*
X022255Y004465D01*
X022205Y004501D01*
X022153Y004535D01*
X022100Y004566D01*
X022045Y004593D01*
X022043Y004590D01*
X022098Y004562D01*
X022151Y004532D01*
X022203Y004498D01*
X022252Y004462D01*
X022250Y004458D01*
X022201Y004495D01*
X022149Y004528D01*
X022096Y004559D01*
X022041Y004586D01*
X022040Y004582D01*
X022094Y004555D01*
X022147Y004525D01*
X022198Y004492D01*
X022247Y004455D01*
X022245Y004452D01*
X022196Y004488D01*
X022145Y004522D01*
X022092Y004552D01*
X022038Y004579D01*
X022036Y004575D01*
X022090Y004548D01*
X022143Y004518D01*
X022194Y004485D01*
X022242Y004449D01*
X022240Y004446D01*
X022191Y004482D01*
X022141Y004515D01*
X022089Y004545D01*
X022035Y004572D01*
X022033Y004568D01*
X022087Y004541D01*
X022139Y004511D01*
X022189Y004478D01*
X022238Y004443D01*
X022235Y004440D01*
X022187Y004475D01*
X022137Y004508D01*
X022085Y004538D01*
X022031Y004564D01*
X020262Y004474D02*
X020234Y004438D01*
X020234Y004439D02*
X020186Y004474D01*
X020136Y004507D01*
X020084Y004537D01*
X020031Y004563D01*
X020049Y004604D01*
X020050Y004604D01*
X020106Y004576D01*
X020160Y004545D01*
X020212Y004511D01*
X020262Y004474D01*
X020260Y004471D01*
X020210Y004508D01*
X020158Y004542D01*
X020104Y004573D01*
X020048Y004601D01*
X020046Y004597D01*
X020102Y004569D01*
X020156Y004539D01*
X020207Y004505D01*
X020257Y004468D01*
X020255Y004465D01*
X020205Y004501D01*
X020153Y004535D01*
X020100Y004566D01*
X020045Y004593D01*
X020043Y004590D01*
X020098Y004562D01*
X020151Y004532D01*
X020203Y004498D01*
X020252Y004462D01*
X020250Y004458D01*
X020201Y004495D01*
X020149Y004528D01*
X020096Y004559D01*
X020041Y004586D01*
X020040Y004582D01*
X020094Y004555D01*
X020147Y004525D01*
X020198Y004492D01*
X020247Y004455D01*
X020245Y004452D01*
X020196Y004488D01*
X020145Y004522D01*
X020092Y004552D01*
X020038Y004579D01*
X020036Y004575D01*
X020090Y004548D01*
X020143Y004518D01*
X020194Y004485D01*
X020242Y004449D01*
X020240Y004446D01*
X020191Y004482D01*
X020141Y004515D01*
X020089Y004545D01*
X020035Y004572D01*
X020033Y004568D01*
X020087Y004541D01*
X020139Y004511D01*
X020189Y004478D01*
X020238Y004443D01*
X020235Y004440D01*
X020187Y004475D01*
X020137Y004508D01*
X020085Y004538D01*
X020031Y004564D01*
X019141Y004599D02*
X019160Y004559D01*
X019104Y004530D01*
X019050Y004499D01*
X018998Y004463D01*
X018949Y004425D01*
X018901Y004384D01*
X018857Y004340D01*
X018815Y004293D01*
X018776Y004244D01*
X018740Y004193D01*
X018707Y004139D01*
X018678Y004084D01*
X018652Y004027D01*
X018629Y003968D01*
X018610Y003909D01*
X018595Y003848D01*
X018584Y003786D01*
X018576Y003724D01*
X018572Y003661D01*
X018572Y003599D01*
X018576Y003536D01*
X018584Y003474D01*
X018595Y003412D01*
X018610Y003351D01*
X018629Y003292D01*
X018652Y003233D01*
X018678Y003176D01*
X018707Y003121D01*
X018740Y003067D01*
X018776Y003016D01*
X018815Y002967D01*
X018857Y002920D01*
X018901Y002876D01*
X018949Y002835D01*
X018998Y002797D01*
X019050Y002761D01*
X019104Y002730D01*
X019160Y002701D01*
X019141Y002661D01*
X019141Y002660D01*
X019082Y002690D01*
X019026Y002723D01*
X018972Y002760D01*
X018920Y002800D01*
X018871Y002843D01*
X018824Y002889D01*
X018780Y002938D01*
X018740Y002989D01*
X018702Y003042D01*
X018668Y003098D01*
X018637Y003156D01*
X018610Y003216D01*
X018587Y003277D01*
X018567Y003339D01*
X018551Y003403D01*
X018539Y003467D01*
X018531Y003532D01*
X018527Y003597D01*
X018527Y003663D01*
X018531Y003728D01*
X018539Y003793D01*
X018551Y003857D01*
X018567Y003921D01*
X018587Y003983D01*
X018610Y004044D01*
X018637Y004104D01*
X018668Y004162D01*
X018702Y004218D01*
X018740Y004271D01*
X018780Y004322D01*
X018824Y004371D01*
X018871Y004417D01*
X018920Y004460D01*
X018972Y004500D01*
X019026Y004537D01*
X019082Y004570D01*
X019141Y004600D01*
X019142Y004596D01*
X019084Y004566D01*
X019028Y004533D01*
X018974Y004497D01*
X018923Y004457D01*
X018873Y004414D01*
X018827Y004368D01*
X018783Y004320D01*
X018743Y004269D01*
X018706Y004215D01*
X018672Y004160D01*
X018641Y004102D01*
X018614Y004043D01*
X018591Y003982D01*
X018571Y003920D01*
X018555Y003856D01*
X018543Y003792D01*
X018535Y003728D01*
X018531Y003663D01*
X018531Y003597D01*
X018535Y003532D01*
X018543Y003468D01*
X018555Y003404D01*
X018571Y003340D01*
X018591Y003278D01*
X018614Y003217D01*
X018641Y003158D01*
X018672Y003100D01*
X018706Y003045D01*
X018743Y002991D01*
X018783Y002940D01*
X018827Y002892D01*
X018873Y002846D01*
X018923Y002803D01*
X018974Y002763D01*
X019028Y002727D01*
X019084Y002694D01*
X019142Y002664D01*
X019144Y002667D01*
X019086Y002697D01*
X019030Y002730D01*
X018977Y002767D01*
X018925Y002806D01*
X018876Y002849D01*
X018830Y002894D01*
X018786Y002943D01*
X018746Y002994D01*
X018709Y003047D01*
X018675Y003102D01*
X018645Y003160D01*
X018618Y003219D01*
X018594Y003279D01*
X018575Y003341D01*
X018559Y003404D01*
X018547Y003468D01*
X018539Y003533D01*
X018535Y003598D01*
X018535Y003662D01*
X018539Y003727D01*
X018547Y003792D01*
X018559Y003856D01*
X018575Y003919D01*
X018594Y003981D01*
X018618Y004041D01*
X018645Y004100D01*
X018675Y004158D01*
X018709Y004213D01*
X018746Y004266D01*
X018786Y004317D01*
X018830Y004366D01*
X018876Y004411D01*
X018925Y004454D01*
X018977Y004493D01*
X019030Y004530D01*
X019086Y004563D01*
X019144Y004593D01*
X019146Y004589D01*
X019088Y004559D01*
X019033Y004526D01*
X018979Y004490D01*
X018928Y004451D01*
X018879Y004408D01*
X018833Y004363D01*
X018790Y004315D01*
X018749Y004264D01*
X018712Y004211D01*
X018678Y004156D01*
X018648Y004099D01*
X018621Y004040D01*
X018598Y003979D01*
X018579Y003918D01*
X018563Y003855D01*
X018551Y003791D01*
X018543Y003727D01*
X018539Y003662D01*
X018539Y003598D01*
X018543Y003533D01*
X018551Y003469D01*
X018563Y003405D01*
X018579Y003342D01*
X018598Y003281D01*
X018621Y003220D01*
X018648Y003161D01*
X018678Y003104D01*
X018712Y003049D01*
X018749Y002996D01*
X018790Y002945D01*
X018833Y002897D01*
X018879Y002852D01*
X018928Y002809D01*
X018979Y002770D01*
X019033Y002734D01*
X019088Y002701D01*
X019146Y002671D01*
X019148Y002675D01*
X019090Y002704D01*
X019035Y002737D01*
X018981Y002773D01*
X018930Y002812D01*
X018882Y002855D01*
X018836Y002900D01*
X018793Y002948D01*
X018752Y002998D01*
X018716Y003051D01*
X018682Y003106D01*
X018652Y003163D01*
X018625Y003222D01*
X018602Y003282D01*
X018583Y003343D01*
X018567Y003406D01*
X018555Y003469D01*
X018547Y003533D01*
X018543Y003598D01*
X018543Y003662D01*
X018547Y003727D01*
X018555Y003791D01*
X018567Y003854D01*
X018583Y003917D01*
X018602Y003978D01*
X018625Y004038D01*
X018652Y004097D01*
X018682Y004154D01*
X018716Y004209D01*
X018752Y004262D01*
X018793Y004312D01*
X018836Y004360D01*
X018882Y004405D01*
X018930Y004448D01*
X018981Y004487D01*
X019035Y004523D01*
X019090Y004556D01*
X019148Y004585D01*
X019149Y004582D01*
X019092Y004552D01*
X019037Y004520D01*
X018984Y004484D01*
X018933Y004445D01*
X018884Y004402D01*
X018839Y004357D01*
X018796Y004310D01*
X018756Y004259D01*
X018719Y004207D01*
X018685Y004152D01*
X018655Y004095D01*
X018629Y004037D01*
X018606Y003977D01*
X018586Y003915D01*
X018571Y003853D01*
X018559Y003790D01*
X018551Y003726D01*
X018547Y003662D01*
X018547Y003598D01*
X018551Y003534D01*
X018559Y003470D01*
X018571Y003407D01*
X018586Y003345D01*
X018606Y003283D01*
X018629Y003223D01*
X018655Y003165D01*
X018685Y003108D01*
X018719Y003053D01*
X018756Y003001D01*
X018796Y002950D01*
X018839Y002903D01*
X018884Y002858D01*
X018933Y002815D01*
X018984Y002776D01*
X019037Y002740D01*
X019092Y002708D01*
X019149Y002678D01*
X019151Y002682D01*
X019094Y002711D01*
X019039Y002744D01*
X018986Y002780D01*
X018935Y002819D01*
X018887Y002861D01*
X018841Y002905D01*
X018799Y002953D01*
X018759Y003003D01*
X018722Y003056D01*
X018689Y003110D01*
X018659Y003167D01*
X018632Y003225D01*
X018609Y003285D01*
X018590Y003346D01*
X018575Y003408D01*
X018563Y003471D01*
X018555Y003534D01*
X018551Y003598D01*
X018551Y003662D01*
X018555Y003726D01*
X018563Y003789D01*
X018575Y003852D01*
X018590Y003914D01*
X018609Y003975D01*
X018632Y004035D01*
X018659Y004093D01*
X018689Y004150D01*
X018722Y004204D01*
X018759Y004257D01*
X018799Y004307D01*
X018841Y004355D01*
X018887Y004399D01*
X018935Y004441D01*
X018986Y004480D01*
X019039Y004516D01*
X019094Y004549D01*
X019151Y004578D01*
X019153Y004574D01*
X019096Y004545D01*
X019041Y004513D01*
X018988Y004477D01*
X018938Y004438D01*
X018890Y004397D01*
X018844Y004352D01*
X018802Y004304D01*
X018762Y004254D01*
X018726Y004202D01*
X018692Y004148D01*
X018662Y004092D01*
X018636Y004034D01*
X018613Y003974D01*
X018594Y003913D01*
X018579Y003851D01*
X018567Y003789D01*
X018559Y003725D01*
X018555Y003662D01*
X018555Y003598D01*
X018559Y003535D01*
X018567Y003471D01*
X018579Y003409D01*
X018594Y003347D01*
X018613Y003286D01*
X018636Y003226D01*
X018662Y003168D01*
X018692Y003112D01*
X018726Y003058D01*
X018762Y003006D01*
X018802Y002956D01*
X018844Y002908D01*
X018890Y002863D01*
X018938Y002822D01*
X018988Y002783D01*
X019041Y002747D01*
X019096Y002715D01*
X019153Y002686D01*
X019154Y002689D01*
X019098Y002718D01*
X019043Y002750D01*
X018991Y002786D01*
X018940Y002825D01*
X018892Y002866D01*
X018847Y002911D01*
X018805Y002958D01*
X018765Y003008D01*
X018729Y003060D01*
X018696Y003114D01*
X018666Y003170D01*
X018640Y003228D01*
X018617Y003287D01*
X018598Y003348D01*
X018583Y003409D01*
X018571Y003472D01*
X018563Y003535D01*
X018559Y003598D01*
X018559Y003662D01*
X018563Y003725D01*
X018571Y003788D01*
X018583Y003851D01*
X018598Y003912D01*
X018617Y003973D01*
X018640Y004032D01*
X018666Y004090D01*
X018696Y004146D01*
X018729Y004200D01*
X018765Y004252D01*
X018805Y004302D01*
X018847Y004349D01*
X018892Y004394D01*
X018940Y004435D01*
X018991Y004474D01*
X019043Y004510D01*
X019098Y004542D01*
X019154Y004571D01*
X019156Y004567D01*
X019100Y004538D01*
X019045Y004506D01*
X018993Y004471D01*
X018943Y004432D01*
X018895Y004391D01*
X018850Y004346D01*
X018808Y004299D01*
X018769Y004250D01*
X018732Y004198D01*
X018699Y004144D01*
X018670Y004088D01*
X018643Y004030D01*
X018621Y003971D01*
X018602Y003911D01*
X018587Y003850D01*
X018575Y003788D01*
X018567Y003725D01*
X018563Y003662D01*
X018563Y003598D01*
X018567Y003535D01*
X018575Y003472D01*
X018587Y003410D01*
X018602Y003349D01*
X018621Y003289D01*
X018643Y003230D01*
X018670Y003172D01*
X018699Y003116D01*
X018732Y003062D01*
X018769Y003010D01*
X018808Y002961D01*
X018850Y002914D01*
X018895Y002869D01*
X018943Y002828D01*
X018993Y002789D01*
X019045Y002754D01*
X019100Y002722D01*
X019156Y002693D01*
X019158Y002696D01*
X019102Y002725D01*
X019047Y002757D01*
X018995Y002793D01*
X018945Y002831D01*
X018898Y002872D01*
X018853Y002917D01*
X018811Y002963D01*
X018772Y003013D01*
X018736Y003064D01*
X018703Y003118D01*
X018673Y003174D01*
X018647Y003231D01*
X018625Y003290D01*
X018606Y003350D01*
X018590Y003411D01*
X018579Y003473D01*
X018571Y003536D01*
X018567Y003599D01*
X018567Y003661D01*
X018571Y003724D01*
X018579Y003787D01*
X018590Y003849D01*
X018606Y003910D01*
X018625Y003970D01*
X018647Y004029D01*
X018673Y004086D01*
X018703Y004142D01*
X018736Y004196D01*
X018772Y004247D01*
X018811Y004297D01*
X018853Y004343D01*
X018898Y004388D01*
X018945Y004429D01*
X018995Y004467D01*
X019047Y004503D01*
X019102Y004535D01*
X019158Y004564D01*
X019159Y004560D01*
X019104Y004531D01*
X019050Y004499D01*
X018998Y004464D01*
X018948Y004426D01*
X018901Y004385D01*
X018856Y004341D01*
X018814Y004294D01*
X018775Y004245D01*
X018739Y004193D01*
X018706Y004140D01*
X018677Y004084D01*
X018651Y004027D01*
X018628Y003969D01*
X018610Y003909D01*
X018594Y003848D01*
X018583Y003786D01*
X018575Y003724D01*
X018571Y003661D01*
X018571Y003599D01*
X018575Y003536D01*
X018583Y003474D01*
X018594Y003412D01*
X018610Y003351D01*
X018628Y003291D01*
X018651Y003233D01*
X018677Y003176D01*
X018706Y003120D01*
X018739Y003067D01*
X018775Y003015D01*
X018814Y002966D01*
X018856Y002919D01*
X018901Y002875D01*
X018948Y002834D01*
X018998Y002796D01*
X019050Y002761D01*
X019104Y002729D01*
X019159Y002700D01*
X020059Y002661D02*
X020040Y002701D01*
X020091Y002727D01*
X020141Y002756D01*
X020188Y002787D01*
X020234Y002821D01*
X020262Y002786D01*
X020214Y002750D01*
X020164Y002717D01*
X020113Y002687D01*
X020059Y002660D01*
X020058Y002664D01*
X020111Y002691D01*
X020162Y002721D01*
X020212Y002753D01*
X020260Y002789D01*
X020257Y002792D01*
X020210Y002757D01*
X020160Y002724D01*
X020109Y002694D01*
X020056Y002668D01*
X020054Y002671D01*
X020107Y002698D01*
X020158Y002728D01*
X020207Y002760D01*
X020255Y002795D01*
X020252Y002798D01*
X020205Y002763D01*
X020156Y002731D01*
X020105Y002701D01*
X020052Y002675D01*
X020051Y002678D01*
X020103Y002705D01*
X020154Y002734D01*
X020203Y002767D01*
X020250Y002802D01*
X020247Y002805D01*
X020200Y002770D01*
X020152Y002738D01*
X020101Y002708D01*
X020049Y002682D01*
X020047Y002686D01*
X020099Y002712D01*
X020150Y002741D01*
X020198Y002773D01*
X020245Y002808D01*
X020242Y002811D01*
X020196Y002776D01*
X020147Y002745D01*
X020097Y002715D01*
X020046Y002689D01*
X020044Y002693D01*
X020095Y002719D01*
X020145Y002748D01*
X020194Y002780D01*
X020240Y002814D01*
X020238Y002817D01*
X020191Y002783D01*
X020143Y002751D01*
X020094Y002723D01*
X020042Y002696D01*
X020041Y002700D01*
X020092Y002726D01*
X020141Y002755D01*
X020189Y002786D01*
X020235Y002820D01*
X018059Y002661D02*
X018040Y002701D01*
X018091Y002727D01*
X018141Y002756D01*
X018188Y002787D01*
X018234Y002821D01*
X018262Y002786D01*
X018214Y002750D01*
X018164Y002717D01*
X018113Y002687D01*
X018059Y002660D01*
X018058Y002664D01*
X018111Y002691D01*
X018162Y002721D01*
X018212Y002753D01*
X018260Y002789D01*
X018257Y002792D01*
X018210Y002757D01*
X018160Y002724D01*
X018109Y002694D01*
X018056Y002668D01*
X018054Y002671D01*
X018107Y002698D01*
X018158Y002728D01*
X018207Y002760D01*
X018255Y002795D01*
X018252Y002798D01*
X018205Y002763D01*
X018156Y002731D01*
X018105Y002701D01*
X018052Y002675D01*
X018051Y002678D01*
X018103Y002705D01*
X018154Y002734D01*
X018203Y002767D01*
X018250Y002802D01*
X018247Y002805D01*
X018200Y002770D01*
X018152Y002738D01*
X018101Y002708D01*
X018049Y002682D01*
X018047Y002686D01*
X018099Y002712D01*
X018150Y002741D01*
X018198Y002773D01*
X018245Y002808D01*
X018242Y002811D01*
X018196Y002776D01*
X018147Y002745D01*
X018097Y002715D01*
X018046Y002689D01*
X018044Y002693D01*
X018095Y002719D01*
X018145Y002748D01*
X018194Y002780D01*
X018240Y002814D01*
X018238Y002817D01*
X018191Y002783D01*
X018143Y002751D01*
X018094Y002723D01*
X018042Y002696D01*
X018041Y002700D01*
X018092Y002726D01*
X018141Y002755D01*
X018189Y002786D01*
X018235Y002820D01*
X017141Y004599D02*
X017160Y004559D01*
X017104Y004530D01*
X017050Y004499D01*
X016998Y004463D01*
X016949Y004425D01*
X016901Y004384D01*
X016857Y004340D01*
X016815Y004293D01*
X016776Y004244D01*
X016740Y004193D01*
X016707Y004139D01*
X016678Y004084D01*
X016652Y004027D01*
X016629Y003968D01*
X016610Y003909D01*
X016595Y003848D01*
X016584Y003786D01*
X016576Y003724D01*
X016572Y003661D01*
X016572Y003599D01*
X016576Y003536D01*
X016584Y003474D01*
X016595Y003412D01*
X016610Y003351D01*
X016629Y003292D01*
X016652Y003233D01*
X016678Y003176D01*
X016707Y003121D01*
X016740Y003067D01*
X016776Y003016D01*
X016815Y002967D01*
X016857Y002920D01*
X016901Y002876D01*
X016949Y002835D01*
X016998Y002797D01*
X017050Y002761D01*
X017104Y002730D01*
X017160Y002701D01*
X017141Y002661D01*
X017141Y002660D01*
X017082Y002690D01*
X017026Y002723D01*
X016972Y002760D01*
X016920Y002800D01*
X016871Y002843D01*
X016824Y002889D01*
X016780Y002938D01*
X016740Y002989D01*
X016702Y003042D01*
X016668Y003098D01*
X016637Y003156D01*
X016610Y003216D01*
X016587Y003277D01*
X016567Y003339D01*
X016551Y003403D01*
X016539Y003467D01*
X016531Y003532D01*
X016527Y003597D01*
X016527Y003663D01*
X016531Y003728D01*
X016539Y003793D01*
X016551Y003857D01*
X016567Y003921D01*
X016587Y003983D01*
X016610Y004044D01*
X016637Y004104D01*
X016668Y004162D01*
X016702Y004218D01*
X016740Y004271D01*
X016780Y004322D01*
X016824Y004371D01*
X016871Y004417D01*
X016920Y004460D01*
X016972Y004500D01*
X017026Y004537D01*
X017082Y004570D01*
X017141Y004600D01*
X017142Y004596D01*
X017084Y004566D01*
X017028Y004533D01*
X016974Y004497D01*
X016923Y004457D01*
X016873Y004414D01*
X016827Y004368D01*
X016783Y004320D01*
X016743Y004269D01*
X016706Y004215D01*
X016672Y004160D01*
X016641Y004102D01*
X016614Y004043D01*
X016591Y003982D01*
X016571Y003920D01*
X016555Y003856D01*
X016543Y003792D01*
X016535Y003728D01*
X016531Y003663D01*
X016531Y003597D01*
X016535Y003532D01*
X016543Y003468D01*
X016555Y003404D01*
X016571Y003340D01*
X016591Y003278D01*
X016614Y003217D01*
X016641Y003158D01*
X016672Y003100D01*
X016706Y003045D01*
X016743Y002991D01*
X016783Y002940D01*
X016827Y002892D01*
X016873Y002846D01*
X016923Y002803D01*
X016974Y002763D01*
X017028Y002727D01*
X017084Y002694D01*
X017142Y002664D01*
X017144Y002667D01*
X017086Y002697D01*
X017030Y002730D01*
X016977Y002767D01*
X016925Y002806D01*
X016876Y002849D01*
X016830Y002894D01*
X016786Y002943D01*
X016746Y002994D01*
X016709Y003047D01*
X016675Y003102D01*
X016645Y003160D01*
X016618Y003219D01*
X016594Y003279D01*
X016575Y003341D01*
X016559Y003404D01*
X016547Y003468D01*
X016539Y003533D01*
X016535Y003598D01*
X016535Y003662D01*
X016539Y003727D01*
X016547Y003792D01*
X016559Y003856D01*
X016575Y003919D01*
X016594Y003981D01*
X016618Y004041D01*
X016645Y004100D01*
X016675Y004158D01*
X016709Y004213D01*
X016746Y004266D01*
X016786Y004317D01*
X016830Y004366D01*
X016876Y004411D01*
X016925Y004454D01*
X016977Y004493D01*
X017030Y004530D01*
X017086Y004563D01*
X017144Y004593D01*
X017146Y004589D01*
X017088Y004559D01*
X017033Y004526D01*
X016979Y004490D01*
X016928Y004451D01*
X016879Y004408D01*
X016833Y004363D01*
X016790Y004315D01*
X016749Y004264D01*
X016712Y004211D01*
X016678Y004156D01*
X016648Y004099D01*
X016621Y004040D01*
X016598Y003979D01*
X016579Y003918D01*
X016563Y003855D01*
X016551Y003791D01*
X016543Y003727D01*
X016539Y003662D01*
X016539Y003598D01*
X016543Y003533D01*
X016551Y003469D01*
X016563Y003405D01*
X016579Y003342D01*
X016598Y003281D01*
X016621Y003220D01*
X016648Y003161D01*
X016678Y003104D01*
X016712Y003049D01*
X016749Y002996D01*
X016790Y002945D01*
X016833Y002897D01*
X016879Y002852D01*
X016928Y002809D01*
X016979Y002770D01*
X017033Y002734D01*
X017088Y002701D01*
X017146Y002671D01*
X017148Y002675D01*
X017090Y002704D01*
X017035Y002737D01*
X016981Y002773D01*
X016930Y002812D01*
X016882Y002855D01*
X016836Y002900D01*
X016793Y002948D01*
X016752Y002998D01*
X016716Y003051D01*
X016682Y003106D01*
X016652Y003163D01*
X016625Y003222D01*
X016602Y003282D01*
X016583Y003343D01*
X016567Y003406D01*
X016555Y003469D01*
X016547Y003533D01*
X016543Y003598D01*
X016543Y003662D01*
X016547Y003727D01*
X016555Y003791D01*
X016567Y003854D01*
X016583Y003917D01*
X016602Y003978D01*
X016625Y004038D01*
X016652Y004097D01*
X016682Y004154D01*
X016716Y004209D01*
X016752Y004262D01*
X016793Y004312D01*
X016836Y004360D01*
X016882Y004405D01*
X016930Y004448D01*
X016981Y004487D01*
X017035Y004523D01*
X017090Y004556D01*
X017148Y004585D01*
X017149Y004582D01*
X017092Y004552D01*
X017037Y004520D01*
X016984Y004484D01*
X016933Y004445D01*
X016884Y004402D01*
X016839Y004357D01*
X016796Y004310D01*
X016756Y004259D01*
X016719Y004207D01*
X016685Y004152D01*
X016655Y004095D01*
X016629Y004037D01*
X016606Y003977D01*
X016586Y003915D01*
X016571Y003853D01*
X016559Y003790D01*
X016551Y003726D01*
X016547Y003662D01*
X016547Y003598D01*
X016551Y003534D01*
X016559Y003470D01*
X016571Y003407D01*
X016586Y003345D01*
X016606Y003283D01*
X016629Y003223D01*
X016655Y003165D01*
X016685Y003108D01*
X016719Y003053D01*
X016756Y003001D01*
X016796Y002950D01*
X016839Y002903D01*
X016884Y002858D01*
X016933Y002815D01*
X016984Y002776D01*
X017037Y002740D01*
X017092Y002708D01*
X017149Y002678D01*
X017151Y002682D01*
X017094Y002711D01*
X017039Y002744D01*
X016986Y002780D01*
X016935Y002819D01*
X016887Y002861D01*
X016841Y002905D01*
X016799Y002953D01*
X016759Y003003D01*
X016722Y003056D01*
X016689Y003110D01*
X016659Y003167D01*
X016632Y003225D01*
X016609Y003285D01*
X016590Y003346D01*
X016575Y003408D01*
X016563Y003471D01*
X016555Y003534D01*
X016551Y003598D01*
X016551Y003662D01*
X016555Y003726D01*
X016563Y003789D01*
X016575Y003852D01*
X016590Y003914D01*
X016609Y003975D01*
X016632Y004035D01*
X016659Y004093D01*
X016689Y004150D01*
X016722Y004204D01*
X016759Y004257D01*
X016799Y004307D01*
X016841Y004355D01*
X016887Y004399D01*
X016935Y004441D01*
X016986Y004480D01*
X017039Y004516D01*
X017094Y004549D01*
X017151Y004578D01*
X017153Y004574D01*
X017096Y004545D01*
X017041Y004513D01*
X016988Y004477D01*
X016938Y004438D01*
X016890Y004397D01*
X016844Y004352D01*
X016802Y004304D01*
X016762Y004254D01*
X016726Y004202D01*
X016692Y004148D01*
X016662Y004092D01*
X016636Y004034D01*
X016613Y003974D01*
X016594Y003913D01*
X016579Y003851D01*
X016567Y003789D01*
X016559Y003725D01*
X016555Y003662D01*
X016555Y003598D01*
X016559Y003535D01*
X016567Y003471D01*
X016579Y003409D01*
X016594Y003347D01*
X016613Y003286D01*
X016636Y003226D01*
X016662Y003168D01*
X016692Y003112D01*
X016726Y003058D01*
X016762Y003006D01*
X016802Y002956D01*
X016844Y002908D01*
X016890Y002863D01*
X016938Y002822D01*
X016988Y002783D01*
X017041Y002747D01*
X017096Y002715D01*
X017153Y002686D01*
X017154Y002689D01*
X017098Y002718D01*
X017043Y002750D01*
X016991Y002786D01*
X016940Y002825D01*
X016892Y002866D01*
X016847Y002911D01*
X016805Y002958D01*
X016765Y003008D01*
X016729Y003060D01*
X016696Y003114D01*
X016666Y003170D01*
X016640Y003228D01*
X016617Y003287D01*
X016598Y003348D01*
X016583Y003409D01*
X016571Y003472D01*
X016563Y003535D01*
X016559Y003598D01*
X016559Y003662D01*
X016563Y003725D01*
X016571Y003788D01*
X016583Y003851D01*
X016598Y003912D01*
X016617Y003973D01*
X016640Y004032D01*
X016666Y004090D01*
X016696Y004146D01*
X016729Y004200D01*
X016765Y004252D01*
X016805Y004302D01*
X016847Y004349D01*
X016892Y004394D01*
X016940Y004435D01*
X016991Y004474D01*
X017043Y004510D01*
X017098Y004542D01*
X017154Y004571D01*
X017156Y004567D01*
X017100Y004538D01*
X017045Y004506D01*
X016993Y004471D01*
X016943Y004432D01*
X016895Y004391D01*
X016850Y004346D01*
X016808Y004299D01*
X016769Y004250D01*
X016732Y004198D01*
X016699Y004144D01*
X016670Y004088D01*
X016643Y004030D01*
X016621Y003971D01*
X016602Y003911D01*
X016587Y003850D01*
X016575Y003788D01*
X016567Y003725D01*
X016563Y003662D01*
X016563Y003598D01*
X016567Y003535D01*
X016575Y003472D01*
X016587Y003410D01*
X016602Y003349D01*
X016621Y003289D01*
X016643Y003230D01*
X016670Y003172D01*
X016699Y003116D01*
X016732Y003062D01*
X016769Y003010D01*
X016808Y002961D01*
X016850Y002914D01*
X016895Y002869D01*
X016943Y002828D01*
X016993Y002789D01*
X017045Y002754D01*
X017100Y002722D01*
X017156Y002693D01*
X017158Y002696D01*
X017102Y002725D01*
X017047Y002757D01*
X016995Y002793D01*
X016945Y002831D01*
X016898Y002872D01*
X016853Y002917D01*
X016811Y002963D01*
X016772Y003013D01*
X016736Y003064D01*
X016703Y003118D01*
X016673Y003174D01*
X016647Y003231D01*
X016625Y003290D01*
X016606Y003350D01*
X016590Y003411D01*
X016579Y003473D01*
X016571Y003536D01*
X016567Y003599D01*
X016567Y003661D01*
X016571Y003724D01*
X016579Y003787D01*
X016590Y003849D01*
X016606Y003910D01*
X016625Y003970D01*
X016647Y004029D01*
X016673Y004086D01*
X016703Y004142D01*
X016736Y004196D01*
X016772Y004247D01*
X016811Y004297D01*
X016853Y004343D01*
X016898Y004388D01*
X016945Y004429D01*
X016995Y004467D01*
X017047Y004503D01*
X017102Y004535D01*
X017158Y004564D01*
X017159Y004560D01*
X017104Y004531D01*
X017050Y004499D01*
X016998Y004464D01*
X016948Y004426D01*
X016901Y004385D01*
X016856Y004341D01*
X016814Y004294D01*
X016775Y004245D01*
X016739Y004193D01*
X016706Y004140D01*
X016677Y004084D01*
X016651Y004027D01*
X016628Y003969D01*
X016610Y003909D01*
X016594Y003848D01*
X016583Y003786D01*
X016575Y003724D01*
X016571Y003661D01*
X016571Y003599D01*
X016575Y003536D01*
X016583Y003474D01*
X016594Y003412D01*
X016610Y003351D01*
X016628Y003291D01*
X016651Y003233D01*
X016677Y003176D01*
X016706Y003120D01*
X016739Y003067D01*
X016775Y003015D01*
X016814Y002966D01*
X016856Y002919D01*
X016901Y002875D01*
X016948Y002834D01*
X016998Y002796D01*
X017050Y002761D01*
X017104Y002729D01*
X017159Y002700D01*
X018262Y004474D02*
X018234Y004438D01*
X018234Y004439D02*
X018186Y004474D01*
X018136Y004507D01*
X018084Y004537D01*
X018031Y004563D01*
X018049Y004604D01*
X018050Y004604D01*
X018106Y004576D01*
X018160Y004545D01*
X018212Y004511D01*
X018262Y004474D01*
X018260Y004471D01*
X018210Y004508D01*
X018158Y004542D01*
X018104Y004573D01*
X018048Y004601D01*
X018046Y004597D01*
X018102Y004569D01*
X018156Y004539D01*
X018207Y004505D01*
X018257Y004468D01*
X018255Y004465D01*
X018205Y004501D01*
X018153Y004535D01*
X018100Y004566D01*
X018045Y004593D01*
X018043Y004590D01*
X018098Y004562D01*
X018151Y004532D01*
X018203Y004498D01*
X018252Y004462D01*
X018250Y004458D01*
X018201Y004495D01*
X018149Y004528D01*
X018096Y004559D01*
X018041Y004586D01*
X018040Y004582D01*
X018094Y004555D01*
X018147Y004525D01*
X018198Y004492D01*
X018247Y004455D01*
X018245Y004452D01*
X018196Y004488D01*
X018145Y004522D01*
X018092Y004552D01*
X018038Y004579D01*
X018036Y004575D01*
X018090Y004548D01*
X018143Y004518D01*
X018194Y004485D01*
X018242Y004449D01*
X018240Y004446D01*
X018191Y004482D01*
X018141Y004515D01*
X018089Y004545D01*
X018035Y004572D01*
X018033Y004568D01*
X018087Y004541D01*
X018139Y004511D01*
X018189Y004478D01*
X018238Y004443D01*
X018235Y004440D01*
X018187Y004475D01*
X018137Y004508D01*
X018085Y004538D01*
X018031Y004564D01*
X016262Y004474D02*
X016234Y004438D01*
X016234Y004439D02*
X016186Y004474D01*
X016136Y004507D01*
X016084Y004537D01*
X016031Y004563D01*
X016049Y004604D01*
X016050Y004604D01*
X016106Y004576D01*
X016160Y004545D01*
X016212Y004511D01*
X016262Y004474D01*
X016260Y004471D01*
X016210Y004508D01*
X016158Y004542D01*
X016104Y004573D01*
X016048Y004601D01*
X016046Y004597D01*
X016102Y004569D01*
X016156Y004539D01*
X016207Y004505D01*
X016257Y004468D01*
X016255Y004465D01*
X016205Y004501D01*
X016153Y004535D01*
X016100Y004566D01*
X016045Y004593D01*
X016043Y004590D01*
X016098Y004562D01*
X016151Y004532D01*
X016203Y004498D01*
X016252Y004462D01*
X016250Y004458D01*
X016201Y004495D01*
X016149Y004528D01*
X016096Y004559D01*
X016041Y004586D01*
X016040Y004582D01*
X016094Y004555D01*
X016147Y004525D01*
X016198Y004492D01*
X016247Y004455D01*
X016245Y004452D01*
X016196Y004488D01*
X016145Y004522D01*
X016092Y004552D01*
X016038Y004579D01*
X016036Y004575D01*
X016090Y004548D01*
X016143Y004518D01*
X016194Y004485D01*
X016242Y004449D01*
X016240Y004446D01*
X016191Y004482D01*
X016141Y004515D01*
X016089Y004545D01*
X016035Y004572D01*
X016033Y004568D01*
X016087Y004541D01*
X016139Y004511D01*
X016189Y004478D01*
X016238Y004443D01*
X016235Y004440D01*
X016187Y004475D01*
X016137Y004508D01*
X016085Y004538D01*
X016031Y004564D01*
X015141Y004599D02*
X015160Y004559D01*
X015104Y004530D01*
X015050Y004499D01*
X014998Y004463D01*
X014949Y004425D01*
X014901Y004384D01*
X014857Y004340D01*
X014815Y004293D01*
X014776Y004244D01*
X014740Y004193D01*
X014707Y004139D01*
X014678Y004084D01*
X014652Y004027D01*
X014629Y003968D01*
X014610Y003909D01*
X014595Y003848D01*
X014584Y003786D01*
X014576Y003724D01*
X014572Y003661D01*
X014572Y003599D01*
X014576Y003536D01*
X014584Y003474D01*
X014595Y003412D01*
X014610Y003351D01*
X014629Y003292D01*
X014652Y003233D01*
X014678Y003176D01*
X014707Y003121D01*
X014740Y003067D01*
X014776Y003016D01*
X014815Y002967D01*
X014857Y002920D01*
X014901Y002876D01*
X014949Y002835D01*
X014998Y002797D01*
X015050Y002761D01*
X015104Y002730D01*
X015160Y002701D01*
X015141Y002661D01*
X015141Y002660D01*
X015082Y002690D01*
X015026Y002723D01*
X014972Y002760D01*
X014920Y002800D01*
X014871Y002843D01*
X014824Y002889D01*
X014780Y002938D01*
X014740Y002989D01*
X014702Y003042D01*
X014668Y003098D01*
X014637Y003156D01*
X014610Y003216D01*
X014587Y003277D01*
X014567Y003339D01*
X014551Y003403D01*
X014539Y003467D01*
X014531Y003532D01*
X014527Y003597D01*
X014527Y003663D01*
X014531Y003728D01*
X014539Y003793D01*
X014551Y003857D01*
X014567Y003921D01*
X014587Y003983D01*
X014610Y004044D01*
X014637Y004104D01*
X014668Y004162D01*
X014702Y004218D01*
X014740Y004271D01*
X014780Y004322D01*
X014824Y004371D01*
X014871Y004417D01*
X014920Y004460D01*
X014972Y004500D01*
X015026Y004537D01*
X015082Y004570D01*
X015141Y004600D01*
X015142Y004596D01*
X015084Y004566D01*
X015028Y004533D01*
X014974Y004497D01*
X014923Y004457D01*
X014873Y004414D01*
X014827Y004368D01*
X014783Y004320D01*
X014743Y004269D01*
X014706Y004215D01*
X014672Y004160D01*
X014641Y004102D01*
X014614Y004043D01*
X014591Y003982D01*
X014571Y003920D01*
X014555Y003856D01*
X014543Y003792D01*
X014535Y003728D01*
X014531Y003663D01*
X014531Y003597D01*
X014535Y003532D01*
X014543Y003468D01*
X014555Y003404D01*
X014571Y003340D01*
X014591Y003278D01*
X014614Y003217D01*
X014641Y003158D01*
X014672Y003100D01*
X014706Y003045D01*
X014743Y002991D01*
X014783Y002940D01*
X014827Y002892D01*
X014873Y002846D01*
X014923Y002803D01*
X014974Y002763D01*
X015028Y002727D01*
X015084Y002694D01*
X015142Y002664D01*
X015144Y002667D01*
X015086Y002697D01*
X015030Y002730D01*
X014977Y002767D01*
X014925Y002806D01*
X014876Y002849D01*
X014830Y002894D01*
X014786Y002943D01*
X014746Y002994D01*
X014709Y003047D01*
X014675Y003102D01*
X014645Y003160D01*
X014618Y003219D01*
X014594Y003279D01*
X014575Y003341D01*
X014559Y003404D01*
X014547Y003468D01*
X014539Y003533D01*
X014535Y003598D01*
X014535Y003662D01*
X014539Y003727D01*
X014547Y003792D01*
X014559Y003856D01*
X014575Y003919D01*
X014594Y003981D01*
X014618Y004041D01*
X014645Y004100D01*
X014675Y004158D01*
X014709Y004213D01*
X014746Y004266D01*
X014786Y004317D01*
X014830Y004366D01*
X014876Y004411D01*
X014925Y004454D01*
X014977Y004493D01*
X015030Y004530D01*
X015086Y004563D01*
X015144Y004593D01*
X015146Y004589D01*
X015088Y004559D01*
X015033Y004526D01*
X014979Y004490D01*
X014928Y004451D01*
X014879Y004408D01*
X014833Y004363D01*
X014790Y004315D01*
X014749Y004264D01*
X014712Y004211D01*
X014678Y004156D01*
X014648Y004099D01*
X014621Y004040D01*
X014598Y003979D01*
X014579Y003918D01*
X014563Y003855D01*
X014551Y003791D01*
X014543Y003727D01*
X014539Y003662D01*
X014539Y003598D01*
X014543Y003533D01*
X014551Y003469D01*
X014563Y003405D01*
X014579Y003342D01*
X014598Y003281D01*
X014621Y003220D01*
X014648Y003161D01*
X014678Y003104D01*
X014712Y003049D01*
X014749Y002996D01*
X014790Y002945D01*
X014833Y002897D01*
X014879Y002852D01*
X014928Y002809D01*
X014979Y002770D01*
X015033Y002734D01*
X015088Y002701D01*
X015146Y002671D01*
X015148Y002675D01*
X015090Y002704D01*
X015035Y002737D01*
X014981Y002773D01*
X014930Y002812D01*
X014882Y002855D01*
X014836Y002900D01*
X014793Y002948D01*
X014752Y002998D01*
X014716Y003051D01*
X014682Y003106D01*
X014652Y003163D01*
X014625Y003222D01*
X014602Y003282D01*
X014583Y003343D01*
X014567Y003406D01*
X014555Y003469D01*
X014547Y003533D01*
X014543Y003598D01*
X014543Y003662D01*
X014547Y003727D01*
X014555Y003791D01*
X014567Y003854D01*
X014583Y003917D01*
X014602Y003978D01*
X014625Y004038D01*
X014652Y004097D01*
X014682Y004154D01*
X014716Y004209D01*
X014752Y004262D01*
X014793Y004312D01*
X014836Y004360D01*
X014882Y004405D01*
X014930Y004448D01*
X014981Y004487D01*
X015035Y004523D01*
X015090Y004556D01*
X015148Y004585D01*
X015149Y004582D01*
X015092Y004552D01*
X015037Y004520D01*
X014984Y004484D01*
X014933Y004445D01*
X014884Y004402D01*
X014839Y004357D01*
X014796Y004310D01*
X014756Y004259D01*
X014719Y004207D01*
X014685Y004152D01*
X014655Y004095D01*
X014629Y004037D01*
X014606Y003977D01*
X014586Y003915D01*
X014571Y003853D01*
X014559Y003790D01*
X014551Y003726D01*
X014547Y003662D01*
X014547Y003598D01*
X014551Y003534D01*
X014559Y003470D01*
X014571Y003407D01*
X014586Y003345D01*
X014606Y003283D01*
X014629Y003223D01*
X014655Y003165D01*
X014685Y003108D01*
X014719Y003053D01*
X014756Y003001D01*
X014796Y002950D01*
X014839Y002903D01*
X014884Y002858D01*
X014933Y002815D01*
X014984Y002776D01*
X015037Y002740D01*
X015092Y002708D01*
X015149Y002678D01*
X015151Y002682D01*
X015094Y002711D01*
X015039Y002744D01*
X014986Y002780D01*
X014935Y002819D01*
X014887Y002861D01*
X014841Y002905D01*
X014799Y002953D01*
X014759Y003003D01*
X014722Y003056D01*
X014689Y003110D01*
X014659Y003167D01*
X014632Y003225D01*
X014609Y003285D01*
X014590Y003346D01*
X014575Y003408D01*
X014563Y003471D01*
X014555Y003534D01*
X014551Y003598D01*
X014551Y003662D01*
X014555Y003726D01*
X014563Y003789D01*
X014575Y003852D01*
X014590Y003914D01*
X014609Y003975D01*
X014632Y004035D01*
X014659Y004093D01*
X014689Y004150D01*
X014722Y004204D01*
X014759Y004257D01*
X014799Y004307D01*
X014841Y004355D01*
X014887Y004399D01*
X014935Y004441D01*
X014986Y004480D01*
X015039Y004516D01*
X015094Y004549D01*
X015151Y004578D01*
X015153Y004574D01*
X015096Y004545D01*
X015041Y004513D01*
X014988Y004477D01*
X014938Y004438D01*
X014890Y004397D01*
X014844Y004352D01*
X014802Y004304D01*
X014762Y004254D01*
X014726Y004202D01*
X014692Y004148D01*
X014662Y004092D01*
X014636Y004034D01*
X014613Y003974D01*
X014594Y003913D01*
X014579Y003851D01*
X014567Y003789D01*
X014559Y003725D01*
X014555Y003662D01*
X014555Y003598D01*
X014559Y003535D01*
X014567Y003471D01*
X014579Y003409D01*
X014594Y003347D01*
X014613Y003286D01*
X014636Y003226D01*
X014662Y003168D01*
X014692Y003112D01*
X014726Y003058D01*
X014762Y003006D01*
X014802Y002956D01*
X014844Y002908D01*
X014890Y002863D01*
X014938Y002822D01*
X014988Y002783D01*
X015041Y002747D01*
X015096Y002715D01*
X015153Y002686D01*
X015154Y002689D01*
X015098Y002718D01*
X015043Y002750D01*
X014991Y002786D01*
X014940Y002825D01*
X014892Y002866D01*
X014847Y002911D01*
X014805Y002958D01*
X014765Y003008D01*
X014729Y003060D01*
X014696Y003114D01*
X014666Y003170D01*
X014640Y003228D01*
X014617Y003287D01*
X014598Y003348D01*
X014583Y003409D01*
X014571Y003472D01*
X014563Y003535D01*
X014559Y003598D01*
X014559Y003662D01*
X014563Y003725D01*
X014571Y003788D01*
X014583Y003851D01*
X014598Y003912D01*
X014617Y003973D01*
X014640Y004032D01*
X014666Y004090D01*
X014696Y004146D01*
X014729Y004200D01*
X014765Y004252D01*
X014805Y004302D01*
X014847Y004349D01*
X014892Y004394D01*
X014940Y004435D01*
X014991Y004474D01*
X015043Y004510D01*
X015098Y004542D01*
X015154Y004571D01*
X015156Y004567D01*
X015100Y004538D01*
X015045Y004506D01*
X014993Y004471D01*
X014943Y004432D01*
X014895Y004391D01*
X014850Y004346D01*
X014808Y004299D01*
X014769Y004250D01*
X014732Y004198D01*
X014699Y004144D01*
X014670Y004088D01*
X014643Y004030D01*
X014621Y003971D01*
X014602Y003911D01*
X014587Y003850D01*
X014575Y003788D01*
X014567Y003725D01*
X014563Y003662D01*
X014563Y003598D01*
X014567Y003535D01*
X014575Y003472D01*
X014587Y003410D01*
X014602Y003349D01*
X014621Y003289D01*
X014643Y003230D01*
X014670Y003172D01*
X014699Y003116D01*
X014732Y003062D01*
X014769Y003010D01*
X014808Y002961D01*
X014850Y002914D01*
X014895Y002869D01*
X014943Y002828D01*
X014993Y002789D01*
X015045Y002754D01*
X015100Y002722D01*
X015156Y002693D01*
X015158Y002696D01*
X015102Y002725D01*
X015047Y002757D01*
X014995Y002793D01*
X014945Y002831D01*
X014898Y002872D01*
X014853Y002917D01*
X014811Y002963D01*
X014772Y003013D01*
X014736Y003064D01*
X014703Y003118D01*
X014673Y003174D01*
X014647Y003231D01*
X014625Y003290D01*
X014606Y003350D01*
X014590Y003411D01*
X014579Y003473D01*
X014571Y003536D01*
X014567Y003599D01*
X014567Y003661D01*
X014571Y003724D01*
X014579Y003787D01*
X014590Y003849D01*
X014606Y003910D01*
X014625Y003970D01*
X014647Y004029D01*
X014673Y004086D01*
X014703Y004142D01*
X014736Y004196D01*
X014772Y004247D01*
X014811Y004297D01*
X014853Y004343D01*
X014898Y004388D01*
X014945Y004429D01*
X014995Y004467D01*
X015047Y004503D01*
X015102Y004535D01*
X015158Y004564D01*
X015159Y004560D01*
X015104Y004531D01*
X015050Y004499D01*
X014998Y004464D01*
X014948Y004426D01*
X014901Y004385D01*
X014856Y004341D01*
X014814Y004294D01*
X014775Y004245D01*
X014739Y004193D01*
X014706Y004140D01*
X014677Y004084D01*
X014651Y004027D01*
X014628Y003969D01*
X014610Y003909D01*
X014594Y003848D01*
X014583Y003786D01*
X014575Y003724D01*
X014571Y003661D01*
X014571Y003599D01*
X014575Y003536D01*
X014583Y003474D01*
X014594Y003412D01*
X014610Y003351D01*
X014628Y003291D01*
X014651Y003233D01*
X014677Y003176D01*
X014706Y003120D01*
X014739Y003067D01*
X014775Y003015D01*
X014814Y002966D01*
X014856Y002919D01*
X014901Y002875D01*
X014948Y002834D01*
X014998Y002796D01*
X015050Y002761D01*
X015104Y002729D01*
X015159Y002700D01*
X016059Y002661D02*
X016040Y002701D01*
X016091Y002727D01*
X016141Y002756D01*
X016188Y002787D01*
X016234Y002821D01*
X016262Y002786D01*
X016214Y002750D01*
X016164Y002717D01*
X016113Y002687D01*
X016059Y002660D01*
X016058Y002664D01*
X016111Y002691D01*
X016162Y002721D01*
X016212Y002753D01*
X016260Y002789D01*
X016257Y002792D01*
X016210Y002757D01*
X016160Y002724D01*
X016109Y002694D01*
X016056Y002668D01*
X016054Y002671D01*
X016107Y002698D01*
X016158Y002728D01*
X016207Y002760D01*
X016255Y002795D01*
X016252Y002798D01*
X016205Y002763D01*
X016156Y002731D01*
X016105Y002701D01*
X016052Y002675D01*
X016051Y002678D01*
X016103Y002705D01*
X016154Y002734D01*
X016203Y002767D01*
X016250Y002802D01*
X016247Y002805D01*
X016200Y002770D01*
X016152Y002738D01*
X016101Y002708D01*
X016049Y002682D01*
X016047Y002686D01*
X016099Y002712D01*
X016150Y002741D01*
X016198Y002773D01*
X016245Y002808D01*
X016242Y002811D01*
X016196Y002776D01*
X016147Y002745D01*
X016097Y002715D01*
X016046Y002689D01*
X016044Y002693D01*
X016095Y002719D01*
X016145Y002748D01*
X016194Y002780D01*
X016240Y002814D01*
X016238Y002817D01*
X016191Y002783D01*
X016143Y002751D01*
X016094Y002723D01*
X016042Y002696D01*
X016041Y002700D01*
X016092Y002726D01*
X016141Y002755D01*
X016189Y002786D01*
X016235Y002820D01*
X014059Y002661D02*
X014040Y002701D01*
X014091Y002727D01*
X014141Y002756D01*
X014188Y002787D01*
X014234Y002821D01*
X014262Y002786D01*
X014214Y002750D01*
X014164Y002717D01*
X014113Y002687D01*
X014059Y002660D01*
X014058Y002664D01*
X014111Y002691D01*
X014162Y002721D01*
X014212Y002753D01*
X014260Y002789D01*
X014257Y002792D01*
X014210Y002757D01*
X014160Y002724D01*
X014109Y002694D01*
X014056Y002668D01*
X014054Y002671D01*
X014107Y002698D01*
X014158Y002728D01*
X014207Y002760D01*
X014255Y002795D01*
X014252Y002798D01*
X014205Y002763D01*
X014156Y002731D01*
X014105Y002701D01*
X014052Y002675D01*
X014051Y002678D01*
X014103Y002705D01*
X014154Y002734D01*
X014203Y002767D01*
X014250Y002802D01*
X014247Y002805D01*
X014200Y002770D01*
X014152Y002738D01*
X014101Y002708D01*
X014049Y002682D01*
X014047Y002686D01*
X014099Y002712D01*
X014150Y002741D01*
X014198Y002773D01*
X014245Y002808D01*
X014242Y002811D01*
X014196Y002776D01*
X014147Y002745D01*
X014097Y002715D01*
X014046Y002689D01*
X014044Y002693D01*
X014095Y002719D01*
X014145Y002748D01*
X014194Y002780D01*
X014240Y002814D01*
X014238Y002817D01*
X014191Y002783D01*
X014143Y002751D01*
X014094Y002723D01*
X014042Y002696D01*
X014041Y002700D01*
X014092Y002726D01*
X014141Y002755D01*
X014189Y002786D01*
X014235Y002820D01*
X013141Y004599D02*
X013160Y004559D01*
X013104Y004530D01*
X013050Y004499D01*
X012998Y004463D01*
X012949Y004425D01*
X012901Y004384D01*
X012857Y004340D01*
X012815Y004293D01*
X012776Y004244D01*
X012740Y004193D01*
X012707Y004139D01*
X012678Y004084D01*
X012652Y004027D01*
X012629Y003968D01*
X012610Y003909D01*
X012595Y003848D01*
X012584Y003786D01*
X012576Y003724D01*
X012572Y003661D01*
X012572Y003599D01*
X012576Y003536D01*
X012584Y003474D01*
X012595Y003412D01*
X012610Y003351D01*
X012629Y003292D01*
X012652Y003233D01*
X012678Y003176D01*
X012707Y003121D01*
X012740Y003067D01*
X012776Y003016D01*
X012815Y002967D01*
X012857Y002920D01*
X012901Y002876D01*
X012949Y002835D01*
X012998Y002797D01*
X013050Y002761D01*
X013104Y002730D01*
X013160Y002701D01*
X013141Y002661D01*
X013141Y002660D01*
X013082Y002690D01*
X013026Y002723D01*
X012972Y002760D01*
X012920Y002800D01*
X012871Y002843D01*
X012824Y002889D01*
X012780Y002938D01*
X012740Y002989D01*
X012702Y003042D01*
X012668Y003098D01*
X012637Y003156D01*
X012610Y003216D01*
X012587Y003277D01*
X012567Y003339D01*
X012551Y003403D01*
X012539Y003467D01*
X012531Y003532D01*
X012527Y003597D01*
X012527Y003663D01*
X012531Y003728D01*
X012539Y003793D01*
X012551Y003857D01*
X012567Y003921D01*
X012587Y003983D01*
X012610Y004044D01*
X012637Y004104D01*
X012668Y004162D01*
X012702Y004218D01*
X012740Y004271D01*
X012780Y004322D01*
X012824Y004371D01*
X012871Y004417D01*
X012920Y004460D01*
X012972Y004500D01*
X013026Y004537D01*
X013082Y004570D01*
X013141Y004600D01*
X013142Y004596D01*
X013084Y004566D01*
X013028Y004533D01*
X012974Y004497D01*
X012923Y004457D01*
X012873Y004414D01*
X012827Y004368D01*
X012783Y004320D01*
X012743Y004269D01*
X012706Y004215D01*
X012672Y004160D01*
X012641Y004102D01*
X012614Y004043D01*
X012591Y003982D01*
X012571Y003920D01*
X012555Y003856D01*
X012543Y003792D01*
X012535Y003728D01*
X012531Y003663D01*
X012531Y003597D01*
X012535Y003532D01*
X012543Y003468D01*
X012555Y003404D01*
X012571Y003340D01*
X012591Y003278D01*
X012614Y003217D01*
X012641Y003158D01*
X012672Y003100D01*
X012706Y003045D01*
X012743Y002991D01*
X012783Y002940D01*
X012827Y002892D01*
X012873Y002846D01*
X012923Y002803D01*
X012974Y002763D01*
X013028Y002727D01*
X013084Y002694D01*
X013142Y002664D01*
X013144Y002667D01*
X013086Y002697D01*
X013030Y002730D01*
X012977Y002767D01*
X012925Y002806D01*
X012876Y002849D01*
X012830Y002894D01*
X012786Y002943D01*
X012746Y002994D01*
X012709Y003047D01*
X012675Y003102D01*
X012645Y003160D01*
X012618Y003219D01*
X012594Y003279D01*
X012575Y003341D01*
X012559Y003404D01*
X012547Y003468D01*
X012539Y003533D01*
X012535Y003598D01*
X012535Y003662D01*
X012539Y003727D01*
X012547Y003792D01*
X012559Y003856D01*
X012575Y003919D01*
X012594Y003981D01*
X012618Y004041D01*
X012645Y004100D01*
X012675Y004158D01*
X012709Y004213D01*
X012746Y004266D01*
X012786Y004317D01*
X012830Y004366D01*
X012876Y004411D01*
X012925Y004454D01*
X012977Y004493D01*
X013030Y004530D01*
X013086Y004563D01*
X013144Y004593D01*
X013146Y004589D01*
X013088Y004559D01*
X013033Y004526D01*
X012979Y004490D01*
X012928Y004451D01*
X012879Y004408D01*
X012833Y004363D01*
X012790Y004315D01*
X012749Y004264D01*
X012712Y004211D01*
X012678Y004156D01*
X012648Y004099D01*
X012621Y004040D01*
X012598Y003979D01*
X012579Y003918D01*
X012563Y003855D01*
X012551Y003791D01*
X012543Y003727D01*
X012539Y003662D01*
X012539Y003598D01*
X012543Y003533D01*
X012551Y003469D01*
X012563Y003405D01*
X012579Y003342D01*
X012598Y003281D01*
X012621Y003220D01*
X012648Y003161D01*
X012678Y003104D01*
X012712Y003049D01*
X012749Y002996D01*
X012790Y002945D01*
X012833Y002897D01*
X012879Y002852D01*
X012928Y002809D01*
X012979Y002770D01*
X013033Y002734D01*
X013088Y002701D01*
X013146Y002671D01*
X013148Y002675D01*
X013090Y002704D01*
X013035Y002737D01*
X012981Y002773D01*
X012930Y002812D01*
X012882Y002855D01*
X012836Y002900D01*
X012793Y002948D01*
X012752Y002998D01*
X012716Y003051D01*
X012682Y003106D01*
X012652Y003163D01*
X012625Y003222D01*
X012602Y003282D01*
X012583Y003343D01*
X012567Y003406D01*
X012555Y003469D01*
X012547Y003533D01*
X012543Y003598D01*
X012543Y003662D01*
X012547Y003727D01*
X012555Y003791D01*
X012567Y003854D01*
X012583Y003917D01*
X012602Y003978D01*
X012625Y004038D01*
X012652Y004097D01*
X012682Y004154D01*
X012716Y004209D01*
X012752Y004262D01*
X012793Y004312D01*
X012836Y004360D01*
X012882Y004405D01*
X012930Y004448D01*
X012981Y004487D01*
X013035Y004523D01*
X013090Y004556D01*
X013148Y004585D01*
X013149Y004582D01*
X013092Y004552D01*
X013037Y004520D01*
X012984Y004484D01*
X012933Y004445D01*
X012884Y004402D01*
X012839Y004357D01*
X012796Y004310D01*
X012756Y004259D01*
X012719Y004207D01*
X012685Y004152D01*
X012655Y004095D01*
X012629Y004037D01*
X012606Y003977D01*
X012586Y003915D01*
X012571Y003853D01*
X012559Y003790D01*
X012551Y003726D01*
X012547Y003662D01*
X012547Y003598D01*
X012551Y003534D01*
X012559Y003470D01*
X012571Y003407D01*
X012586Y003345D01*
X012606Y003283D01*
X012629Y003223D01*
X012655Y003165D01*
X012685Y003108D01*
X012719Y003053D01*
X012756Y003001D01*
X012796Y002950D01*
X012839Y002903D01*
X012884Y002858D01*
X012933Y002815D01*
X012984Y002776D01*
X013037Y002740D01*
X013092Y002708D01*
X013149Y002678D01*
X013151Y002682D01*
X013094Y002711D01*
X013039Y002744D01*
X012986Y002780D01*
X012935Y002819D01*
X012887Y002861D01*
X012841Y002905D01*
X012799Y002953D01*
X012759Y003003D01*
X012722Y003056D01*
X012689Y003110D01*
X012659Y003167D01*
X012632Y003225D01*
X012609Y003285D01*
X012590Y003346D01*
X012575Y003408D01*
X012563Y003471D01*
X012555Y003534D01*
X012551Y003598D01*
X012551Y003662D01*
X012555Y003726D01*
X012563Y003789D01*
X012575Y003852D01*
X012590Y003914D01*
X012609Y003975D01*
X012632Y004035D01*
X012659Y004093D01*
X012689Y004150D01*
X012722Y004204D01*
X012759Y004257D01*
X012799Y004307D01*
X012841Y004355D01*
X012887Y004399D01*
X012935Y004441D01*
X012986Y004480D01*
X013039Y004516D01*
X013094Y004549D01*
X013151Y004578D01*
X013153Y004574D01*
X013096Y004545D01*
X013041Y004513D01*
X012988Y004477D01*
X012938Y004438D01*
X012890Y004397D01*
X012844Y004352D01*
X012802Y004304D01*
X012762Y004254D01*
X012726Y004202D01*
X012692Y004148D01*
X012662Y004092D01*
X012636Y004034D01*
X012613Y003974D01*
X012594Y003913D01*
X012579Y003851D01*
X012567Y003789D01*
X012559Y003725D01*
X012555Y003662D01*
X012555Y003598D01*
X012559Y003535D01*
X012567Y003471D01*
X012579Y003409D01*
X012594Y003347D01*
X012613Y003286D01*
X012636Y003226D01*
X012662Y003168D01*
X012692Y003112D01*
X012726Y003058D01*
X012762Y003006D01*
X012802Y002956D01*
X012844Y002908D01*
X012890Y002863D01*
X012938Y002822D01*
X012988Y002783D01*
X013041Y002747D01*
X013096Y002715D01*
X013153Y002686D01*
X013154Y002689D01*
X013098Y002718D01*
X013043Y002750D01*
X012991Y002786D01*
X012940Y002825D01*
X012892Y002866D01*
X012847Y002911D01*
X012805Y002958D01*
X012765Y003008D01*
X012729Y003060D01*
X012696Y003114D01*
X012666Y003170D01*
X012640Y003228D01*
X012617Y003287D01*
X012598Y003348D01*
X012583Y003409D01*
X012571Y003472D01*
X012563Y003535D01*
X012559Y003598D01*
X012559Y003662D01*
X012563Y003725D01*
X012571Y003788D01*
X012583Y003851D01*
X012598Y003912D01*
X012617Y003973D01*
X012640Y004032D01*
X012666Y004090D01*
X012696Y004146D01*
X012729Y004200D01*
X012765Y004252D01*
X012805Y004302D01*
X012847Y004349D01*
X012892Y004394D01*
X012940Y004435D01*
X012991Y004474D01*
X013043Y004510D01*
X013098Y004542D01*
X013154Y004571D01*
X013156Y004567D01*
X013100Y004538D01*
X013045Y004506D01*
X012993Y004471D01*
X012943Y004432D01*
X012895Y004391D01*
X012850Y004346D01*
X012808Y004299D01*
X012769Y004250D01*
X012732Y004198D01*
X012699Y004144D01*
X012670Y004088D01*
X012643Y004030D01*
X012621Y003971D01*
X012602Y003911D01*
X012587Y003850D01*
X012575Y003788D01*
X012567Y003725D01*
X012563Y003662D01*
X012563Y003598D01*
X012567Y003535D01*
X012575Y003472D01*
X012587Y003410D01*
X012602Y003349D01*
X012621Y003289D01*
X012643Y003230D01*
X012670Y003172D01*
X012699Y003116D01*
X012732Y003062D01*
X012769Y003010D01*
X012808Y002961D01*
X012850Y002914D01*
X012895Y002869D01*
X012943Y002828D01*
X012993Y002789D01*
X013045Y002754D01*
X013100Y002722D01*
X013156Y002693D01*
X013158Y002696D01*
X013102Y002725D01*
X013047Y002757D01*
X012995Y002793D01*
X012945Y002831D01*
X012898Y002872D01*
X012853Y002917D01*
X012811Y002963D01*
X012772Y003013D01*
X012736Y003064D01*
X012703Y003118D01*
X012673Y003174D01*
X012647Y003231D01*
X012625Y003290D01*
X012606Y003350D01*
X012590Y003411D01*
X012579Y003473D01*
X012571Y003536D01*
X012567Y003599D01*
X012567Y003661D01*
X012571Y003724D01*
X012579Y003787D01*
X012590Y003849D01*
X012606Y003910D01*
X012625Y003970D01*
X012647Y004029D01*
X012673Y004086D01*
X012703Y004142D01*
X012736Y004196D01*
X012772Y004247D01*
X012811Y004297D01*
X012853Y004343D01*
X012898Y004388D01*
X012945Y004429D01*
X012995Y004467D01*
X013047Y004503D01*
X013102Y004535D01*
X013158Y004564D01*
X013159Y004560D01*
X013104Y004531D01*
X013050Y004499D01*
X012998Y004464D01*
X012948Y004426D01*
X012901Y004385D01*
X012856Y004341D01*
X012814Y004294D01*
X012775Y004245D01*
X012739Y004193D01*
X012706Y004140D01*
X012677Y004084D01*
X012651Y004027D01*
X012628Y003969D01*
X012610Y003909D01*
X012594Y003848D01*
X012583Y003786D01*
X012575Y003724D01*
X012571Y003661D01*
X012571Y003599D01*
X012575Y003536D01*
X012583Y003474D01*
X012594Y003412D01*
X012610Y003351D01*
X012628Y003291D01*
X012651Y003233D01*
X012677Y003176D01*
X012706Y003120D01*
X012739Y003067D01*
X012775Y003015D01*
X012814Y002966D01*
X012856Y002919D01*
X012901Y002875D01*
X012948Y002834D01*
X012998Y002796D01*
X013050Y002761D01*
X013104Y002729D01*
X013159Y002700D01*
X014262Y004474D02*
X014234Y004438D01*
X014234Y004439D02*
X014186Y004474D01*
X014136Y004507D01*
X014084Y004537D01*
X014031Y004563D01*
X014049Y004604D01*
X014050Y004604D01*
X014106Y004576D01*
X014160Y004545D01*
X014212Y004511D01*
X014262Y004474D01*
X014260Y004471D01*
X014210Y004508D01*
X014158Y004542D01*
X014104Y004573D01*
X014048Y004601D01*
X014046Y004597D01*
X014102Y004569D01*
X014156Y004539D01*
X014207Y004505D01*
X014257Y004468D01*
X014255Y004465D01*
X014205Y004501D01*
X014153Y004535D01*
X014100Y004566D01*
X014045Y004593D01*
X014043Y004590D01*
X014098Y004562D01*
X014151Y004532D01*
X014203Y004498D01*
X014252Y004462D01*
X014250Y004458D01*
X014201Y004495D01*
X014149Y004528D01*
X014096Y004559D01*
X014041Y004586D01*
X014040Y004582D01*
X014094Y004555D01*
X014147Y004525D01*
X014198Y004492D01*
X014247Y004455D01*
X014245Y004452D01*
X014196Y004488D01*
X014145Y004522D01*
X014092Y004552D01*
X014038Y004579D01*
X014036Y004575D01*
X014090Y004548D01*
X014143Y004518D01*
X014194Y004485D01*
X014242Y004449D01*
X014240Y004446D01*
X014191Y004482D01*
X014141Y004515D01*
X014089Y004545D01*
X014035Y004572D01*
X014033Y004568D01*
X014087Y004541D01*
X014139Y004511D01*
X014189Y004478D01*
X014238Y004443D01*
X014235Y004440D01*
X014187Y004475D01*
X014137Y004508D01*
X014085Y004538D01*
X014031Y004564D01*
X012262Y004474D02*
X012234Y004438D01*
X012234Y004439D02*
X012186Y004474D01*
X012136Y004507D01*
X012084Y004537D01*
X012031Y004563D01*
X012049Y004604D01*
X012050Y004604D01*
X012106Y004576D01*
X012160Y004545D01*
X012212Y004511D01*
X012262Y004474D01*
X012260Y004471D01*
X012210Y004508D01*
X012158Y004542D01*
X012104Y004573D01*
X012048Y004601D01*
X012046Y004597D01*
X012102Y004569D01*
X012156Y004539D01*
X012207Y004505D01*
X012257Y004468D01*
X012255Y004465D01*
X012205Y004501D01*
X012153Y004535D01*
X012100Y004566D01*
X012045Y004593D01*
X012043Y004590D01*
X012098Y004562D01*
X012151Y004532D01*
X012203Y004498D01*
X012252Y004462D01*
X012250Y004458D01*
X012201Y004495D01*
X012149Y004528D01*
X012096Y004559D01*
X012041Y004586D01*
X012040Y004582D01*
X012094Y004555D01*
X012147Y004525D01*
X012198Y004492D01*
X012247Y004455D01*
X012245Y004452D01*
X012196Y004488D01*
X012145Y004522D01*
X012092Y004552D01*
X012038Y004579D01*
X012036Y004575D01*
X012090Y004548D01*
X012143Y004518D01*
X012194Y004485D01*
X012242Y004449D01*
X012240Y004446D01*
X012191Y004482D01*
X012141Y004515D01*
X012089Y004545D01*
X012035Y004572D01*
X012033Y004568D01*
X012087Y004541D01*
X012139Y004511D01*
X012189Y004478D01*
X012238Y004443D01*
X012235Y004440D01*
X012187Y004475D01*
X012137Y004508D01*
X012085Y004538D01*
X012031Y004564D01*
X011141Y004599D02*
X011160Y004559D01*
X011104Y004530D01*
X011050Y004499D01*
X010998Y004463D01*
X010949Y004425D01*
X010901Y004384D01*
X010857Y004340D01*
X010815Y004293D01*
X010776Y004244D01*
X010740Y004193D01*
X010707Y004139D01*
X010678Y004084D01*
X010652Y004027D01*
X010629Y003968D01*
X010610Y003909D01*
X010595Y003848D01*
X010584Y003786D01*
X010576Y003724D01*
X010572Y003661D01*
X010572Y003599D01*
X010576Y003536D01*
X010584Y003474D01*
X010595Y003412D01*
X010610Y003351D01*
X010629Y003292D01*
X010652Y003233D01*
X010678Y003176D01*
X010707Y003121D01*
X010740Y003067D01*
X010776Y003016D01*
X010815Y002967D01*
X010857Y002920D01*
X010901Y002876D01*
X010949Y002835D01*
X010998Y002797D01*
X011050Y002761D01*
X011104Y002730D01*
X011160Y002701D01*
X011141Y002661D01*
X011141Y002660D01*
X011082Y002690D01*
X011026Y002723D01*
X010972Y002760D01*
X010920Y002800D01*
X010871Y002843D01*
X010824Y002889D01*
X010780Y002938D01*
X010740Y002989D01*
X010702Y003042D01*
X010668Y003098D01*
X010637Y003156D01*
X010610Y003216D01*
X010587Y003277D01*
X010567Y003339D01*
X010551Y003403D01*
X010539Y003467D01*
X010531Y003532D01*
X010527Y003597D01*
X010527Y003663D01*
X010531Y003728D01*
X010539Y003793D01*
X010551Y003857D01*
X010567Y003921D01*
X010587Y003983D01*
X010610Y004044D01*
X010637Y004104D01*
X010668Y004162D01*
X010702Y004218D01*
X010740Y004271D01*
X010780Y004322D01*
X010824Y004371D01*
X010871Y004417D01*
X010920Y004460D01*
X010972Y004500D01*
X011026Y004537D01*
X011082Y004570D01*
X011141Y004600D01*
X011142Y004596D01*
X011084Y004566D01*
X011028Y004533D01*
X010974Y004497D01*
X010923Y004457D01*
X010873Y004414D01*
X010827Y004368D01*
X010783Y004320D01*
X010743Y004269D01*
X010706Y004215D01*
X010672Y004160D01*
X010641Y004102D01*
X010614Y004043D01*
X010591Y003982D01*
X010571Y003920D01*
X010555Y003856D01*
X010543Y003792D01*
X010535Y003728D01*
X010531Y003663D01*
X010531Y003597D01*
X010535Y003532D01*
X010543Y003468D01*
X010555Y003404D01*
X010571Y003340D01*
X010591Y003278D01*
X010614Y003217D01*
X010641Y003158D01*
X010672Y003100D01*
X010706Y003045D01*
X010743Y002991D01*
X010783Y002940D01*
X010827Y002892D01*
X010873Y002846D01*
X010923Y002803D01*
X010974Y002763D01*
X011028Y002727D01*
X011084Y002694D01*
X011142Y002664D01*
X011144Y002667D01*
X011086Y002697D01*
X011030Y002730D01*
X010977Y002767D01*
X010925Y002806D01*
X010876Y002849D01*
X010830Y002894D01*
X010786Y002943D01*
X010746Y002994D01*
X010709Y003047D01*
X010675Y003102D01*
X010645Y003160D01*
X010618Y003219D01*
X010594Y003279D01*
X010575Y003341D01*
X010559Y003404D01*
X010547Y003468D01*
X010539Y003533D01*
X010535Y003598D01*
X010535Y003662D01*
X010539Y003727D01*
X010547Y003792D01*
X010559Y003856D01*
X010575Y003919D01*
X010594Y003981D01*
X010618Y004041D01*
X010645Y004100D01*
X010675Y004158D01*
X010709Y004213D01*
X010746Y004266D01*
X010786Y004317D01*
X010830Y004366D01*
X010876Y004411D01*
X010925Y004454D01*
X010977Y004493D01*
X011030Y004530D01*
X011086Y004563D01*
X011144Y004593D01*
X011146Y004589D01*
X011088Y004559D01*
X011033Y004526D01*
X010979Y004490D01*
X010928Y004451D01*
X010879Y004408D01*
X010833Y004363D01*
X010790Y004315D01*
X010749Y004264D01*
X010712Y004211D01*
X010678Y004156D01*
X010648Y004099D01*
X010621Y004040D01*
X010598Y003979D01*
X010579Y003918D01*
X010563Y003855D01*
X010551Y003791D01*
X010543Y003727D01*
X010539Y003662D01*
X010539Y003598D01*
X010543Y003533D01*
X010551Y003469D01*
X010563Y003405D01*
X010579Y003342D01*
X010598Y003281D01*
X010621Y003220D01*
X010648Y003161D01*
X010678Y003104D01*
X010712Y003049D01*
X010749Y002996D01*
X010790Y002945D01*
X010833Y002897D01*
X010879Y002852D01*
X010928Y002809D01*
X010979Y002770D01*
X011033Y002734D01*
X011088Y002701D01*
X011146Y002671D01*
X011148Y002675D01*
X011090Y002704D01*
X011035Y002737D01*
X010981Y002773D01*
X010930Y002812D01*
X010882Y002855D01*
X010836Y002900D01*
X010793Y002948D01*
X010752Y002998D01*
X010716Y003051D01*
X010682Y003106D01*
X010652Y003163D01*
X010625Y003222D01*
X010602Y003282D01*
X010583Y003343D01*
X010567Y003406D01*
X010555Y003469D01*
X010547Y003533D01*
X010543Y003598D01*
X010543Y003662D01*
X010547Y003727D01*
X010555Y003791D01*
X010567Y003854D01*
X010583Y003917D01*
X010602Y003978D01*
X010625Y004038D01*
X010652Y004097D01*
X010682Y004154D01*
X010716Y004209D01*
X010752Y004262D01*
X010793Y004312D01*
X010836Y004360D01*
X010882Y004405D01*
X010930Y004448D01*
X010981Y004487D01*
X011035Y004523D01*
X011090Y004556D01*
X011148Y004585D01*
X011149Y004582D01*
X011092Y004552D01*
X011037Y004520D01*
X010984Y004484D01*
X010933Y004445D01*
X010884Y004402D01*
X010839Y004357D01*
X010796Y004310D01*
X010756Y004259D01*
X010719Y004207D01*
X010685Y004152D01*
X010655Y004095D01*
X010629Y004037D01*
X010606Y003977D01*
X010586Y003915D01*
X010571Y003853D01*
X010559Y003790D01*
X010551Y003726D01*
X010547Y003662D01*
X010547Y003598D01*
X010551Y003534D01*
X010559Y003470D01*
X010571Y003407D01*
X010586Y003345D01*
X010606Y003283D01*
X010629Y003223D01*
X010655Y003165D01*
X010685Y003108D01*
X010719Y003053D01*
X010756Y003001D01*
X010796Y002950D01*
X010839Y002903D01*
X010884Y002858D01*
X010933Y002815D01*
X010984Y002776D01*
X011037Y002740D01*
X011092Y002708D01*
X011149Y002678D01*
X011151Y002682D01*
X011094Y002711D01*
X011039Y002744D01*
X010986Y002780D01*
X010935Y002819D01*
X010887Y002861D01*
X010841Y002905D01*
X010799Y002953D01*
X010759Y003003D01*
X010722Y003056D01*
X010689Y003110D01*
X010659Y003167D01*
X010632Y003225D01*
X010609Y003285D01*
X010590Y003346D01*
X010575Y003408D01*
X010563Y003471D01*
X010555Y003534D01*
X010551Y003598D01*
X010551Y003662D01*
X010555Y003726D01*
X010563Y003789D01*
X010575Y003852D01*
X010590Y003914D01*
X010609Y003975D01*
X010632Y004035D01*
X010659Y004093D01*
X010689Y004150D01*
X010722Y004204D01*
X010759Y004257D01*
X010799Y004307D01*
X010841Y004355D01*
X010887Y004399D01*
X010935Y004441D01*
X010986Y004480D01*
X011039Y004516D01*
X011094Y004549D01*
X011151Y004578D01*
X011153Y004574D01*
X011096Y004545D01*
X011041Y004513D01*
X010988Y004477D01*
X010938Y004438D01*
X010890Y004397D01*
X010844Y004352D01*
X010802Y004304D01*
X010762Y004254D01*
X010726Y004202D01*
X010692Y004148D01*
X010662Y004092D01*
X010636Y004034D01*
X010613Y003974D01*
X010594Y003913D01*
X010579Y003851D01*
X010567Y003789D01*
X010559Y003725D01*
X010555Y003662D01*
X010555Y003598D01*
X010559Y003535D01*
X010567Y003471D01*
X010579Y003409D01*
X010594Y003347D01*
X010613Y003286D01*
X010636Y003226D01*
X010662Y003168D01*
X010692Y003112D01*
X010726Y003058D01*
X010762Y003006D01*
X010802Y002956D01*
X010844Y002908D01*
X010890Y002863D01*
X010938Y002822D01*
X010988Y002783D01*
X011041Y002747D01*
X011096Y002715D01*
X011153Y002686D01*
X011154Y002689D01*
X011098Y002718D01*
X011043Y002750D01*
X010991Y002786D01*
X010940Y002825D01*
X010892Y002866D01*
X010847Y002911D01*
X010805Y002958D01*
X010765Y003008D01*
X010729Y003060D01*
X010696Y003114D01*
X010666Y003170D01*
X010640Y003228D01*
X010617Y003287D01*
X010598Y003348D01*
X010583Y003409D01*
X010571Y003472D01*
X010563Y003535D01*
X010559Y003598D01*
X010559Y003662D01*
X010563Y003725D01*
X010571Y003788D01*
X010583Y003851D01*
X010598Y003912D01*
X010617Y003973D01*
X010640Y004032D01*
X010666Y004090D01*
X010696Y004146D01*
X010729Y004200D01*
X010765Y004252D01*
X010805Y004302D01*
X010847Y004349D01*
X010892Y004394D01*
X010940Y004435D01*
X010991Y004474D01*
X011043Y004510D01*
X011098Y004542D01*
X011154Y004571D01*
X011156Y004567D01*
X011100Y004538D01*
X011045Y004506D01*
X010993Y004471D01*
X010943Y004432D01*
X010895Y004391D01*
X010850Y004346D01*
X010808Y004299D01*
X010769Y004250D01*
X010732Y004198D01*
X010699Y004144D01*
X010670Y004088D01*
X010643Y004030D01*
X010621Y003971D01*
X010602Y003911D01*
X010587Y003850D01*
X010575Y003788D01*
X010567Y003725D01*
X010563Y003662D01*
X010563Y003598D01*
X010567Y003535D01*
X010575Y003472D01*
X010587Y003410D01*
X010602Y003349D01*
X010621Y003289D01*
X010643Y003230D01*
X010670Y003172D01*
X010699Y003116D01*
X010732Y003062D01*
X010769Y003010D01*
X010808Y002961D01*
X010850Y002914D01*
X010895Y002869D01*
X010943Y002828D01*
X010993Y002789D01*
X011045Y002754D01*
X011100Y002722D01*
X011156Y002693D01*
X011158Y002696D01*
X011102Y002725D01*
X011047Y002757D01*
X010995Y002793D01*
X010945Y002831D01*
X010898Y002872D01*
X010853Y002917D01*
X010811Y002963D01*
X010772Y003013D01*
X010736Y003064D01*
X010703Y003118D01*
X010673Y003174D01*
X010647Y003231D01*
X010625Y003290D01*
X010606Y003350D01*
X010590Y003411D01*
X010579Y003473D01*
X010571Y003536D01*
X010567Y003599D01*
X010567Y003661D01*
X010571Y003724D01*
X010579Y003787D01*
X010590Y003849D01*
X010606Y003910D01*
X010625Y003970D01*
X010647Y004029D01*
X010673Y004086D01*
X010703Y004142D01*
X010736Y004196D01*
X010772Y004247D01*
X010811Y004297D01*
X010853Y004343D01*
X010898Y004388D01*
X010945Y004429D01*
X010995Y004467D01*
X011047Y004503D01*
X011102Y004535D01*
X011158Y004564D01*
X011159Y004560D01*
X011104Y004531D01*
X011050Y004499D01*
X010998Y004464D01*
X010948Y004426D01*
X010901Y004385D01*
X010856Y004341D01*
X010814Y004294D01*
X010775Y004245D01*
X010739Y004193D01*
X010706Y004140D01*
X010677Y004084D01*
X010651Y004027D01*
X010628Y003969D01*
X010610Y003909D01*
X010594Y003848D01*
X010583Y003786D01*
X010575Y003724D01*
X010571Y003661D01*
X010571Y003599D01*
X010575Y003536D01*
X010583Y003474D01*
X010594Y003412D01*
X010610Y003351D01*
X010628Y003291D01*
X010651Y003233D01*
X010677Y003176D01*
X010706Y003120D01*
X010739Y003067D01*
X010775Y003015D01*
X010814Y002966D01*
X010856Y002919D01*
X010901Y002875D01*
X010948Y002834D01*
X010998Y002796D01*
X011050Y002761D01*
X011104Y002729D01*
X011159Y002700D01*
X012059Y002661D02*
X012040Y002701D01*
X012091Y002727D01*
X012141Y002756D01*
X012188Y002787D01*
X012234Y002821D01*
X012262Y002786D01*
X012214Y002750D01*
X012164Y002717D01*
X012113Y002687D01*
X012059Y002660D01*
X012058Y002664D01*
X012111Y002691D01*
X012162Y002721D01*
X012212Y002753D01*
X012260Y002789D01*
X012257Y002792D01*
X012210Y002757D01*
X012160Y002724D01*
X012109Y002694D01*
X012056Y002668D01*
X012054Y002671D01*
X012107Y002698D01*
X012158Y002728D01*
X012207Y002760D01*
X012255Y002795D01*
X012252Y002798D01*
X012205Y002763D01*
X012156Y002731D01*
X012105Y002701D01*
X012052Y002675D01*
X012051Y002678D01*
X012103Y002705D01*
X012154Y002734D01*
X012203Y002767D01*
X012250Y002802D01*
X012247Y002805D01*
X012200Y002770D01*
X012152Y002738D01*
X012101Y002708D01*
X012049Y002682D01*
X012047Y002686D01*
X012099Y002712D01*
X012150Y002741D01*
X012198Y002773D01*
X012245Y002808D01*
X012242Y002811D01*
X012196Y002776D01*
X012147Y002745D01*
X012097Y002715D01*
X012046Y002689D01*
X012044Y002693D01*
X012095Y002719D01*
X012145Y002748D01*
X012194Y002780D01*
X012240Y002814D01*
X012238Y002817D01*
X012191Y002783D01*
X012143Y002751D01*
X012094Y002723D01*
X012042Y002696D01*
X012041Y002700D01*
X012092Y002726D01*
X012141Y002755D01*
X012189Y002786D01*
X012235Y002820D01*
M02*
